<svg width="50" height="52" viewBox="0 0 50 52" fill="none" xmlns="http://www.w3.org/2000/svg">
<g clip-path="url(#clip0_408_2)">
<path d="M24.7984 0H25.1889C27.1054 1.10031 29.0151 2.21233 30.9433 3.29018C31.4188 3.55671 31.6023 3.89061 31.5955 4.42368C31.575 6.18105 31.5955 7.93841 31.5828 9.69578C31.5828 9.96427 31.6404 10.1341 31.8884 10.2865C33.4271 11.2286 34.953 12.1922 36.4849 13.1461C36.5889 13.2004 36.6965 13.2473 36.8071 13.2867C36.8071 12.9108 36.8324 12.5827 36.8012 12.2615C36.7495 11.7197 36.974 11.3907 37.4465 11.1271C39.2498 10.1224 41.0394 9.09339 42.8231 8.05459C43.2136 7.82418 43.5534 7.80661 43.9547 8.04093C45.7771 9.10381 47.6103 10.1543 49.4542 11.1925C49.8379 11.4102 49.999 11.6962 49.9951 12.1395C49.9795 13.9125 49.9688 15.6864 49.9951 17.4604C50.0049 18.0306 49.7842 18.3547 49.2961 18.6125C47.7018 19.455 46.1279 20.3376 44.5336 21.1811C44.2202 21.3471 44.0952 21.5258 44.0982 21.887C44.1151 24.279 44.1151 26.671 44.0982 29.0629C44.0982 29.4007 44.2046 29.5833 44.4965 29.7464C46.1289 30.6573 47.7447 31.5965 49.3781 32.5074C49.8106 32.7485 50 33.0541 49.9932 33.5598C49.9707 35.366 49.9775 37.1722 49.9932 38.9784C49.9932 39.4001 49.8448 39.6716 49.466 39.8756C47.6357 40.863 45.8113 41.8618 43.9927 42.8719C43.5778 43.1033 43.2185 43.1033 42.8046 42.8719C41.3401 42.0547 39.8678 41.2649 38.4053 40.4516C38.1602 40.315 37.9845 40.3169 37.7453 40.477C35.8015 41.7814 33.84 43.0633 31.9021 44.3745C31.8149 44.4467 31.7433 44.5358 31.6916 44.6365C31.6399 44.7372 31.6092 44.8473 31.6014 44.9603C31.5662 45.7228 31.574 46.4892 31.5916 47.2536C31.6013 47.7105 31.4373 48.0161 31.0175 48.2299C30.2794 48.6048 29.5579 49.011 28.8335 49.4171C27.617 50.0908 26.4022 50.769 25.1889 51.4518H24.7984C24.6676 51.3639 24.5436 51.2653 24.4079 51.1901C22.6007 50.1992 20.7955 49.2023 18.9796 48.2299C18.5666 48.0083 18.3938 47.7203 18.4065 47.2605C18.426 46.5136 18.3947 45.7647 18.4182 45.0149C18.4289 44.6976 18.3205 44.518 18.055 44.3462C16.1297 43.0776 14.2119 41.798 12.3016 40.5073C12.0087 40.312 11.8075 40.3247 11.5205 40.4868C10.1049 41.2796 8.67065 42.0391 7.25695 42.8368C6.79613 43.0965 6.40072 43.0984 5.93795 42.8368C4.16789 41.8458 2.38123 40.8841 0.607264 39.901C0.387593 39.7799 0.205024 39.5925 0.00487968 39.4363V32.9994C0.246029 32.8149 0.470583 32.6021 0.732235 32.4517C2.32168 31.534 3.91632 30.627 5.51618 29.7307C5.79931 29.5735 5.89011 29.3988 5.88815 29.0815C5.87448 26.6732 5.87448 24.2669 5.88815 21.8626C5.88815 21.5121 5.75732 21.3481 5.47126 21.1958C3.88182 20.3464 2.29792 19.4856 0.719543 18.6134C0.458867 18.4689 0.239197 18.2473 0.000976562 18.0618V11.6181C0.136964 11.4846 0.284291 11.363 0.441295 11.255C2.34023 10.1615 4.23818 9.06313 6.15664 8.00383C6.28968 7.94173 6.43444 7.90874 6.58126 7.90706C6.72807 7.90537 6.87356 7.93504 7.00799 7.99406C8.92742 9.05239 10.8234 10.1527 12.7272 11.2393C12.88 11.3176 13.0054 11.4402 13.0872 11.5911C13.1689 11.742 13.203 11.9141 13.1851 12.0848C13.1676 12.4753 13.1851 12.8717 13.1851 13.354C14.9337 12.2615 16.5886 11.2364 18.2268 10.1859C18.345 10.1107 18.3977 9.85785 18.3986 9.68602C18.4104 7.91401 18.4172 6.14199 18.3986 4.36998C18.3928 3.87109 18.5763 3.5616 19.0127 3.31556C20.9459 2.22209 22.8692 1.10714 24.7984 0ZM7.30381 25.433C7.30381 26.6524 7.3165 27.8738 7.29502 29.0932C7.29014 29.4183 7.40437 29.5814 7.67872 29.7366C9.13928 30.5541 10.592 31.3849 12.037 32.2291C12.3152 32.3922 12.4998 32.3941 12.7682 32.2018C14.5256 30.9414 16.3015 29.7093 18.055 28.4439C18.1495 28.3692 18.2278 28.276 18.2854 28.1701C18.3429 28.0643 18.3785 27.9479 18.3899 27.8279C18.4191 26.381 18.3967 24.9321 18.4123 23.4852C18.4123 23.1845 18.3069 23.0176 18.0618 22.8594C16.1352 21.6176 14.2151 20.3662 12.3016 19.1055C12.0477 18.9385 11.8603 18.9337 11.5996 19.0791C10.2933 19.8065 8.9821 20.5241 7.65919 21.2192C7.36629 21.3745 7.29209 21.5619 7.29697 21.8704C7.31357 23.0576 7.30381 24.2448 7.30381 25.433ZM42.6864 25.4906C42.6864 24.2702 42.6767 23.0498 42.6933 21.8304C42.6981 21.5297 42.6025 21.3676 42.3359 21.2261C41.016 20.5257 39.7031 19.812 38.3975 19.085C38.1407 18.9425 37.9542 18.9298 37.6955 19.0996C35.7839 20.363 33.8638 21.614 31.9353 22.8526C31.6648 23.0254 31.5779 23.2158 31.5808 23.5253C31.5952 24.9572 31.5952 26.3891 31.5808 27.8211C31.5719 27.9481 31.5986 28.075 31.6579 28.1877C31.7173 28.3003 31.8069 28.3942 31.9167 28.4586C33.7034 29.7044 35.4832 30.9602 37.2562 32.2262C37.4836 32.3892 37.6467 32.4058 37.9025 32.2584C39.3748 31.3973 40.8555 30.5512 42.3447 29.72C42.6113 29.5716 42.6962 29.4007 42.6923 29.1059C42.6776 27.8982 42.6864 26.6944 42.6864 25.4906ZM31.5877 42.8251C31.6721 42.795 31.7543 42.7591 31.8337 42.7177C33.4192 41.6681 35.0077 40.6225 36.5825 39.5564C36.6491 39.4965 36.7027 39.4236 36.7398 39.3421C36.777 39.2606 36.7969 39.1724 36.7983 39.0828C36.8139 37.3919 36.7983 35.6999 36.8139 34.006C36.8243 33.8799 36.7988 33.7534 36.7404 33.6411C36.682 33.5289 36.5931 33.4354 36.4839 33.3714C34.707 32.1393 32.9383 30.8961 31.1776 29.6419C30.9336 29.4691 30.752 29.4398 30.4835 29.5901C29.0079 30.4128 27.5256 31.2232 26.0364 32.0212C25.7679 32.1647 25.682 32.3336 25.6849 32.6304C25.6986 34.1925 25.7044 35.7546 25.6849 37.3167C25.68 37.6906 25.7884 37.8976 26.1193 38.0821C27.7361 38.9852 29.3314 39.9274 30.9482 40.8295C31.3983 41.0804 31.6365 41.3918 31.5945 41.9151C31.5701 42.1992 31.5877 42.4863 31.5877 42.8251ZM18.3996 42.8807C18.4133 42.6157 18.4133 42.3501 18.3996 42.085C18.3264 41.4533 18.5871 41.0745 19.1524 40.767C20.7643 39.8883 22.342 38.9471 23.9363 38.0441C24.1892 37.9005 24.3093 37.7512 24.3054 37.4397C24.2897 35.8294 24.2897 34.2192 24.3054 32.6089C24.3054 32.3307 24.2272 32.1696 23.9754 32.0348C22.4731 31.2284 20.9761 30.4109 19.4843 29.5823C19.2588 29.4583 19.0938 29.4427 18.8712 29.6019C17.0699 30.8828 15.2588 32.1452 13.4556 33.431C13.3801 33.4932 13.3179 33.5701 13.273 33.657C13.228 33.744 13.2011 33.8391 13.1939 33.9367C13.1744 35.6609 13.1744 37.3857 13.1939 39.1112C13.2045 39.2071 13.2346 39.2999 13.2822 39.3838C13.3299 39.4678 13.3942 39.5411 13.4712 39.5993C14.1331 40.0709 14.8185 40.5083 15.4961 40.9574L18.3996 42.8807ZM24.2975 16.2957C24.2975 15.5146 24.2858 14.7336 24.3044 13.9525C24.3112 13.6879 24.2224 13.5473 23.992 13.4233C22.6066 12.6765 21.2329 11.9071 19.8416 11.169C19.7533 11.1329 19.6581 11.1163 19.5627 11.1206C19.4673 11.1248 19.3739 11.1496 19.289 11.1934C17.3364 12.3943 15.3965 13.6102 13.4692 14.841C13.3921 14.899 13.3278 14.9723 13.2803 15.0563C13.2328 15.1403 13.203 15.2331 13.1929 15.3291C13.1636 16.1102 13.1636 16.8912 13.1929 17.6723C13.2007 17.7685 13.2282 17.8621 13.2738 17.9473C13.3193 18.0324 13.3818 18.1073 13.4575 18.1673C15.2578 19.3584 17.0686 20.5342 18.8897 21.6947C18.9683 21.7337 19.0546 21.7545 19.1423 21.7557C19.23 21.7569 19.3169 21.7384 19.3964 21.7015C20.9397 20.8385 22.4744 19.9598 24.0007 19.0655C24.0825 19.0029 24.1501 18.9238 24.199 18.8333C24.248 18.7427 24.2772 18.6429 24.2848 18.5402C24.3171 17.7914 24.2985 17.0435 24.2975 16.2957ZM36.8071 16.7467C36.8071 16.1443 36.8354 15.7353 36.7944 15.334C36.7703 15.141 36.6705 14.9654 36.5171 14.8458C34.5872 13.615 32.6476 12.3992 30.6983 11.1983C30.6133 11.1545 30.5198 11.1298 30.4244 11.1261C30.3289 11.1224 30.2337 11.1397 30.1457 11.1768C28.7544 11.914 27.3817 12.6833 25.9954 13.4292C25.762 13.5552 25.6829 13.6987 25.6859 13.9613C25.6989 15.4889 25.6989 17.0165 25.6859 18.5441C25.6859 18.8302 25.7884 18.9786 26.0246 19.1123C27.537 19.9656 29.0512 20.8238 30.546 21.7015C30.8037 21.8528 30.9736 21.8079 31.1952 21.6625C32.6597 20.6998 34.1017 19.6923 35.615 18.8116C36.5386 18.2698 37.1214 17.683 36.8071 16.7467ZM20.608 41.5607C20.6536 41.6105 20.7036 41.6559 20.7574 41.6964C22.093 42.4355 23.4257 43.1795 24.773 43.898C24.9038 43.9683 25.1479 43.9322 25.2914 43.8561C26.5509 43.1814 27.8006 42.4892 29.0512 41.797C29.1567 41.7394 29.2514 41.6642 29.3939 41.5685C27.9607 40.7475 26.5831 39.9547 25.1958 39.1756C25.1349 39.1466 25.0685 39.1311 25.0011 39.13C24.9337 39.129 24.8669 39.1426 24.8052 39.1697C23.4189 39.9488 22.0403 40.7416 20.608 41.5607ZM2.14789 11.911C3.62798 12.7175 5.0163 13.4829 6.41829 14.2239C6.53545 14.2854 6.76 14.2239 6.89961 14.1497C7.66211 13.7524 8.41388 13.3326 9.16954 12.9215L11.0324 11.911C9.54543 11.0529 8.14637 10.2415 6.73657 9.44389C6.67977 9.42349 6.61925 9.41555 6.55911 9.42061C6.49897 9.42566 6.44062 9.44359 6.38803 9.47318C5.00459 10.2601 3.62798 11.0577 2.14789 11.911ZM38.8827 11.953C38.9775 11.9678 39.0707 11.9917 39.161 12.0243C40.5024 12.7526 41.839 13.4888 43.1892 14.2024C43.3201 14.2718 43.5632 14.2239 43.7116 14.1468C44.6186 13.6743 45.5138 13.1793 46.412 12.6892C46.8602 12.4441 47.3063 12.1951 47.8267 11.9081C46.3447 11.0529 44.9437 10.2406 43.5309 9.44291C43.4738 9.42375 43.4132 9.41706 43.3532 9.42329C43.2933 9.42952 43.2354 9.44853 43.1834 9.47904C41.8087 10.263 40.4321 11.0607 38.8866 11.952L38.8827 11.953ZM20.5553 4.05171C21.7679 4.71462 22.9532 5.29358 24.0632 5.99262C24.7466 6.4222 25.2651 6.40169 25.9378 5.98286C27.0498 5.2926 28.2282 4.71365 29.4349 4.05171C28.2057 3.34974 27.0078 2.72587 25.8782 1.99656C25.2289 1.57577 24.7437 1.58456 24.0974 2.0034C22.9717 2.73368 21.7718 3.35462 20.5553 4.05171ZM20.5553 22.6749C22.0091 23.4745 23.3866 24.237 24.772 24.9829C24.849 25.0127 24.9312 25.0264 25.0136 25.0232C25.0961 25.0201 25.177 25 25.2514 24.9644C25.8304 24.6715 26.3927 24.3464 26.9619 24.033L29.4291 22.6739C27.9646 21.8343 26.5724 21.0347 25.1752 20.2478C25.119 20.222 25.0579 20.2086 24.9961 20.2086C24.9343 20.2086 24.8731 20.222 24.8169 20.2478C23.4208 21.0318 22.0296 21.8314 20.5573 22.6749H20.5553ZM47.8316 33.264C46.3671 32.4293 44.9798 31.6267 43.5749 30.8476C43.4606 30.7842 43.2332 30.834 43.1014 30.9082C41.8253 31.6219 40.5629 32.3521 39.2937 33.0795C39.2059 33.1303 39.1248 33.1927 38.9881 33.2845C40.4331 34.0656 41.8117 34.8281 43.2039 35.5593C43.3347 35.6277 43.5788 35.5759 43.7282 35.4978C44.6352 35.0243 45.5304 34.5283 46.4286 34.0382C46.8797 33.7912 47.3298 33.5413 47.8336 33.264H47.8316ZM11.0187 33.264C9.55421 32.4293 8.16687 31.6277 6.76391 30.8486C6.65066 30.7861 6.42317 30.8388 6.29039 30.9121C5.18423 31.5281 4.08685 32.1618 2.98752 32.7905C2.73075 32.9369 2.47593 33.0834 2.15179 33.2738C3.61627 34.0714 4.99775 34.829 6.389 35.5603C6.51983 35.6286 6.76488 35.5808 6.91328 35.5027C7.93353 34.9677 8.94304 34.4102 9.9545 33.8576C10.2943 33.6711 10.6282 33.4798 11.0206 33.2611L11.0187 33.264ZM7.30479 41.1028C7.39168 41.1028 7.42976 41.1146 7.45319 41.1028C8.82003 40.356 10.1869 39.614 11.5439 38.8505C11.609 38.8001 11.6627 38.7366 11.7015 38.6641C11.7404 38.5916 11.7635 38.5117 11.7695 38.4297C11.7939 37.8293 11.7802 37.2279 11.7802 36.6274V34.4795C11.5537 34.5947 11.4121 34.6631 11.2745 34.7382C10.3343 35.2489 9.42534 35.8337 8.44317 36.2506C7.51762 36.6411 7.17396 37.1937 7.28038 38.2032C7.3868 39.158 7.30479 40.1343 7.30479 41.1028ZM44.1118 41.1673C44.3178 41.0696 44.4604 40.9994 44.6 40.9232C45.4787 40.4399 46.3271 39.8707 47.2507 39.4919C48.3325 39.0477 48.7698 38.3955 48.6097 37.2142C48.4926 36.3443 48.5873 35.4461 48.5873 34.5645C48.4896 34.5645 48.4545 34.5449 48.4311 34.5576C47.0642 35.2987 45.6974 36.0387 44.3305 36.7895C44.2773 36.8192 44.2312 36.86 44.1953 36.9092C44.1594 36.9584 44.1346 37.0149 44.1226 37.0746C44.1099 38.416 44.1138 39.7585 44.1138 41.1673H44.1118ZM1.40784 34.4639C1.40784 35.9069 1.40101 37.2347 1.42151 38.5644C1.42151 38.6787 1.58944 38.8261 1.71441 38.8973C2.37537 39.2781 3.04708 39.6413 3.71585 40.0084C4.40904 40.3892 5.1032 40.767 5.87644 41.1907C5.87644 39.7624 5.87644 38.4209 5.86863 37.0785C5.86215 37.0253 5.84401 36.9741 5.81548 36.9287C5.78696 36.8833 5.74877 36.8448 5.70363 36.8158C4.31238 36.0446 2.91625 35.2869 1.40784 34.4639ZM38.2149 34.4639C38.2149 35.9098 38.2081 37.2376 38.2286 38.5644C38.2286 38.6787 38.3985 38.8251 38.5215 38.8964C39.3025 39.3386 40.0836 39.7653 40.8646 40.1949C41.4436 40.5131 42.0235 40.8275 42.6796 41.1858C42.6796 39.7575 42.6796 38.415 42.6728 37.0716C42.6654 37.0185 42.6464 36.9676 42.6172 36.9226C42.5881 36.8775 42.5494 36.8394 42.5039 36.811C41.1175 36.0436 39.7214 35.285 38.2169 34.4639H38.2149ZM24.2985 11.9745C24.2985 10.6379 24.2868 9.3941 24.3063 8.15125C24.3112 7.832 24.2165 7.65821 23.9314 7.50786C22.7413 6.87911 21.5648 6.22401 20.3825 5.58159C20.2156 5.49079 20.0437 5.41269 19.8172 5.30139C19.8172 6.69264 19.8084 8.01945 19.8309 9.34724C19.8309 9.4722 20.0047 9.64013 20.1375 9.7114C21.27 10.3441 22.4113 10.9611 23.5546 11.581C23.7733 11.7021 23.9978 11.8134 24.2985 11.9745ZM30.1681 5.2721C28.6714 6.0883 27.2607 6.84787 25.8645 7.6338C25.7552 7.69434 25.6976 7.9267 25.6956 8.08388C25.681 9.13928 25.6878 10.1947 25.6878 11.2501V11.9813C27.1962 11.1603 28.605 10.3987 30.0061 9.62256C30.0533 9.58486 30.0917 9.53725 30.1185 9.4831C30.1453 9.42895 30.1599 9.36957 30.1613 9.30916C30.1759 7.99895 30.1681 6.6858 30.1681 5.2721ZM19.8192 42.8251C19.8192 44.1675 19.8299 45.4318 19.8114 46.6952C19.8065 47.0037 19.9227 47.1521 20.1834 47.2897C21.2573 47.858 22.3254 48.4496 23.3954 49.0315C23.6756 49.1838 23.9578 49.3302 24.2995 49.5109C24.2995 48.105 24.3083 46.7772 24.2848 45.4484C24.2848 45.3235 24.1042 45.1555 23.9685 45.0843C23.0059 44.5434 22.0335 44.0201 21.063 43.4919C20.6666 43.2781 20.2702 43.0682 19.8192 42.8251ZM30.1759 42.8163C28.6929 43.6227 27.2948 44.3784 25.9114 45.1536C25.7874 45.2229 25.7083 45.4679 25.7044 45.6339C25.6839 46.5272 25.6946 47.4216 25.6946 48.3159V49.5265C27.1816 48.7161 28.5787 47.9644 29.967 47.1833C30.0221 47.145 30.0681 47.0951 30.1018 47.037C30.1356 46.979 30.1562 46.9143 30.1623 46.8475C30.1779 45.5363 30.173 44.2212 30.173 42.8163H30.1759ZM5.87839 19.8114C5.87839 18.3986 5.8901 17.1011 5.86277 15.8036C5.86277 15.6503 5.67629 15.4443 5.52301 15.3574C4.40708 14.7277 3.27749 14.1214 2.15179 13.5102C1.93115 13.3911 1.70465 13.2828 1.40492 13.1295C1.40492 13.9896 1.40492 14.7638 1.40492 15.538C1.40492 16.1375 1.21844 16.86 1.48692 17.3022C1.76713 17.7631 2.48862 17.9613 3.02462 18.2581C3.94431 18.7667 4.86888 19.2627 5.87839 19.8114ZM11.7792 13.19C11.7132 13.1912 11.6476 13.2007 11.584 13.2183C10.2288 13.9525 8.87177 14.6828 7.52934 15.4385C7.40535 15.5078 7.32041 15.748 7.3165 15.911C7.29502 16.7389 7.30674 17.5707 7.30674 18.3957V19.8133C8.36604 19.2353 9.33259 18.7111 10.2962 18.1809C10.7775 17.9154 11.4424 17.7484 11.6797 17.3374C11.9286 16.9068 11.7773 16.2381 11.7773 15.6777C11.7851 14.8527 11.7792 14.0316 11.7792 13.19ZM42.6845 19.8133C42.6845 18.3977 42.6933 17.0845 42.6718 15.7714C42.6718 15.6406 42.5156 15.4648 42.3857 15.3906C41.5832 14.9327 40.768 14.4963 39.9557 14.055C39.406 13.7553 38.8544 13.4595 38.2881 13.1529C38.258 13.2086 38.2354 13.268 38.2208 13.3296C38.2208 14.5988 38.211 15.868 38.2208 17.1294C38.2263 17.1976 38.2466 17.2638 38.2804 17.3233C38.3141 17.3828 38.3604 17.4343 38.416 17.4741C39.8004 18.2454 41.1946 19.001 42.6845 19.8133ZM44.1128 19.7333C44.1752 19.7338 44.2374 19.7253 44.2973 19.7079C45.6525 18.9727 47.0095 18.2434 48.352 17.4858C48.4779 17.4145 48.5726 17.1802 48.5765 17.0181C48.598 16.1092 48.5873 15.1993 48.5873 14.2893V13.107C47.0798 13.9262 45.671 14.6887 44.269 15.4629C44.2255 15.4946 44.1896 15.5356 44.1637 15.5828C44.1379 15.6301 44.1229 15.6825 44.1197 15.7362C44.1099 17.063 44.1128 18.3908 44.1128 19.7333ZM19.8192 23.8973C19.8192 25.2983 19.8084 26.5987 19.8338 27.9001C19.8338 28.0544 20.0135 28.2614 20.1648 28.3463C21.3959 29.0385 22.6407 29.7083 23.8826 30.3819C24.0027 30.4473 24.1316 30.4962 24.3005 30.5772C24.3005 29.2104 24.3054 27.9109 24.2927 26.6114C24.2911 26.5423 24.2744 26.4744 24.2437 26.4125C24.213 26.3506 24.169 26.2962 24.115 26.2531C22.711 25.472 21.3022 24.7086 19.8192 23.8973ZM25.6946 30.6075C26.8926 29.9563 27.9714 29.2875 29.1205 28.773C29.968 28.3922 30.2833 27.8943 30.1945 26.9687C30.1017 25.9797 30.174 24.9741 30.174 23.8973C28.6871 24.7095 27.2773 25.473 25.8782 26.2541C25.8251 26.2966 25.7818 26.3502 25.7513 26.411C25.7208 26.4718 25.7038 26.5385 25.7015 26.6065C25.6878 27.906 25.6917 29.2045 25.6917 30.6075H25.6946Z" fill="url(#paint0_linear_408_2)"/>
</g>
<defs>
<linearGradient id="paint0_linear_408_2" x1="24.9982" y1="0" x2="24.9982" y2="51.4518" gradientUnits="userSpaceOnUse">
<stop stop-color="#378CDD"/>
<stop offset="1" stop-color="#2E3191"/>
</linearGradient>
<clipPath id="clip0_408_2">
<rect width="50" height="51.4518" fill="white"/>
</clipPath>
</defs>
</svg>
