<svg width="512" height="379" viewBox="0 0 512 379" fill="none" xmlns="http://www.w3.org/2000/svg">
<g clip-path="url(#clip0_641_275)">
<mask id="mask0_641_275" style="mask-type:luminance" maskUnits="userSpaceOnUse" x="0" y="0" width="512" height="379">
<path d="M512 0H0V379H512V0Z" fill="white"/>
</mask>
<g mask="url(#mask0_641_275)">
<path d="M364.192 338C352.577 338 342.58 335.112 334.202 329.336C325.824 323.561 319.382 315.373 314.876 304.774C310.433 294.111 308.211 281.512 308.211 266.977V266.787C308.211 252.189 310.433 239.59 314.876 228.991C319.382 218.391 325.824 210.235 334.202 204.523C342.58 198.747 352.577 195.859 364.192 195.859C375.807 195.859 385.772 198.747 394.086 204.523C402.464 210.235 408.906 218.391 413.413 228.991C417.919 239.59 420.172 252.189 420.172 266.787V266.977C420.172 281.512 417.919 294.111 413.413 304.774C408.906 315.373 402.464 323.561 394.086 329.336C385.772 335.112 375.807 338 364.192 338ZM364.192 314.96C369.904 314.96 374.76 313.056 378.758 309.248C382.757 305.44 385.803 299.95 387.898 292.778C390.056 285.606 391.135 277.006 391.135 266.977V266.787C391.135 256.695 390.056 248.095 387.898 240.986C385.803 233.814 382.757 228.356 378.758 224.611C374.76 220.803 369.904 218.899 364.192 218.899C358.48 218.899 353.592 220.803 349.53 224.611C345.532 228.356 342.485 233.814 340.391 240.986C338.296 248.095 337.249 256.695 337.249 266.787V266.977C337.249 277.006 338.296 285.606 340.391 292.778C342.485 299.95 345.532 305.44 349.53 309.248C353.592 313.056 358.48 314.96 364.192 314.96Z" fill="white"/>
<path d="M250.613 335.62V224.611H250.041L215.006 248.412V222.898L250.517 198.24H279.079V335.62H250.613Z" fill="white"/>
<path d="M384.718 254.133C381.542 252.5 379.029 249.817 377.61 246.539C376.19 243.262 375.95 239.594 376.932 236.16C377.913 232.726 380.055 229.738 382.992 227.706C385.929 225.674 389.48 224.723 393.039 225.015C396.599 225.307 399.947 226.824 402.513 229.308C405.08 231.792 406.706 235.088 407.114 238.637C407.523 242.185 406.688 245.765 404.753 248.767C402.818 251.769 399.902 254.007 396.502 255.1C392.601 256.353 388.362 256.005 384.718 254.133Z" fill="#0C6C9A"/>
<path d="M399.553 232.097L407.046 242.611C407.347 240.568 407.231 238.485 406.704 236.488L399.553 232.097Z" fill="#39B2EB"/>
<path d="M383.842 227.152L401.648 252.269C403.127 251.041 404.36 249.544 405.284 247.858L390.348 225.017C388.047 225.232 385.823 225.962 383.842 227.152Z" fill="#39B2EB"/>
<path d="M391.205 255.815L383.47 244.737L387.498 255.231C388.705 255.573 389.951 255.769 391.205 255.815Z" fill="#39B2EB"/>
<path d="M397.488 254.727L379.803 230.627C379.632 230.839 379.471 231.07 379.31 231.292L392.12 255.837C393.961 255.787 395.778 255.411 397.488 254.727Z" fill="#39B2EB"/>
<path d="M444.586 98.326C439.343 100.714 433.434 101.211 427.866 99.7309C422.298 98.2512 417.415 94.8869 414.049 90.211C410.683 85.5352 409.042 79.8371 409.406 74.0872C409.77 68.3374 412.116 62.8916 416.045 58.6774C419.973 54.4632 425.241 51.7413 430.952 50.9754C436.662 50.2095 442.461 51.4469 447.361 54.4769C452.261 57.5068 455.96 62.142 457.826 67.5927C459.692 73.0434 459.611 78.9725 457.596 84.37C456.451 87.4369 454.712 90.248 452.48 92.6427C450.247 95.0373 447.565 96.9686 444.586 98.326Z" fill="#0C6C9A"/>
<mask id="mask1_641_275" style="mask-type:luminance" maskUnits="userSpaceOnUse" x="409" y="50" width="51" height="51">
<path d="M444.586 98.326C439.343 100.714 433.434 101.211 427.866 99.7309C422.298 98.2512 417.415 94.8869 414.049 90.211C410.683 85.5352 409.042 79.8371 409.406 74.0872C409.77 68.3374 412.116 62.8916 416.045 58.6774C419.973 54.4632 425.241 51.7413 430.952 50.9754C436.662 50.2095 442.461 51.4469 447.361 54.4769C452.261 57.5068 455.96 62.142 457.826 67.5927C459.692 73.0434 459.611 78.9725 457.596 84.37C456.451 87.4369 454.712 90.248 452.48 92.6427C450.247 95.0373 447.565 96.9686 444.586 98.326Z" fill="white"/>
</mask>
<g mask="url(#mask1_641_275)">
<path d="M456.692 86.4321L439.692 59.744L458.998 78.295C459.048 77.781 459.089 77.288 459.109 76.744L436.238 50.821C434.283 50.6589 432.315 50.7335 430.377 51.0431L434.969 58.343L427.375 51.696L433.418 62.6331L421.202 54.433C420.902 54.624 420.602 54.8161 420.302 55.0171L442.972 80.1951L424.985 66.5081L431.385 76.579L422.069 70.1341L446.455 97.3891C449.424 95.7305 452.019 93.478 454.079 90.7721L449.114 82.4831L455.277 89.049C455.803 88.2069 456.275 87.3329 456.692 86.4321Z" fill="#39B2EB"/>
<path d="M441.577 99.473L422.087 76.995L430.748 90.369L409.398 73.631C408.873 80.0054 410.82 86.3375 414.836 91.3154C418.852 96.2933 424.629 99.5355 430.97 100.37L423.277 93.531L435.221 100.581C437.378 100.483 439.514 100.111 441.577 99.473Z" fill="#39B2EB"/>
<path d="M443.509 52.563L454.436 65.2531L452.22 60.4091L455.755 63.1281C452.968 58.3371 448.657 54.6176 443.509 52.563Z" fill="#39B2EB"/>
<path d="M418.099 72.192L412.199 64.0341C410.986 66.3441 410.137 68.8273 409.681 71.3961L418.099 72.192Z" fill="#39B2EB"/>
</g>
<path d="M471.244 59.0991C469.431 55.1311 461.394 54.5771 450.719 57.0041C451.397 57.5989 452.04 58.2333 452.643 58.9041C460.619 57.0711 466.309 57.2321 467.488 59.7901C469.563 64.3321 456.621 74.7051 438.574 82.9531C420.527 91.2011 404.232 94.2231 402.147 89.6801C401.079 87.3441 404.01 83.4561 409.559 79.1051C409.432 78.2205 409.354 77.3294 409.327 76.4361C401.582 82.4791 397.463 88.3601 399.165 92.0661C402.035 98.3501 420.506 96.0941 440.456 86.9601C460.406 77.8261 474.115 65.3831 471.244 59.0991Z" fill="#91DAFC"/>
<path d="M120.141 188.602C133.729 188.602 144.745 177.586 144.745 163.998C144.745 150.41 133.729 139.394 120.141 139.394C106.553 139.394 95.537 150.41 95.537 163.998C95.537 177.586 106.553 188.602 120.141 188.602Z" fill="#39B2EB"/>
<path d="M125.942 145.798C127.593 144.284 129.499 143.074 131.572 142.223C129.575 141.167 127.439 140.398 125.227 139.937C122.947 141.458 120.779 143.141 118.741 144.973C109.941 152.973 112.336 152.173 99.541 156.968C98.3623 157.404 97.2273 157.95 96.151 158.598C95.7468 160.359 95.5409 162.159 95.537 163.966C95.5394 167.07 96.1305 170.146 97.279 173.03C101.851 171.64 107.934 169.384 110.744 166.574C115.538 161.798 116.344 154.598 125.942 145.798Z" fill="#0C6C9A"/>
<path d="M102.264 180.887C104.126 182.862 106.3 184.517 108.699 185.787C113.281 182.587 115.416 179.18 121.942 176.219C127.672 173.611 137.129 173.037 143.031 172.966C144.153 170.114 144.729 167.077 144.731 164.013C144.742 163.594 144.723 163.175 144.674 162.759C137.703 163.302 130.851 164.873 124.34 167.422C115.034 171.118 110.522 177.715 102.264 180.887Z" fill="#0C6C9A"/>
<path d="M126.735 155.397C131.086 157.572 137.813 156.404 143 154.954C142.005 152.451 140.607 150.127 138.861 148.075C131.935 149.374 120.715 152.385 126.735 155.397Z" fill="#0C6C9A"/>
<path d="M312.801 71.907C312.308 71.1214 312.146 70.1719 312.353 69.2674C312.559 68.3628 313.116 67.5771 313.901 67.083L319.611 63.4671C320.001 63.2196 320.436 63.0517 320.891 62.973C321.346 62.8944 321.812 62.9065 322.262 63.0088C322.712 63.111 323.138 63.3013 323.514 63.5688C323.891 63.8362 324.21 64.1755 324.455 64.567C324.703 64.9569 324.87 65.3918 324.949 65.8467C325.028 66.3017 325.016 66.7678 324.913 67.218C324.811 67.6683 324.621 68.0939 324.353 68.4702C324.086 68.8466 323.747 69.1664 323.355 69.4111L317.655 73.011C317.264 73.2581 316.829 73.4256 316.373 73.5041C315.917 73.5825 315.451 73.5703 315 73.4681C314.549 73.3659 314.123 73.1758 313.745 72.9086C313.368 72.6414 313.047 72.3024 312.801 71.9111V71.907Z" fill="white" stroke="#263238" stroke-width="1.191" stroke-linecap="round" stroke-linejoin="round"/>
<path d="M309.694 96.581C306.994 92.7275 303.636 89.3797 299.774 86.691C294.718 83.6727 289.485 80.9621 284.103 78.574L280.85 60.446C283.968 57.4559 286.764 54.1479 289.194 50.576C292.135 45.833 291.208 42.65 289.325 39.367C287.442 36.084 284.833 38.209 284.441 39.709C284.152 41.2891 283.977 42.8879 283.917 44.493C283.917 44.493 282.165 32.408 281.147 29.658C280.129 26.908 276.252 29.558 276.595 30.474C276.595 30.474 275.427 27.04 273.02 26.999C270.613 26.958 269.928 31.027 269.928 31.027C269.928 31.027 266.836 29.597 265.104 31.39C263.372 33.183 264.194 37.675 264.194 37.675C264.194 37.675 261.435 38.682 261.012 42.6C260.589 46.518 260.931 53.376 262.019 55.259C262.578 56.1529 263.066 57.0891 263.479 58.059C262.109 74.414 262.16 73.337 261.757 79.859C261.475 84.451 264.486 95.127 268.807 99.568C273.128 104.009 288.587 111.855 288.587 111.855C288.587 111.855 304.734 107.7 309.694 96.581Z" fill="white"/>
<mask id="mask2_641_275" style="mask-type:luminance" maskUnits="userSpaceOnUse" x="260" y="26" width="50" height="86">
<path d="M309.694 96.581C306.994 92.7275 303.636 89.3797 299.774 86.691C294.718 83.6727 289.485 80.9621 284.103 78.574L280.85 60.446C283.968 57.4559 286.764 54.1479 289.194 50.576C292.135 45.833 291.208 42.65 289.325 39.367C287.442 36.084 284.833 38.209 284.441 39.709C284.152 41.2891 283.977 42.8879 283.917 44.493C283.917 44.493 282.165 32.408 281.147 29.658C280.129 26.908 276.252 29.558 276.595 30.474C276.595 30.474 275.427 27.04 273.02 26.999C270.613 26.958 269.928 31.027 269.928 31.027C269.928 31.027 266.836 29.597 265.104 31.39C263.372 33.183 264.194 37.675 264.194 37.675C264.194 37.675 261.435 38.682 261.012 42.6C260.589 46.518 260.931 53.376 262.019 55.259C262.578 56.1529 263.066 57.0891 263.479 58.059C262.109 74.414 262.16 73.337 261.757 79.859C261.475 84.451 264.486 95.127 268.807 99.568C273.128 104.009 288.587 111.855 288.587 111.855C288.587 111.855 304.734 107.7 309.694 96.581Z" fill="white"/>
</mask>
<g mask="url(#mask2_641_275)">
<path d="M288.651 111.879C288.651 111.879 304.765 107.7 309.7 96.579C309.7 96.579 309.378 96.106 308.8 95.35L304.61 91.855C298.662 92.354 292.751 93.2321 286.915 94.484C278.073 96.498 271.194 92.184 268.576 82.399C265.958 72.614 263.543 58.12 263.543 58.12C262.173 74.475 262.224 73.398 261.821 79.92C261.539 84.512 264.55 95.188 268.871 99.629C273.192 104.07 288.651 111.879 288.651 111.879Z" fill="#39B2EB"/>
<path opacity="0.5" d="M288.651 111.879C288.651 111.879 304.765 107.7 309.7 96.579C309.7 96.579 309.378 96.106 308.8 95.35L304.61 91.855C298.662 92.354 292.751 93.2321 286.915 94.484C278.073 96.498 271.194 92.184 268.576 82.399C265.958 72.614 263.543 58.12 263.543 58.12C262.173 74.475 262.224 73.398 261.821 79.92C261.539 84.512 264.55 95.188 268.871 99.629C273.192 104.07 288.651 111.879 288.651 111.879Z" fill="white"/>
</g>
<path d="M309.694 96.581C306.994 92.7275 303.636 89.3797 299.774 86.691C294.718 83.6727 289.485 80.9621 284.103 78.574L280.85 60.446C283.968 57.4559 286.764 54.1479 289.194 50.576C292.135 45.833 291.208 42.65 289.325 39.367C287.442 36.084 284.833 38.209 284.441 39.709C284.152 41.2891 283.977 42.8879 283.917 44.493C283.917 44.493 282.165 32.408 281.147 29.658C280.129 26.908 276.252 29.558 276.595 30.474C276.595 30.474 275.427 27.04 273.02 26.999C270.613 26.958 269.928 31.027 269.928 31.027C269.928 31.027 266.836 29.597 265.104 31.39C263.372 33.183 264.194 37.675 264.194 37.675C264.194 37.675 261.435 38.682 261.012 42.6C260.589 46.518 260.931 53.376 262.019 55.259C262.578 56.1529 263.066 57.0891 263.479 58.059C262.109 74.414 262.16 73.337 261.757 79.859C261.475 84.451 264.486 95.127 268.807 99.568C273.128 104.009 288.587 111.855 288.587 111.855C288.587 111.855 304.734 107.7 309.694 96.581Z" stroke="#263238" stroke-width="1.191" stroke-linecap="round" stroke-linejoin="round"/>
<path d="M282.849 71.534L280.835 60.456C283.951 57.4656 286.746 54.1576 289.174 50.586C292.115 45.843 291.188 42.66 289.305 39.377C287.422 36.094 284.813 38.219 284.421 39.719C284.131 41.2981 283.955 42.8958 283.894 44.5C283.894 44.5 282.142 32.415 281.124 29.665C280.106 26.915 276.229 29.565 276.572 30.481C276.572 30.481 275.404 27.047 272.997 27.006C270.59 26.965 269.905 31.034 269.905 31.034C269.905 31.034 266.813 29.604 265.081 31.397C263.349 33.19 264.175 37.681 264.175 37.681C264.175 37.681 261.416 38.688 260.993 42.606C260.57 46.524 260.912 53.382 262 55.265C262.559 56.1589 263.047 57.0951 263.46 58.065C262.86 65.296 262.523 69.143 262.312 71.701L282.849 71.534Z" fill="white" stroke="#263238" stroke-width="1.191" stroke-linecap="round" stroke-linejoin="round"/>
<path d="M266.776 96.833C267.148 97.44 267.555 98.025 267.995 98.585C272.245 95.03 281.813 86.5 286.123 79.178C284.914 78.795 284.109 78.578 284.109 78.578C284.109 78.578 275.206 90.246 266.776 96.833Z" fill="white" stroke="#263238" stroke-width="1.191" stroke-linecap="round" stroke-linejoin="round"/>
<path d="M283.917 44.474C283.917 44.474 274.4 44.122 273.393 52.148" stroke="#263238" stroke-width="1.191" stroke-linecap="round" stroke-linejoin="round"/>
<path d="M276.595 30.455L276.917 40.576" stroke="#263238" stroke-width="1.191" stroke-linecap="round" stroke-linejoin="round"/>
<path d="M269.928 31.049L270.583 40.204" stroke="#263238" stroke-width="1.191" stroke-linecap="round" stroke-linejoin="round"/>
<path d="M264.198 37.696L265.225 43.406" stroke="#263238" stroke-width="1.191" stroke-linecap="round" stroke-linejoin="round"/>
<path d="M278.831 40.103C278.831 40.103 268.085 41.903 263.946 45.421" stroke="#263238" stroke-width="1.191" stroke-linecap="round" stroke-linejoin="round"/>
<path d="M276.307 103.581C279.807 100.56 279.54 94.517 275.683 89.995C271.967 85.644 266.277 84.365 262.732 86.974C263.932 91.607 266.126 96.803 268.845 99.574C270.829 101.381 272.992 102.981 275.301 104.348C275.662 104.129 276 103.873 276.308 103.583L276.307 103.581Z" fill="#39B2EB"/>
<path d="M276.307 103.581C279.807 100.56 279.54 94.517 275.683 89.995C271.967 85.644 266.277 84.365 262.732 86.974C263.932 91.607 266.126 96.803 268.845 99.574C270.829 101.381 272.992 102.981 275.301 104.348C275.662 104.129 276 103.873 276.308 103.583L276.307 103.581Z" stroke="#263238" stroke-width="1.191" stroke-linecap="round" stroke-linejoin="round"/>
<path d="M269.465 115.354C269.465 115.354 264.965 115.827 263.543 117.046C262.121 118.265 251.317 127.51 249.564 132.989C247.811 138.468 254.464 154.863 261.74 161.189C269.016 167.515 278.095 174.211 285.81 172.831C293.525 171.451 302.387 159.567 303.303 156.331C304.219 153.095 274.036 116.047 274.036 116.047C274.036 116.047 271.893 113.893 269.465 115.354Z" fill="white"/>
<mask id="mask3_641_275" style="mask-type:luminance" maskUnits="userSpaceOnUse" x="249" y="114" width="55" height="60">
<path d="M269.464 115.354C269.464 115.354 264.964 115.827 263.542 117.046C262.12 118.265 251.316 127.51 249.563 132.989C247.81 138.468 254.463 154.863 261.739 161.189C269.015 167.515 278.094 174.211 285.809 172.831C293.524 171.451 302.386 159.567 303.302 156.331C304.218 153.095 274.035 116.047 274.035 116.047C274.035 116.047 271.892 113.893 269.464 115.354Z" fill="white"/>
</mask>
<g mask="url(#mask3_641_275)">
<path d="M269.465 115.354C269.465 115.354 268.579 115.445 267.451 115.654L268.458 117.354C268.458 117.354 267.531 126.901 274.078 137.718C280.625 148.535 292.095 155.403 291.763 159.331C291.431 163.259 292.77 168.506 282.921 167.851C273.072 167.196 262.621 150.488 259.012 142.301C257.139 138.041 255.527 131.575 253.684 126.57C251.907 128.434 250.487 130.608 249.494 132.985C247.742 138.464 254.394 154.859 261.67 161.185C268.946 167.511 278.025 174.207 285.74 172.827C293.455 171.447 302.317 159.563 303.233 156.327C304.149 153.091 273.966 116.043 273.966 116.043C273.966 116.043 271.892 113.893 269.465 115.354Z" fill="#39B2EB"/>
<path opacity="0.5" d="M269.465 115.354C269.465 115.354 268.579 115.445 267.451 115.654L268.458 117.354C268.458 117.354 267.531 126.901 274.078 137.718C280.625 148.535 292.095 155.403 291.763 159.331C291.431 163.259 292.77 168.506 282.921 167.851C273.072 167.196 262.621 150.488 259.012 142.301C257.139 138.041 255.527 131.575 253.684 126.57C251.907 128.434 250.487 130.608 249.494 132.985C247.742 138.464 254.394 154.859 261.67 161.185C268.946 167.511 278.025 174.207 285.74 172.827C293.455 171.447 302.317 159.563 303.233 156.327C304.149 153.091 273.966 116.043 273.966 116.043C273.966 116.043 271.892 113.893 269.465 115.354Z" fill="white"/>
</g>
<path d="M269.465 115.354C269.465 115.354 264.965 115.827 263.543 117.046C262.121 118.265 251.317 127.51 249.564 132.989C247.811 138.468 254.464 154.863 261.74 161.189C269.016 167.515 278.095 174.211 285.81 172.831C293.525 171.451 302.387 159.567 303.303 156.331C304.219 153.095 274.036 116.047 274.036 116.047C274.036 116.047 271.893 113.893 269.465 115.354Z" stroke="#263238" stroke-width="1.191" stroke-linecap="round" stroke-linejoin="round"/>
<path d="M307.917 93.389C307.917 93.389 303.143 91.778 296.033 94.799C288.923 97.82 271.133 108.264 268.533 117.358C266.811 123.33 285.654 151.217 297.427 155.809C300.589 157.038 303.47 158.377 309.945 153.1C316.42 147.823 329.993 133.166 333.548 126.714C337.103 120.262 331.534 115.444 329.671 112.614C327.808 109.784 312.912 91.254 307.917 93.389Z" fill="white"/>
<mask id="mask4_641_275" style="mask-type:luminance" maskUnits="userSpaceOnUse" x="268" y="92" width="67" height="65">
<path d="M307.916 93.389C307.916 93.389 303.142 91.778 296.032 94.799C288.922 97.82 271.132 108.264 268.532 117.358C266.81 123.33 285.653 151.217 297.426 155.809C300.588 157.038 303.469 158.377 309.944 153.1C316.419 147.823 329.992 133.166 333.547 126.714C337.102 120.262 331.533 115.444 329.67 112.614C327.807 109.784 312.911 91.254 307.916 93.389Z" fill="white"/>
</mask>
<g mask="url(#mask4_641_275)">
<path d="M333.587 126.624L321.31 130.532C321.31 130.532 308.54 145.639 303.958 149.532C299.376 153.425 284.958 143.963 280.039 139.37L278.589 138.02C284.46 145.996 291.762 153.61 297.422 155.826C300.584 157.055 303.465 158.394 309.94 153.117C316.415 147.84 329.991 133.186 333.547 126.731C333.566 126.698 333.579 126.662 333.587 126.624Z" fill="#39B2EB"/>
<path d="M327.212 125.274L333.819 126.13C336.75 119.967 331.513 115.354 329.67 112.594C327.827 109.834 312.912 91.253 307.916 93.388C307.001 93.131 306.056 92.9922 305.106 92.975C299.063 97.527 299.748 102.754 305.267 112.175C310.786 121.596 327.212 125.274 327.212 125.274Z" fill="#39B2EB"/>
<g opacity="0.5">
<path d="M333.587 126.623L321.31 130.531C321.31 130.531 308.54 145.638 303.958 149.531C299.376 153.424 284.958 143.962 280.039 139.369L278.589 138.019C284.46 145.995 291.762 153.609 297.422 155.825C300.584 157.054 303.465 158.393 309.94 153.116C316.415 147.839 329.991 133.185 333.547 126.73C333.566 126.697 333.579 126.661 333.587 126.623Z" fill="white"/>
<path d="M327.212 125.274L333.819 126.13C336.75 119.967 331.513 115.354 329.67 112.594C327.827 109.834 312.912 91.253 307.916 93.388C307.001 93.131 306.056 92.9922 305.106 92.975C299.063 97.527 299.748 102.754 305.267 112.175C310.786 121.596 327.212 125.274 327.212 125.274Z" fill="white"/>
</g>
</g>
<path d="M307.917 93.389C307.917 93.389 303.143 91.778 296.033 94.799C288.923 97.82 271.133 108.264 268.533 117.358C266.811 123.33 285.654 151.217 297.427 155.809C300.589 157.038 303.47 158.377 309.945 153.1C316.42 147.823 329.993 133.166 333.548 126.714C337.103 120.262 331.534 115.444 329.671 112.614C327.808 109.784 312.912 91.254 307.917 93.389Z" stroke="#263238" stroke-width="1.191" stroke-linecap="round" stroke-linejoin="round"/>
<path d="M313.301 121.034L301.044 104.219C299.128 101.591 295.444 101.013 292.816 102.929L279.859 112.374C277.23 114.29 276.653 117.974 278.569 120.603L290.826 137.417C292.742 140.046 296.426 140.623 299.054 138.707L312.011 129.262C314.64 127.346 315.217 123.662 313.301 121.034Z" fill="white" stroke="#263238" stroke-width="1.19087" stroke-linecap="round" stroke-linejoin="round"/>
<path d="M468.178 220.385C453.122 181.108 415.456 181.541 382.231 181.954C370.78 182.095 359.964 182.236 350.004 180.947C316.397 176.697 306.789 142.153 306.698 141.67C306.617 141.365 306.477 141.079 306.286 140.828C306.095 140.578 305.856 140.367 305.584 140.208C305.311 140.05 305.01 139.947 304.697 139.905C304.385 139.862 304.067 139.882 303.762 139.963C303.457 140.044 303.171 140.184 302.92 140.375C302.67 140.566 302.459 140.805 302.3 141.077C302.142 141.35 302.039 141.651 301.997 141.964C301.954 142.276 301.974 142.594 302.055 142.899C302.155 143.282 312.519 181.008 349.389 185.681C359.689 186.99 371.183 186.839 382.301 186.688C415.536 186.275 449.838 185.842 463.701 222.027C466.794 230.38 467.589 239.41 466.004 248.175C464.418 256.94 460.51 265.119 454.687 271.859C444.374 283.733 429.741 288.547 414.554 285.059C400.223 281.766 386.063 277.234 372.366 272.853C349.696 265.602 326.261 258.099 301.385 256.014C258.734 252.429 229.065 273.205 194.742 297.245C187.833 302.089 180.693 307.084 173.21 312.06L168.95 314.9C147.71 329.08 125.755 343.744 100.91 346.392C81.594 348.406 61.955 339.403 52.01 323.883C49.2502 319.662 47.3579 314.935 46.4433 309.975C45.5288 305.016 45.6102 299.924 46.683 294.997C47.6751 290.732 49.5326 286.716 52.1404 283.199C54.7482 279.681 58.0506 276.737 61.843 274.548C74.704 266.884 97.424 264.336 116.801 266.491L117.133 261.707C96.799 259.542 73.072 262.321 59.385 270.469C55.05 273.011 51.2754 276.405 48.2894 280.447C45.3034 284.489 43.1679 289.094 42.012 293.985C40.7814 299.55 40.6748 305.305 41.6986 310.912C42.7224 316.518 44.856 321.864 47.974 326.635C57.944 342.215 75.982 351.635 95.127 351.662C97.2294 351.661 99.3302 351.551 101.421 351.33C127.435 348.56 150.91 332.89 171.606 319.103L175.856 316.263C183.399 311.227 190.556 306.192 197.489 301.388C231.056 277.872 260.04 257.559 300.979 261.003C325.311 263.017 348.484 270.46 370.892 277.63C384.692 282.041 398.95 286.603 413.473 289.937C430.453 293.837 446.788 288.467 458.309 275.213C464.723 267.801 469.023 258.799 470.76 249.152C472.496 239.505 471.604 229.569 468.178 220.385Z" fill="#39B2EB" stroke="#263238" stroke-width="1.191" stroke-linecap="round" stroke-linejoin="round"/>
<path d="M300.877 110.449C300.877 111.096 300.685 111.729 300.325 112.267C299.966 112.806 299.455 113.225 298.857 113.473C298.258 113.721 297.6 113.785 296.965 113.659C296.331 113.533 295.747 113.221 295.29 112.763C294.832 112.306 294.52 111.722 294.394 111.088C294.268 110.453 294.332 109.795 294.58 109.197C294.828 108.598 295.247 108.087 295.786 107.728C296.324 107.368 296.957 107.176 297.604 107.176C298.472 107.176 299.305 107.521 299.918 108.135C300.532 108.748 300.877 109.581 300.877 110.449Z" fill="#39B2EB" stroke="#263238" stroke-width="1.191" stroke-linecap="round" stroke-linejoin="round"/>
<path d="M291.994 117.919C291.996 118.567 291.805 119.201 291.447 119.741C291.088 120.281 290.577 120.702 289.978 120.951C289.38 121.2 288.721 121.266 288.085 121.14C287.449 121.014 286.865 120.702 286.407 120.243C285.948 119.785 285.636 119.201 285.51 118.565C285.384 117.929 285.45 117.27 285.699 116.672C285.948 116.073 286.369 115.562 286.909 115.203C287.449 114.845 288.083 114.654 288.731 114.656C289.596 114.659 290.424 115.003 291.035 115.615C291.647 116.226 291.991 117.054 291.994 117.919Z" fill="#39B2EB" stroke="#263238" stroke-width="1.191" stroke-linecap="round" stroke-linejoin="round"/>
<path d="M337.059 118.718C351.213 114.606 359.354 99.7981 355.241 85.6439C351.129 71.4898 336.321 63.3492 322.167 67.4613C308.013 71.5735 299.873 86.3812 303.985 100.535C308.097 114.689 322.905 122.83 337.059 118.718Z" fill="white"/>
<mask id="mask5_641_275" style="mask-type:luminance" maskUnits="userSpaceOnUse" x="302" y="66" width="55" height="54">
<path d="M337.059 118.718C351.213 114.606 359.354 99.7981 355.241 85.6439C351.129 71.4898 336.321 63.3492 322.167 67.4613C308.013 71.5735 299.873 86.3812 303.985 100.535C308.097 114.689 322.905 122.83 337.059 118.718Z" fill="white"/>
</mask>
<g mask="url(#mask5_641_275)">
<path d="M349.892 75.7341C348.966 74.6494 347.956 73.6393 346.871 72.7131C348.439 78.2162 348.195 84.0779 346.175 89.4315C344.154 94.7851 340.465 99.3465 335.652 102.441C330.839 105.536 325.157 107 319.448 106.617C313.739 106.234 308.304 104.023 303.948 100.313C305.03 104.154 306.96 107.704 309.596 110.7C312.232 113.696 315.506 116.063 319.178 117.626C322.849 119.189 326.825 119.908 330.812 119.731C334.798 119.554 338.694 118.484 342.213 116.601C345.731 114.719 348.783 112.071 351.142 108.852C353.502 105.634 355.109 101.927 355.846 98.0052C356.583 94.0833 356.43 90.0459 355.4 86.1907C354.369 82.3354 352.487 78.7605 349.892 75.7291V75.7341Z" fill="#39B2EB"/>
<path opacity="0.5" d="M349.892 75.7341C348.966 74.6494 347.956 73.6393 346.871 72.7131C348.439 78.2162 348.195 84.0779 346.175 89.4315C344.154 94.7851 340.465 99.3465 335.652 102.441C330.839 105.536 325.157 107 319.448 106.617C313.739 106.234 308.304 104.023 303.948 100.313C305.03 104.154 306.96 107.704 309.596 110.7C312.232 113.696 315.506 116.063 319.178 117.626C322.849 119.189 326.825 119.908 330.812 119.731C334.798 119.554 338.694 118.484 342.213 116.601C345.731 114.719 348.783 112.071 351.142 108.852C353.502 105.634 355.109 101.927 355.846 98.0052C356.583 94.0833 356.43 90.0459 355.4 86.1907C354.369 82.3354 352.487 78.7605 349.892 75.7291V75.7341Z" fill="white"/>
</g>
<path d="M337.059 118.718C351.213 114.606 359.354 99.7981 355.241 85.6439C351.129 71.4898 336.321 63.3492 322.167 67.4613C308.013 71.5735 299.873 86.3812 303.985 100.535C308.097 114.689 322.905 122.83 337.059 118.718Z" stroke="#263238" stroke-width="1.191" stroke-linecap="round" stroke-linejoin="round"/>
<path d="M353.307 111.527L361.082 104.88" stroke="#263238" stroke-width="1.191" stroke-linecap="round" stroke-linejoin="round"/>
<path d="M363.146 105.716C363.454 105.452 363.677 105.102 363.787 104.711C363.896 104.32 363.888 103.906 363.762 103.52C363.636 103.134 363.399 102.794 363.08 102.543C362.76 102.291 362.374 102.141 361.969 102.109C361.565 102.077 361.16 102.166 360.805 102.365C360.451 102.563 360.164 102.862 359.979 103.224C359.795 103.585 359.722 103.994 359.769 104.397C359.817 104.8 359.983 105.18 360.246 105.489C360.421 105.695 360.635 105.864 360.876 105.986C361.117 106.109 361.379 106.183 361.649 106.204C361.918 106.225 362.189 106.193 362.446 106.109C362.703 106.026 362.941 105.892 363.146 105.716Z" fill="#263238"/>
<path d="M343.78 119.582C343.48 119.232 343.252 118.826 343.11 118.388C342.967 117.95 342.913 117.487 342.949 117.028C342.986 116.568 343.113 116.121 343.323 115.71C343.533 115.3 343.822 114.935 344.173 114.637L349.289 110.246C349.999 109.644 350.919 109.347 351.848 109.421C352.776 109.494 353.638 109.932 354.244 110.639C354.544 110.988 354.773 111.394 354.916 111.832C355.06 112.27 355.115 112.732 355.08 113.191C355.044 113.651 354.918 114.098 354.709 114.509C354.5 114.92 354.212 115.285 353.861 115.584L348.735 119.975C348.026 120.58 347.105 120.878 346.176 120.805C345.247 120.731 344.385 120.291 343.78 119.582Z" fill="white" stroke="#263238" stroke-width="1.191" stroke-linecap="round" stroke-linejoin="round"/>
<path d="M335.428 123.981C335.428 123.981 325.065 121.181 320.986 128.966C316.907 136.751 321.51 156.158 321.51 156.158C321.51 156.158 313.937 168.465 312.01 169.804C310.083 171.143 304.668 170.559 299.33 173.279C293.992 175.999 295.755 178.788 297.175 179.724C298.595 180.66 302.946 177.861 304.225 177.962C305.504 178.063 305.363 180.369 300.325 185.596C295.287 190.823 292.983 190.954 294.425 193.371C294.816 194.062 295.418 194.61 296.143 194.933C296.868 195.257 297.677 195.341 298.453 195.171C298.275 195.77 298.32 196.413 298.579 196.981C298.839 197.549 299.294 198.005 299.863 198.263C301.938 199.27 302.824 198.495 302.824 198.495C302.824 198.495 302.624 201.124 304.546 201.929C306.055 202.373 307.66 202.373 309.169 201.929C309.169 201.929 310.992 204.064 312.835 203.712C314.678 203.36 318.878 198.223 322.201 193.852C325.524 189.481 338.315 173.941 343.35 164.414C348.385 154.887 345.999 145.279 344.971 139.408C343.943 133.537 339.298 125.274 335.428 123.981Z" fill="white"/>
<mask id="mask6_641_275" style="mask-type:luminance" maskUnits="userSpaceOnUse" x="294" y="123" width="53" height="81">
<path d="M335.429 123.982C335.429 123.982 325.066 121.182 320.987 128.967C316.908 136.752 321.511 156.159 321.511 156.159C321.511 156.159 313.938 168.466 312.011 169.805C310.084 171.144 304.669 170.56 299.331 173.28C293.993 176 295.756 178.789 297.176 179.725C298.596 180.661 302.947 177.862 304.226 177.963C305.505 178.064 305.364 180.37 300.326 185.597C295.288 190.824 292.984 190.955 294.426 193.372C294.817 194.063 295.419 194.611 296.144 194.935C296.869 195.258 297.678 195.342 298.454 195.172C298.276 195.771 298.321 196.414 298.58 196.982C298.84 197.55 299.295 198.006 299.864 198.264C301.939 199.271 302.825 198.496 302.825 198.496C302.825 198.496 302.625 201.125 304.547 201.93C306.056 202.374 307.661 202.374 309.17 201.93C309.17 201.93 310.993 204.065 312.836 203.713C314.679 203.361 318.879 198.224 322.202 193.853C325.525 189.482 338.316 173.942 343.351 164.415C348.386 154.888 346 145.28 344.972 139.409C343.944 133.538 339.299 125.275 335.429 123.982Z" fill="white"/>
</mask>
<g mask="url(#mask6_641_275)">
<path d="M344.979 139.445C343.972 133.574 339.299 125.275 335.432 123.986L335.19 123.926C338.733 132.424 340.153 141.656 339.329 150.826C338.02 167.526 322.702 180.697 318.039 185.541C314.303 189.428 309.599 194.877 302.822 198.905C302.796 199.52 302.944 200.129 303.249 200.663C303.553 201.197 304.002 201.635 304.544 201.926C306.053 202.37 307.658 202.37 309.167 201.926C309.167 201.926 310.99 204.061 312.833 203.709C314.676 203.357 318.876 198.22 322.199 193.849C325.522 189.478 338.313 173.938 343.348 164.411C348.383 154.884 346.006 145.316 344.979 139.445Z" fill="#39B2EB"/>
<path opacity="0.5" d="M344.979 139.445C343.972 133.574 339.299 125.275 335.432 123.986L335.19 123.926C338.733 132.424 340.153 141.656 339.329 150.826C338.02 167.526 322.702 180.697 318.039 185.541C314.303 189.428 309.599 194.877 302.822 198.905C302.796 199.52 302.944 200.129 303.249 200.663C303.553 201.197 304.002 201.635 304.544 201.926C306.053 202.37 307.658 202.37 309.167 201.926C309.167 201.926 310.99 204.061 312.833 203.709C314.676 203.357 318.876 198.22 322.199 193.849C325.522 189.478 338.313 173.938 343.348 164.411C348.383 154.884 346.006 145.316 344.979 139.445Z" fill="white"/>
</g>
<path d="M335.428 123.981C335.428 123.981 325.065 121.181 320.986 128.966C316.907 136.751 321.51 156.158 321.51 156.158C321.51 156.158 313.937 168.465 312.01 169.804C310.083 171.143 304.668 170.559 299.33 173.279C293.992 175.999 295.755 178.788 297.175 179.724C298.595 180.66 302.946 177.861 304.225 177.962C305.504 178.063 305.363 180.369 300.325 185.596C295.287 190.823 292.983 190.954 294.425 193.371C294.816 194.062 295.418 194.61 296.143 194.933C296.868 195.257 297.677 195.341 298.453 195.171C298.275 195.77 298.32 196.413 298.579 196.981C298.839 197.549 299.294 198.005 299.863 198.263C301.938 199.27 302.824 198.495 302.824 198.495C302.824 198.495 302.624 201.124 304.546 201.929C306.055 202.373 307.66 202.373 309.169 201.929C309.169 201.929 310.992 204.064 312.835 203.712C314.678 203.36 318.878 198.223 322.201 193.852C325.524 189.481 338.315 173.941 343.35 164.414C348.385 154.887 345.999 145.279 344.971 139.408C343.943 133.537 339.298 125.274 335.428 123.981Z" stroke="#263238" stroke-width="1.191" stroke-linecap="round" stroke-linejoin="round"/>
<path d="M312.828 203.748C314.671 203.396 318.871 198.259 322.194 193.888C324.077 191.421 328.994 185.368 333.816 178.852C330.583 167.774 321.016 164.46 316.756 163.544C314.832 166.424 312.856 169.184 312.013 169.778C310.089 171.117 304.671 170.533 299.333 173.253C293.995 175.973 295.758 178.762 297.178 179.698C298.598 180.634 302.949 177.835 304.228 177.936C305.507 178.037 305.366 180.343 300.328 185.57C295.29 190.797 292.986 190.958 294.428 193.375C294.819 194.066 295.421 194.614 296.146 194.938C296.871 195.261 297.68 195.345 298.456 195.175C298.278 195.774 298.323 196.417 298.582 196.985C298.842 197.553 299.297 198.009 299.866 198.267C301.941 199.274 302.827 198.499 302.827 198.499C302.827 198.499 302.627 201.128 304.549 201.933C306.058 202.377 307.663 202.377 309.172 201.933C309.172 201.933 310.988 204.1 312.828 203.748Z" stroke="#263238" stroke-width="1.191" stroke-linecap="round" stroke-linejoin="round"/>
<path d="M298.46 195.177C302.296 193.186 305.714 190.479 308.531 187.201" stroke="#263238" stroke-width="1.191" stroke-linecap="round" stroke-linejoin="round"/>
<path d="M302.82 198.5C306.851 196.541 310.442 193.783 313.375 190.393" stroke="#263238" stroke-width="1.191" stroke-linecap="round" stroke-linejoin="round"/>
<path d="M309.165 201.965C309.165 201.965 314.965 197.624 317.725 194.039" stroke="#263238" stroke-width="1.191" stroke-linecap="round" stroke-linejoin="round"/>
<path d="M345.441 159.173C345.653 158.408 345.814 157.642 345.955 156.887C337.515 151.257 326.88 153.1 321.21 154.742C321.391 155.618 321.51 156.132 321.51 156.132L320.634 157.542C334.192 154.268 341.664 156.716 345.441 159.173Z" fill="white" stroke="#263238" stroke-width="1.191" stroke-linecap="round" stroke-linejoin="round"/>
<path d="M339.56 164.319C340.31 165.196 341.202 165.939 342.199 166.519C342.612 165.804 343.005 165.119 343.357 164.505C345.925 159.445 346.948 153.742 346.298 148.105C344.161 148.199 342.115 149.003 340.487 150.391C338.526 152.121 337.329 154.555 337.155 157.164C336.982 159.773 337.846 162.345 339.56 164.319Z" fill="#39B2EB" stroke="#263238" stroke-width="1.191" stroke-linecap="round" stroke-linejoin="round"/>
<path d="M244.137 127.602C244.137 127.602 248.327 139.687 253.715 140.584C259.103 141.481 266.596 132.336 268.115 125.477C269.634 118.618 264.288 113.1 256.553 106.211C248.818 99.322 237.73 95.311 228.353 100.541C218.976 105.771 205.119 120.683 205.119 120.683C205.119 120.683 196.448 113.059 191.845 116.997C187.242 120.935 193.245 132.98 197.485 137.945C201.725 142.91 209.46 150.191 216.885 148.459C224.31 146.727 230.185 132.798 235.013 128.7C239.841 124.602 243.069 126.361 244.137 127.602Z" fill="white"/>
<mask id="mask7_641_275" style="mask-type:luminance" maskUnits="userSpaceOnUse" x="190" y="98" width="79" height="51">
<path d="M244.137 127.602C244.137 127.602 248.327 139.687 253.715 140.584C259.103 141.481 266.596 132.336 268.115 125.477C269.634 118.618 264.288 113.1 256.553 106.211C248.818 99.322 237.73 95.311 228.353 100.541C218.976 105.771 205.119 120.683 205.119 120.683C205.119 120.683 196.448 113.059 191.845 116.997C187.242 120.935 193.245 132.98 197.485 137.945C201.725 142.91 209.46 150.191 216.885 148.459C224.31 146.727 230.185 132.798 235.013 128.7C239.841 124.602 243.069 126.361 244.137 127.602Z" fill="white"/>
</mask>
<g mask="url(#mask7_641_275)">
<path d="M256.162 130.531C247.974 126.603 250.27 116.774 242.062 114.155C233.854 111.536 234.529 117.106 227.962 127.59C221.395 138.074 209.29 137.409 201.102 134.79C198.506 133.95 195.955 132.978 193.458 131.879C194.577 134.068 195.928 136.131 197.486 138.032C201.726 142.997 209.43 150.208 216.843 148.476C224.256 146.744 230.143 132.815 234.971 128.717C239.799 124.619 243.088 126.38 244.146 127.617C244.146 127.617 248.336 139.702 253.724 140.599C259.112 141.496 266.605 132.351 268.124 125.492C268.376 124.369 268.441 123.212 268.315 122.068L267.932 121.987C267.932 121.987 264.319 134.449 256.162 130.531Z" fill="#39B2EB"/>
<path opacity="0.5" d="M256.162 130.531C247.974 126.603 250.27 116.774 242.062 114.155C233.854 111.536 234.529 117.106 227.962 127.59C221.395 138.074 209.29 137.409 201.102 134.79C198.506 133.95 195.955 132.978 193.458 131.879C194.577 134.068 195.928 136.131 197.486 138.032C201.726 142.997 209.43 150.208 216.843 148.476C224.256 146.744 230.143 132.815 234.971 128.717C239.799 124.619 243.088 126.38 244.146 127.617C244.146 127.617 248.336 139.702 253.724 140.599C259.112 141.496 266.605 132.351 268.124 125.492C268.376 124.369 268.441 123.212 268.315 122.068L267.932 121.987C267.932 121.987 264.319 134.449 256.162 130.531Z" fill="white"/>
</g>
<path d="M244.137 127.602C244.137 127.602 248.327 139.687 253.715 140.584C259.103 141.481 266.596 132.336 268.115 125.477C269.634 118.618 264.288 113.1 256.553 106.211C248.818 99.322 237.73 95.311 228.353 100.541C218.976 105.771 205.119 120.683 205.119 120.683C205.119 120.683 196.448 113.059 191.845 116.997C187.242 120.935 193.245 132.98 197.485 137.945C201.725 142.91 209.46 150.191 216.885 148.459C224.31 146.727 230.185 132.798 235.013 128.7C239.841 124.602 243.069 126.361 244.137 127.602Z" stroke="#263238" stroke-width="1.191" stroke-linecap="round" stroke-linejoin="round"/>
<path d="M217.72 108.556C211.033 114.417 205.151 120.756 205.151 120.756C205.151 120.756 196.48 113.132 191.877 117.07C187.274 121.008 193.277 133.053 197.517 138.018C201.757 142.983 209.461 150.194 216.884 148.462C223.571 146.901 228.969 135.37 233.521 130.183C227.199 123.809 221.872 116.52 217.721 108.56L217.72 108.556Z" stroke="#263238" stroke-width="1.191" stroke-linecap="round" stroke-linejoin="round"/>
<path d="M240.047 98.302C239.224 98.2065 238.397 98.1561 237.569 98.151C240.029 107.341 240.591 116.936 239.221 126.351C240.026 126.136 240.868 126.102 241.688 126.251C242.243 119.11 242.656 107.276 240.047 98.302Z" stroke="#263238" stroke-width="1.191" stroke-linecap="round" stroke-linejoin="round"/>
<path d="M245.697 113.994C244.136 115.32 242.164 116.063 240.117 116.098C238.07 116.133 236.073 115.456 234.469 114.185C232.864 112.913 231.75 111.124 231.316 109.123C230.882 107.122 231.155 105.032 232.089 103.21C233.023 101.387 234.56 99.9453 236.438 99.129C238.316 98.3126 240.418 98.1726 242.388 98.7327C244.358 99.2928 246.072 100.518 247.239 102.201C248.407 103.883 248.955 105.918 248.79 107.959C248.696 109.119 248.375 110.249 247.844 111.284C247.314 112.32 246.584 113.241 245.697 113.994Z" fill="#39B2EB" stroke="#263238" stroke-width="1.191" stroke-linecap="round" stroke-linejoin="round"/>
<path d="M216.884 148.458C218.648 147.96 220.26 147.032 221.577 145.758C216.834 146.544 208.072 146.282 200.105 136.694C192.35 127.388 192.219 120.147 192.985 116.34C192.589 116.522 192.219 116.756 191.885 117.035C187.272 120.973 193.285 133.018 197.525 137.983C201.765 142.948 209.462 150.19 216.884 148.458Z" stroke="#263238" stroke-width="1.191" stroke-linecap="round" stroke-linejoin="round"/>
<path d="M268.377 170.403C268.377 170.403 280.634 174.008 284.491 170.161C288.348 166.314 288.922 154.621 280.583 149.666C274.54 146.101 268.283 145.638 258.183 147.893C248.083 150.148 238.383 156.886 237.205 167.522C236.027 178.158 240.126 198.158 240.126 198.158C240.126 198.158 228.897 200.787 229.42 206.829C229.943 212.871 243.248 214.977 249.743 214.402C256.238 213.827 266.602 211.753 269.492 204.714C272.382 197.675 264.456 184.793 263.913 178.529C263.37 172.265 266.756 170.544 268.377 170.403Z" fill="white"/>
<mask id="mask8_641_275" style="mask-type:luminance" maskUnits="userSpaceOnUse" x="229" y="146" width="59" height="69">
<path d="M268.378 170.403C268.378 170.403 280.635 174.008 284.492 170.161C288.349 166.314 288.923 154.621 280.584 149.666C274.541 146.101 268.284 145.638 258.184 147.893C248.084 150.148 238.384 156.886 237.206 167.522C236.028 178.158 240.127 198.158 240.127 198.158C240.127 198.158 228.898 200.787 229.421 206.829C229.944 212.871 243.249 214.977 249.744 214.402C256.239 213.827 266.603 211.753 269.493 204.714C272.383 197.675 264.457 184.793 263.914 178.529C263.371 172.265 266.757 170.544 268.378 170.403Z" fill="white"/>
</mask>
<g mask="url(#mask8_641_275)">
<path d="M268.377 170.403C268.377 170.403 280.634 174.008 284.491 170.161C287.009 167.653 288.107 161.842 286.284 156.716C286.284 156.716 287.291 161.963 280.06 163.272C272.829 164.581 261.066 161.963 255.829 168.509C250.592 175.055 258.115 188.49 258.77 197.332C259.425 206.174 257.441 209.085 248.598 210.092C239.755 211.099 231.85 204.754 230.027 208.601C232.736 213.264 243.955 214.895 249.766 214.382C256.272 213.808 266.625 211.733 269.515 204.694C272.405 197.655 264.479 184.773 263.936 178.509C263.393 172.245 266.756 170.544 268.377 170.403Z" fill="#39B2EB"/>
<path opacity="0.5" d="M268.377 170.403C268.377 170.403 280.634 174.008 284.491 170.161C287.009 167.653 288.107 161.842 286.284 156.716C286.284 156.716 287.291 161.963 280.06 163.272C272.829 164.581 261.066 161.963 255.829 168.509C250.592 175.055 258.115 188.49 258.77 197.332C259.425 206.174 257.441 209.085 248.598 210.092C239.755 211.099 231.85 204.754 230.027 208.601C232.736 213.264 243.955 214.895 249.766 214.382C256.272 213.808 266.625 211.733 269.515 204.694C272.405 197.655 264.479 184.773 263.936 178.509C263.393 172.245 266.756 170.544 268.377 170.403Z" fill="white"/>
</g>
<path d="M268.377 170.403C268.377 170.403 280.634 174.008 284.491 170.161C288.348 166.314 288.922 154.621 280.583 149.666C274.54 146.101 268.283 145.638 258.183 147.893C248.083 150.148 238.383 156.886 237.205 167.522C236.027 178.158 240.126 198.158 240.126 198.158C240.126 198.158 228.897 200.787 229.42 206.829C229.943 212.871 243.248 214.977 249.743 214.402C256.238 213.827 266.602 211.753 269.492 204.714C272.382 197.675 264.456 184.793 263.913 178.529C263.37 172.265 266.756 170.544 268.377 170.403Z" stroke="#263238" stroke-width="1.191" stroke-linecap="round" stroke-linejoin="round"/>
<path d="M237.529 180.884C238.415 189.736 240.147 198.196 240.147 198.196C240.147 198.196 228.918 200.825 229.441 206.867C229.964 212.909 243.269 215.015 249.764 214.44C256.259 213.865 266.623 211.791 269.513 204.752C272.121 198.397 265.948 187.309 264.296 180.581C255.439 182.027 246.414 182.128 237.527 180.881L237.529 180.884Z" stroke="#263238" stroke-width="1.191" stroke-linecap="round" stroke-linejoin="round"/>
<path d="M242.142 156.776C241.589 157.388 241.071 158.03 240.591 158.7C249.482 162.043 257.605 167.151 264.469 173.716C264.767 172.954 265.228 172.267 265.819 171.702C260.371 167.016 250.974 159.807 242.142 156.776Z" stroke="#263238" stroke-width="1.191" stroke-linecap="round" stroke-linejoin="round"/>
<path d="M252.042 170.481C256.712 169.012 259.306 164.037 257.838 159.367C256.369 154.698 251.393 152.103 246.724 153.572C242.054 155.04 239.46 160.016 240.928 164.686C242.397 169.355 247.373 171.95 252.042 170.481Z" fill="#39B2EB" stroke="#263238" stroke-width="1.191" stroke-linecap="round" stroke-linejoin="round"/>
<path d="M269.515 204.717C270.137 202.993 270.317 201.141 270.039 199.329C267.924 203.649 262.627 210.629 250.219 211.555C238.134 212.461 232.162 208.362 229.519 205.512C229.431 205.939 229.403 206.377 229.438 206.812C229.972 212.855 243.266 214.959 249.761 214.385C256.256 213.811 266.625 211.755 269.515 204.717Z" stroke="#263238" stroke-width="1.191" stroke-linecap="round" stroke-linejoin="round"/>
<path d="M338.61 81.847C335.95 78.3527 333.537 74.6771 331.389 70.847C326.881 70.2424 322.295 71.0031 318.223 73.0308C314.151 75.0585 310.781 78.2601 308.547 82.2223C306.313 86.1845 305.318 90.7254 305.69 95.2588C306.063 99.7921 307.786 104.11 310.636 107.654C313.487 111.199 317.334 113.808 321.682 115.144C326.03 116.48 330.679 116.482 335.028 115.15C339.377 113.817 343.227 111.212 346.081 107.67C348.935 104.128 350.662 99.812 351.038 95.279C346.459 91.2261 342.296 86.7265 338.61 81.847Z" fill="#263238" stroke="#263238" stroke-width="1.191" stroke-linecap="round" stroke-linejoin="round"/>
<path d="M340.819 102.504C339.769 103.529 338.436 104.214 336.991 104.471C335.547 104.728 334.059 104.544 332.72 103.944C331.382 103.344 330.254 102.355 329.485 101.106C328.716 99.8573 328.34 98.4058 328.407 96.9403C328.473 95.4749 328.979 94.0634 329.858 92.8891C330.737 91.7149 331.95 90.8323 333.337 90.356C334.725 89.8797 336.223 89.8318 337.638 90.2184C339.053 90.6051 340.319 91.4084 341.272 92.524C341.899 93.2082 342.385 94.0095 342.702 94.882C343.019 95.7544 343.16 96.6809 343.118 97.6081C343.076 98.5354 342.851 99.4452 342.457 100.285C342.062 101.126 341.506 101.88 340.819 102.504Z" fill="white"/>
<path d="M333.336 85.634C333.012 85.9207 332.609 86.104 332.18 86.1605C331.751 86.2169 331.314 86.144 330.927 85.9511C330.539 85.7582 330.218 85.454 330.004 85.0774C329.791 84.7009 329.694 84.2692 329.727 83.8375C329.76 83.4058 329.922 82.9939 330.19 82.6544C330.459 82.3149 330.823 82.0633 331.235 81.9318C331.648 81.8003 332.09 81.7949 332.506 81.9162C332.921 82.0376 333.291 82.2802 333.568 82.613C333.93 83.0479 334.108 83.6066 334.065 84.1706C334.021 84.7346 333.76 85.2595 333.336 85.634Z" fill="white"/>
<path d="M123.168 259.71L111.728 258.711L110.911 268.06L122.351 269.059L123.168 259.71Z" fill="#263238"/>
<path d="M172.692 336.962V311.24H103V286.779C106.753 280.826 110.506 274.84 114.26 268.822C118.013 262.804 121.766 256.819 125.519 250.865C129.272 244.847 132.993 238.862 136.681 232.909C140.435 226.891 144.188 220.873 147.941 214.854C151.694 208.836 155.447 202.851 159.2 196.898H200.55V287.847H218.992V311.24H200.55V336.962H172.692ZM128.528 288.624H173.275V218.058H172.595C169.619 222.717 166.674 227.376 163.763 232.035C160.851 236.694 157.906 241.353 154.93 246.012C152.018 250.607 149.073 255.266 146.097 259.99C143.185 264.649 140.24 269.308 137.264 273.967C134.352 278.561 131.44 283.188 128.528 287.847V288.624Z" fill="white"/>
</g>
</g>
<defs>
<clipPath id="clip0_641_275">
<rect width="512" height="379" fill="white"/>
</clipPath>
</defs>
</svg>
