<svg xmlns="http://www.w3.org/2000/svg" width="60" height="60" viewBox="0 0 60 60">
  <g id="Calendar" transform="translate(-2 -2)">
    <path id="Path_1" data-name="Path 1" d="M57,8H52V6a4,4,0,0,0-8,0V8H36V6a4,4,0,0,0-8,0V8H20V6a4,4,0,0,0-8,0V8H7a5,5,0,0,0-5,5V53a5,5,0,0,0,5,5H35a1,1,0,0,0,0-2H7a3.009,3.009,0,0,1-3-3V22H60V39a1,1,0,0,0,2,0V13a5,5,0,0,0-5-5ZM46,6a2,2,0,0,1,4,0v6a2,2,0,0,1-4,0ZM30,6a2,2,0,0,1,4,0v6a2,2,0,0,1-4,0ZM14,6a2,2,0,0,1,4,0v6a2,2,0,0,1-4,0ZM60,20H4V13a3.009,3.009,0,0,1,3-3h5v2a4,4,0,0,0,8,0V10h8v2a4,4,0,0,0,8,0V10h8v2a4,4,0,0,0,8,0V10h5a3.009,3.009,0,0,1,3,3Z" fill="#28a8e0"/>
    <path id="Path_2" data-name="Path 2" d="M30,29a2,2,0,0,0-2-2H24a2,2,0,0,0-2,2v3a2,2,0,0,0,2,2h4a2,2,0,0,0,2-2Zm-6,3V29h4v3Z" fill="#28a8e0"/>
    <path id="Path_3" data-name="Path 3" d="M18,29a2,2,0,0,0-2-2H12a2,2,0,0,0-2,2v3a2,2,0,0,0,2,2h4a2,2,0,0,0,2-2Zm-6,3V29h4v3Z" fill="#28a8e0"/>
    <path id="Path_4" data-name="Path 4" d="M52,34a2,2,0,0,0,2-2V29a2,2,0,0,0-2-2H48a2,2,0,0,0-2,2v3a2,2,0,0,0,2,2Zm-4-5h4v3H48Z" fill="#28a8e0"/>
    <path id="Path_5" data-name="Path 5" d="M30,38a2,2,0,0,0-2-2H24a2,2,0,0,0-2,2v3a2,2,0,0,0,2,2h4a2,2,0,0,0,2-2Zm-6,3V38h4v3Z" fill="#28a8e0"/>
    <path id="Path_6" data-name="Path 6" d="M18,38a2,2,0,0,0-2-2H12a2,2,0,0,0-2,2v3a2,2,0,0,0,2,2h4a2,2,0,0,0,2-2Zm-6,3V38h4v3Z" fill="#28a8e0"/>
    <path id="Path_7" data-name="Path 7" d="M28,45H24a2,2,0,0,0-2,2v3a2,2,0,0,0,2,2h4a2,2,0,0,0,2-2V47A2,2,0,0,0,28,45Zm-4,5V47h4v3Z" fill="#28a8e0"/>
    <path id="Path_8" data-name="Path 8" d="M36,34h4a2,2,0,0,0,2-2V29a2,2,0,0,0-2-2H36a2,2,0,0,0-2,2v3A2,2,0,0,0,36,34Zm0-5h4v3H36Z" fill="#28a8e0"/>
    <path id="Path_9" data-name="Path 9" d="M34,41a2,2,0,0,0,2,2,1,1,0,0,0,0-2V38h4a1,1,0,0,0,0-2H36a2,2,0,0,0-2,2Z" fill="#28a8e0"/>
    <path id="Path_10" data-name="Path 10" d="M16,45H12a2,2,0,0,0-2,2v3a2,2,0,0,0,2,2h4a2,2,0,0,0,2-2V47A2,2,0,0,0,16,45Zm-4,5V47h4v3Z" fill="#28a8e0"/>
    <path id="Path_11" data-name="Path 11" d="M49,36A13,13,0,1,0,62,49,13,13,0,0,0,49,36Zm0,24A11,11,0,1,1,60,49,11,11,0,0,1,49,60Z" fill="#28a8e0"/>
    <path id="Path_12" data-name="Path 12" d="M54.778,44.808,47,52.586,43.465,49.05a1,1,0,1,0-1.414,1.414l4.242,4.243a1,1,0,0,0,1.414,0l8.485-8.485a1,1,0,1,0-1.414-1.414Z" fill="#28a8e0"/>
  </g>
</svg>
