<?xml version="1.0"?>
<svg xmlns="http://www.w3.org/2000/svg" xmlns:xlink="http://www.w3.org/1999/xlink" xmlns:svgjs="http://svgjs.com/svgjs" version="1.1" width="512" height="512" x="0" y="0" viewBox="0 0 510.141 510.141" style="enable-background:new 0 0 512 512" xml:space="preserve" class=""><g><g xmlns="http://www.w3.org/2000/svg"><path d="m278.768 315.994c0-4.142-3.357-7.5-7.5-7.5h-60.214l-.011-102.365 102.364-.01.011 102.375h-10.188c-4.143 0-7.5 3.358-7.5 7.5s3.357 7.5 7.5 7.5h17.677c1.938 0 3.813-.763 5.211-2.106 1.471-1.414 2.302-3.367 2.302-5.407l-.013-117.364c0-4.142-3.358-7.5-7.501-7.499l-117.364.012c-1.989 0-3.896.791-5.303 2.197s-2.196 3.314-2.196 5.304l.013 117.364c0 4.142 3.358 7.499 7.5 7.499h67.713c4.142 0 7.499-3.358 7.499-7.5z" fill="#4966c4" data-original="#000000" style="" class=""/><path d="m474.555 192.555c0-36.746-27.772-67.111-63.426-71.252v-5.978c0-63.59-51.734-115.325-115.325-115.325-23.49 0-46.093 7.021-65.366 20.302-17.403 11.993-31.038 28.319-39.694 47.424h-73.062c-22.275 0-40.397 18.123-40.397 40.398 0 9.965 3.634 19.093 9.638 26.145-30.966 4.75-54.759 31.572-54.759 63.846 0 35.617 28.977 64.593 64.593 64.593h23.631c4.143 0 7.5-3.358 7.5-7.5s-3.357-7.5-7.5-7.5h-23.632c-27.346 0-49.593-22.248-49.593-49.593s22.247-49.593 49.593-49.593h22.235c4.143 0 7.5-3.358 7.5-7.5s-3.357-7.5-7.5-7.5h-1.31c-14.004 0-25.397-11.393-25.397-25.397s11.394-25.398 25.397-25.398h100.507c4.143 0 7.5-3.358 7.5-7.5s-3.357-7.5-7.5-7.5h-10.738c17.363-32.365 50.932-52.727 88.355-52.727 55.319 0 100.324 45.006 100.324 100.325v5.48h-27.49c-4.143 0-7.5 3.358-7.5 7.5s3.357 7.5 7.5 7.5h34.166c31.292 0 56.75 25.458 56.75 56.75s-25.458 56.75-56.75 56.75h-.992c-4.143 0-7.5 3.358-7.5 7.5s3.357 7.5 7.5 7.5h.992c39.564.001 71.75-32.186 71.75-71.75z" fill="#4966c4" data-original="#000000" style="" class=""/><path d="m260.255 82.727c4.143 0 7.5-3.358 7.5-7.5s-3.357-7.5-7.5-7.5h-10.104c-4.143 0-7.5 3.358-7.5 7.5s3.357 7.5 7.5 7.5z" fill="#4966c4" data-original="#000000" style="" class=""/><path d="m262.731 486.097c-4.143 0-7.5 3.358-7.5 7.5v9.044c0 4.142 3.357 7.5 7.5 7.5s7.5-3.358 7.5-7.5v-9.044c0-4.142-3.358-7.5-7.5-7.5z" fill="#4966c4" data-original="#000000" style="" class=""/><path d="m358.554 442.243c-5.264 0-10.193 1.457-14.411 3.984l-24.097-24.096v-68.636h.86c20.685 0 37.513-16.828 37.513-37.512v-1.86h13.395c4.143 0 7.5-3.358 7.5-7.5s-3.357-7.5-7.5-7.5h-13.395v-34.815h13.395c4.143 0 7.5-3.358 7.5-7.5s-3.357-7.5-7.5-7.5h-13.395v-34.818h13.395c4.143 0 7.5-3.358 7.5-7.5s-3.357-7.5-7.5-7.5h-13.395v-.861c0-20.684-16.828-37.512-37.513-37.512h-1.86v-13.395c0-4.142-3.357-7.5-7.5-7.5s-7.5 3.358-7.5 7.5v13.395h-34.815v-13.395c0-4.142-3.357-7.5-7.5-7.5s-7.5 3.358-7.5 7.5v13.395h-34.815v-13.395c0-4.142-3.357-7.5-7.5-7.5s-7.5 3.358-7.5 7.5v13.395h-.86c-20.685 0-37.513 16.828-37.513 37.512v1.861h-13.395c-4.143 0-7.5 3.358-7.5 7.5s3.357 7.5 7.5 7.5h13.395v34.815h-13.395c-4.143 0-7.5 3.358-7.5 7.5s3.357 7.5 7.5 7.5h13.395v34.815h-13.395c-4.143 0-7.5 3.358-7.5 7.5s3.357 7.5 7.5 7.5h13.395v.86c0 20.684 16.828 37.512 37.513 37.512h1.86v68.636l-24.097 24.096c-4.218-2.527-9.147-3.984-14.411-3.984-15.511 0-28.129 12.619-28.129 28.129s12.618 28.129 28.129 28.129 28.129-12.619 28.129-28.129c0-4.808-1.215-9.337-3.35-13.299l26.533-26.533c1.406-1.406 2.196-3.314 2.196-5.303v-71.743h34.815v105.459c0 4.142 3.357 7.5 7.5 7.5s7.5-3.358 7.5-7.5v-105.456h34.815v71.743c0 1.989.79 3.897 2.196 5.303l26.533 26.533c-2.135 3.963-3.35 8.491-3.35 13.299 0 15.51 12.618 28.129 28.129 28.129s28.129-12.619 28.129-28.129-12.618-28.129-28.129-28.129zm-191.646 41.257c-7.239 0-13.129-5.89-13.129-13.129s5.89-13.129 13.129-13.129 13.129 5.89 13.129 13.129-5.89 13.129-13.129 13.129zm14.134-167.519v-117.352c0-12.413 10.1-22.512 22.513-22.512h117.352c12.413 0 22.513 10.099 22.513 22.512v117.352c0 12.413-10.1 22.512-22.513 22.512h-117.352c-12.413.001-22.513-10.098-22.513-22.512zm177.512 167.519c-7.239 0-13.129-5.89-13.129-13.129s5.89-13.129 13.129-13.129 13.129 5.89 13.129 13.129-5.89 13.129-13.129 13.129z" fill="#4966c4" data-original="#000000" style="" class=""/><path d="m110.139 358.739c-4.143 0-7.5 3.358-7.5 7.5v24.906l-30.855 30.855c-2.189-.877-4.572-1.372-7.073-1.372-10.522 0-19.052 8.53-19.052 19.052s8.53 19.052 19.052 19.052 19.052-8.53 19.052-19.052c0-2.502-.495-4.884-1.372-7.073l33.052-33.052c1.406-1.406 2.196-3.314 2.196-5.303v-28.013c0-4.142-3.357-7.5-7.5-7.5z" fill="#4966c4" data-original="#000000" style="" class=""/><path d="m110.139 297.644c-4.143 0-7.5 3.358-7.5 7.5v29.133c0 4.142 3.357 7.5 7.5 7.5s7.5-3.358 7.5-7.5v-29.133c0-4.142-3.357-7.5-7.5-7.5z" fill="#4966c4" data-original="#000000" style="" class=""/><path d="m67.949 331.801v-46.189c0-4.142-3.357-7.5-7.5-7.5s-7.5 3.358-7.5 7.5v46.188c-4.459 2.591-7.465 7.407-7.465 12.935 0 8.264 6.7 14.964 14.964 14.964s14.964-6.7 14.964-14.964c0-5.527-3.005-10.343-7.463-12.934z" fill="#4966c4" data-original="#000000" style="" class=""/><path d="m458.751 420.628c-2.502 0-4.885.495-7.073 1.372l-30.854-30.854v-86.001c0-4.142-3.357-7.5-7.5-7.5s-7.5 3.358-7.5 7.5v89.108c0 1.989.79 3.896 2.196 5.303l33.051 33.052c-.876 2.189-1.372 4.571-1.372 7.073 0 10.522 8.53 19.052 19.052 19.052s19.052-8.53 19.052-19.052c-.001-10.523-8.53-19.053-19.052-19.053z" fill="#4966c4" data-original="#000000" style="" class=""/><path d="m463.013 278.112c-4.143 0-7.5 3.358-7.5 7.5v46.189c-4.458 2.591-7.464 7.407-7.464 12.935 0 8.264 6.7 14.964 14.964 14.964s14.964-6.7 14.964-14.964c0-5.528-3.006-10.344-7.465-12.935v-46.188c.001-4.143-3.356-7.501-7.499-7.501z" fill="#4966c4" data-original="#000000" style="" class=""/></g></g></svg>
