<svg width="50" height="51" viewBox="0 0 50 51" fill="none" xmlns="http://www.w3.org/2000/svg">
<g clip-path="url(#clip0_408_6)">
<path d="M50 28.3219C49.9442 28.3415 49.8513 28.3483 49.8385 28.3836C49.5929 29.0685 49.044 29.3112 48.3787 29.4296C47.5313 29.5802 46.6957 29.7984 45.8474 29.9462C45.5313 30.001 45.4198 30.1517 45.3464 30.4305C44.8742 32.2245 44.1557 33.9444 43.2113 35.5411C43.0822 35.7593 43.1008 35.9012 43.2387 36.1027C43.7808 36.8943 44.3063 37.6967 44.8297 38.501C45.319 39.2593 45.2671 39.8806 44.634 40.5215C43.2838 41.8914 41.9282 43.2521 40.5675 44.6037C39.8757 45.2886 39.2495 45.3464 38.4286 44.7994C37.6556 44.2867 36.8855 43.771 36.1262 43.2339C35.911 43.0822 35.7515 43.0646 35.5176 43.2016C33.92 44.1441 32.1999 44.8615 30.4061 45.3337C30.1194 45.407 29.9843 45.5431 29.9315 45.8454C29.774 46.7417 29.5205 47.6243 29.4178 48.5254C29.3278 49.32 28.3718 50.0323 27.5959 50.0108C25.7583 49.9609 23.9178 49.9951 22.0793 49.9951C21.2192 49.9951 20.589 49.4746 20.4159 48.6174C20.226 47.6771 20.0245 46.7397 19.8571 45.7955C19.8082 45.5215 19.6859 45.4237 19.4325 45.3611C17.6203 44.9159 15.9286 44.1712 14.317 43.2417C14.0695 43.0988 13.8992 43.1047 13.6683 43.2632C12.9051 43.7886 12.1301 44.2975 11.3532 44.8033C10.5509 45.3268 9.92466 45.272 9.24853 44.6018C7.89563 43.2619 6.54859 41.9162 5.20743 40.5646C4.53228 39.8797 4.48532 39.2299 5.0225 38.4119C5.53424 37.6389 6.03914 36.8611 6.56947 36.1018C6.727 35.8767 6.71624 35.726 6.58023 35.4971C5.65236 33.9475 4.95149 32.273 4.49902 30.5245C4.40117 30.1478 4.2407 29.9658 3.83855 29.9031C2.95792 29.7652 2.07729 29.5705 1.20743 29.3875C0.337567 29.2045 0.000976562 28.775 0.000976562 27.9022V21.908C0.000976562 20.9892 0.325831 20.6027 1.24951 20.4139C2.15655 20.228 3.06066 20.0225 3.97162 19.8581C4.25929 19.8063 4.37769 19.6898 4.45009 19.4139C4.91893 17.6193 5.63519 15.8986 6.57827 14.3014C6.7133 14.0714 6.71819 13.9198 6.56359 13.6967C6.00978 12.8943 5.47749 12.0763 4.94227 11.2603C4.50293 10.59 4.54305 9.92955 5.1086 9.35323C6.49934 7.93575 7.89987 6.52838 9.31018 5.13112C9.92564 4.52349 10.5548 4.48924 11.2935 4.97554C12.0949 5.50294 12.8982 6.0274 13.6859 6.57437C13.909 6.72897 14.0665 6.72799 14.2935 6.58806C15.8973 5.59981 17.637 4.92955 19.4472 4.43542C19.7094 4.36399 19.8092 4.25049 19.8571 3.98826C20.0254 3.06067 20.225 2.13895 20.411 1.21527C20.591 0.325834 20.9843 -0.000976562 21.8787 -0.000976562H27.9354C28.7779 -0.000976562 29.2172 0.355187 29.3894 1.18885C29.5851 2.1272 29.7564 3.07143 29.9706 4.00587C29.9981 4.09575 30.0451 4.17846 30.1082 4.24814C30.1713 4.31781 30.2489 4.37273 30.3356 4.409C32.138 4.93053 33.8816 5.58904 35.4863 6.57339C35.7554 6.73777 35.9364 6.70548 36.1771 6.53621C36.9354 6.00294 37.7074 5.48924 38.4794 4.97652C39.2515 4.4638 39.8875 4.53131 40.5342 5.17808C41.8845 6.5199 43.2319 7.8653 44.5763 9.21429C45.2612 9.90411 45.3317 10.5431 44.8014 11.3601C44.2877 12.1517 43.7456 12.9256 43.2456 13.7231C43.2017 13.8062 43.1768 13.8981 43.1727 13.992C43.1686 14.0859 43.1855 14.1795 43.2221 14.2661C44.1482 15.8731 44.8594 17.5945 45.3376 19.3865C45.4129 19.6712 45.5421 19.8063 45.8503 19.8591C46.7466 20.0137 47.6321 20.229 48.5274 20.3904C49.134 20.501 49.589 20.771 49.817 21.3689C49.8376 21.4227 49.9344 21.4472 49.9961 21.4853L50 28.3219ZM6.1047 10.4501C6.75049 11.4149 7.41194 12.4159 8.08904 13.408C8.3366 13.771 8.36399 14.1086 8.12622 14.4912C6.97358 16.3253 6.13894 18.341 5.65753 20.453C5.57436 20.82 5.36398 21.0352 4.97259 21.1096C3.88747 21.316 2.81017 21.5646 1.72407 21.7652C1.40998 21.8229 1.33268 21.9609 1.33757 22.2544C1.34736 24.028 1.34736 25.802 1.33757 27.5763C1.33757 27.8855 1.44325 27.9922 1.74071 28.0479C2.81116 28.2436 3.87377 28.4853 4.94227 28.6957C5.33366 28.774 5.58023 28.9892 5.67025 29.3806C6.1551 31.4918 6.99056 33.5067 8.14187 35.3415C8.36986 35.7055 8.34442 36.0342 8.10861 36.3826C7.51565 37.2573 6.93444 38.1438 6.34735 39.0245C6.26125 39.1536 6.18786 39.2926 6.15166 39.3542L10.4951 43.6693C11.407 43.0656 12.3865 42.4521 13.3239 41.7818C13.7818 41.455 14.1468 41.4628 14.6076 41.7583C16.34 42.858 18.2504 43.6483 20.2534 44.0939C20.817 44.2231 21.0802 44.5127 21.1781 45.0607C21.3562 46.0685 21.5871 47.0665 21.7652 48.0744C21.819 48.3787 21.9305 48.4736 22.2368 48.4716C24.0104 48.4579 25.7844 48.4579 27.5587 48.4716C27.8953 48.4716 27.9922 48.3503 28.0479 48.0362C28.2368 46.998 28.4746 45.9677 28.6703 44.9305C28.7573 44.4716 28.9922 44.2329 29.453 44.1282C31.504 43.6716 33.4603 42.8628 35.2348 41.7378C35.6791 41.455 36.047 41.4599 36.4814 41.7652C37.4374 42.4384 38.4198 43.0705 39.3708 43.7055L43.6967 39.3679C43.0724 38.4276 42.4442 37.4413 41.771 36.4883C41.4511 36.0352 41.4589 35.6595 41.7456 35.1967C42.8309 33.4743 43.6188 31.5816 44.0763 29.5978C44.2123 28.9922 44.5401 28.729 45.1213 28.6292C46.1135 28.4569 47.0959 28.2251 48.0871 28.0509C48.4022 27.9951 48.4785 27.8552 48.4726 27.5616C48.4628 25.7877 48.4599 24.0137 48.4726 22.2397C48.4726 21.9247 48.3591 21.8258 48.0665 21.772C47.044 21.5841 46.0284 21.3542 45.0059 21.1663C44.4951 21.0685 44.2231 20.816 44.1008 20.2965C43.6776 18.4739 42.9819 16.7256 42.0372 15.1106C41.2759 13.8141 41.3151 14.0519 42.1125 12.8386C42.6458 12.0294 43.1888 11.2251 43.6781 10.4834L39.3415 6.1321C38.4423 6.73484 37.4951 7.33758 36.5861 7.9912C36.0969 8.34442 35.683 8.36399 35.1634 8.04795C33.3897 6.953 31.4494 6.15453 29.4188 5.68395C28.9785 5.58611 28.7573 5.34051 28.6742 4.90118C28.4726 3.8317 28.2358 2.7681 28.0352 1.69863C27.9863 1.4364 27.8855 1.34834 27.6223 1.34932C25.816 1.35845 24.0098 1.35845 22.2035 1.34932C21.9168 1.34932 21.8121 1.44716 21.7642 1.72603C21.5626 2.81214 21.3249 3.89139 21.1135 4.97652C21.0391 5.3591 20.8268 5.58317 20.455 5.66732C18.3415 6.14188 16.3777 6.98532 14.5323 8.10568C14.1018 8.36693 13.7407 8.34442 13.3229 8.05088C12.3689 7.37867 11.3845 6.74756 10.4462 6.12329L6.1047 10.4501Z" fill="url(#paint0_linear_408_6)"/>
<path d="M24.9022 9.91488C32.3288 9.91488 38.6097 15.3346 39.7173 22.7329C39.831 23.5872 39.8866 24.4483 39.8836 25.3102C39.8924 26.0176 39.5901 26.3317 39.0881 26.2975C38.6459 26.2681 38.4756 25.953 38.4668 25.272C38.4003 19.9354 36.2046 15.7368 31.5353 13.0871C23.2476 8.38259 12.8465 13.5157 11.4492 22.9129C10.4247 29.7906 14.776 36.318 21.6253 38.0489C22.824 38.3523 24.0999 38.363 25.3435 38.4609C25.9453 38.5078 26.2662 38.6771 26.2917 39.1292C26.3171 39.5812 25.9746 39.8767 25.367 39.8943C18.0285 40.1037 11.6214 35.0235 10.184 27.8513C9.48817 24.3548 10.0583 20.7248 11.7925 17.61C13.5268 14.4952 16.3121 12.0985 19.6508 10.8483C21.3312 10.225 23.1099 9.90884 24.9022 9.91488Z" fill="url(#paint1_linear_408_6)"/>
<path d="M28.0421 18.4169C27.9912 18.5861 27.9442 18.7603 27.8875 18.9257C26.3409 23.0953 24.7913 27.2642 23.2388 31.4325C23.0157 32.0304 22.637 32.2378 22.1732 32.0255C21.8024 31.8562 21.7035 31.4697 21.9031 30.9306C22.9801 28.0238 24.0587 25.1171 25.139 22.2104C25.6334 20.8849 26.1256 19.5613 26.6155 18.2398C26.7564 17.8621 27.044 17.6028 27.4345 17.73C27.6957 17.8141 27.8904 18.1038 28.1194 18.3024L28.0421 18.4169Z" fill="url(#paint2_linear_408_6)"/>
<path d="M31.3846 24.9031C30.4355 24.09 29.5255 23.3239 28.6371 22.544C28.1655 22.1321 28.2124 21.4961 28.7428 21.3336C28.9678 21.2651 29.3298 21.3072 29.5011 21.4501C30.6625 22.3933 31.7985 23.3689 32.9257 24.3532C33.3289 24.7055 33.3083 25.1272 32.8954 25.4843C31.7865 26.4413 30.6717 27.3904 29.551 28.3317C29.185 28.6399 28.7682 28.6252 28.503 28.3317C28.2163 28.0127 28.2506 27.6056 28.64 27.2642C29.5304 26.4843 30.4365 25.7172 31.3846 24.9031Z" fill="url(#paint3_linear_408_6)"/>
<path d="M18.4256 24.9119L20.7377 26.8894C20.861 26.9951 20.9863 27.0988 21.1066 27.2084C21.5234 27.589 21.5958 27.9755 21.3199 28.3102C21.044 28.6448 20.6105 28.637 20.1966 28.2896C19.3992 27.6213 18.6105 26.9413 17.818 26.2661C17.5244 26.0127 17.2201 25.7632 16.9295 25.5039C16.4863 25.1125 16.4735 24.7006 16.9295 24.3072C18.0352 23.3483 19.1493 22.3989 20.272 21.4589C20.6154 21.1703 21.0547 21.1996 21.3219 21.4922C21.589 21.7847 21.5479 22.2094 21.1898 22.5245C20.407 23.2094 19.6105 23.8816 18.8199 24.5597C18.6976 24.6634 18.5812 24.772 18.4256 24.9119Z" fill="url(#paint4_linear_408_6)"/>
<path d="M36.7035 33.7837C36.09 33.7974 35.725 33.2377 35.9882 32.7544C36.3414 32.1007 36.7328 31.4667 37.1281 30.8365C37.3238 30.5166 37.6585 30.4637 37.9882 30.589C38.3375 30.7221 38.5381 31.0626 38.3796 31.3718C37.9882 32.1438 37.5146 32.8776 37.0489 33.6115C36.9794 33.725 36.7749 33.7504 36.7035 33.7837Z" fill="url(#paint5_linear_408_6)"/>
<path d="M31.0882 38.4393C30.9531 38.3189 30.643 38.1702 30.5794 37.95C30.5158 37.7299 30.6156 37.3238 30.7878 37.1996C31.4252 36.754 32.0903 36.3494 32.779 35.9882C33.096 35.817 33.4248 35.9285 33.6361 36.2319C33.8318 36.5166 33.8563 36.8806 33.5754 37.0694C32.866 37.5469 32.1126 37.9559 31.3749 38.3894C31.3357 38.4129 31.2799 38.408 31.0882 38.4393Z" fill="url(#paint6_linear_408_6)"/>
</g>
<defs>
<linearGradient id="paint0_linear_408_6" x1="25.0005" y1="-0.000976563" x2="25.0005" y2="50.0112" gradientUnits="userSpaceOnUse">
<stop stop-color="#378CDD"/>
<stop offset="1" stop-color="#2E3191"/>
</linearGradient>
<linearGradient id="paint1_linear_408_6" x1="24.8894" y1="9.91479" x2="24.8894" y2="39.9006" gradientUnits="userSpaceOnUse">
<stop stop-color="#2C73B7"/>
<stop offset="1" stop-color="#2E3191"/>
</linearGradient>
<linearGradient id="paint2_linear_408_6" x1="24.9607" y1="17.6973" x2="24.9607" y2="32.1065" gradientUnits="userSpaceOnUse">
<stop stop-color="#2C73B7"/>
<stop offset="1" stop-color="#2E3191"/>
</linearGradient>
<linearGradient id="paint3_linear_408_6" x1="30.7644" y1="21.3015" x2="30.7644" y2="28.5574" gradientUnits="userSpaceOnUse">
<stop stop-color="#2C73B7"/>
<stop offset="1" stop-color="#2E3191"/>
</linearGradient>
<linearGradient id="paint4_linear_408_6" x1="19.0435" y1="21.257" x2="19.0435" y2="28.5558" gradientUnits="userSpaceOnUse">
<stop stop-color="#2C73B7"/>
<stop offset="1" stop-color="#2E3191"/>
</linearGradient>
<linearGradient id="paint5_linear_408_6" x1="37.1681" y1="30.5264" x2="37.1681" y2="33.784" gradientUnits="userSpaceOnUse">
<stop stop-color="#2C73B7"/>
<stop offset="1" stop-color="#2E3191"/>
</linearGradient>
<linearGradient id="paint6_linear_408_6" x1="32.1724" y1="35.9077" x2="32.1724" y2="38.4393" gradientUnits="userSpaceOnUse">
<stop stop-color="#2C73B7"/>
<stop offset="1" stop-color="#2E3191"/>
</linearGradient>
<clipPath id="clip0_408_6">
<rect width="50" height="50.0196" fill="white"/>
</clipPath>
</defs>
</svg>
