<svg width="50" height="50" viewBox="0 0 50 50" fill="none" xmlns="http://www.w3.org/2000/svg">
<path d="M49.998 15.1947C49.9123 15.2674 49.8382 15.3528 49.7782 15.4478C49.4401 16.2395 48.8548 16.7077 47.9949 16.7458C47.135 16.7839 46.4969 16.4193 46.0738 15.657C46.0262 15.5837 45.9633 15.5215 45.8895 15.4748C45.8156 15.428 45.7325 15.3978 45.6458 15.3863C44.8641 15.3599 44.0824 15.3667 43.3066 15.3765C42.7281 15.3843 42.4643 15.5964 42.2845 16.1584C41.9239 17.2863 41.2018 17.8248 40.0077 17.8424C39.3745 17.8512 38.7374 17.8424 38.0642 17.8424V22.0792C38.6993 22.2747 39.2543 21.9893 39.6276 21.2143C40.0185 20.3943 40.6311 19.8059 41.5145 19.6857C42.2317 19.588 42.7134 19.3553 43.1961 18.7709C43.9339 17.8776 45.382 18.0398 46.111 18.9468C46.2851 19.1619 46.4131 19.4107 46.4869 19.6775C46.5606 19.9443 46.5786 20.2234 46.5396 20.4975C46.5006 20.7716 46.4056 21.0346 46.2604 21.2703C46.1152 21.506 45.9229 21.7092 45.6957 21.8672C44.7117 22.5396 43.3505 22.2366 42.8023 21.183C42.6431 20.8781 42.4555 20.8194 42.1574 20.8321C41.577 20.8566 41.0826 21.0628 40.8393 21.5984C40.3009 22.7859 39.4292 23.4319 38.0671 23.4133V25.0602C38.2332 25.071 38.4042 25.0905 38.5752 25.0925C39.2739 25.0983 39.9735 25.0925 40.6722 25.1061C41.6571 25.1286 42.4545 25.5694 42.9421 26.4002C43.4961 27.3414 44.3179 27.5144 45.2745 27.4176C45.4162 27.4029 45.5677 27.2094 45.6654 27.0628C45.9165 26.6495 46.3054 26.3381 46.7636 26.1836C47.2218 26.0291 47.7198 26.0414 48.1698 26.2184C49.0561 26.5712 49.6013 27.6043 49.3854 28.524C49.2822 28.9972 49.0123 29.4176 48.6251 29.7085C48.2378 29.9993 47.7589 30.1412 47.2757 30.1083C46.5243 30.0496 45.9468 29.6743 45.6204 28.9941C45.4885 28.7185 45.3273 28.6588 45.0586 28.6657C44.7019 28.6867 44.344 28.6742 43.9896 28.6286C43.1199 28.4859 42.4701 28.0011 42.0275 27.2436C41.7402 26.7549 41.3513 26.3835 40.765 26.364C39.8758 26.3327 38.9856 26.3552 38.0622 26.3552V30.7338C38.4032 30.7856 38.7462 30.809 39.0667 30.8921C40.0439 31.1404 40.8139 31.7131 41.1383 32.6514C41.6816 34.222 42.5532 34.5651 44.2124 34.396C44.8446 33.2915 45.6615 32.8556 46.6122 33.1137C47.563 33.3717 48.1493 34.1096 48.16 35.0537C48.1687 35.4961 48.0282 35.9285 47.7613 36.2813C47.4944 36.6342 47.1165 36.8868 46.6885 36.9987C45.6732 37.2645 44.869 36.8443 44.1684 35.6421C43.6691 35.6421 43.118 35.7242 42.605 35.6255C41.4011 35.3939 40.5754 34.6706 40.1543 33.4968C39.8054 32.5263 39.1771 32.0435 38.3085 32.0308C38.2147 32.0385 38.1216 32.0532 38.03 32.0747V32.6611C38.03 36.0106 37.9743 39.36 38.0485 42.7075C38.1052 45.2701 36.4372 47.3822 34.1165 47.778C33.6621 47.8562 33.2029 47.9569 32.7485 47.9578C27.4661 47.9706 22.1836 48.0057 16.9022 47.95C13.9834 47.9188 11.8386 45.8184 11.8552 42.9596C11.8747 39.5291 11.8552 36.0985 11.8552 32.669V32.1031C10.9142 31.8988 10.1051 32.409 9.74749 33.4352C9.33806 34.6081 8.53485 35.3421 7.33101 35.604C6.9255 35.6919 6.49262 35.6802 6.07343 35.6656C5.77344 35.6558 5.62492 35.7506 5.48714 36.0243C5.02788 36.9117 3.91002 37.2948 2.96806 36.9264C2.52767 36.7463 2.16436 36.4174 1.94136 35.997C1.71837 35.5766 1.6498 35.0914 1.7476 34.6256C1.96453 33.6688 2.90161 32.9641 3.87387 33.054C4.60771 33.1195 5.13244 33.5085 5.51939 34.1291C5.63275 34.2822 5.80209 34.3841 5.99037 34.4126C6.31285 34.4581 6.64036 34.4541 6.96165 34.4009C7.67301 34.2709 8.24465 33.9063 8.48698 33.1919C9.01269 31.6427 10.066 30.8237 11.7057 30.7709C11.734 30.7709 11.7624 30.7455 11.819 30.7182V26.3884C10.8419 26.3884 9.88332 26.3298 8.9394 26.4187C8.59642 26.452 8.16745 26.7647 7.98277 27.0726C7.27825 28.2454 6.27862 28.7732 4.93505 28.6676C4.56374 28.6383 4.37319 28.7595 4.19047 29.1035C3.77616 29.8854 2.8039 30.2617 1.98016 30.035C1.05285 29.7799 0.455822 29.0107 0.456799 28.0734C0.462217 27.6398 0.606169 27.2194 0.867601 26.8735C1.12903 26.5276 1.49423 26.2744 1.90981 26.1509C2.33402 26.0248 2.78838 26.0458 3.19917 26.2105C3.60997 26.3751 3.9531 26.6737 4.17288 27.0579C4.34388 27.359 4.53833 27.4332 4.86274 27.4489C5.76953 27.487 6.44669 27.1977 6.9382 26.3806C7.15585 26.0042 7.46728 25.6906 7.84213 25.4703C8.21698 25.25 8.64247 25.1306 9.07717 25.1237C9.8071 25.0934 10.5429 25.1042 11.2699 25.0973H11.819V23.4906C11.7917 23.4681 11.7673 23.43 11.7438 23.43C10.4266 23.4182 9.55988 22.7702 9.01952 21.5857C8.75765 21.0139 8.00524 20.7061 7.40234 20.8497C7.29095 20.8771 7.18249 21.0139 7.118 21.1263C6.64604 21.9483 5.69039 22.3969 4.85884 22.1809C4.41973 22.0759 4.02791 21.828 3.74493 21.4762C3.46195 21.1243 3.30383 20.6884 3.29541 20.2369C3.27978 19.3133 3.92664 18.4972 4.86568 18.2529C5.7197 18.031 6.62453 18.4317 7.08477 19.2703C7.21082 19.5 7.33492 19.5948 7.60266 19.5909C8.82702 19.5772 9.70058 20.1362 10.2468 21.2358C10.6191 21.9835 11.1077 22.2415 11.8171 22.1007V17.8453H10.1315C8.62085 17.8453 8.0795 17.471 7.54989 16.0528C7.39159 15.6326 7.10236 15.3814 6.63724 15.3794C5.82523 15.3745 5.01128 15.3589 4.20025 15.3902C4.04684 15.396 3.84554 15.5681 3.75955 15.7166C3.04917 16.954 1.28835 17.124 0.416733 16.0255C-0.274108 15.1546 -0.0816052 13.7472 0.813459 13.1188C1.7906 12.4346 3.09412 12.679 3.68529 13.716C3.88072 14.0629 4.09373 14.1392 4.4455 14.1284C5.15979 14.1079 5.87604 14.1177 6.59522 14.1284C7.60949 14.1382 8.39512 14.708 8.73321 15.6677C9.01658 16.4721 9.16609 16.5806 10.0035 16.5816H11.8532V15.958C11.8532 12.8696 11.8454 9.78012 11.8532 6.69165C11.8434 5.63417 12.1919 4.60452 12.8418 3.77039C13.4918 2.93627 14.4049 2.34682 15.4325 2.09805C15.6533 2.04796 15.8795 2.02563 16.1058 2.03159C21.8709 2.03159 27.6459 2.07752 33.4149 2.00031C35.206 1.97588 37.3049 3.38524 37.8052 5.35364C37.9414 5.90468 38.0113 6.47002 38.0134 7.03764C38.0329 9.99611 38.0222 12.9546 38.0222 15.914V16.5444C38.8527 16.5444 39.6608 16.5953 40.4533 16.5122C40.6839 16.4887 40.9604 16.1134 41.066 15.8417C41.5477 14.6014 42.1887 14.1274 43.5215 14.1264C44.2202 14.1264 44.9198 14.1411 45.6175 14.1147C45.7036 14.1069 45.787 14.0808 45.8621 14.0382C45.9373 13.9955 46.0025 13.9373 46.0533 13.8674C46.496 13.1071 47.1331 12.6946 48.0125 12.7552C48.8919 12.8158 49.4782 13.3045 49.7977 14.1235C49.828 14.2027 49.9306 14.2545 50 14.319L49.998 15.1947ZM13.1167 8.17138H13.7215C19.0196 8.17138 24.3174 8.17138 29.6148 8.17138C29.7778 8.16485 29.9411 8.16975 30.1034 8.18604C30.4434 8.23295 30.674 8.46556 30.6193 8.77734C30.5792 9.00018 30.3555 9.22889 30.1542 9.36865C30.0184 9.46638 29.778 9.42143 29.5845 9.42143C24.3034 9.42143 19.0219 9.42143 13.7401 9.42143H13.1372V39.0981H36.7528V9.42143C36.2907 9.42143 35.8548 9.43413 35.421 9.42143C34.9871 9.40872 34.6842 9.12822 34.7106 8.7793C34.7438 8.33753 35.035 8.17529 35.4454 8.17529H36.8134C36.7763 7.4149 36.8134 6.70924 36.6932 6.02509C36.3796 4.28441 34.9578 3.18585 33.0778 3.18292C27.6507 3.17706 22.2233 3.17706 16.7956 3.18292C16.6334 3.18292 16.4702 3.18292 16.3071 3.19856C14.6928 3.30705 13.2779 4.63333 13.1245 6.24304C13.0669 6.85194 13.1167 7.47354 13.1167 8.17138ZM36.6874 40.4087H13.0893C13.0893 41.2785 13.0805 42.1201 13.0893 42.9606C13.1186 45.1509 14.5922 46.611 16.7868 46.6208C18.4607 46.6277 20.1345 46.6208 21.8084 46.6208C25.5626 46.6208 29.3168 46.6208 33.071 46.6208C34.8953 46.6208 36.3698 45.5809 36.6512 43.8744C36.8369 42.7563 36.6874 41.5854 36.6874 40.4087ZM2.76286 14.7735C2.76585 14.6728 2.74881 14.5726 2.71273 14.4786C2.67664 14.3847 2.62224 14.2988 2.55269 14.2261C2.48313 14.1533 2.3998 14.0951 2.30755 14.0548C2.21531 14.0146 2.11597 13.9931 2.01534 13.9916C1.56488 13.9798 1.23363 14.2848 1.22777 14.7197C1.22091 14.8202 1.23486 14.921 1.26874 15.0159C1.30262 15.1107 1.3557 15.1976 1.42468 15.271C1.49365 15.3443 1.57703 15.4027 1.66958 15.4424C1.76214 15.4821 1.86188 15.5022 1.96258 15.5016C2.0632 15.5075 2.16398 15.4933 2.25901 15.4597C2.35404 15.4261 2.44139 15.3739 2.51595 15.306C2.5905 15.2382 2.65076 15.1561 2.69316 15.0647C2.73556 14.9732 2.75926 14.8742 2.76286 14.7735ZM48.6388 14.7305C48.64 14.6285 48.6199 14.5274 48.5797 14.4337C48.5394 14.34 48.48 14.2558 48.4053 14.1865C48.3305 14.1172 48.2421 14.0643 48.1457 14.0312C48.0492 13.9981 47.9469 13.9856 47.8454 13.9945C47.648 13.997 47.4595 14.0767 47.32 14.2164C47.1805 14.3561 47.1011 14.5448 47.0989 14.7422C47.098 14.8441 47.1178 14.9451 47.157 15.0392C47.1963 15.1333 47.2542 15.2184 47.3273 15.2895C47.4003 15.3605 47.487 15.416 47.5821 15.4527C47.6772 15.4893 47.7787 15.5063 47.8806 15.5026C47.9821 15.5057 48.0833 15.4877 48.1776 15.4498C48.2719 15.4119 48.3573 15.3549 48.4285 15.2824C48.4997 15.2099 48.5552 15.1234 48.5914 15.0284C48.6276 14.9334 48.6437 14.832 48.6388 14.7305ZM48.161 28.1145C48.1665 28.0136 48.1518 27.9126 48.1176 27.8175C48.0834 27.7224 48.0304 27.6351 47.9619 27.5608C47.8934 27.4866 47.8107 27.4268 47.7187 27.3851C47.6267 27.3433 47.5272 27.3205 47.4262 27.3179C47.3251 27.3139 47.2241 27.3299 47.1293 27.3652C47.0344 27.4004 46.9474 27.4541 46.8734 27.5232C46.7995 27.5923 46.7399 27.6754 46.6983 27.7676C46.6566 27.8599 46.6337 27.9595 46.6308 28.0607C46.6266 28.1614 46.6425 28.2619 46.6776 28.3564C46.7126 28.4509 46.7662 28.5375 46.835 28.6111C46.9039 28.6847 46.9867 28.7438 47.0786 28.7851C47.1705 28.8263 47.2698 28.8489 47.3705 28.8514C47.4714 28.8574 47.5724 28.8428 47.6674 28.8085C47.7625 28.7743 47.8496 28.7211 47.9235 28.6522C47.9974 28.5833 48.0566 28.5001 48.0974 28.4077C48.1382 28.3153 48.1599 28.2155 48.161 28.1145ZM6.09883 20.1978C6.09593 20.0971 6.07319 19.9979 6.03192 19.906C5.99064 19.8141 5.93165 19.7312 5.85832 19.6621C5.78498 19.593 5.69873 19.5391 5.60452 19.5034C5.51032 19.4677 5.41 19.4509 5.3093 19.454C5.20841 19.4524 5.10823 19.4713 5.01487 19.5096C4.92151 19.5479 4.83693 19.6048 4.76627 19.6769C4.6956 19.7489 4.64034 19.8346 4.60384 19.9287C4.56735 20.0228 4.55038 20.1233 4.55397 20.2242C4.56032 20.4273 4.64547 20.62 4.79139 20.7614C4.93731 20.9028 5.13253 20.9818 5.33569 20.9817C5.53955 20.9751 5.73293 20.8898 5.87523 20.7436C6.01753 20.5975 6.09767 20.4018 6.09883 20.1978ZM44.5182 20.9797C44.7216 20.9835 44.9185 20.9078 45.067 20.7688C45.2155 20.6297 45.304 20.4382 45.3136 20.235C45.3177 20.1339 45.3013 20.0331 45.2655 19.9385C45.2297 19.8439 45.1752 19.7575 45.1052 19.6845C45.0352 19.6115 44.9512 19.5534 44.8583 19.5136C44.7653 19.4738 44.6653 19.4533 44.5641 19.4531C44.1186 19.4472 43.7717 19.7668 43.7668 20.1851C43.7633 20.3895 43.84 20.5872 43.9805 20.7357C44.1209 20.8842 44.314 20.9718 44.5182 20.9797ZM3.23677 28.1145C3.24286 27.9104 3.16816 27.7121 3.02893 27.5628C2.88969 27.4134 2.69716 27.3251 2.49317 27.3169C2.39259 27.312 2.29206 27.3276 2.19765 27.3626C2.10324 27.3977 2.01691 27.4515 1.94386 27.5208C1.8708 27.5901 1.81255 27.6735 1.77261 27.766C1.73266 27.8584 1.71186 27.958 1.71145 28.0587C1.70423 28.1596 1.71777 28.2608 1.75122 28.3561C1.78466 28.4515 1.83731 28.539 1.90591 28.6132C1.97451 28.6874 2.05759 28.7467 2.15003 28.7875C2.24247 28.8283 2.34229 28.8497 2.44333 28.8504C2.64658 28.8586 2.84479 28.7858 2.99445 28.6481C3.14412 28.5103 3.23303 28.3187 3.24166 28.1154L3.23677 28.1145ZM3.73317 34.3051C3.63148 34.2983 3.52952 34.3132 3.43397 34.3486C3.33842 34.3841 3.25143 34.4393 3.17873 34.5108C3.10602 34.5822 3.04923 34.6682 3.01208 34.7631C2.97494 34.858 2.95827 34.9597 2.96318 35.0616C2.95938 35.1595 2.97528 35.2572 3.00992 35.3488C3.04457 35.4405 3.09727 35.5242 3.16488 35.5952C3.2325 35.6661 3.31365 35.7227 3.40355 35.7616C3.49345 35.8006 3.59025 35.8211 3.68821 35.8219C3.78994 35.8296 3.89216 35.8162 3.98848 35.7825C4.08479 35.7489 4.17312 35.6957 4.24796 35.6264C4.3228 35.557 4.38252 35.473 4.42341 35.3795C4.46429 35.286 4.48545 35.1851 4.48557 35.0831C4.49174 34.9812 4.4766 34.8792 4.44111 34.7836C4.40562 34.688 4.35058 34.6008 4.27948 34.5277C4.20839 34.4545 4.12282 34.3971 4.02824 34.3589C3.93367 34.3207 3.83216 34.3027 3.73023 34.3061L3.73317 34.3051ZM46.1413 35.8229C46.2435 35.8252 46.3451 35.8064 46.4398 35.7676C46.5344 35.7288 46.62 35.6709 46.6913 35.5975C46.7626 35.5241 46.8179 35.4368 46.8539 35.3411C46.8899 35.2453 46.9058 35.1432 46.9005 35.041C46.9013 34.9435 46.8826 34.8468 46.8456 34.7565C46.8086 34.6663 46.754 34.5843 46.6849 34.5154C46.6159 34.4465 46.5338 34.3921 46.4434 34.3553C46.3531 34.3185 46.2564 34.3001 46.1588 34.3012C45.7025 34.3012 45.3771 34.6139 45.3771 35.0488C45.3731 35.1511 45.3901 35.2532 45.4271 35.3486C45.4642 35.444 45.5205 35.5308 45.5926 35.6035C45.6646 35.6762 45.7509 35.7333 45.8459 35.7712C45.941 35.8091 46.0429 35.8271 46.1452 35.8239L46.1413 35.8229Z" fill="url(#paint0_linear_410_29)"/>
<path d="M14.6948 21.9766C14.6942 21.1886 15.0063 20.4325 15.5625 19.8744C16.1187 19.3163 16.8735 19.0016 17.6614 18.9996C18.4408 19.0099 19.1855 19.3234 19.7377 19.8737C20.2899 20.424 20.6061 21.1678 20.6192 21.9473C20.6329 23.557 19.26 24.9322 17.6418 24.9322C16.0423 24.9322 14.6997 23.5814 14.6948 21.9766ZM17.6712 23.4612C18.4695 23.4495 19.1642 22.7341 19.1457 21.9434C19.1355 21.549 18.9718 21.1742 18.6895 20.8987C18.4071 20.6233 18.0284 20.4689 17.634 20.4685C17.2402 20.4795 16.866 20.6433 16.5908 20.9253C16.3156 21.2073 16.1609 21.5854 16.1595 21.9796C16.1714 22.374 16.3354 22.7486 16.6171 23.0248C16.8989 23.301 17.2766 23.4574 17.6712 23.4612Z" fill="url(#paint1_linear_410_29)"/>
<path d="M14.6948 30.9566C14.7002 30.1687 15.0167 29.4149 15.5752 28.8593C16.1338 28.3037 16.8893 27.9913 17.677 27.9903C18.4566 28.0065 19.1993 28.325 19.7485 28.8787C20.2977 29.4323 20.6102 30.1778 20.6202 30.9576C20.6109 31.7458 20.2916 32.4987 19.7315 33.0531C19.1713 33.6076 18.4153 33.919 17.6272 33.92C16.8476 33.909 16.1036 33.5923 15.5552 33.0381C15.0067 32.4838 14.6978 31.7364 14.6948 30.9566ZM19.1427 30.9713C19.1406 30.5768 18.9855 30.1985 18.7101 29.9161C18.4347 29.6337 18.0605 29.4692 17.6663 29.4574C16.8699 29.4456 16.1663 30.1415 16.1595 30.9439C16.1609 31.3384 16.3165 31.7167 16.5929 31.998C16.8692 32.2794 17.2446 32.4416 17.6389 32.45C18.0335 32.4503 18.4123 32.2954 18.6937 32.0188C18.975 31.7421 19.1363 31.3659 19.1427 30.9713Z" fill="url(#paint2_linear_410_29)"/>
<path d="M28.452 28.5435H34.2474C34.8337 28.5435 35.1542 28.7937 35.1708 29.2443C35.1865 29.6792 34.8396 30.0008 34.2846 30.0017C30.3884 30.0096 26.4925 30.0096 22.5969 30.0017C22.0321 30.0017 21.7028 29.7027 21.7058 29.2521C21.7087 28.8015 22.0165 28.5435 22.6087 28.5425C24.5538 28.5412 26.5016 28.5416 28.452 28.5435Z" fill="url(#paint3_linear_410_29)"/>
<path d="M26.9179 23.0478C28.3308 23.0478 29.7435 23.0478 31.1558 23.0478C31.7616 23.0478 32.0577 23.2834 32.0674 23.7515C32.0772 24.2197 31.7801 24.5041 31.1948 24.506C28.3201 24.5152 25.4456 24.5152 22.5715 24.506C22.0028 24.506 21.6921 24.1982 21.7029 23.7417C21.7175 23.301 22.0243 23.0517 22.5823 23.0507C24.0275 23.0449 25.4727 23.0478 26.9179 23.0478Z" fill="url(#paint4_linear_410_29)"/>
<path d="M26.913 19.6329C28.2614 19.6329 29.6096 19.6329 30.9574 19.6329C31.1356 19.6263 31.314 19.6374 31.4899 19.6661C31.8808 19.7453 32.0762 19.9975 32.0655 20.3933C32.0547 20.7891 31.827 21.0227 31.442 21.0833C31.2645 21.1013 31.0858 21.1055 30.9076 21.096H22.8197C22.6735 21.1017 22.527 21.0991 22.381 21.0882C21.9716 21.0403 21.7175 20.8136 21.7077 20.3933C21.698 19.973 21.9237 19.7248 22.3351 19.6583C22.497 19.6373 22.6604 19.6291 22.8236 19.6339C24.1858 19.6326 25.5489 19.6323 26.913 19.6329Z" fill="url(#paint5_linear_410_29)"/>
<path d="M25.4111 33.3883C24.4692 33.3883 23.5272 33.3883 22.5842 33.3883C22.0107 33.3883 21.6941 33.1098 21.7048 32.6445C21.7126 32.1989 22.0175 31.932 22.5667 31.9301C24.4675 31.9242 26.3684 31.9242 28.2693 31.9301C28.8604 31.9301 29.1536 32.193 29.1487 32.6739C29.1438 33.1547 28.8468 33.3864 28.2448 33.3903C27.296 33.3922 26.3541 33.3883 25.4111 33.3883Z" fill="url(#paint6_linear_410_29)"/>
<path d="M18.5271 13.5361C17.764 13.5361 16.9999 13.5361 16.2367 13.5361C15.7032 13.5361 15.3846 13.2644 15.3778 12.8226C15.371 12.3809 15.6827 12.0789 16.2084 12.0769C17.7835 12.0698 19.359 12.0698 20.9348 12.0769C21.4234 12.0769 21.7449 12.3701 21.7527 12.7923C21.7605 13.2322 21.4332 13.5312 20.9143 13.5351C20.1189 13.541 19.3225 13.5361 18.5271 13.5361Z" fill="url(#paint7_linear_410_29)"/>
<path d="M32.6801 8.17333C32.8755 8.17333 33.071 8.15965 33.2664 8.17333C33.6016 8.20363 33.8038 8.39813 33.8341 8.73336C33.8644 9.0686 33.7012 9.33933 33.3719 9.37158C32.8895 9.42045 32.4033 9.42045 31.9209 9.37158C31.5906 9.33639 31.4323 9.06078 31.4684 8.72457C31.5046 8.38835 31.7127 8.2007 32.0479 8.17627C32.257 8.16063 32.469 8.17236 32.6801 8.17333Z" fill="url(#paint8_linear_410_29)"/>
<path d="M27.0957 43.4952C27.1014 43.783 27.0492 44.069 26.9423 44.3362C26.8353 44.6035 26.6759 44.8465 26.4733 45.051C26.2707 45.2554 26.0292 45.4171 25.763 45.5264C25.4967 45.6357 25.2113 45.6905 24.9235 45.6874C24.6393 45.6881 24.3578 45.6324 24.0953 45.5235C23.8327 45.4146 23.5944 45.2548 23.394 45.0532C23.1937 44.8516 23.0352 44.6123 22.9279 44.349C22.8206 44.0858 22.7666 43.8039 22.7689 43.5196C22.7689 42.295 23.6904 41.345 24.8952 41.3352C26.143 41.3284 27.0899 42.2559 27.0957 43.4952ZM24.9509 42.5912C24.8293 42.5856 24.7078 42.6048 24.5938 42.6476C24.4798 42.6904 24.3757 42.756 24.2878 42.8402C24.1999 42.9245 24.13 43.0257 24.0824 43.1378C24.0348 43.2499 24.0105 43.3705 24.0109 43.4923C24.0054 43.7381 24.0973 43.9761 24.2667 44.1543C24.436 44.3324 24.669 44.4363 24.9147 44.4433C25.1604 44.4441 25.3966 44.3487 25.5728 44.1776C25.7491 44.0064 25.8513 43.7731 25.8577 43.5275C25.8623 43.4057 25.8422 43.2843 25.7987 43.1706C25.7551 43.0568 25.689 42.9531 25.6042 42.8656C25.5195 42.7781 25.4179 42.7087 25.3056 42.6615C25.1933 42.6143 25.0727 42.5904 24.9509 42.5912Z" fill="url(#paint9_linear_410_29)"/>
<defs>
<linearGradient id="paint0_linear_410_29" x1="25" y1="2" x2="25" y2="47.9805" gradientUnits="userSpaceOnUse">
<stop stop-color="#378CDD"/>
<stop offset="1" stop-color="#2E3191"/>
</linearGradient>
<linearGradient id="paint1_linear_410_29" x1="24.9325" y1="41.3352" x2="24.9325" y2="45.6876" gradientUnits="userSpaceOnUse">
<stop stop-color="#2C73B7"/>
<stop offset="1" stop-color="#2E3191"/>
</linearGradient>
<linearGradient id="paint2_linear_410_29" x1="24.9325" y1="41.3352" x2="24.9325" y2="45.6876" gradientUnits="userSpaceOnUse">
<stop stop-color="#2C73B7"/>
<stop offset="1" stop-color="#2E3191"/>
</linearGradient>
<linearGradient id="paint3_linear_410_29" x1="24.9325" y1="41.3352" x2="24.9325" y2="45.6876" gradientUnits="userSpaceOnUse">
<stop stop-color="#2C73B7"/>
<stop offset="1" stop-color="#2E3191"/>
</linearGradient>
<linearGradient id="paint4_linear_410_29" x1="24.9325" y1="41.3352" x2="24.9325" y2="45.6876" gradientUnits="userSpaceOnUse">
<stop stop-color="#2C73B7"/>
<stop offset="1" stop-color="#2E3191"/>
</linearGradient>
<linearGradient id="paint5_linear_410_29" x1="24.9325" y1="41.3352" x2="24.9325" y2="45.6876" gradientUnits="userSpaceOnUse">
<stop stop-color="#2C73B7"/>
<stop offset="1" stop-color="#2E3191"/>
</linearGradient>
<linearGradient id="paint6_linear_410_29" x1="24.9325" y1="41.3352" x2="24.9325" y2="45.6876" gradientUnits="userSpaceOnUse">
<stop stop-color="#2C73B7"/>
<stop offset="1" stop-color="#2E3191"/>
</linearGradient>
<linearGradient id="paint7_linear_410_29" x1="24.9325" y1="41.3352" x2="24.9325" y2="45.6876" gradientUnits="userSpaceOnUse">
<stop stop-color="#2C73B7"/>
<stop offset="1" stop-color="#2E3191"/>
</linearGradient>
<linearGradient id="paint8_linear_410_29" x1="24.9325" y1="41.3352" x2="24.9325" y2="45.6876" gradientUnits="userSpaceOnUse">
<stop stop-color="#2C73B7"/>
<stop offset="1" stop-color="#2E3191"/>
</linearGradient>
<linearGradient id="paint9_linear_410_29" x1="24.9325" y1="41.3352" x2="24.9325" y2="45.6876" gradientUnits="userSpaceOnUse">
<stop stop-color="#2C73B7"/>
<stop offset="1" stop-color="#2E3191"/>
</linearGradient>
</defs>
</svg>
