<svg xmlns="http://www.w3.org/2000/svg" xmlns:xlink="http://www.w3.org/1999/xlink" width="512" height="379" viewBox="0 0 512 379">
  <defs>
    <clipPath id="clip-path">
      <path id="Path_11111" data-name="Path 11111" d="M262.009,432.646a24.906,24.906,0,1,1,13.01-13.956,24.916,24.916,0,0,1-13.01,13.956Z" transform="translate(-226.751 -385.053)" fill="#263238"/>
    </clipPath>
    <clipPath id="clip-path-2">
      <path id="Path_11139" data-name="Path 11139" d="M322.5,107.781a40.072,40.072,0,0,0-9.92-9.89,146.393,146.393,0,0,0-15.671-8.117l-3.253-18.128A61.969,61.969,0,0,0,302,61.776c2.941-4.743,2.014-7.926.131-11.209s-4.492-1.158-4.884.342a33.566,33.566,0,0,0-.524,4.784s-1.752-12.085-2.77-14.835-4.895-.1-4.552.816c0,0-1.168-3.434-3.575-3.475s-3.092,4.028-3.092,4.028-3.092-1.43-4.824.363S277,48.875,277,48.875s-2.759,1.007-3.182,4.925-.081,10.776,1.007,12.659a20.217,20.217,0,0,1,1.46,2.8c-1.37,16.355-1.319,15.278-1.722,21.8-.282,4.592,2.729,15.268,7.05,19.709s19.78,12.287,19.78,12.287S317.54,118.9,322.5,107.781Z" transform="translate(-273.646 -38.2)" fill="#fff" stroke="#263238" stroke-linecap="round" stroke-linejoin="round" stroke-width="1.191"/>
    </clipPath>
    <clipPath id="clip-path-3">
      <path id="Path_11150" data-name="Path 11150" d="M282.352,125.934s-4.5.473-5.922,1.692-12.226,10.464-13.979,15.943,4.9,21.874,12.176,28.2,16.355,13.022,24.07,11.642,16.577-13.264,17.493-16.5-29.267-40.284-29.267-40.284S284.78,124.473,282.352,125.934Z" transform="translate(-262.169 -125.426)" fill="#fff" stroke="#263238" stroke-linecap="round" stroke-linejoin="round" stroke-width="1.191"/>
    </clipPath>
    <clipPath id="clip-path-4">
      <path id="Path_11157" data-name="Path 11157" d="M320.669,104.123s-4.774-1.611-11.884,1.41-24.9,13.465-27.5,22.559c-1.722,5.972,17.121,33.859,28.894,38.451,3.162,1.229,6.043,2.568,12.518-2.709S342.745,143.9,346.3,137.448s-2.014-11.27-3.877-14.1S325.664,101.988,320.669,104.123Z" transform="translate(-281.171 -103.694)" fill="#fff" stroke="#263238" stroke-linecap="round" stroke-linejoin="round" stroke-width="1.191"/>
    </clipPath>
    <clipPath id="clip-path-5">
      <circle id="Ellipse_161" data-name="Ellipse 161" cx="26.688" cy="26.688" r="26.688" transform="translate(0 14.892) rotate(-16.2)" fill="#fff" stroke="#263238" stroke-linecap="round" stroke-linejoin="round" stroke-width="1.191"/>
    </clipPath>
    <clipPath id="clip-path-6">
      <path id="Path_11169" data-name="Path 11169" d="M348,134.5s-10.363-2.8-14.442,4.985.524,27.192.524,27.192-7.573,12.307-9.5,13.646-7.342.755-12.68,3.475-3.575,5.509-2.155,6.445,5.771-1.863,7.05-1.762,1.138,2.407-3.9,7.634-7.342,5.358-5.9,7.775a3.716,3.716,0,0,0,4.028,1.8,2.588,2.588,0,0,0,1.41,3.092c2.075,1.007,2.961.232,2.961.232s-.2,2.629,1.722,3.434a8.188,8.188,0,0,0,4.623,0s1.823,2.135,3.666,1.783,6.043-5.489,9.366-9.86,16.114-19.911,21.149-29.438,2.649-19.135,1.621-25.006S351.87,135.793,348,134.5Z" transform="translate(-306.58 -134.013)" fill="#fff" stroke="#263238" stroke-linecap="round" stroke-linejoin="round" stroke-width="1.191"/>
    </clipPath>
    <clipPath id="clip-path-7">
      <path id="Path_11180" data-name="Path 11180" d="M257.441,138.3s4.19,12.085,9.578,12.982,12.881-8.248,14.4-15.107-3.827-12.377-11.562-19.266-18.823-10.9-28.2-5.67-23.234,20.142-23.234,20.142-8.671-7.624-13.274-3.686,1.4,15.983,5.64,20.948,11.975,12.246,19.4,10.514,13.3-15.661,18.128-19.759S256.373,137.059,257.441,138.3Z" transform="translate(-203.494 -108.848)" fill="#fff" stroke="#263238" stroke-linecap="round" stroke-linejoin="round" stroke-width="1.191"/>
    </clipPath>
    <clipPath id="clip-path-8">
      <path id="Path_11189" data-name="Path 11189" d="M281.405,180.759s12.257,3.605,16.114-.242,4.431-15.54-3.908-20.495c-6.043-3.565-12.3-4.028-22.4-1.773s-19.8,8.993-20.978,19.629,2.921,30.636,2.921,30.636-11.229,2.629-10.706,8.671,13.828,8.148,20.323,7.573,16.859-2.649,19.749-9.688-5.036-19.921-5.579-26.185S279.784,180.9,281.405,180.759Z" transform="translate(-242.432 -156.872)" fill="#fff" stroke="#263238" stroke-linecap="round" stroke-linejoin="round" stroke-width="1.191"/>
    </clipPath>
    <clipPath id="clip-error-vector">
      <rect width="512" height="379"/>
    </clipPath>
  </defs>
  <g id="error-vector" clip-path="url(#clip-error-vector)">
    <g id="Group_3649" data-name="Group 3649" transform="translate(-36.191 -3.182)">
      <g id="freepik--number-2--inject-37" transform="translate(347.761 192.472)">
        <path id="Path_10930" data-name="Path 10930" d="M540.365,199.428V163.813H494v-22.8L533.769,46.79h33.919v94.786h14.707v22.236H567.687v35.615ZM517,141.576h23.369V76.751Z" transform="translate(-493.773 -46.568)" fill="#fff"/>
      </g>
      <path id="Path_10934" data-name="Path 10934" d="M316,199.466q-13.77,0-22.8-5.65a35.135,35.135,0,0,1-13.566-15.547,54.538,54.538,0,0,1-4.526-22.9V86.966q0-13.379,4.335-23.462a33.848,33.848,0,0,1,13.384-15.729q9.048-5.659,23.178-5.655,13.948,0,22.9,5.655a34.043,34.043,0,0,1,13.286,15.733q4.331,10.083,4.331,23.462v68.406a54.566,54.566,0,0,1-4.522,22.9,35.163,35.163,0,0,1-13.566,15.547Q329.382,199.466,316,199.466Zm0-25.625q5.09,0,7.351-3.2a18.482,18.482,0,0,0,3.016-7.631,49.627,49.627,0,0,0,.751-8.2V87.534a60.037,60.037,0,0,0-.657-8.666,18.31,18.31,0,0,0-2.923-7.822q-2.257-3.291-7.551-3.3t-7.613,3.3a17.58,17.58,0,0,0-3.016,7.822,60.028,60.028,0,0,0-.657,8.666v67.273a48.707,48.707,0,0,0,.755,8.2,16.99,16.99,0,0,0,3.2,7.631Q311.1,173.845,316,173.841Z" transform="translate(-24.35 148.5)" fill="#fff"/>
      <g id="_503_Error_Service_Unavailable-bro_1_" data-name="503 Error Service Unavailable-bro (1)" transform="translate(77.191 30.182)">
        <g id="freepik--planet-3--inject-78" transform="translate(335.32 197.936)">
          <path id="Path_11101" data-name="Path 11101" d="M396.709,263.936a15.439,15.439,0,1,1,11.784.967A15.449,15.449,0,0,1,396.709,263.936Z" transform="translate(-388.311 -234.739)" fill="#0c6c9a"/>
          <path id="Path_11102" data-name="Path 11102" d="M411.38,241.85l7.493,10.514a15.276,15.276,0,0,0-.342-6.123Z" transform="translate(-388.147 -234.689)" fill="#39b2eb"/>
          <path id="Path_11103" data-name="Path 11103" d="M395.78,236.955l17.806,25.117a15.278,15.278,0,0,0,3.636-4.411L402.286,234.82a15.429,15.429,0,0,0-6.506,2.135Z" transform="translate(-388.258 -234.739)" fill="#39b2eb"/>
          <path id="Path_11104" data-name="Path 11104" d="M403.145,265.478,395.41,254.4l4.028,10.494a15.691,15.691,0,0,0,3.706.584Z" transform="translate(-388.26 -234.599)" fill="#39b2eb"/>
          <path id="Path_11105" data-name="Path 11105" d="M409.458,264.49l-17.685-24.1c-.171.212-.332.443-.493.665L404.09,265.6A15.582,15.582,0,0,0,409.458,264.49Z" transform="translate(-388.29 -234.699)" fill="#39b2eb"/>
        </g>
        <g id="freepik--planet-2--inject-78" transform="translate(357.785 23.733)">
          <path id="Path_11106" data-name="Path 11106" d="M262.009,432.646a24.906,24.906,0,1,1,13.01-13.956,24.916,24.916,0,0,1-13.01,13.956Z" transform="translate(-216.208 -385.053)" fill="#0c6c9a"/>
          <g id="Group_3640" data-name="Group 3640" transform="translate(10.543)" clip-path="url(#clip-path)">
            <path id="Path_11107" data-name="Path 11107" d="M274.037,420.752l-17-26.688,19.306,18.551c.05-.514.091-1.007.111-1.551l-22.871-25.923a24.378,24.378,0,0,0-5.861.222l4.592,7.3-7.594-6.647h0l6.043,10.937-12.216-8.2c-.3.191-.6.383-.9.584l22.67,25.178-17.987-13.687,6.4,10.071-9.316-6.445L263.8,431.709a24.755,24.755,0,0,0,7.624-6.617l-4.965-8.289,6.163,6.566A23.92,23.92,0,0,0,274.037,420.752Z" transform="translate(-226.673 -385.053)" fill="#39b2eb"/>
            <path id="Path_11108" data-name="Path 11108" d="M259,433.632,239.51,411.154l8.661,13.374L226.821,407.79a24.906,24.906,0,0,0,21.572,26.739L240.7,427.69l11.944,7.05A25.42,25.42,0,0,0,259,433.632Z" transform="translate(-226.751 -384.892)" fill="#39b2eb"/>
            <path id="Path_11109" data-name="Path 11109" d="M260.69,386.87l10.927,12.69-2.216-4.844,3.535,2.719A24.805,24.805,0,0,0,260.69,386.87Z" transform="translate(-226.509 -385.04)" fill="#39b2eb"/>
            <path id="Path_11110" data-name="Path 11110" d="M235.519,406.418l-5.9-8.158a25.388,25.388,0,0,0-2.518,7.362Z" transform="translate(-226.748 -384.959)" fill="#39b2eb"/>
          </g>
          <path id="Path_11112" data-name="Path 11112" d="M288.741,393.385c-1.813-3.968-9.85-4.522-20.525-2.095a22.854,22.854,0,0,1,1.924,1.9c7.976-1.833,13.666-1.672,14.845.886,2.075,4.542-10.867,14.915-28.914,23.163s-34.342,11.27-36.427,6.727c-1.068-2.336,1.863-6.224,7.412-10.575a23.843,23.843,0,0,1-.232-2.669c-7.745,6.043-11.864,11.924-10.162,15.63,2.87,6.284,21.341,4.028,41.291-5.106S291.612,399.669,288.741,393.385Z" transform="translate(-216.282 -385.019)" fill="#91dafc"/>
        </g>
        <g id="freepik--planet-1--inject-78" transform="translate(54.537 112.394)">
          <circle id="Ellipse_159" data-name="Ellipse 159" cx="24.604" cy="24.604" r="24.604" transform="translate(0)" fill="#39b2eb"/>
          <path id="Path_11113" data-name="Path 11113" d="M139.915,156.2a19.015,19.015,0,0,1,5.63-3.575,24.1,24.1,0,0,0-6.345-2.286,57.038,57.038,0,0,0-6.486,5.036c-8.8,8-6.405,7.2-19.2,11.995A20.012,20.012,0,0,0,110.124,169a24.23,24.23,0,0,0-.614,5.368,24.553,24.553,0,0,0,1.742,9.064c4.572-1.39,10.655-3.646,13.465-6.456C129.511,172.2,130.317,165,139.915,156.2Z" transform="translate(-109.51 -149.796)" fill="#0c6c9a"/>
          <path id="Path_11114" data-name="Path 11114" d="M116.19,191.128a24.785,24.785,0,0,0,6.435,4.9c4.582-3.2,6.717-6.607,13.243-9.568,5.73-2.608,15.187-3.182,21.089-3.253a24.494,24.494,0,0,0,1.7-8.953A8.784,8.784,0,0,0,158.6,173a70.86,70.86,0,0,0-20.334,4.663C128.96,181.359,124.448,187.956,116.19,191.128Z" transform="translate(-109.463 -149.635)" fill="#0c6c9a"/>
          <path id="Path_11115" data-name="Path 11115" d="M140.5,165.742c4.351,2.175,11.078,1.007,16.265-.443a24.7,24.7,0,0,0-4.139-6.879C145.7,159.719,134.48,162.73,140.5,165.742Z" transform="translate(-109.302 -149.739)" fill="#0c6c9a"/>
        </g>
        <g id="freepik--Character--inject-78">
          <path id="Path_11135" data-name="Path 11135" d="M325.244,82.853h0a3.5,3.5,0,0,1,1.1-4.824l5.71-3.616a3.5,3.5,0,0,1,4.844,1.1h0a3.5,3.5,0,0,1-1.1,4.844l-5.7,3.6a3.515,3.515,0,0,1-4.854-1.1Z" transform="translate(-53.443 -37.946)" fill="#fff" stroke="#263238" stroke-linecap="round" stroke-linejoin="round" stroke-width="1.191"/>
          <path id="Path_11136" data-name="Path 11136" d="M322.5,107.781a40.072,40.072,0,0,0-9.92-9.89,146.393,146.393,0,0,0-15.671-8.117l-3.253-18.128A61.969,61.969,0,0,0,302,61.776c2.941-4.743,2.014-7.926.131-11.209s-4.492-1.158-4.884.342a33.566,33.566,0,0,0-.524,4.784s-1.752-12.085-2.77-14.835-4.895-.1-4.552.816c0,0-1.168-3.434-3.575-3.475s-3.092,4.028-3.092,4.028-3.092-1.43-4.824.363S277,48.875,277,48.875s-2.759,1.007-3.182,4.925-.081,10.776,1.007,12.659a20.217,20.217,0,0,1,1.46,2.8c-1.37,16.355-1.319,15.278-1.722,21.8-.282,4.592,2.729,15.268,7.05,19.709s19.78,12.287,19.78,12.287S317.54,118.9,322.5,107.781Z" transform="translate(-53.806 -38.2)" fill="#fff"/>
          <g id="Group_3641" data-name="Group 3641" transform="translate(219.84)" clip-path="url(#clip-path-2)">
            <path id="Path_11137" data-name="Path 11137" d="M301.45,122.859s16.114-4.179,21.049-15.3c0,0-.322-.473-.9-1.229l-4.19-3.495a140.3,140.3,0,0,0-17.695,2.629c-8.842,2.014-15.721-2.3-18.339-12.085S276.342,69.1,276.342,69.1h0c-1.37,16.355-1.319,15.278-1.722,21.8-.282,4.592,2.729,15.268,7.05,19.709S301.45,122.859,301.45,122.859Z" transform="translate(-273.639 -37.98)" fill="#39b2eb"/>
            <path id="Path_11138" data-name="Path 11138" d="M301.45,122.859s16.114-4.179,21.049-15.3c0,0-.322-.473-.9-1.229l-4.19-3.495a140.3,140.3,0,0,0-17.695,2.629c-8.842,2.014-15.721-2.3-18.339-12.085S276.342,69.1,276.342,69.1h0c-1.37,16.355-1.319,15.278-1.722,21.8-.282,4.592,2.729,15.268,7.05,19.709S301.45,122.859,301.45,122.859Z" transform="translate(-273.639 -37.98)" fill="#fff" opacity="0.5"/>
          </g>
          <path id="Path_11140" data-name="Path 11140" d="M322.5,107.781a40.072,40.072,0,0,0-9.92-9.89,146.393,146.393,0,0,0-15.671-8.117l-3.253-18.128A61.969,61.969,0,0,0,302,61.776c2.941-4.743,2.014-7.926.131-11.209s-4.492-1.158-4.884.342a33.566,33.566,0,0,0-.524,4.784s-1.752-12.085-2.77-14.835-4.895-.1-4.552.816c0,0-1.168-3.434-3.575-3.475s-3.092,4.028-3.092,4.028-3.092-1.43-4.824.363S277,48.875,277,48.875s-2.759,1.007-3.182,4.925-.081,10.776,1.007,12.659a20.217,20.217,0,0,1,1.46,2.8c-1.37,16.355-1.319,15.278-1.722,21.8-.282,4.592,2.729,15.268,7.05,19.709s19.78,12.287,19.78,12.287S317.54,118.9,322.5,107.781Z" transform="translate(-53.806 -38.2)" fill="none" stroke="#263238" stroke-linecap="round" stroke-linejoin="round" stroke-width="1.191"/>
          <path id="Path_11141" data-name="Path 11141" d="M295.655,82.734l-2.014-11.078a61.974,61.974,0,0,0,8.339-9.87c2.941-4.743,2.014-7.926.131-11.209s-4.492-1.158-4.884.342A33.556,33.556,0,0,0,296.7,55.7s-1.752-12.085-2.77-14.835-4.895-.1-4.552.816c0,0-1.168-3.434-3.575-3.475s-3.092,4.028-3.092,4.028-3.092-1.43-4.824.363-.906,6.284-.906,6.284-2.759,1.007-3.182,4.925-.081,10.776,1.007,12.659a20.224,20.224,0,0,1,1.46,2.8c-.6,7.231-.937,11.078-1.148,13.636Z" transform="translate(-53.806 -38.2)" fill="#fff" stroke="#263238" stroke-linecap="round" stroke-linejoin="round" stroke-width="1.191"/>
          <path id="Path_11142" data-name="Path 11142" d="M279.54,107.669a18.464,18.464,0,0,0,1.219,1.752c4.25-3.555,13.818-12.085,18.128-19.407-1.209-.383-2.014-.6-2.014-.6S287.97,101.082,279.54,107.669Z" transform="translate(-53.764 -37.836)" fill="#fff" stroke="#263238" stroke-linecap="round" stroke-linejoin="round" stroke-width="1.191"/>
          <path id="Path_11143" data-name="Path 11143" d="M296.634,55.55s-9.517-.352-10.524,7.674" transform="translate(-53.717 -38.076)" fill="none" stroke="#263238" stroke-linecap="round" stroke-linejoin="round" stroke-width="1.191"/>
          <line id="Line_19" data-name="Line 19" x2="0.322" y2="10.121" transform="translate(235.595 3.455)" fill="none" stroke="#263238" stroke-linecap="round" stroke-linejoin="round" stroke-width="1.191"/>
          <line id="Line_20" data-name="Line 20" x2="0.655" y2="9.155" transform="translate(228.928 4.049)" fill="none" stroke="#263238" stroke-linecap="round" stroke-linejoin="round" stroke-width="1.191"/>
          <line id="Line_21" data-name="Line 21" x2="1.027" y2="5.71" transform="translate(223.198 10.696)" fill="none" stroke="#263238" stroke-linecap="round" stroke-linejoin="round" stroke-width="1.191"/>
          <path id="Path_11144" data-name="Path 11144" d="M291.615,51.21s-10.746,1.8-14.885,5.318" transform="translate(-53.784 -38.107)" fill="none" stroke="#263238" stroke-linecap="round" stroke-linejoin="round" stroke-width="1.191"/>
          <path id="Path_11145" data-name="Path 11145" d="M289.1,114.367c3.5-3.021,3.233-9.064-.624-13.586-3.716-4.351-9.406-5.63-12.951-3.021,1.2,4.633,3.394,9.829,6.113,12.6a39.4,39.4,0,0,0,6.456,4.774,6.042,6.042,0,0,0,1.007-.765Z" transform="translate(-53.793 -37.786)" fill="#39b2eb"/>
          <path id="Path_11146" data-name="Path 11146" d="M289.1,114.367c3.5-3.021,3.233-9.064-.624-13.586-3.716-4.351-9.406-5.63-12.951-3.021,1.2,4.633,3.394,9.829,6.113,12.6a39.4,39.4,0,0,0,6.456,4.774,6.042,6.042,0,0,0,1.007-.765Z" transform="translate(-53.793 -37.786)" fill="none" stroke="#263238" stroke-linecap="round" stroke-linejoin="round" stroke-width="1.191"/>
          <path id="Path_11147" data-name="Path 11147" d="M282.352,125.934s-4.5.473-5.922,1.692-12.226,10.464-13.979,15.943,4.9,21.874,12.176,28.2,16.355,13.022,24.07,11.642,16.577-13.264,17.493-16.5-29.267-40.284-29.267-40.284S284.78,124.473,282.352,125.934Z" transform="translate(-53.887 -37.58)" fill="#fff"/>
          <g id="Group_3642" data-name="Group 3642" transform="translate(208.281 87.846)" clip-path="url(#clip-path-3)">
            <path id="Path_11148" data-name="Path 11148" d="M282.353,125.934s-.886.091-2.014.3l1.007,1.7s-.927,9.547,5.62,20.364,18.017,17.685,17.685,21.613,1.007,9.175-8.842,8.52-20.3-17.363-23.909-25.55c-1.873-4.26-3.485-10.726-5.328-15.731a21.06,21.06,0,0,0-4.19,6.415c-1.752,5.479,4.9,21.874,12.176,28.2s16.355,13.022,24.07,11.642,16.577-13.264,17.493-16.5-29.267-40.284-29.267-40.284S284.78,124.473,282.353,125.934Z" transform="translate(-262.169 -125.426)" fill="#39b2eb"/>
            <path id="Path_11149" data-name="Path 11149" d="M282.353,125.934s-.886.091-2.014.3l1.007,1.7s-.927,9.547,5.62,20.364,18.017,17.685,17.685,21.613,1.007,9.175-8.842,8.52-20.3-17.363-23.909-25.55c-1.873-4.26-3.485-10.726-5.328-15.731a21.06,21.06,0,0,0-4.19,6.415c-1.752,5.479,4.9,21.874,12.176,28.2s16.355,13.022,24.07,11.642,16.577-13.264,17.493-16.5-29.267-40.284-29.267-40.284S284.78,124.473,282.353,125.934Z" transform="translate(-262.169 -125.426)" fill="#fff" opacity="0.5"/>
          </g>
          <path id="Path_11151" data-name="Path 11151" d="M282.352,125.934s-4.5.473-5.922,1.692-12.226,10.464-13.979,15.943,4.9,21.874,12.176,28.2,16.355,13.022,24.07,11.642,16.577-13.264,17.493-16.5-29.267-40.284-29.267-40.284S284.78,124.473,282.352,125.934Z" transform="translate(-53.887 -37.58)" fill="none" stroke="#263238" stroke-linecap="round" stroke-linejoin="round" stroke-width="1.191"/>
          <path id="Path_11152" data-name="Path 11152" d="M320.669,104.123s-4.774-1.611-11.884,1.41-24.9,13.465-27.5,22.559c-1.722,5.972,17.121,33.859,28.894,38.451,3.162,1.229,6.043,2.568,12.518-2.709S342.745,143.9,346.3,137.448s-2.014-11.27-3.877-14.1S325.664,101.988,320.669,104.123Z" transform="translate(-53.752 -37.734)" fill="#fff"/>
          <g id="Group_3644" data-name="Group 3644" transform="translate(227.418 65.96)" clip-path="url(#clip-path-4)">
            <path id="Path_11153" data-name="Path 11153" d="M346.268,137.12l-12.277,3.908s-12.77,15.107-17.352,19-19-5.569-23.919-10.162l-1.45-1.35c5.871,7.976,13.173,15.59,18.833,17.806,3.162,1.229,6.043,2.568,12.518-2.709s20.051-19.931,23.607-26.386A.362.362,0,0,0,346.268,137.12Z" transform="translate(-281.099 -103.456)" fill="#39b2eb"/>
            <path id="Path_11154" data-name="Path 11154" d="M339.736,136.008l6.607.856c2.931-6.163-2.306-10.776-4.149-13.536s-16.758-21.341-21.754-19.206a11.139,11.139,0,0,0-2.81-.413c-6.043,4.552-5.358,9.779.161,19.2S339.736,136.008,339.736,136.008Z" transform="translate(-280.942 -103.694)" fill="#39b2eb"/>
            <g id="Group_3643" data-name="Group 3643" transform="translate(10.171 0.016)" opacity="0.5">
              <path id="Path_11155" data-name="Path 11155" d="M346.268,137.12l-12.277,3.908s-12.77,15.107-17.352,19-19-5.569-23.919-10.162l-1.45-1.35c5.871,7.976,13.173,15.59,18.833,17.806,3.162,1.229,6.043,2.568,12.518-2.709s20.051-19.931,23.607-26.386A.362.362,0,0,0,346.268,137.12Z" transform="translate(-291.27 -103.473)" fill="#fff"/>
              <path id="Path_11156" data-name="Path 11156" d="M339.736,136.008l6.607.856c2.931-6.163-2.306-10.776-4.149-13.536s-16.758-21.341-21.754-19.206a11.139,11.139,0,0,0-2.81-.413c-6.043,4.552-5.358,9.779.161,19.2S339.736,136.008,339.736,136.008Z" transform="translate(-291.113 -103.71)" fill="#fff"/>
            </g>
          </g>
          <path id="Path_11158" data-name="Path 11158" d="M320.669,104.123s-4.774-1.611-11.884,1.41-24.9,13.465-27.5,22.559c-1.722,5.972,17.121,33.859,28.894,38.451,3.162,1.229,6.043,2.568,12.518-2.709S342.745,143.9,346.3,137.448s-2.014-11.27-3.877-14.1S325.664,101.988,320.669,104.123Z" transform="translate(-53.752 -37.734)" fill="none" stroke="#263238" stroke-linecap="round" stroke-linejoin="round" stroke-width="1.191"/>
          <rect id="Rectangle_775" data-name="Rectangle 775" width="32.59" height="27.816" rx="5.89" transform="matrix(0.589, 0.808, -0.808, 0.589, 256.575, 72.46)" fill="#fff" stroke="#263238" stroke-linecap="round" stroke-linejoin="round" stroke-width="1.191"/>
          <path id="Path_11159" data-name="Path 11159" d="M482.535,230.788c-15.056-39.277-52.722-38.844-85.947-38.431-11.451.141-22.267.282-32.227-1.007-33.607-4.25-43.215-38.794-43.306-39.277a2.4,2.4,0,0,0-4.643,1.229c.1.383,10.464,38.109,47.334,42.782,10.3,1.309,21.794,1.158,32.912,1.007,33.235-.413,67.537-.846,81.4,35.339a49.781,49.781,0,0,1-9.014,49.832c-10.313,11.874-24.946,16.688-40.133,13.2-14.331-3.293-28.491-7.825-42.188-12.206-22.67-7.251-46.105-14.754-70.981-16.839-42.651-3.585-72.32,17.191-106.643,41.231-6.909,4.844-14.049,9.839-21.532,14.815l-4.26,2.84c-21.24,14.18-43.195,28.844-68.04,31.492-19.316,2.014-38.955-6.989-48.9-22.509A38.008,38.008,0,0,1,61.04,305.4,31.976,31.976,0,0,1,76.2,284.951c12.861-7.664,35.581-10.212,54.958-8.057l.332-4.784c-20.334-2.165-44.061.614-57.748,8.762a37.172,37.172,0,0,0-17.373,23.516,42.792,42.792,0,0,0,5.962,32.65c9.97,15.58,28.008,25,47.153,25.027a60.188,60.188,0,0,0,6.294-.332c26.014-2.77,49.489-18.44,70.185-32.227l4.25-2.84c7.543-5.036,14.7-10.071,21.633-14.875,33.567-23.516,62.551-43.829,103.49-40.385,24.332,2.014,47.505,9.457,69.913,16.627,13.8,4.411,28.058,8.973,42.581,12.307,16.98,3.9,33.315-1.47,44.836-14.724A54.615,54.615,0,0,0,482.535,230.788Z" transform="translate(-55.357 -37.403)" fill="#39b2eb" stroke="#263238" stroke-linecap="round" stroke-linejoin="round" stroke-width="1.191"/>
          <path id="Path_11160" data-name="Path 11160" d="M313.446,121.083a3.273,3.273,0,1,1-3.273-3.273,3.273,3.273,0,0,1,3.273,3.273Z" transform="translate(-53.569 -37.634)" fill="#39b2eb" stroke="#263238" stroke-linecap="round" stroke-linejoin="round" stroke-width="1.191"/>
          <path id="Path_11161" data-name="Path 11161" d="M304.626,128.5a3.273,3.273,0,1,1-3.263-3.263,3.273,3.273,0,0,1,3.263,3.263Z" transform="translate(-53.632 -37.581)" fill="#39b2eb" stroke="#263238" stroke-linecap="round" stroke-linejoin="round" stroke-width="1.191"/>
          <circle id="Ellipse_160" data-name="Ellipse 160" cx="26.688" cy="26.688" r="26.688" transform="translate(255.539 47.907) rotate(-16.2)" fill="#fff"/>
          <g id="Group_3645" data-name="Group 3645" transform="translate(255.539 33.015)" clip-path="url(#clip-path-5)">
            <path id="Path_11162" data-name="Path 11162" d="M362.394,86.611a27.187,27.187,0,0,0-3.021-3.021,26.658,26.658,0,0,1-42.923,27.6,26.678,26.678,0,1,0,45.944-24.584Z" transform="translate(-309.041 -70.892)" fill="#39b2eb"/>
            <path id="Path_11163" data-name="Path 11163" d="M362.394,86.611a27.187,27.187,0,0,0-3.021-3.021,26.658,26.658,0,0,1-42.923,27.6,26.678,26.678,0,1,0,45.944-24.584Z" transform="translate(-309.041 -70.892)" fill="#fff" opacity="0.5"/>
          </g>
          <circle id="Ellipse_162" data-name="Ellipse 162" cx="26.688" cy="26.688" r="26.688" transform="translate(255.539 47.907) rotate(-16.2)" fill="none" stroke="#263238" stroke-linecap="round" stroke-linejoin="round" stroke-width="1.191"/>
          <line id="Line_22" data-name="Line 22" y1="6.647" x2="7.775" transform="translate(312.307 77.88)" fill="none" stroke="#263238" stroke-linecap="round" stroke-linejoin="round" stroke-width="1.191"/>
          <path id="Path_11164" data-name="Path 11164" d="M375.254,116.386a2.054,2.054,0,1,0-2.9-.227,2.054,2.054,0,0,0,2.9.227Z" transform="translate(-53.108 -37.67)" fill="#263238"/>
          <path id="Path_11165" data-name="Path 11165" d="M356.006,130.2h0a3.5,3.5,0,0,1,.393-4.945l5.116-4.391a3.525,3.525,0,0,1,4.955.393h0a3.5,3.5,0,0,1-.383,4.945l-5.126,4.391A3.515,3.515,0,0,1,356.006,130.2Z" transform="translate(-53.226 -37.618)" fill="#fff" stroke="#263238" stroke-linecap="round" stroke-linejoin="round" stroke-width="1.191"/>
          <path id="Path_11166" data-name="Path 11166" d="M348,134.5s-10.363-2.8-14.442,4.985.524,27.192.524,27.192-7.573,12.307-9.5,13.646-7.342.755-12.68,3.475-3.575,5.509-2.155,6.445,5.771-1.863,7.05-1.762,1.138,2.407-3.9,7.634-7.342,5.358-5.9,7.775a3.716,3.716,0,0,0,4.028,1.8,2.588,2.588,0,0,0,1.41,3.092c2.075,1.007,2.961.232,2.961.232s-.2,2.629,1.722,3.434a8.188,8.188,0,0,0,4.623,0s1.823,2.135,3.666,1.783,6.043-5.489,9.366-9.86,16.114-19.911,21.149-29.438,2.649-19.135,1.621-25.006S351.87,135.793,348,134.5Z" transform="translate(-53.572 -37.519)" fill="#fff"/>
          <g id="Group_3646" data-name="Group 3646" transform="translate(253.009 96.495)" clip-path="url(#clip-path-6)">
            <path id="Path_11167" data-name="Path 11167" d="M357.488,149.96c-1.007-5.871-5.68-14.17-9.547-15.459l-.242-.06a56.71,56.71,0,0,1,4.139,26.9c-1.309,16.7-16.627,29.871-21.29,34.715-3.736,3.887-8.44,9.336-15.217,13.364a3.273,3.273,0,0,0,1.722,3.021,8.188,8.188,0,0,0,4.623,0s1.823,2.135,3.666,1.783,6.043-5.489,9.366-9.86,16.114-19.911,21.149-29.438S358.515,155.831,357.488,149.96Z" transform="translate(-306.518 -134.01)" fill="#39b2eb"/>
            <path id="Path_11168" data-name="Path 11168" d="M357.488,149.96c-1.007-5.871-5.68-14.17-9.547-15.459l-.242-.06a56.71,56.71,0,0,1,4.139,26.9c-1.309,16.7-16.627,29.871-21.29,34.715-3.736,3.887-8.44,9.336-15.217,13.364a3.273,3.273,0,0,0,1.722,3.021,8.188,8.188,0,0,0,4.623,0s1.823,2.135,3.666,1.783,6.043-5.489,9.366-9.86,16.114-19.911,21.149-29.438S358.515,155.831,357.488,149.96Z" transform="translate(-306.518 -134.01)" fill="#fff" opacity="0.5"/>
          </g>
          <path id="Path_11170" data-name="Path 11170" d="M348,134.5s-10.363-2.8-14.442,4.985.524,27.192.524,27.192-7.573,12.307-9.5,13.646-7.342.755-12.68,3.475-3.575,5.509-2.155,6.445,5.771-1.863,7.05-1.762,1.138,2.407-3.9,7.634-7.342,5.358-5.9,7.775a3.716,3.716,0,0,0,4.028,1.8,2.588,2.588,0,0,0,1.41,3.092c2.075,1.007,2.961.232,2.961.232s-.2,2.629,1.722,3.434a8.188,8.188,0,0,0,4.623,0s1.823,2.135,3.666,1.783,6.043-5.489,9.366-9.86,16.114-19.911,21.149-29.438,2.649-19.135,1.621-25.006S351.87,135.793,348,134.5Z" transform="translate(-53.572 -37.519)" fill="none" stroke="#263238" stroke-linecap="round" stroke-linejoin="round" stroke-width="1.191"/>
          <path id="Path_11171" data-name="Path 11171" d="M325.4,213.984c1.843-.352,6.043-5.489,9.366-9.86,1.883-2.467,6.8-8.52,11.622-15.036-3.233-11.078-12.8-14.392-17.06-15.308-1.924,2.88-3.9,5.64-4.743,6.234-1.924,1.339-7.342.755-12.68,3.475s-3.575,5.509-2.155,6.445,5.771-1.863,7.05-1.762,1.138,2.407-3.9,7.634-7.342,5.388-5.9,7.805a3.716,3.716,0,0,0,4.028,1.8,2.588,2.588,0,0,0,1.41,3.092c2.075,1.007,2.961.232,2.961.232s-.2,2.629,1.722,3.434a8.188,8.188,0,0,0,4.623,0S323.56,214.336,325.4,213.984Z" transform="translate(-53.572 -37.236)" fill="none" stroke="#263238" stroke-linecap="round" stroke-linejoin="round" stroke-width="1.191"/>
          <path id="Path_11172" data-name="Path 11172" d="M311,205.246a33.818,33.818,0,0,0,10.071-7.976" transform="translate(-53.54 -37.069)" fill="none" stroke="#263238" stroke-linecap="round" stroke-linejoin="round" stroke-width="1.191"/>
          <path id="Path_11173" data-name="Path 11173" d="M315.33,208.547a33.073,33.073,0,0,0,10.555-8.107" transform="translate(-53.51 -37.047)" fill="none" stroke="#263238" stroke-linecap="round" stroke-linejoin="round" stroke-width="1.191"/>
          <path id="Path_11174" data-name="Path 11174" d="M321.63,211.986s5.8-4.341,8.56-7.926" transform="translate(-53.465 -37.021)" fill="none" stroke="#263238" stroke-linecap="round" stroke-linejoin="round" stroke-width="1.191"/>
          <path id="Path_11175" data-name="Path 11175" d="M357.825,169.483c.212-.765.373-1.531.514-2.286-8.44-5.63-19.075-3.787-24.745-2.145.181.876.3,1.39.3,1.39l-.876,1.41C346.576,164.578,354.048,167.026,357.825,169.483Z" transform="translate(-53.384 -37.31)" fill="#fff" stroke="#263238" stroke-linecap="round" stroke-linejoin="round" stroke-width="1.191"/>
          <path id="Path_11176" data-name="Path 11176" d="M351.827,174.664a10.253,10.253,0,0,0,2.639,2.2c.413-.715.806-1.4,1.158-2.014a28.924,28.924,0,0,0,2.941-16.4,9.608,9.608,0,0,0-5.811,2.286A9.91,9.91,0,0,0,351.827,174.664Z" transform="translate(-53.267 -37.345)" fill="#39b2eb" stroke="#263238" stroke-linecap="round" stroke-linejoin="round" stroke-width="1.191"/>
          <path id="Path_11177" data-name="Path 11177" d="M257.441,138.3s4.19,12.085,9.578,12.982,12.881-8.248,14.4-15.107-3.827-12.377-11.562-19.266-18.823-10.9-28.2-5.67-23.234,20.142-23.234,20.142-8.671-7.624-13.274-3.686,1.4,15.983,5.64,20.948,11.975,12.246,19.4,10.514,13.3-15.661,18.128-19.759S256.373,137.059,257.441,138.3Z" transform="translate(-54.304 -37.698)" fill="#fff"/>
          <g id="Group_3647" data-name="Group 3647" transform="translate(149.19 71.15)" clip-path="url(#clip-path-7)">
            <path id="Path_11178" data-name="Path 11178" d="M269.443,141.12c-8.188-3.928-5.892-13.757-14.1-16.376s-7.533,2.951-14.1,13.435-18.672,9.819-26.86,7.2a80.451,80.451,0,0,1-7.644-2.911,34.455,34.455,0,0,0,4.028,6.153c4.24,4.965,11.944,12.176,19.357,10.444s13.3-15.661,18.128-19.759,8.117-2.337,9.175-1.1c0,0,4.19,12.085,9.578,12.982s12.881-8.248,14.4-15.107a10.433,10.433,0,0,0,.191-3.424l-.383-.081S277.6,145.038,269.443,141.12Z" transform="translate(-203.471 -108.739)" fill="#39b2eb"/>
            <path id="Path_11179" data-name="Path 11179" d="M269.443,141.12c-8.188-3.928-5.892-13.757-14.1-16.376s-7.533,2.951-14.1,13.435-18.672,9.819-26.86,7.2a80.451,80.451,0,0,1-7.644-2.911,34.455,34.455,0,0,0,4.028,6.153c4.24,4.965,11.944,12.176,19.357,10.444s13.3-15.661,18.128-19.759,8.117-2.337,9.175-1.1c0,0,4.19,12.085,9.578,12.982s12.881-8.248,14.4-15.107a10.433,10.433,0,0,0,.191-3.424l-.383-.081S277.6,145.038,269.443,141.12Z" transform="translate(-203.471 -108.739)" fill="#fff" opacity="0.5"/>
          </g>
          <path id="Path_11181" data-name="Path 11181" d="M257.441,138.3s4.19,12.085,9.578,12.982,12.881-8.248,14.4-15.107-3.827-12.377-11.562-19.266-18.823-10.9-28.2-5.67-23.234,20.142-23.234,20.142-8.671-7.624-13.274-3.686,1.4,15.983,5.64,20.948,11.975,12.246,19.4,10.514,13.3-15.661,18.128-19.759S256.373,137.059,257.441,138.3Z" transform="translate(-54.304 -37.698)" fill="none" stroke="#263238" stroke-linecap="round" stroke-linejoin="round" stroke-width="1.191"/>
          <path id="Path_11182" data-name="Path 11182" d="M231.024,119.18c-6.687,5.861-12.569,12.2-12.569,12.2s-8.671-7.624-13.274-3.686,1.4,15.983,5.64,20.948,11.944,12.176,19.367,10.444c6.687-1.561,12.085-13.092,16.637-18.279a89.421,89.421,0,0,1-15.8-21.623Z" transform="translate(-54.304 -37.624)" fill="none" stroke="#263238" stroke-linecap="round" stroke-linejoin="round" stroke-width="1.191"/>
          <path id="Path_11183" data-name="Path 11183" d="M253.017,109a22.72,22.72,0,0,0-2.478-.151,70.034,70.034,0,0,1,1.652,28.2,5.639,5.639,0,0,1,2.467-.1C255.213,129.808,255.626,117.974,253.017,109Z" transform="translate(-53.97 -37.698)" fill="none" stroke="#263238" stroke-linecap="round" stroke-linejoin="round" stroke-width="1.191"/>
          <path id="Path_11184" data-name="Path 11184" d="M258.713,124.69a8.852,8.852,0,1,1,3.093-6.035A8.852,8.852,0,0,1,258.713,124.69Z" transform="translate(-54.016 -37.696)" fill="#39b2eb" stroke="#263238" stroke-linecap="round" stroke-linejoin="round" stroke-width="1.191"/>
          <path id="Path_11185" data-name="Path 11185" d="M230.188,159.027a11.078,11.078,0,0,0,4.693-2.7c-4.743.786-13.505.524-21.472-9.064-7.755-9.306-7.886-16.547-7.12-20.354a4.906,4.906,0,0,0-1.1.695c-4.613,3.938,1.4,15.983,5.64,20.948S222.766,160.759,230.188,159.027Z" transform="translate(-54.304 -37.569)" fill="none" stroke="#263238" stroke-linecap="round" stroke-linejoin="round" stroke-width="1.191"/>
          <path id="Path_11186" data-name="Path 11186" d="M281.405,180.759s12.257,3.605,16.114-.242,4.431-15.54-3.908-20.495c-6.043-3.565-12.3-4.028-22.4-1.773s-19.8,8.993-20.978,19.629,2.921,30.636,2.921,30.636-11.229,2.629-10.706,8.671,13.828,8.148,20.323,7.573,16.859-2.649,19.749-9.688-5.036-19.921-5.579-26.185S279.784,180.9,281.405,180.759Z" transform="translate(-54.028 -37.356)" fill="#fff"/>
          <g id="Group_3648" data-name="Group 3648" transform="translate(188.405 119.516)" clip-path="url(#clip-path-8)">
            <path id="Path_11187" data-name="Path 11187" d="M281.4,180.687s12.257,3.605,16.114-.242c2.518-2.508,3.616-8.319,1.793-13.445h0s1.007,5.247-6.224,6.556-18.994-1.309-24.231,5.237,2.286,19.981,2.941,28.823-1.329,11.753-10.172,12.76-16.748-5.338-18.571-1.491c2.709,4.663,13.928,6.294,19.739,5.781,6.506-.574,16.859-2.649,19.749-9.688s-5.036-19.921-5.579-26.185S279.779,180.828,281.4,180.687Z" transform="translate(-242.428 -156.8)" fill="#39b2eb"/>
            <path id="Path_11188" data-name="Path 11188" d="M281.4,180.687s12.257,3.605,16.114-.242c2.518-2.508,3.616-8.319,1.793-13.445h0s1.007,5.247-6.224,6.556-18.994-1.309-24.231,5.237,2.286,19.981,2.941,28.823-1.329,11.753-10.172,12.76-16.748-5.338-18.571-1.491c2.709,4.663,13.928,6.294,19.739,5.781,6.506-.574,16.859-2.649,19.749-9.688s-5.036-19.921-5.579-26.185S279.779,180.828,281.4,180.687Z" transform="translate(-242.428 -156.8)" fill="#fff" opacity="0.5"/>
          </g>
          <path id="Path_11190" data-name="Path 11190" d="M281.405,180.759s12.257,3.605,16.114-.242,4.431-15.54-3.908-20.495c-6.043-3.565-12.3-4.028-22.4-1.773s-19.8,8.993-20.978,19.629,2.921,30.636,2.921,30.636-11.229,2.629-10.706,8.671,13.828,8.148,20.323,7.573,16.859-2.649,19.749-9.688-5.036-19.921-5.579-26.185S279.784,180.9,281.405,180.759Z" transform="translate(-54.028 -37.356)" fill="none" stroke="#263238" stroke-linecap="round" stroke-linejoin="round" stroke-width="1.191"/>
          <path id="Path_11191" data-name="Path 11191" d="M250.557,191c.886,8.852,2.618,17.312,2.618,17.312s-11.229,2.629-10.706,8.671,13.828,8.148,20.323,7.573,16.859-2.649,19.749-9.688c2.608-6.355-3.565-17.443-5.217-24.171a89.182,89.182,0,0,1-26.769.3Z" transform="translate(-54.028 -37.116)" fill="none" stroke="#263238" stroke-linecap="round" stroke-linejoin="round" stroke-width="1.191"/>
          <path id="Path_11192" data-name="Path 11192" d="M255.091,167.06a21.957,21.957,0,0,0-1.551,1.924A70.377,70.377,0,0,1,277.418,184a5.609,5.609,0,0,1,1.35-2.014C273.32,177.3,263.923,170.091,255.091,167.06Z" transform="translate(-53.949 -37.284)" fill="none" stroke="#263238" stroke-linecap="round" stroke-linejoin="round" stroke-width="1.191"/>
          <circle id="Ellipse_163" data-name="Ellipse 163" cx="8.863" cy="8.863" r="8.863" transform="translate(197.269 129.231) rotate(-17.46)" fill="#39b2eb" stroke="#263238" stroke-linecap="round" stroke-linejoin="round" stroke-width="1.191"/>
          <path id="Path_11193" data-name="Path 11193" d="M282.543,214.7a10.967,10.967,0,0,0,.524-5.388c-2.115,4.32-7.412,11.3-19.82,12.226-12.085.906-18.057-3.193-20.7-6.043a4.614,4.614,0,0,0-.081,1.3c.534,6.043,13.828,8.147,20.323,7.573S279.653,221.738,282.543,214.7Z" transform="translate(-54.028 -36.983)" fill="none" stroke="#263238" stroke-linecap="round" stroke-linejoin="round" stroke-width="1.191"/>
          <path id="Path_11194" data-name="Path 11194" d="M351.1,92.739a94.452,94.452,0,0,1-7.221-11,22.751,22.751,0,1,0,19.649,24.432A91.947,91.947,0,0,1,351.1,92.739Z" transform="translate(-53.49 -37.892)" fill="#263238" stroke="#263238" stroke-linecap="round" stroke-linejoin="round" stroke-width="1.191"/>
          <path id="Path_11195" data-name="Path 11195" d="M353.148,113.259a7.312,7.312,0,1,1,.453-9.98,7.05,7.05,0,0,1-.453,9.98Z" transform="translate(-53.329 -37.755)" fill="#fff"/>
          <path id="Path_11196" data-name="Path 11196" d="M345.656,96.447a2.175,2.175,0,1,1,.232-3.021A2.175,2.175,0,0,1,345.656,96.447Z" transform="translate(-53.32 -37.813)" fill="#fff"/>
          <rect id="Rectangle_776" data-name="Rectangle 776" width="11.486" height="9.386" transform="matrix(0.996, 0.087, -0.087, 0.996, 70.728, 231.711)" fill="#263238"/>
        </g>
      </g>
      <g id="freepik--number-1--inject-37" transform="translate(148.401 192.472)">
        <path id="Path_10932" data-name="Path 10932" d="M91.536,199.428V163.813H45.18v-22.8L84.94,46.79h33.923v94.786h14.7v22.236h-14.7v35.615ZM68.171,141.576H91.536V76.751Z" transform="translate(-44.955 -46.568)" fill="#fff"/>
        <path id="Path_10933" data-name="Path 10933" d="M118.581,199.372H91.254a.227.227,0,0,1-.222-.222V163.757H44.9a.227.227,0,0,1-.222-.222v-22.8a.288.288,0,0,1,0-.084L84.454,46.423a.226.226,0,0,1,.2-.133h33.923a.222.222,0,0,1,.222.222v94.564h14.476a.222.222,0,0,1,.222.222v22.236a.227.227,0,0,1-.222.222H118.8V199.15A.227.227,0,0,1,118.581,199.372Zm-27.1-.444h26.883V163.535a.222.222,0,0,1,.222-.222h14.476V141.52H118.581a.222.222,0,0,1-.222-.222V46.734H84.8L45.12,140.774v22.538H91.254a.222.222,0,0,1,.222.222Zm-.222-57.407H67.89a.218.218,0,0,1-.182-.1.213.213,0,0,1-.027-.2L91.045,76.4a.227.227,0,0,1,.249-.142.218.218,0,0,1,.182.218V141.3a.222.222,0,0,1-.222.222Zm-23.049-.444h22.8V77.743Z" transform="translate(-44.673 -46.29)" fill="#fff"/>
      </g>
    </g>
  </g>
</svg>
