<svg xmlns="http://www.w3.org/2000/svg" xmlns:xlink="http://www.w3.org/1999/xlink" width="150" height="150" viewBox="0 0 150 150">
  <defs>
    <clipPath id="clip-link-arrow">
      <rect width="150" height="150"/>
    </clipPath>
  </defs>
  <g id="link-arrow" clip-path="url(#clip-link-arrow)">
    <g id="Group_3650" data-name="Group 3650" transform="translate(-48 -48)">
      <path id="Vector" d="M3,47.75a3.75,3.75,0,0,1-2.652-6.4l41-41a3.75,3.75,0,1,1,5.3,5.3l-41,41A3.738,3.738,0,0,1,3,47.75Z" transform="translate(125 74)" fill="#fff" stroke="#fff" stroke-width="4"/>
      <path id="Vector-2" data-name="Vector" d="M27,30.75A3.75,3.75,0,0,1,23.25,27V6.75H3A3.75,3.75,0,0,1,3-.75H27A3.75,3.75,0,0,1,30.75,3V27A3.75,3.75,0,0,1,27,30.75Z" transform="translate(146 70)" fill="#fff" stroke="#fff" stroke-width="4"/>
      <path id="Vector-3" data-name="Vector" d="M68,106.75H38c-13.852,0-23.234-2.931-29.527-9.223S-.75,81.852-.75,68V38c0-13.852,2.931-23.234,9.223-29.527S24.148-.75,38-.75H48a3.75,3.75,0,0,1,0,7.5H38c-11.732,0-19.429,2.233-24.223,7.027S6.75,26.268,6.75,38V68c0,11.732,2.233,19.429,7.027,24.223S26.268,99.25,38,99.25H68c11.732,0,19.429-2.233,24.223-7.027S99.25,79.732,99.25,68V58a3.75,3.75,0,0,1,7.5,0V68c0,13.852-2.931,23.234-9.223,29.527S81.852,106.75,68,106.75Z" transform="translate(70 70)" fill="#fff" stroke="#fff" stroke-width="4"/>
      <path id="Vector-4" data-name="Vector" d="M0,0H120V120H0Z" transform="translate(183 183) rotate(180)" fill="none" stroke="#fff" stroke-width="4" opacity="0"/>
    </g>
  </g>
</svg>
