<svg width="61" height="40" viewBox="0 0 61 40" fill="none" xmlns="http://www.w3.org/2000/svg">
<path d="M55.9042 9.60559L38.3666 23.7017C36.4112 25.2695 33.7619 26.1499 31 26.1499C28.2381 26.1499 25.5888 25.2695 23.6334 23.7017L6.09583 9.60559C6.06667 9.87019 6 10.1097 6 10.3725V30.4667C6.00331 32.6865 7.10184 34.8145 9.05462 36.3842C11.0074 37.9537 13.655 38.8367 16.4166 38.8393H45.5834C48.345 38.8367 50.9926 37.9537 52.9454 36.3842C54.8982 34.8145 55.9967 32.6865 56 30.4667V10.3725C56 10.1097 55.9334 9.87019 55.9042 9.60559Z" fill="white"/>
<path d="M35.4208 21.334L54.45 6.03726C53.5282 4.8087 52.2281 3.7918 50.675 3.08464C49.1219 2.37747 47.3683 2.00392 45.5834 2H16.4167C14.6318 2.00392 12.8782 2.37747 11.3251 3.08464C9.77203 3.7918 8.47188 4.8087 7.55005 6.03726L26.5792 21.334C27.7533 22.2739 29.3429 22.8016 31 22.8016C32.6572 22.8016 34.2467 22.2739 35.4208 21.334Z" fill="white"/>
</svg>
