<svg xmlns="http://www.w3.org/2000/svg" width="511.999" height="469.066" viewBox="0 0 511.999 469.066">
  <g id="rating" transform="translate(0 -21.467)">
    <g id="Group_12" data-name="Group 12">
      <g id="Group_11" data-name="Group 11">
        <path id="Path_9" data-name="Path 9" d="M468.15,157.858H446.592V143.995l13.451-14.814a41.616,41.616,0,0,0,10.828-28.033V66.017a44.6,44.6,0,0,0-44.551-44.55H405.828a44.6,44.6,0,0,0-44.55,44.55v35.131A41.623,41.623,0,0,0,372.1,129.181L385.558,144v13.861H364a43.92,43.92,0,0,0-42.821,34.43,48.5,48.5,0,0,0-6.729-.478H289.2V174.852l15.4-16.963a45.909,45.909,0,0,0,11.943-30.92V87.4a49.258,49.258,0,0,0-49.2-49.2,7.7,7.7,0,0,0,0,15.394A33.847,33.847,0,0,1,301.151,87.4v39.568a30.543,30.543,0,0,1-7.945,20.571l-15.862,17.469a7.69,7.69,0,0,0-3.538,6.478v28.022a7.7,7.7,0,0,0,7.7,7.7h32.949a33.059,33.059,0,0,1,33.021,33.021v48.3H164.13v-48.3a33.078,33.078,0,0,1,21.6-30.984,7.59,7.59,0,0,0,1.689-.573,32.934,32.934,0,0,1,9.729-1.465H230.1a7.7,7.7,0,0,0,7.7-7.7V171.485a7.692,7.692,0,0,0-3.538-6.478L218.4,147.538a30.542,30.542,0,0,1-7.947-20.571V87.4a33.847,33.847,0,0,1,33.81-33.809,7.7,7.7,0,1,0,0-15.394,49.258,49.258,0,0,0-49.2,49.2v39.568A45.912,45.912,0,0,0,207,157.888l15.4,16.962v16.959H197.148a48.433,48.433,0,0,0-6.342.429A43.917,43.917,0,0,0,148,157.858H126.44V144l13.451-14.814a41.616,41.616,0,0,0,10.828-28.033V66.017a44.6,44.6,0,0,0-44.551-44.55H85.678a44.6,44.6,0,0,0-44.55,44.55v35.131a41.614,41.614,0,0,0,10.828,28.033L65.408,144v13.862H43.85A43.9,43.9,0,0,0,0,201.708v49.716a7.7,7.7,0,0,0,7.7,7.7H127.455a7.7,7.7,0,0,0,0-15.394H15.394V201.708A28.488,28.488,0,0,1,43.85,173.252H73.1a7.7,7.7,0,0,0,7.7-7.7v-24.88a7.69,7.69,0,0,0-3.441-6.414L63.352,118.833a26.253,26.253,0,0,1-6.831-17.684V66.017A29.189,29.189,0,0,1,85.677,36.861h20.492a29.189,29.189,0,0,1,29.157,29.156v35.131a26.251,26.251,0,0,1-6.831,17.684l-14.01,15.429a7.69,7.69,0,0,0-3.439,6.413v24.88a7.7,7.7,0,0,0,7.7,7.7H148a28.5,28.5,0,0,1,28,23.43,48.467,48.467,0,0,0-27.265,43.542v55.995a7.7,7.7,0,0,0,7.7,7.7H355.168a7.7,7.7,0,0,0,7.7-7.7V240.223a48.461,48.461,0,0,0-26.9-43.355A28.5,28.5,0,0,1,364,173.251h29.255a7.7,7.7,0,0,0,7.7-7.7v-24.88a7.689,7.689,0,0,0-3.442-6.415L383.5,118.832a26.25,26.25,0,0,1-6.83-17.684V66.017a29.189,29.189,0,0,1,29.156-29.156H426.32a29.189,29.189,0,0,1,29.157,29.156v35.131a26.251,26.251,0,0,1-6.831,17.684l-14.009,15.429a7.689,7.689,0,0,0-3.44,6.413v24.88a7.7,7.7,0,0,0,7.7,7.7h29.255a28.488,28.488,0,0,1,28.456,28.456v42.019H385.868a7.7,7.7,0,0,0,0,15.394H504.3a7.7,7.7,0,0,0,7.7-7.7V201.707A43.9,43.9,0,0,0,468.15,157.858Z" fill="#28a8e0"/>
      </g>
    </g>
    <g id="Group_14" data-name="Group 14">
      <g id="Group_13" data-name="Group 13">
        <path id="Path_10" data-name="Path 10" d="M333.406,401.466a7.7,7.7,0,0,0-6.073-5.218l-42.046-6.9L265.73,351.49a7.7,7.7,0,0,0-13.676,0L232.5,389.346l-42.046,6.9a7.7,7.7,0,0,0-4.227,13.009l29.958,30.3-6.429,42.12a7.7,7.7,0,0,0,11.064,8.039l38.073-19.13,38.073,19.13a7.7,7.7,0,0,0,11.064-8.039l-6.43-42.12,29.958-30.3A7.689,7.689,0,0,0,333.406,401.466Zm-45.47,30.013a7.7,7.7,0,0,0-2.136,6.573l4.765,31.214L262.349,455.09a7.7,7.7,0,0,0-6.911,0l-28.216,14.176,4.764-31.214a7.7,7.7,0,0,0-2.136-6.573l-22.2-22.454,31.16-5.114a7.7,7.7,0,0,0,5.591-4.063l14.494-28.055,14.493,28.055a7.7,7.7,0,0,0,5.591,4.063l31.16,5.114Z" fill="#28a8e0"/>
      </g>
    </g>
    <g id="Group_16" data-name="Group 16">
      <g id="Group_15" data-name="Group 15">
        <path id="Path_11" data-name="Path 11" d="M501.894,344.869a7.7,7.7,0,0,0-6.071-5.218l-42.046-6.9-19.558-37.856a7.7,7.7,0,0,0-13.676,0l-19.557,37.856-42.047,6.9a7.7,7.7,0,0,0-4.227,13.009l29.959,30.3-6.43,42.121a7.7,7.7,0,0,0,11.064,8.039l38.073-19.13,38.073,19.13a7.7,7.7,0,0,0,11.064-8.039l-6.43-42.121,29.959-30.3A7.69,7.69,0,0,0,501.894,344.869Zm-45.47,30.014a7.7,7.7,0,0,0-2.136,6.573l4.765,31.215-28.216-14.176a7.693,7.693,0,0,0-6.912,0l-28.216,14.176,4.765-31.215a7.7,7.7,0,0,0-2.136-6.573l-22.2-22.453,31.16-5.114a7.7,7.7,0,0,0,5.591-4.063L427.379,315.2l14.494,28.055a7.7,7.7,0,0,0,5.591,4.063l31.159,5.114Z" fill="#28a8e0"/>
      </g>
    </g>
    <g id="Group_18" data-name="Group 18">
      <g id="Group_17" data-name="Group 17">
        <path id="Path_12" data-name="Path 12" d="M164.919,344.87a7.7,7.7,0,0,0-6.074-5.219l-42.046-6.9L97.242,294.893a7.7,7.7,0,0,0-13.678,0L64.009,332.75l-42.046,6.9a7.7,7.7,0,0,0-4.227,13.009l29.959,30.3-6.429,42.121a7.7,7.7,0,0,0,11.064,8.039L90.4,413.988l38.072,19.13a7.7,7.7,0,0,0,11.064-8.039l-6.429-42.121,29.958-30.3A7.693,7.693,0,0,0,164.919,344.87Zm-45.472,30.013a7.7,7.7,0,0,0-2.136,6.573l4.764,31.215L93.86,398.495a7.693,7.693,0,0,0-6.912,0L58.732,412.671,63.5,381.456a7.7,7.7,0,0,0-2.136-6.573l-22.2-22.453,31.16-5.114a7.7,7.7,0,0,0,5.592-4.063L90.406,315.2,104.9,343.253a7.7,7.7,0,0,0,5.592,4.063l31.16,5.114Z" fill="#28a8e0"/>
      </g>
    </g>
  </g>
</svg>
