<?xml version="1.0"?>
<svg xmlns="http://www.w3.org/2000/svg" xmlns:xlink="http://www.w3.org/1999/xlink" xmlns:svgjs="http://svgjs.com/svgjs" version="1.1" width="512" height="512" x="0" y="0" viewBox="0 0 472.615 472.615" style="enable-background:new 0 0 512 512" xml:space="preserve" class=""><g>
<g xmlns="http://www.w3.org/2000/svg">
	<g>
		<path d="M108.308,241.231c-38.4,0-68.923,30.523-68.923,68.923c0,38.4,30.523,68.923,68.923,68.923    c38.4,0,68.923-30.523,68.923-68.923C177.231,271.754,146.708,241.231,108.308,241.231z M108.308,359.385    c-27.569,0-49.231-21.662-49.231-49.231c0-27.569,21.662-49.231,49.231-49.231c27.569,0,49.231,21.662,49.231,49.231    C157.538,337.723,135.877,359.385,108.308,359.385z" fill="#4966c4" data-original="#000000" style="" class=""/>
	</g>
</g>
<g xmlns="http://www.w3.org/2000/svg">
	<g>
		<path d="M108.308,359.385C48.246,359.385,0,407.631,0,467.692h19.692c0-49.231,39.385-88.615,88.615-88.615    s88.615,39.385,88.615,88.615h19.692C216.615,407.631,168.369,359.385,108.308,359.385z" fill="#4966c4" data-original="#000000" style="" class=""/>
	</g>
</g>
<g xmlns="http://www.w3.org/2000/svg">
	<g>
		<path d="M364.308,241.231c-38.4,0-68.923,30.523-68.923,68.923c0,38.4,30.523,68.923,68.923,68.923    c38.4,0,68.923-30.523,68.923-68.923C433.231,271.754,402.708,241.231,364.308,241.231z M364.308,359.385    c-27.569,0-49.231-21.662-49.231-49.231c0-27.569,21.661-49.231,49.231-49.231s49.231,21.662,49.231,49.231    C413.538,337.723,391.877,359.385,364.308,359.385z" fill="#4966c4" data-original="#000000" style="" class=""/>
	</g>
</g>
<g xmlns="http://www.w3.org/2000/svg">
	<g>
		<path d="M364.308,359.385C304.246,359.385,256,407.631,256,467.692h19.692c0-49.231,39.385-88.615,88.615-88.615    s88.615,39.385,88.615,88.615h19.692C472.615,407.631,424.369,359.385,364.308,359.385z" fill="#4966c4" data-original="#000000" style="" class=""/>
	</g>
</g>
<g xmlns="http://www.w3.org/2000/svg">
	<g>
		<path d="M236.308,4.923c-38.4,0-68.923,30.523-68.923,68.923s30.523,68.923,68.923,68.923c38.4,0,68.923-30.523,68.923-68.923    S274.708,4.923,236.308,4.923z M236.308,123.077c-27.569,0-49.231-21.662-49.231-49.231s21.662-49.231,49.231-49.231    c27.569,0,49.231,21.662,49.231,49.231S263.877,123.077,236.308,123.077z" fill="#4966c4" data-original="#000000" style="" class=""/>
	</g>
</g>
<g xmlns="http://www.w3.org/2000/svg">
	<g>
		<path d="M236.308,123.077C176.246,123.077,128,171.323,128,231.385h19.692c0-49.231,39.385-88.615,88.615-88.615    s88.615,39.385,88.615,88.615h19.692C344.615,171.323,296.369,123.077,236.308,123.077z" fill="#4966c4" data-original="#000000" style="" class=""/>
	</g>
</g>
<g xmlns="http://www.w3.org/2000/svg">
</g>
<g xmlns="http://www.w3.org/2000/svg">
</g>
<g xmlns="http://www.w3.org/2000/svg">
</g>
<g xmlns="http://www.w3.org/2000/svg">
</g>
<g xmlns="http://www.w3.org/2000/svg">
</g>
<g xmlns="http://www.w3.org/2000/svg">
</g>
<g xmlns="http://www.w3.org/2000/svg">
</g>
<g xmlns="http://www.w3.org/2000/svg">
</g>
<g xmlns="http://www.w3.org/2000/svg">
</g>
<g xmlns="http://www.w3.org/2000/svg">
</g>
<g xmlns="http://www.w3.org/2000/svg">
</g>
<g xmlns="http://www.w3.org/2000/svg">
</g>
<g xmlns="http://www.w3.org/2000/svg">
</g>
<g xmlns="http://www.w3.org/2000/svg">
</g>
<g xmlns="http://www.w3.org/2000/svg">
</g>
</g></svg>
