<svg xmlns="http://www.w3.org/2000/svg" width="511.569" height="512" viewBox="0 0 511.569 512">
  <g id="web-development" transform="translate(-0.001)">
    <path id="Path_4" data-name="Path 4" d="M370.836,117.043c0-3.8-3.523-6.762-6.3-6.762a2.783,2.783,0,0,0-1.758.465L339.25,126.027a6.122,6.122,0,0,0,0,10.375l23.527,15.281a2.783,2.783,0,0,0,1.758.465c2.777,0,6.3-2.965,6.3-6.762a4.243,4.243,0,0,0-1.668-3.613l-16.3-10.559,16.3-10.559a4.253,4.253,0,0,0,1.668-3.613Zm0,0" fill="#28a8e0"/>
    <path id="Path_5" data-name="Path 5" d="M417.426,85.367a4.075,4.075,0,0,0-3.891,2.316l-32.512,66.777a4.159,4.159,0,0,0-.465,1.762,5.126,5.126,0,0,0,5.191,4.906,4.646,4.646,0,0,0,4.168-2.312l32.6-66.781a4.019,4.019,0,0,0,.371-1.762c0-2.961-2.875-4.906-5.465-4.906Zm0,0" fill="#28a8e0"/>
    <path id="Path_6" data-name="Path 6" d="M464.2,126.027l-23.523-15.281a2.8,2.8,0,0,0-1.762-.465c-2.777,0-6.3,2.965-6.3,6.762a4.243,4.243,0,0,0,1.668,3.613l16.3,10.559-16.3,10.559a4.243,4.243,0,0,0-1.668,3.613c0,3.8,3.52,6.762,6.3,6.762a2.8,2.8,0,0,0,1.762-.465L464.2,136.4a6.122,6.122,0,0,0,0-10.375Zm0,0" fill="#28a8e0"/>
    <path id="Path_7" data-name="Path 7" d="M475.734,37.289H314.25A58.064,58.064,0,0,0,260.094,0H151.781A58.03,58.03,0,0,0,93.82,57.961v65.816a24.456,24.456,0,0,0-7.875,23.039l4.258,23.43c1.531,8.047,5.8,12.184,9.117,14.234a22.047,22.047,0,0,0,11.6,3.07v4.164c0,21.125,12.324,44.406,33.812,63.879a138.054,138.054,0,0,0,12.543,10.1v12.563a7.947,7.947,0,0,1-6.5,7.813c-.176.031-.348.07-.52.113-.129.035-13,3.391-29.836,8.164h-55a22.355,22.355,0,0,0-22.3,23.949l.148,2.117C18.675,332.746,3.2,354.863,1.722,380l-.012.316L0,483.554A28.1,28.1,0,0,0,28.105,512H383.773a28.1,28.1,0,0,0,28.1-28.477l-1.707-103.207c0-.105-.008-.211-.016-.316-1.516-25.863-17.852-48.527-43.7-60.633-.473-.223-.969-.449-1.48-.68l.027-.395a22.355,22.355,0,0,0-22.3-23.949H291.457c-16.828-4.773-29.707-8.129-29.836-8.16-.172-.047-.344-.086-.52-.117a7.947,7.947,0,0,1-6.5-7.812V265.7a138.775,138.775,0,0,0,12.543-10.1C280.8,243.219,290.761,229.3,296.2,215.383h48.73l-8.512,34.355a13.537,13.537,0,0,0,5.793,14.75,13.529,13.529,0,0,0,15.84-.6L421.2,215.383h54.531a35.874,35.874,0,0,0,35.836-35.836V73.125a35.877,35.877,0,0,0-35.836-35.836ZM300.976,136.734a32.359,32.359,0,0,1,7.352-1.539,9.674,9.674,0,0,1,2.848,8.938l-4.234,23.313c-.617,3.254-1.867,4.027-2.277,4.281a7.319,7.319,0,0,1-3.7.832ZM108.82,57.961A43.011,43.011,0,0,1,151.781,15H260.1a43.011,43.011,0,0,1,42.961,42.961V120.8a43.651,43.651,0,0,0-12.844,4.32v-45.7a29.839,29.839,0,0,0-29.8-29.8H240.14a30.637,30.637,0,0,0-19.332,6.895l-1.984,1.625a20.36,20.36,0,0,1-25.77,0l-1.988-1.629a30.629,30.629,0,0,0-19.332-6.895H151.468a29.837,29.837,0,0,0-29.8,29.8v45.7A43.631,43.631,0,0,0,108.82,120.8Zm-1.605,113.766c-.41-.254-1.66-1.027-2.266-4.219L100.7,144.137a9.693,9.693,0,0,1,2.84-8.937,32.369,32.369,0,0,1,7.359,1.531l.008,35.828a7.34,7.34,0,0,1-3.7-.832ZM40.855,491.567A20.43,20.43,0,0,0,41.59,497H28.105A13.1,13.1,0,0,1,15,483.77l1.707-103.043c1.109-18.008,11.09-33.621,27.742-43.832l9.156,128.473a22.176,22.176,0,0,0,1.551,6.711,20.464,20.464,0,0,0-14.3,19.488Zm313.656-26.2,9.3-130.543c18.82,10.1,30.168,26.625,31.355,45.9l1.707,103.012A13.1,13.1,0,0,1,383.773,497H370.288a20.434,20.434,0,0,0-17.031-25.687,22.074,22.074,0,0,0,1.254-5.945Zm1.512,26.2a5.439,5.439,0,0,1-5.43,5.434H61.284a5.432,5.432,0,0,1,0-10.863H350.593A5.438,5.438,0,0,1,356.023,491.567Zm-7.941-179.879a7.281,7.281,0,0,1,1.953,5.539L339.55,464.305a7.381,7.381,0,0,1-7.34,6.832H75.905a7.387,7.387,0,0,1-7.34-6.836L58.085,317.227a7.356,7.356,0,0,1,7.34-7.883h277.27a7.3,7.3,0,0,1,5.387,2.344ZM246.194,294.344H165.683a22.917,22.917,0,0,0,6.59-16.09V274.9c11.824,6.121,23.574,9.555,33.664,9.555s21.84-3.434,33.668-9.555v3.355a22.917,22.917,0,0,0,6.59,16.09Zm10.879-49.867c-16.746,15.172-36.816,24.977-51.137,24.977s-34.387-9.8-51.133-24.977c-18.359-16.629-28.887-35.863-28.887-52.766l-.016-47.25c.1,0,.2,0,.293,0a10.484,10.484,0,0,0,10.469-10.473V79.422a14.821,14.821,0,0,1,14.8-14.8h20.27a15.574,15.574,0,0,1,9.832,3.508l1.992,1.629a35.356,35.356,0,0,0,44.754,0l1.988-1.625a15.584,15.584,0,0,1,9.836-3.508h20.266a14.824,14.824,0,0,1,14.809,14.8v54.57a10.483,10.483,0,0,0,10.758,10.469l-.012,47.254c0,16.9-10.527,36.133-28.887,52.762Zm239.5-64.93a20.858,20.858,0,0,1-20.836,20.836H418.655a7.484,7.484,0,0,0-4.566,1.555l-62.211,47.785,9.918-40.035a7.5,7.5,0,0,0-7.277-9.3H300.3a57.953,57.953,0,0,0,.668-8.668v-4.164a22.044,22.044,0,0,0,11.594-3.07c3.316-2.051,7.59-6.187,9.129-14.293l4.246-23.371a24.453,24.453,0,0,0-7.875-23.039V57.961c0-1.91-.094-3.8-.277-5.672H475.733a20.858,20.858,0,0,1,20.836,20.836Zm0,0" fill="#28a8e0"/>
    <path id="Path_8" data-name="Path 8" d="M205.938,424.367a28.2,28.2,0,1,0-28.2-28.2A28.227,28.227,0,0,0,205.938,424.367Zm0-41.391a13.2,13.2,0,1,1-13.2,13.2A13.211,13.211,0,0,1,205.938,382.976Zm0,0" fill="#28a8e0"/>
  </g>
</svg>
