<svg xmlns="http://www.w3.org/2000/svg" xmlns:xlink="http://www.w3.org/1999/xlink" width="150" height="150" viewBox="0 0 150 150">
  <defs>
    <clipPath id="clip-p-pwa">
      <rect width="150" height="150"/>
    </clipPath>
  </defs>
  <g id="p-pwa" clip-path="url(#clip-p-pwa)">
    <path id="Union_73" data-name="Union 73" d="M2212.444,435a2.861,2.861,0,0,1,0-5.722h19.7v-18.29h-25.3c-10.2,0-15.881-1.541-19.61-5.319-3.568-3.62-5.08-8.949-5.22-18.393,0-.053,0-.1,0-.15V387.1l0-.025v-.006c0-.022,0-.042,0-.058V354.126c0-10.328,1.535-16.073,5.3-19.829s9.507-5.3,19.828-5.3h55.7c10.352,0,16.11,1.535,19.875,5.3s5.306,9.505,5.306,19.828v31.736c0,.173,0,.344-.006.472,0,.148,0,.32,0,.5,0,.062,0,.116.007.149a.227.227,0,0,0,0,.034c0,.051-.006.108-.015.186l0,.038v.039c-.132,9.482-1.661,14.822-5.279,18.43-4.649,4.64-12.277,5.279-19.829,5.279h-25.017v18.29h19.7a2.861,2.861,0,1,1,0,5.722Zm-15.3-99.459a9.784,9.784,0,0,0-8.593,8.6,47.672,47.672,0,0,0-.817,9.984v29.131l.144,7.537,0,.043c.363,5.44,1.421,8.775,3.427,10.812a11.266,11.266,0,0,0,5.713,2.8,46.237,46.237,0,0,0,9.822.818h56.043a48.03,48.03,0,0,0,9.99-.812,11.416,11.416,0,0,0,5.789-2.791c2.036-2.025,3.105-5.364,3.469-10.827l.155-7.56V354.126a47.653,47.653,0,0,0-.818-9.985,9.787,9.787,0,0,0-8.615-8.6,47.905,47.905,0,0,0-10.024-.822h-55.7A47.718,47.718,0,0,0,2197.142,335.54Zm49.913,46.029a5.781,5.781,0,0,0-.512-.36,2.6,2.6,0,0,1-1.186-1.239,3.208,3.208,0,0,1,.269-2.641c.738-1.078,1.564-2.083,2.372-3.063.3-.359.6-.737.9-1.1.2-.251.4-.513.593-.764.5-.647,1.024-1.3,1.581-1.931a.883.883,0,0,0,.09-.108,1.208,1.208,0,0,0-.135-.188c-1.527-1.851-3.036-3.755-4.5-5.606l-.647-.817c-1.374-1.733-.836-3.18.134-3.962a2.52,2.52,0,0,1,1.573-.584,2.966,2.966,0,0,1,2.326,1.3c2.453,3.046,4.465,5.57,6.342,7.923a2.65,2.65,0,0,1-.018,3.863l-.6.745c-1.877,2.362-3.818,4.8-5.758,7.178a5.481,5.481,0,0,1-1.167.97c-.18.126-.369.251-.557.4l-.557.422Zm-26.985-1.411c-2.048-2.551-4.132-5.165-6.207-7.761-1.222-1.536-1.231-2.515-.027-4.024,1.806-2.264,3.638-4.564,5.426-6.782l.978-1.231a2.648,2.648,0,0,1,2.075-1.159,2.255,2.255,0,0,1,1.078.279,4.15,4.15,0,0,1,1.195,1.113c.135.153.261.306.386.441l.44.467-.3.566c-.117.206-.216.4-.314.593a5.733,5.733,0,0,1-.638,1.087c-1.528,1.949-3.252,4.151-5.03,6.279a1.231,1.231,0,0,0-.243.35,1.331,1.331,0,0,0,.206.3c1.33,1.572,2.624,3.207,3.872,4.788.387.494.782.979,1.168,1.473,1.159,1.455,1.132,2.938-.072,3.953a2.517,2.517,0,0,1-1.608.629A3.069,3.069,0,0,1,2220.07,380.158Zm8.436.926c-1.293-.826-1.545-2.318-.656-3.818,1.9-3.172,3.826-6.378,5.686-9.5q2.129-3.53,4.24-7.069a2.613,2.613,0,0,1,2.237-1.5,2.263,2.263,0,0,1,.872.18,3.878,3.878,0,0,1,1.392,1.132,3.319,3.319,0,0,0,.377.4l.449.432-.242.557c-.1.224-.179.422-.251.6a5.857,5.857,0,0,1-.431.935c-3.27,5.47-6.585,11.013-9.872,16.474a2.867,2.867,0,0,1-2.417,1.59A2.512,2.512,0,0,1,2228.505,381.084Z" transform="translate(-2160 -307)" fill="#2fa6de"/>
  </g>
</svg>
