<svg xmlns="http://www.w3.org/2000/svg" xmlns:xlink="http://www.w3.org/1999/xlink" width="150" height="150" viewBox="0 0 150 150">
  <defs>
    <clipPath id="clip-s-mobile-app-design--development">
      <rect width="150" height="150"/>
    </clipPath>
  </defs>
  <g id="s-mobile-app-design--development" clip-path="url(#clip-s-mobile-app-design--development)">
    <g id="Group_2298" data-name="Group 2298" transform="translate(6.102 10.312)">
      <path id="Subtraction_155" data-name="Subtraction 155" d="M55.15,107.875H8.683c-.471-.195-.963-.376-1.321-.508l-.128-.048a14.388,14.388,0,0,1-3.167-1.457C1.36,104-.008,101.143,0,97.379c.017-6.3.014-12.823.011-18.067V73.8q0-1.879,0-3.755,0-7.749,0-15.492V51.673c0-13.221,0-27.28-.012-41.034A10.14,10.14,0,0,1,3.984,2.023,9.9,9.9,0,0,1,10.257,0h.024c4.511.008,9.457.012,15.567.012h9.169c3.95,0,8.034,0,12.052,0h.141l3.1,0c.8,0,2.006,0,3.239,0A9.909,9.909,0,0,1,63.819,10.027c.018.686.013,1.382.008,1.98v.005q0,.066,0,.133V12.3l0,.153c0,.15,0,.3,0,.448V35.17c0,20.325,0,41.343.012,62.1,0,3.894-1.33,6.7-4.069,8.594a14.072,14.072,0,0,1-3.144,1.449l-.078.029c-.4.148-.9.333-1.392.534ZM36.784,3.17c-8.159,0-17.443,0-26.261.01a9.251,9.251,0,0,0-2.32.229A6.452,6.452,0,0,0,4.5,5.882a7.612,7.612,0,0,0-1.328,4.474q0,16.659,0,33.32V64.788q0,16.263,0,32.531a7.5,7.5,0,0,0,1.942,5.433,7.421,7.421,0,0,0,5.405,1.958l5.308,0H47.478l5.531,0h.246a7.409,7.409,0,0,0,5.472-1.947,7.5,7.5,0,0,0,1.932-5.5V10.621a7.5,7.5,0,0,0-1.931-5.5,7.409,7.409,0,0,0-5.47-1.948l-5.284,0H47.9ZM31.92,99.53h-.011a2.709,2.709,0,0,1-.011-5.419h.03a2.709,2.709,0,0,1-.008,5.419ZM43.547,75.9a8.81,8.81,0,0,1-4.388-1.411l-5.985-3.544-.026-.012a2.429,2.429,0,0,0-2.085,0l-.026.012-5.984,3.542a8.732,8.732,0,0,1-4.372,1.408,4.38,4.38,0,0,1-3.518-1.619c-.782-.983-1.554-2.844-.794-6.13l1.413-6.11.007-.028,0-.028a2.452,2.452,0,0,0-.547-1.9l-.018-.022-4.964-4.958c-2.652-2.653-2.432-4.974-2.065-6.121s1.536-3.162,5.234-3.778l6.352-1.062.028,0,.027-.008a2.482,2.482,0,0,0,1.483-1.1L23.337,43l3.528-7.056c1.732-3.448,4.026-3.963,5.24-3.963s3.511.515,5.228,3.967l3.514,7.028.012.023.014.023a2.47,2.47,0,0,0,1.5,1.1l.025.006,6.385,1.061c3.71.619,4.879,2.641,5.246,3.791s.582,3.468-2.081,6.114l-4.959,4.958-.017.021a2.451,2.451,0,0,0-.549,1.906l0,.028,1.42,6.138c.761,3.3-.01,5.161-.79,6.142A4.362,4.362,0,0,1,43.547,75.9Zm-11.441-9.07a6.322,6.322,0,0,1,2.882.7c.045.024.075.04.1.057l6.038,3.574a5.054,5.054,0,0,0,2.419.873h.467l.146-.425a4.844,4.844,0,0,0-.088-2.59l-1.432-6.2c-.009-.036-.016-.072-.023-.112a6.282,6.282,0,0,1,1.513-5.266l0-.005c.022-.025.046-.05.071-.076l5.006-5.006c.987-.98,1.235-1.758,1.137-2.159l-.009-.041-.015-.039c-.15-.386-.8-.881-2.182-1.111l-6.438-1.07-.1-.019h0a6.335,6.335,0,0,1-4.129-3.042l0-.008c-.018-.033-.033-.061-.045-.085l-3.555-7.11c-.6-1.211-1.243-1.73-1.64-1.812l-.124-.025-.124.024c-.4.078-1.047.6-1.66,1.815l-3.552,7.1c-.014.028-.031.06-.05.094a6.345,6.345,0,0,1-4.1,3.041l-.006,0c-.027.006-.057.012-.1.02L16.07,49.011c-1.371.228-2.022.721-2.174,1.105l-.015.039-.01.04c-.1.4.143,1.179,1.127,2.163l5.006,5c.034.035.056.057.073.077l0,0a6.288,6.288,0,0,1,1.513,5.267c-.006.036-.014.075-.022.114l-1.433,6.2a4.739,4.739,0,0,0-.079,2.592l.137.38.4.034c.036,0,.064,0,.082,0a5.546,5.546,0,0,0,2.4-.867l6.041-3.577c.027-.016.058-.033.1-.055A6.322,6.322,0,0,1,32.106,66.828ZM39.424,9.956c-.437,0-.873,0-1.308,0-.394,0-.824,0-1.315,0H36.41c-.472,0-.945,0-1.415,0h-.078l-.878,0h-.011c-.667,0-1.177,0-1.654-.011a1.48,1.48,0,0,1-.994-.36,1.083,1.083,0,0,1-.342-.831,1.2,1.2,0,0,1,1.316-1.146c1.333-.011,2.807-.017,4.384-.017,1.456,0,2.958.006,4.465.018a1.173,1.173,0,1,1,0,2.333C40.657,9.952,40.091,9.956,39.424,9.956ZM21.7,9.94h-.012a1.236,1.236,0,0,1-1.2-1.156,1.145,1.145,0,0,1,.348-.794,1.2,1.2,0,0,1,.829-.378h.01a1.232,1.232,0,0,1,1.2,1.152,1.153,1.153,0,0,1-.351.8A1.2,1.2,0,0,1,21.7,9.94Z" transform="translate(36.75 10.75)" fill="#2e97d4"/>
    </g>
  </g>
</svg>
