<svg xmlns="http://www.w3.org/2000/svg" xmlns:xlink="http://www.w3.org/1999/xlink" width="150" height="150" viewBox="0 0 150 150">
  <defs>
    <clipPath id="clip-s-website-app-design--development">
      <rect width="150" height="150"/>
    </clipPath>
  </defs>
  <g id="s-website-app-design--development" clip-path="url(#clip-s-website-app-design--development)">
    <g id="_x31_7" transform="translate(21.752 21.752)">
      <path id="Subtraction_154" data-name="Subtraction 154" d="M38.343,100a1.479,1.479,0,0,1-1.477-1.477V93.394a4.133,4.133,0,0,1,2.981-3.935l.5-.147L40.3,88.79A17.606,17.606,0,0,0,36.41,79.3l-.02-.024-.022-.022a8.593,8.593,0,0,1-2.69-6.017v-11.8a5.8,5.8,0,0,1,5.79-5.795,6.007,6.007,0,0,1,1.133.109,1.546,1.546,0,0,1,.217.071c.078.029.166.062.261.089l.807.232V42.956a5.124,5.124,0,1,1,10.248,0v9.268l.807-.232a4.727,4.727,0,0,1,.889-.171c.144-.013.293-.019.444-.019a5.171,5.171,0,0,1,3.3,1.2l.409.34L58.391,53a4.9,4.9,0,0,1,2.737-1.177c.144-.013.293-.019.444-.019a5.164,5.164,0,0,1,3.279,1.185l.409.337.4-.343a4.889,4.889,0,0,1,2.445-1.123A5.291,5.291,0,0,1,68.9,51.8a5.126,5.126,0,0,1,5.116,5.125V76.575a16.919,16.919,0,0,1-1.839,6.967A16.841,16.841,0,0,0,71,88.795l-.034.512.494.139a4.127,4.127,0,0,1,3.014,3.946v5.127a1.477,1.477,0,0,1-2.954,0V93.391a1.166,1.166,0,0,0-1.164-1.164l-27.845,0H40.984a1.166,1.166,0,0,0-1.164,1.164v5.128A1.479,1.479,0,0,1,38.343,100Zm1.133-41.4a2.845,2.845,0,0,0-2.844,2.84v11.8a5.843,5.843,0,0,0,1.948,4.066A20.811,20.811,0,0,1,43.266,88.7l.051.577H43.9l20.116,0H68.03V88.66a20.063,20.063,0,0,1,1.448-6.327,14.138,14.138,0,0,0,1.582-5.8v-.025c0-.795,0-9.986,0-15.49V56.924a2.17,2.17,0,0,0-.616-1.523,2.144,2.144,0,0,0-1.55-.648,2.361,2.361,0,0,0-.349.027,2.3,2.3,0,0,0-1.822,2.343V60.5a1.476,1.476,0,1,1-2.953,0V56.924a2.166,2.166,0,0,0-2.154-2.172,2.046,2.046,0,0,0-.226.012,2.3,2.3,0,0,0-1.958,2.359V60.5a1.478,1.478,0,0,1-2.957,0V56.924a2.166,2.166,0,0,0-2.155-2.172,2.037,2.037,0,0,0-.226.012,2.3,2.3,0,0,0-1.957,2.359V60.5a1.477,1.477,0,0,1-2.954,0V42.956a2.171,2.171,0,1,0-4.341,0V68.327a1.477,1.477,0,0,1-2.954,0v-8.3l-.1-.157a2.7,2.7,0,0,0-1.74-1.219A3.075,3.075,0,0,0,39.477,58.6ZM90.086,83.114h-9.81a1.477,1.477,0,0,1,0-2.954h9.81A6.969,6.969,0,0,0,97.046,73.2V20.6H2.963V73.2a6.969,6.969,0,0,0,6.961,6.961H29.374a1.477,1.477,0,0,1,0,2.954H9.925A9.927,9.927,0,0,1,.01,73.2v-.684c0-3.842,0-23.73-.01-62.588A9.936,9.936,0,0,1,9.925,0H90.086A9.926,9.926,0,0,1,100,9.914V73.2A9.926,9.926,0,0,1,90.086,83.114ZM9.914,2.964A6.959,6.959,0,0,0,2.964,9.914v7.734H97.036V9.925a6.969,6.969,0,0,0-6.961-6.961ZM62.746,44.433H59.1a1.477,1.477,0,0,1,0-2.954h3.649a1.477,1.477,0,0,1,0,2.954Zm-27.82,0H31.277a1.477,1.477,0,0,1,0-2.954h3.649a1.477,1.477,0,1,1,0,2.954Zm22.554-6.044a1.476,1.476,0,0,1-.741-2.755L59.9,33.809a1.477,1.477,0,0,1,1.476,2.559l-3.159,1.824A1.482,1.482,0,0,1,57.481,38.389Zm-20.938,0a1.476,1.476,0,0,1-.735-.2l-3.159-1.824a1.477,1.477,0,1,1,1.476-2.558l3.16,1.824a1.477,1.477,0,0,1-.741,2.755Zm16.509-4.422a1.476,1.476,0,0,1-1.276-2.215L53.6,28.591a1.469,1.469,0,0,1,2.016-.539,1.475,1.475,0,0,1,.539,2.016l-1.825,3.161A1.483,1.483,0,0,1,53.052,33.967Zm-12.079,0a1.484,1.484,0,0,1-1.281-.739l-1.826-3.16a1.476,1.476,0,1,1,2.556-1.476l1.826,3.16a1.478,1.478,0,0,1-1.275,2.215Zm6.039-1.619a1.479,1.479,0,0,1-1.477-1.476V27.222a1.477,1.477,0,1,1,2.954,0v3.649A1.478,1.478,0,0,1,47.012,32.347Z" transform="translate(3.248 3.248)" fill="#2fa6de"/>
    </g>
  </g>
</svg>
