<svg xmlns="http://www.w3.org/2000/svg" xmlns:xlink="http://www.w3.org/1999/xlink" width="150" height="150" viewBox="0 0 150 150">
  <defs>
    <clipPath id="clip-w-customer-centric-approach">
      <rect width="150" height="150"/>
    </clipPath>
  </defs>
  <g id="w-customer-centric-approach" clip-path="url(#clip-w-customer-centric-approach)">
    <g id="business-people" transform="translate(13 16)">
      <path id="Path_11725" data-name="Path 11725" d="M39,34A14,14,0,1,1,53,20,14,14,0,0,1,39,34Zm0-24A10,10,0,1,0,49,20,10,10,0,0,0,39,10Z" transform="translate(22.999)" fill="#2fa6de"/>
      <path id="Path_11726" data-name="Path 11726" d="M27,87a2,2,0,0,1-2-2V33a2,2,0,0,1,4,0V85A2,2,0,0,1,27,87Z" transform="translate(22.999 24.999)" fill="#2fa6de"/>
      <path id="Path_11727" data-name="Path 11727" d="M33,73a2,2,0,0,1-2-2V47a2,2,0,1,1,4,0V71A2,2,0,0,1,33,73Z" transform="translate(28.999 38.999)" fill="#2fa6de"/>
      <path id="Path_11728" data-name="Path 11728" d="M39,87a2,2,0,0,1-2-2V33a2,2,0,1,1,4,0V85A2,2,0,0,1,39,87Z" transform="translate(34.999 24.999)" fill="#2fa6de"/>
      <path id="Path_11729" data-name="Path 11729" d="M56,67a2,2,0,1,1,0-4c5.9,0,8-5.166,8-10V31c0-2.516-6.95-6-20-6s-20,3.484-20,6V53c0,4.834,2.1,10,8,10a2,2,0,0,1,0,4c-7.178,0-12-5.626-12-14V31c0-5.982,9.644-10,24-10s24,4.018,24,10V53C68,61.373,63.177,67,56,67Z" transform="translate(18 15)" fill="#2fa6de"/>
      <path id="Path_11730" data-name="Path 11730" d="M66,39a2,2,0,0,1-1.416-.586l-8-8a2,2,0,0,1,2.83-2.83l8,8A2,2,0,0,1,66,39Z" transform="translate(53.997 20.998)" fill="#2fa6de"/>
      <path id="Path_11731" data-name="Path 11731" d="M74,35H50a2,2,0,0,1,0-4H74a2,2,0,0,1,0,4Z" transform="translate(45.999 24.999)" fill="#2fa6de"/>
      <path id="Path_11732" data-name="Path 11732" d="M58,43a2,2,0,0,1-1.416-3.416l8-8a2,2,0,0,1,2.83,2.83l-8,8A2,2,0,0,1,58,43Z" transform="translate(53.997 24.998)" fill="#2fa6de"/>
      <path id="Path_11733" data-name="Path 11733" d="M59.163,14.494H47.849a2,2,0,1,1,0-4H59.163a2,2,0,0,1,0,4Z" transform="translate(43.848 4.494)" fill="#2fa6de"/>
      <path id="Path_11734" data-name="Path 11734" d="M45.022,31.494a2,2,0,0,1-1.414-3.416L60.58,11.11a2,2,0,1,1,2.826,2.826l-16.97,16.97a2,2,0,0,1-1.414.588Z" transform="translate(41.019 4.464)" fill="#2fa6de"/>
      <path id="Path_11735" data-name="Path 11735" d="M53.506,25.808a2,2,0,0,1-2-2V12.494a2,2,0,0,1,4,0V23.808A2,2,0,0,1,53.506,25.808Z" transform="translate(49.505 4.494)" fill="#2fa6de"/>
      <path id="Path_11736" data-name="Path 11736" d="M12.494,25.808a2,2,0,0,1-2-2V12.494a2,2,0,0,1,4,0V23.808A2,2,0,0,1,12.494,25.808Z" transform="translate(8.494 4.494)" fill="#2fa6de"/>
      <path id="Path_11737" data-name="Path 11737" d="M29.494,31.494a2,2,0,0,1-1.416-.586L11.11,13.936a2,2,0,1,1,2.826-2.826l16.97,16.97a2,2,0,0,1-1.414,3.414Z" transform="translate(8.464 4.464)" fill="#2fa6de"/>
      <path id="Path_11738" data-name="Path 11738" d="M23.808,14.494H12.494a2,2,0,0,1,0-4H23.808a2,2,0,0,1,0,4Z" transform="translate(8.494 4.494)" fill="#2fa6de"/>
      <path id="Path_11739" data-name="Path 11739" d="M12,43a2,2,0,0,1-1.414-.584l-8-8a2,2,0,1,1,2.83-2.83l8,8A2,2,0,0,1,12,43Z" transform="translate(0 24.999)" fill="#2fa6de"/>
      <path id="Path_11740" data-name="Path 11740" d="M28,35H4a2,2,0,0,1,0-4H28a2,2,0,1,1,0,4Z" transform="translate(0 24.999)" fill="#2fa6de"/>
      <path id="Path_11741" data-name="Path 11741" d="M4,39a2,2,0,0,1-1.414-3.414l8-8a2,2,0,0,1,2.83,2.83l-8,8A2,2,0,0,1,4,39Z" transform="translate(0 20.999)" fill="#2fa6de"/>
      <path id="Path_11742" data-name="Path 11742" d="M23.808,55.506H12.494a2,2,0,0,1,0-4H23.808a2,2,0,0,1,0,4Z" transform="translate(8.494 45.505)" fill="#2fa6de"/>
      <path id="Path_11743" data-name="Path 11743" d="M12.494,63.99a2,2,0,0,1-1.414-3.414l16.97-16.97a2,2,0,1,1,2.828,2.83L13.906,63.4a2,2,0,0,1-1.412.586Z" transform="translate(8.494 37.02)" fill="#2fa6de"/>
      <path id="Path_11744" data-name="Path 11744" d="M12.494,61.163a2,2,0,0,1-2-2V47.849a2,2,0,1,1,4,0V59.163A2,2,0,0,1,12.494,61.163Z" transform="translate(8.494 39.848)" fill="#2fa6de"/>
      <path id="Path_11745" data-name="Path 11745" d="M53.506,61.163a2,2,0,0,1-2-2V47.849a2,2,0,1,1,4,0V59.163A2,2,0,0,1,53.506,61.163Z" transform="translate(49.505 39.848)" fill="#2fa6de"/>
      <path id="Path_11746" data-name="Path 11746" d="M61.99,63.991a2,2,0,0,1-1.414-.586l-16.97-16.97a2,2,0,0,1,2.83-2.828L63.4,60.579a2,2,0,0,1-1.414,3.414Z" transform="translate(41.02 37.02)" fill="#2fa6de"/>
      <path id="Path_11747" data-name="Path 11747" d="M59.163,55.506H47.849a2,2,0,1,1,0-4H59.163a2,2,0,0,1,0,4Z" transform="translate(43.848 45.505)" fill="#2fa6de"/>
    </g>
  </g>
</svg>
