<svg xmlns="http://www.w3.org/2000/svg" xmlns:xlink="http://www.w3.org/1999/xlink" width="150" height="150" viewBox="0 0 150 150">
  <defs>
    <clipPath id="clip-w-ecommerce-web">
      <rect width="150" height="150"/>
    </clipPath>
  </defs>
  <g id="w-ecommerce-web" clip-path="url(#clip-w-ecommerce-web)">
    <g id="Group_927" data-name="Group 927" transform="translate(4061.092 521.507)">
      <path id="Subtraction_156" data-name="Subtraction 156" d="M-4424.552,322.636c-25.44,0-51.746,0-77.617,0a10,10,0,0,1-10.131-7.747,11.734,11.734,0,0,1-.268-2.552c-.033-1.924-.026-3.851-.019-5.715v-.047q0-.682,0-1.364c.007-1.763.818-2.587,2.553-2.593.418,0,.828,0,1.262,0h3.934l-.6-1.107c-1.17-2.172-1.14-4.426-1.107-6.813.007-.478.01-.84.01-1.172v-2.4c0-13.354,0-27.163.006-40.835a9.911,9.911,0,0,1,7.684-9.988,11.152,11.152,0,0,1,2.623-.287c13.831-.011,28.771-.016,44.406-.016,7.152,0,14.318,0,21.3,0a10.016,10.016,0,0,1,10.359,10.335l0,2.242v.676c.011,14.233.023,28.95-.033,43.545a16.382,16.382,0,0,1-.456,3.225l-.018.085,0,.013c-.108.525-.22,1.068-.31,1.623l-.141.87h.881c.223,0,.463,0,.718.01h.062l.089,0c.287.006.582.013.889.013.471,0,.881-.015,1.253-.045.147-.012.3-.018.442-.018a2.688,2.688,0,0,1,2.68,1.609V313.9q-.056.219-.112.439l-.005.021-.008.031c-.1.4-.2.783-.315,1.161a9.976,9.976,0,0,1-9.259,7.077C-4424.042,322.632-4424.3,322.636-4424.552,322.636Zm-83.667-15.608h0v.75c0,.533,0,1.085-.006,1.529v.106c-.007,1.107-.015,2.252.016,3.39a5.428,5.428,0,0,0,1.78,3.949,6.307,6.307,0,0,0,4.238,1.511h.276l25.622,0h52.1c.112,0,.209,0,.314-.006a6,6,0,0,0,3.208-1.084,4.477,4.477,0,0,0,1.867-2.816,29.05,29.05,0,0,0,.39-4.622V309.7c.019-.618.039-1.257.075-1.875l.048-.8Zm12.229-62.661a6.149,6.149,0,0,0-4.546,1.643,6.218,6.218,0,0,0-1.631,4.567v45.773a6.287,6.287,0,0,0,1.635,4.615,6.211,6.211,0,0,0,4.594,1.647h65.3a6.174,6.174,0,0,0,4.5-1.648,6.236,6.236,0,0,0,1.633-4.518v-45.87a6.219,6.219,0,0,0-1.634-4.567,6.239,6.239,0,0,0-4.55-1.643Zm41.272,46.958h-.01a2.225,2.225,0,0,1-2.167-2.4c0-.668,0-1.314,0-1.741v-.454q0-.233,0-.469v-.75h-11.262v1.342c0,.7,0,1.34-.005,1.967a2.247,2.247,0,0,1-2.154,2.5h-.027c-1.313,0-2.165-1-2.171-2.55-.006-.558-.005-1.115,0-1.653v-.416q0-.161,0-.319v-.364l-.285-.225-.047-.041a.9.9,0,0,0-.561-.267,3.937,3.937,0,0,1-2.339-.609,3.974,3.974,0,0,1-.83-2.3c-.444-2.671-.893-5.376-1.335-8.044l-.515-3.1-.208-1.253q-.561-3.387-1.123-6.769c-.033-.2-.08-.4-.122-.564-.022-.091-.045-.185-.068-.285l-.131-.586h-.6l-1.113,0h-.069l-1.154,0c-.646,0-1.183,0-1.689-.007a2.215,2.215,0,0,1-2.454-2.193,2.222,2.222,0,0,1,2.477-2.172c1.263-.005,2.346-.008,3.408-.008s2,0,2.83.008a2.226,2.226,0,0,1,2.486,2.109q.061.356.123.712l.069.4.028.163c.093.535.209,1.2.319,1.86l.105.625h26.931a2.724,2.724,0,0,1,2.166.743,2.853,2.853,0,0,1,.386,2.357c-.993,5.933-1.847,11.1-2.609,15.807-.23,1.424-.46,2.089-.851,2.452a4.442,4.442,0,0,1-2.562.691l-.682.062v.685q0,.186,0,.374v.572c0,.568,0,1.156-.007,1.735A2.206,2.206,0,0,1-4454.718,291.325Zm-19.875-23.408h0l.146.874c.413,2.459.814,4.873,1.118,6.7l.262,1.573q.28,1.677.561,3.355l.1.626h19.751l.247-1.486.26-1.565.248-1.488c.423-2.547.856-5.149,1.285-7.718l.146-.873Z" transform="translate(477.25 -727.75)" fill="#2fa6de"/>
    </g>
  </g>
</svg>
