<svg xmlns="http://www.w3.org/2000/svg" xmlns:xlink="http://www.w3.org/1999/xlink" width="150" height="150" viewBox="0 0 150 150">
  <defs>
    <clipPath id="clip-wearable-app-development">
      <rect width="150" height="150"/>
    </clipPath>
  </defs>
  <g id="wearable-app-development" clip-path="url(#clip-wearable-app-development)">
    <g id="Group_4076" data-name="Group 4076" transform="translate(499.04 -59.89)">
      <path id="Path_16125" data-name="Path 16125" d="M-410.1,74.89a3.813,3.813,0,0,0,.527.218,8.639,8.639,0,0,1,6.734,6.75c.99,4.094,1.894,8.209,2.782,12.327a1.127,1.127,0,0,0,1.032,1.02c5.609,1.208,8.909,5.242,8.972,10.964.031,2.807.005,5.614.005,8.621.578,0,1.065-.007,1.551,0,3.75.059,6.073,2.381,6.087,6.1q.017,4.687,0,9.374c-.01,3.817-2.32,6.145-6.117,6.18-.461,0-.922,0-1.521,0v1.51q0,12.538,0,25.076c0,6.274-3,10.057-9.1,11.606a1.52,1.52,0,0,0-.865.977c-.967,4.06-1.855,8.138-2.8,12.2a8.792,8.792,0,0,1-8.877,7.057q-15.853.023-31.706,0a8.749,8.749,0,0,1-8.788-6.86c-.477-1.89-.9-3.8-1.315-5.7-.31-1.41.177-2.349,1.289-2.587,1.028-.22,1.85.459,2.158,1.8.4,1.749.789,3.5,1.185,5.251a5.355,5.355,0,0,0,5.645,4.583q15.736.012,31.471,0a5.231,5.231,0,0,0,5.461-4.207c.953-3.982,1.824-7.984,2.724-11.979a1.87,1.87,0,0,0-.028-.432H-405q-24.425,0-48.85-.005a10.755,10.755,0,0,1-10.847-8.269,13.031,13.031,0,0,1-.328-3.015q-.028-28.591-.01-57.183a10.736,10.736,0,0,1,9.012-11.06c.742-.154.915-.535,1.051-1.147.835-3.77,1.759-7.521,2.526-11.3.827-4.077,3.073-6.739,7.189-7.718.063-.015.108-.1.161-.155Zm16.53,60c0-9.527.015-19.054-.007-28.581-.011-4.761-3.032-7.761-7.773-7.763q-26.177-.009-52.354,0c-4.724,0-7.806,3.059-7.807,7.755q-.011,28.581,0,57.162c0,4.7,3.083,7.763,7.8,7.765q26.177.01,52.354,0a9.467,9.467,0,0,0,1.867-.131c3.657-.743,5.908-3.625,5.915-7.624Q-393.55,149.18-393.57,134.889Zm-9.906-39.92c-.954-4.2-1.849-8.315-2.831-12.4a5.206,5.206,0,0,0-5.38-4.155q-15.852-.016-31.7,0a5.337,5.337,0,0,0-5.449,4.394q-.593,2.565-1.163,5.135c-.516,2.314-1.025,4.63-1.555,7.029Zm13.495,37.962c.63,0,1.169.021,1.706,0a2.159,2.159,0,0,0,2.336-2.351q.04-4.976,0-9.952a2.1,2.1,0,0,0-2.033-2.281,19.939,19.939,0,0,0-2.007-.012Z" fill="#2fa6de"/>
      <path id="Path_16126" data-name="Path 16126" d="M-385.15,189.833h-53.8c-.019.416-.052.793-.052,1.17q0,15.229,0,30.459c0,1.868.486,2.354,2.356,2.354q24.6,0,49.191,0c1.822,0,2.292-.461,2.3-2.282.009-3.437,0-6.873.008-10.309a5.259,5.259,0,0,1,.113-1.276,1.58,1.58,0,0,1,1.742-1.259,1.591,1.591,0,0,1,1.607,1.428,5.8,5.8,0,0,1,.053.934c0,3.554.017,7.107,0,10.661s-2.088,5.617-5.608,5.617q-24.83.008-49.661,0c-3.5,0-5.621-2.12-5.622-5.626q-.008-27.179,0-54.358c0-3.579,2.1-5.667,5.695-5.668q24.772-.007,49.543,0c3.549,0,5.646,2.044,5.651,5.571q.025,17.046.006,34.091c0,.078,0,.156,0,.234-.039,1.413-.65,2.142-1.78,2.125-1.107-.018-1.722-.762-1.736-2.182-.02-1.913-.006-3.827-.006-5.74C-385.15,193.832-385.15,191.886-385.15,189.833Zm0-3.624V184.9q0-8.611,0-17.221c0-2.117-.385-2.486-2.561-2.486h-48.722c-.313,0-.627-.008-.939.009a1.49,1.49,0,0,0-1.576,1.437c-.077,2.445-.027,4.894-.027,7.459,1.155,0,2.205-.045,3.248.016a1.37,1.37,0,0,0,1.4-.784c.7-1.171,1.453-2.316,2.222-3.444a1.773,1.773,0,0,1,3.221.011c.62.947,1.186,1.929,1.774,2.9.836,1.374,1.671,2.749,2.622,4.314.937-2.169,1.708-4.126,2.638-6,.289-.582.993-1.3,1.539-1.325a2.856,2.856,0,0,1,1.871,1.042,17.519,17.519,0,0,1,1.906,2.8,1.517,1.517,0,0,0,1.527.8c2.269-.039,4.539-.015,6.809-.015h3.917a4.7,4.7,0,0,0,.152-.475c.608-3.466,3.067-4.978,6.407-3.845a4.131,4.131,0,0,0,2.827-.091,4.494,4.494,0,0,1,5.527,1.835,4.6,4.6,0,0,1-.82,5.782q-2.047,2.1-4.161,4.131a2.7,2.7,0,0,1-4.141-.006c-1.044-1-2.008-2.091-3.105-3.027a3.136,3.136,0,0,0-1.817-.755c-4.343-.064-8.687-.052-13.031-.021a2.29,2.29,0,0,1-2.231-1.194c-.3-.515-.669-.985-1.109-1.622-.916,2.12-1.75,4-2.542,5.907-.347.835-.748,1.567-1.77,1.641s-1.52-.6-1.983-1.374c-1.436-2.4-2.9-4.79-4.456-7.348-.551.843-1.054,1.527-1.467,2.262a2.553,2.553,0,0,1-2.591,1.422c-1.431-.073-2.869-.017-4.311-.017v8.6Zm-11.26-7.292c1.3-1.317,2.541-2.5,3.678-3.787a1.571,1.571,0,0,0,.289-1.414,1.462,1.462,0,0,0-1.373-.331,6.424,6.424,0,0,1-5.217-.014c-.356-.15-1.182.021-1.294.268a1.6,1.6,0,0,0,.186,1.425C-398.985,176.378-397.714,177.591-396.41,178.917Z" transform="translate(-15.466 -59.618)" fill="#2fa6de"/>
      <path id="Path_16127" data-name="Path 16127" d="M-403.65,276.026a31.365,31.365,0,0,1,3.647.26,7.925,7.925,0,0,1,6.413,8.529,8.1,8.1,0,0,1-7.538,7.36,8.116,8.116,0,0,1-8.355-6.285c-.3-1.32.146-2.3,1.169-2.554,1.127-.283,1.91.321,2.265,1.746a4.537,4.537,0,0,0,5.06,3.539,4.515,4.515,0,0,0,3.874-5.02,4.447,4.447,0,0,0-4.7-3.974c-1.067.049-2.111.5-3.182.64a2.9,2.9,0,0,1-1.93-.2,2.275,2.275,0,0,1-.641-1.809c.362-2.781.865-5.545,1.33-8.312.3-1.774.747-2.147,2.571-2.153,2.229-.007,4.458-.015,6.687.005,1.307.012,2.081.66,2.111,1.694.031,1.068-.794,1.791-2.135,1.808q-2.522.034-5.045,0c-.619-.01-.9.176-.981.835C-403.18,273.438-403.436,274.735-403.65,276.026Z" transform="translate(-38.103 -132.509)" fill="#2fa6de"/>
      <path id="Path_16128" data-name="Path 16128" d="M-328.649,297.84c-1.682,0-3.365.032-5.045-.008a4.931,4.931,0,0,1-4.914-4.932,4.841,4.841,0,0,1,4.722-4.98c3.478-.1,6.962-.1,10.44-.006a4.912,4.912,0,0,1,4.821,5.028,4.981,4.981,0,0,1-4.979,4.892C-325.285,297.871-326.968,297.841-328.649,297.84Zm-.019-3.509c1.562,0,3.124.012,4.685,0,1.162-.012,1.889-.6,1.811-1.509-.092-1.057-.793-1.432-1.784-1.43-3.123.006-6.246,0-9.37,0-.984,0-1.69.369-1.736,1.458-.039.937.623,1.466,1.826,1.477C-331.714,294.343-330.191,294.332-328.669,294.332Z" transform="translate(-86.854 -146.292)" fill="#2fa6de"/>
      <path id="Path_16129" data-name="Path 16129" d="M-332.261,270.074c-1.444,0-2.887.017-4.331,0-1.263-.019-2.008-.719-1.977-1.8a1.756,1.756,0,0,1,1.969-1.7q4.272-.03,8.545,0a1.794,1.794,0,0,1,2,1.808,1.8,1.8,0,0,1-1.988,1.693C-329.452,270.091-330.857,270.074-332.261,270.074Z" transform="translate(-86.881 -131.665)" fill="#2fa6de"/>
      <path id="Path_16130" data-name="Path 16130" d="M-357.486,104.731c-1.25,0-2.5.007-3.75,0a1.663,1.663,0,0,1-1.823-1.591,1.651,1.651,0,0,1,1.656-1.876c2.615-.067,5.233-.062,7.848,0a1.715,1.715,0,0,1,1.675,1.771,1.73,1.73,0,0,1-1.858,1.691C-354.986,104.754-356.236,104.731-357.486,104.731Z" transform="translate(-70.049 -18.084)" fill="#2fa6de"/>
    </g>
  </g>
</svg>
