<svg xmlns="http://www.w3.org/2000/svg" width="1000" height="1000" viewBox="0 0 1000 1000">
  <path id="dribbble-icon" d="M0,500Q0,364,67,249T249,67Q364,0,500,0T751,67q115,67,182,182t67,251q0,136-67,251T751,933q-115,67-251,67T249,933Q134,866,67,751T0,500Zm83,0q0,156,105,275,48-94,152-179T543,489q-15-35-29-63-172,55-372,55-39,0-58-1,0,4-.5,10T83,500ZM96,397q22,2,65,2,167,0,317-45Q402,219,311,129q-79,40-135.5,111T96,397ZM245,829q113,88,255,88,74,0,147-28a1468.387,1468.387,0,0,0-78-331q-92,20-185.5,101T245,829ZM398,97q88,91,163,227,136-57,205-145Q650,83,500,83A383.836,383.836,0,0,0,398,97ZM597,395q15,32,34,81,74-7,161-7,62,0,123,3-8-136-98-242Q752,327,597,395Zm59,151a1435.333,1435.333,0,0,1,69,304A417.232,417.232,0,0,0,854,719a403.9,403.9,0,0,0,60-173q-73-5-133-5Q726,541,656,546Z" fill="#969696"/>
</svg>
