<svg width="60" height="60" viewBox="0 0 60 60" fill="none" xmlns="http://www.w3.org/2000/svg">
<g clip-path="url(#clip0_258_3366)">
<path d="M30 60C46.5685 60 60 46.5685 60 30C60 13.4315 46.5685 0 30 0C13.4315 0 0 13.4315 0 30C0 46.5685 13.4315 60 30 60Z" fill="#039BE5" style="fill:#039BE5;fill:color(display-p3 0.0118 0.6078 0.8980);fill-opacity:1;"/>
<path d="M13.7277 29.35L42.6527 18.1975C43.9952 17.7125 45.1677 18.525 44.7327 20.555L44.7352 20.5525L39.8102 43.755C39.4452 45.4 38.4677 45.8 37.1002 45.025L29.6002 39.4975L25.9827 42.9825C25.5827 43.3825 25.2452 43.72 24.4702 43.72L25.0027 36.0875L38.9027 23.53C39.5077 22.9975 38.7677 22.6975 37.9702 23.2275L20.7927 34.0425L13.3877 31.7325C11.7802 31.2225 11.7452 30.125 13.7277 29.35Z" fill="white" style="fill:white;fill-opacity:1;"/>
</g>
<defs>
<clipPath id="clip0_258_3366">
<rect width="60" height="60" fill="white" style="fill:white;fill-opacity:1;"/>
</clipPath>
</defs>
</svg>
