<svg width="50" height="51" viewBox="0 0 50 51" fill="none" xmlns="http://www.w3.org/2000/svg">
<g clip-path="url(#clip0_2045_3104)">
<path d="M41.1455 0.750977H8.85452C3.9643 0.750977 0 4.81692 0 9.83251V41.6694C0 46.685 3.9643 50.751 8.85452 50.751H41.1455C46.0357 50.751 50 46.685 50 41.6694V9.83251C50 4.81692 46.0357 0.750977 41.1455 0.750977Z" fill="#470137"/>
<path d="M26.2842 13.9005L20.0455 24.4611L26.7203 35.6762C26.7632 35.7547 26.7751 35.8471 26.7535 35.9344C26.7311 36.0145 26.6559 35.9644 26.5193 35.9864H21.7579C21.4223 35.9864 21.1881 35.9744 21.0534 35.7453C20.6066 34.8506 20.1594 33.962 19.7118 33.0793C19.2643 32.1967 18.7892 31.2961 18.2863 30.3774C17.7842 29.4607 17.2869 28.5317 16.7945 27.5904H16.7603C16.3128 28.5084 15.8487 29.426 15.368 30.3434C14.8873 31.2607 14.4121 32.1724 13.9425 33.0783C13.4729 33.9837 12.9922 34.8843 12.5004 35.7803C12.4106 35.9864 12.2545 36.0084 12.0311 36.0084H7.43358C7.34479 36.0084 7.29503 36.0445 7.28332 35.9524C7.27059 35.8685 7.2883 35.7827 7.33308 35.7112L13.8069 24.8034L7.5009 13.8655C7.43358 13.7744 7.42285 13.6994 7.46773 13.6423C7.49263 13.6135 7.52379 13.591 7.5587 13.5768C7.59361 13.5625 7.6313 13.5569 7.66872 13.5603H12.398C12.5012 13.5546 12.6044 13.572 12.7004 13.6113C12.7804 13.6586 12.8491 13.7235 12.9014 13.8015C13.3034 14.7181 13.7506 15.6354 14.243 16.5534C14.7354 17.4714 15.233 18.3751 15.7359 19.2644C16.238 20.159 16.7018 21.065 17.1272 21.9823H17.1614C17.6082 21.0423 18.061 20.125 18.5195 19.2304C18.9781 18.3357 19.4478 17.4351 19.9285 16.5284C20.4085 15.6224 20.8723 14.7218 21.3198 13.8265C21.3459 13.7415 21.3922 13.6645 21.4545 13.6023C21.5372 13.5591 21.6304 13.5414 21.7228 13.5513H26.1134C26.1551 13.5433 26.1982 13.5494 26.2362 13.5687C26.2742 13.5881 26.305 13.6196 26.3239 13.6585C26.3429 13.6974 26.349 13.7416 26.3413 13.7843C26.3336 13.8271 26.3125 13.8661 26.2813 13.8955L26.2842 13.9005Z" fill="#FF61F6"/>
<path d="M35.9105 36.432C34.3665 36.4562 32.8366 36.1273 31.432 35.4693C30.1239 34.8478 29.0302 33.8342 28.2951 32.5622C27.5354 31.2666 27.1552 29.6441 27.1545 27.6947C27.1436 26.117 27.5369 24.5641 28.2951 23.1914C29.0769 21.7932 30.2265 20.6487 31.6125 19.889C33.065 19.0638 34.8213 18.6512 36.8813 18.6512C36.9925 18.6512 37.1379 18.6512 37.3175 18.6682C37.497 18.6852 37.7077 18.6972 37.9546 18.7192V11.9383C37.9546 11.7782 38.0219 11.6982 38.1556 11.6982H42.3814C42.4281 11.6913 42.4755 11.7036 42.5133 11.7325C42.5512 11.7614 42.5763 11.8044 42.5833 11.8523C42.5853 11.8696 42.5853 11.887 42.5833 11.9043V32.2349C42.5833 32.6252 42.5999 33.0495 42.6331 33.5079C42.6663 33.9662 42.6942 34.3791 42.717 34.7467C42.7211 34.8182 42.7041 34.8892 42.6683 34.9507C42.6324 35.0121 42.5794 35.061 42.516 35.091C41.4257 35.5571 40.2901 35.903 39.1284 36.1227C38.0668 36.3235 36.9899 36.427 35.9105 36.432ZM37.9595 32.1669V22.7751C37.7782 22.7254 37.5931 22.6919 37.4062 22.6751C37.1777 22.6514 36.9481 22.6397 36.7184 22.64C35.9043 22.6319 35.0997 22.8204 34.3699 23.1904C33.6607 23.5533 33.0555 24.0988 32.6136 24.7736C32.155 25.4614 31.9257 26.367 31.9257 27.4905C31.9093 28.2404 32.0288 28.9869 32.2779 29.6921C32.4807 30.2603 32.8009 30.7768 33.2166 31.2062C33.6152 31.6006 34.0974 31.8952 34.6255 32.0668C35.1836 32.2517 35.7669 32.3443 36.3535 32.341C36.6657 32.341 36.9561 32.3297 37.2248 32.307C37.4721 32.2864 37.7167 32.2394 37.9546 32.1669H37.9595Z" fill="#FF61F6"/>
</g>
<defs>
<clipPath id="clip0_2045_3104">
<rect width="50" height="50" fill="white" transform="translate(0 0.750977)"/>
</clipPath>
</defs>
</svg>
