<svg width="50" height="50" viewBox="0 0 50 50" fill="none" xmlns="http://www.w3.org/2000/svg">
<rect width="50" height="50" rx="10" fill="white"/>
<path d="M25.0023 5.00098C19.6983 5.0017 14.6117 7.10883 10.861 10.8591C7.11024 14.6093 5.00242 19.6956 5.00098 24.9996C5.00242 30.3032 7.10987 35.389 10.86 39.1392C14.6102 42.8894 19.6961 44.9968 24.9996 44.9983C30.3032 44.9968 35.389 42.8894 39.1392 39.1392C42.8894 35.389 44.9968 30.3032 44.9983 24.9996C44.9968 19.6966 42.8897 14.6111 39.1402 10.861C35.3906 7.11091 30.3054 5.00314 25.0023 5.00098ZM38.5058 28.5064C38.5058 29.7143 37.8109 30.7728 36.4511 31.0144C34.0951 31.4378 29.1389 31.6794 25.0023 31.6794C20.8658 31.6794 15.9096 31.408 13.5536 31.0144C12.9611 30.9256 12.4227 30.6198 12.043 30.1563C11.6633 29.6929 11.4694 29.1048 11.4989 28.5064V20.7111C11.4989 19.5033 12.4353 18.385 13.5536 18.2031C14.2484 18.081 15.8797 17.9317 17.15 17.9317C17.6331 17.9317 18.0267 18.2954 18.0267 18.8681V24.3373L25.0349 24.1853L32.0431 24.3373V18.898C32.0431 18.3551 32.4367 17.9616 32.9198 17.9616C34.1874 17.9616 35.8241 18.0837 36.5162 18.233C37.6643 18.4148 38.5709 19.5358 38.5709 20.741L38.5112 28.5363L38.5058 28.5064Z" fill="#ED2226"/>
</svg>
