<svg width="51" height="50" viewBox="0 0 51 50" fill="none" xmlns="http://www.w3.org/2000/svg">
<rect x="0.884766" y="0.00195312" width="50" height="50" rx="10" fill="white"/>
<path d="M19.4737 45.1645C23.0122 45.1645 25.884 42.1537 25.884 38.4441V31.7236H19.4737C15.9353 31.7236 13.0635 34.7344 13.0635 38.4441C13.0635 42.1537 15.9353 45.1645 19.4737 45.1645Z" fill="#0ACF83"/>
<path d="M13.0635 25.0027C13.0635 21.293 15.9353 18.2822 19.4737 18.2822H25.884V31.7231H19.4737C15.9353 31.7231 13.0635 28.7123 13.0635 25.0027Z" fill="#A259FF"/>
<path d="M13.0635 11.5622C13.0635 7.85255 15.9353 4.8418 19.4737 4.8418H25.884V18.2827H19.4737C15.9353 18.2827 13.0635 15.2719 13.0635 11.5622Z" fill="#F24E1E"/>
<path d="M25.8838 4.8418H32.294C35.8325 4.8418 38.7043 7.85255 38.7043 11.5622C38.7043 15.2719 35.8325 18.2827 32.294 18.2827H25.8838V4.8418Z" fill="#FF7262"/>
<path d="M38.7043 25.0027C38.7043 28.7123 35.8325 31.7231 32.294 31.7231C28.7556 31.7231 25.8838 28.7123 25.8838 25.0027C25.8838 21.293 28.7556 18.2822 32.294 18.2822C35.8325 18.2822 38.7043 21.293 38.7043 25.0027Z" fill="#1ABCFE"/>
</svg>
