<svg width="50" height="50" viewBox="0 0 50 50" fill="none" xmlns="http://www.w3.org/2000/svg">
<rect width="50" height="50" rx="5" fill="white"/>
<path d="M3.77215 19.5219C3.70357 19.5219 3.63498 19.418 3.70357 19.3141L4.18368 18.2749C4.25226 18.171 4.32085 18.0671 4.45802 18.0671H13.1C13.1686 18.0671 13.2372 18.171 13.1686 18.2749L12.7571 19.2102C12.6885 19.3141 12.6199 19.418 12.4827 19.418L3.77215 19.5219ZM0.137036 22.8474C0.068449 22.8474 -0.000138387 22.7435 0.0684487 22.6395L0.548559 21.6003C0.617146 21.4964 0.685733 21.3925 0.822907 21.3925H11.8654C11.934 21.3925 12.0026 21.4964 12.0026 21.6003L11.7968 22.6395C11.7968 22.7435 11.6597 22.8474 11.5911 22.8474H0.137036ZM5.96694 26.2767C5.89835 26.2767 5.82977 26.1728 5.89835 26.0689L6.24129 25.1336C6.30988 25.0297 6.37846 24.9258 6.51564 24.9258H11.3167C11.3853 24.9258 11.4539 25.0297 11.4539 25.1336L11.3853 25.965C11.3853 26.0689 11.3167 26.1728 11.2481 26.1728L5.96694 26.2767ZM31.0698 18.7945L27.0232 20.3533C26.6802 20.4572 26.6117 20.5611 26.3373 19.9376C25.9944 19.3141 25.72 18.8984 25.1713 18.5867C23.6624 17.4436 22.1535 17.7553 20.7818 19.1063C19.1357 20.6651 18.3126 23.0552 18.3126 26.0689C18.3126 28.9787 19.6844 31.3688 21.6048 31.7845C23.2509 32.0962 24.6226 31.2649 25.72 29.3943C25.9258 28.9787 26.1315 28.563 26.4059 28.0434H21.742C21.2619 28.0434 21.1247 27.5238 21.2619 26.9003C21.6048 25.7571 22.1535 23.8866 22.4964 22.9513C22.565 22.7435 22.7708 22.3278 23.1137 22.3278H31.8929C31.8243 23.367 31.8243 24.3023 31.7557 25.3415C31.4813 27.9395 30.8641 30.4335 29.7667 32.5119C28.052 35.9413 25.7886 38.1236 22.908 38.7471C20.5074 39.2667 18.3126 38.5393 16.3922 36.357C14.6089 34.2786 13.5801 31.5766 13.3058 28.2512C12.9628 24.3023 13.7859 20.6651 15.3634 17.5475C17.0781 14.1181 19.3414 11.9358 22.1535 11.2084C24.4169 10.5848 26.6117 11.0005 28.5321 12.975C29.8353 14.222 30.7269 15.9887 31.3442 18.171C31.4128 18.5867 31.3442 18.6906 31.0698 18.7945Z" fill="#00ACD7"/>
<path d="M39.0254 39.0593C36.8307 38.9554 34.8416 38.0202 33.127 35.8378C31.6866 33.9673 30.795 31.5771 30.5206 28.7713C30.1091 24.6145 30.8636 20.9773 32.5097 17.7558C34.2929 14.2225 36.4191 12.4559 39.2998 11.6245C41.7689 11.001 44.1009 11.3127 46.1585 13.4951C48.0789 15.4695 49.2449 18.1715 49.5879 21.7047C49.9994 26.6929 49.0392 30.6418 46.8444 34.0712C45.2669 36.5653 43.2778 38.0202 41.0831 38.7476C40.3286 38.9554 39.6427 38.9554 39.0254 39.0593ZM44.7868 24.3027C44.7868 23.7831 44.7868 23.4714 44.7182 23.0557C44.3067 19.4185 42.1119 17.3401 39.7799 18.1715C37.5165 18.8989 36.0762 21.0812 35.5275 24.5106C35.116 27.3164 36.0076 30.2262 37.7223 31.4732C39.0254 32.3046 40.3972 32.2006 41.6318 31.2654C43.6208 29.8105 44.6496 27.4203 44.7868 24.3027Z" fill="#00ACD7"/>
</svg>
