<svg width="51" height="50" viewBox="0 0 51 50" fill="none" xmlns="http://www.w3.org/2000/svg">
<rect x="0.269531" y="0.00195312" width="50" height="50" rx="10" fill="white"/>
<path d="M25.1484 5.875L26.1749 7.80288C26.4056 8.15865 26.6556 8.47356 26.9501 8.76683C27.8095 9.6262 28.6256 10.5264 29.3588 11.4904C31.098 13.774 32.271 16.3101 33.1088 19.0529C33.6112 20.7284 33.884 22.4471 33.9044 24.1851C33.9886 29.381 32.2073 33.8426 28.616 37.5505C28.0294 38.137 27.402 38.6803 26.729 39.1635C26.3732 39.1635 26.2049 38.8906 26.0583 38.6394C25.7855 38.1791 25.6184 37.6538 25.5343 37.131C25.4081 36.5024 25.3251 35.8738 25.366 35.2248V34.9315C25.3371 34.869 25.0234 6.02284 25.1484 5.875Z" fill="#599636"/>
<path d="M25.149 5.81088C25.1069 5.72675 25.0648 5.79045 25.0228 5.83131C25.0432 6.25199 24.8966 6.62699 24.667 6.98516C24.4146 7.34093 24.0805 7.61377 23.7451 7.90704C21.8822 9.52002 20.4158 11.4683 19.2415 13.6474C17.679 16.5801 16.8737 19.7231 16.6454 23.032C16.5408 24.2255 17.0228 28.4371 17.399 29.6522C18.4254 32.8782 20.2692 35.5813 22.6574 37.9275C23.2439 38.4924 23.8713 39.0164 24.5204 39.52C24.7091 39.52 24.7295 39.3517 24.7728 39.2267C24.8555 38.9593 24.9186 38.6861 24.9615 38.4094L25.3822 35.2676L25.149 5.81088Z" fill="#6CAC48"/>
<path d="M26.1746 40.4403C26.2166 39.9595 26.4474 39.5605 26.6986 39.1626C26.4462 39.0581 26.2587 38.8501 26.1121 38.6182C25.9859 38.409 25.8813 38.1578 25.7996 37.9271C25.5063 37.0473 25.4438 36.1242 25.3597 35.2251V34.6807C25.2551 34.7648 25.2335 35.4763 25.2335 35.5821C25.1723 36.5323 25.0462 37.4772 24.8561 38.4102C24.7936 38.7876 24.7515 39.1638 24.5195 39.4992C24.5195 39.5412 24.5195 39.5833 24.54 39.6458C24.9174 40.7564 25.0207 41.8874 25.0844 43.04V43.4607C25.0844 43.9631 25.064 43.8573 25.4811 44.0256C25.6493 44.0881 25.8368 44.1097 26.0051 44.2347C26.1313 44.2347 26.1517 44.1302 26.1517 44.046L26.0892 43.3549V41.4271C26.0688 41.0905 26.1313 40.7564 26.1734 40.4415L26.1746 40.4403Z" fill="#C2BFBF"/>
</svg>
