<svg width="50" height="50" viewBox="0 0 50 50" fill="none" xmlns="http://www.w3.org/2000/svg">
<rect width="50" height="50" rx="10" fill="white"/>
<path fill-rule="evenodd" clip-rule="evenodd" d="M7.25202 32.5763H8.42355V27.9352L10.2532 31.9816C10.4604 32.468 10.7581 32.6482 11.3346 32.6482C11.9111 32.6482 12.191 32.4678 12.4052 31.9816L14.2257 27.9352V32.5763H15.4063V27.9352C15.4063 27.4847 15.2259 27.268 14.8474 27.1509C13.9552 26.8806 13.3604 27.1149 13.0901 27.7184L11.2968 31.7198L9.56641 27.7184C9.30503 27.1149 8.70109 26.8806 7.80002 27.1509C7.43038 27.268 7.2502 27.4845 7.2502 27.9352L7.25 32.5763H7.25202ZM16.3815 28.8003H17.5621V31.3508C17.5532 31.4948 17.6072 31.8194 18.2489 31.8281C18.5822 31.8372 20.7903 31.8281 20.8081 31.8281V28.7821H21.9887V32.9548C21.9887 33.9821 20.7162 34.2071 20.1231 34.2164H16.4106V33.4327H20.1326C20.8897 33.3515 20.7996 32.9732 20.7996 32.8469V32.5403H18.303C17.1404 32.5312 16.3922 32.0176 16.3835 31.4318V28.7999L16.3815 28.8003ZM41.7056 25.8442C40.985 25.826 40.4258 25.8983 39.9572 26.0967C39.8223 26.1512 39.6058 26.1512 39.588 26.3221C39.6601 26.3938 39.6688 26.5112 39.732 26.6105C39.8401 26.7909 40.0295 27.0339 40.2006 27.1599C40.3901 27.3044 40.5794 27.4484 40.7773 27.5746C41.1288 27.7908 41.5253 27.917 41.8676 28.1333C42.066 28.2596 42.2641 28.4218 42.4625 28.5571C42.5635 28.6292 42.6247 28.7466 42.7509 28.7914V28.7641C42.6879 28.6833 42.6697 28.5662 42.6069 28.4757C42.5166 28.3858 42.4265 28.3044 42.3363 28.2145C42.0751 27.8631 41.7505 27.5564 41.399 27.3044C41.1106 27.106 40.48 26.8358 40.3628 26.5025L40.345 26.4843C40.543 26.4661 40.7773 26.394 40.9668 26.3399C41.2734 26.2591 41.5525 26.2768 41.8676 26.1959C42.0121 26.1595 42.1561 26.1147 42.3005 26.0696V25.9888C42.1383 25.8266 42.0212 25.6103 41.8501 25.4572C41.3905 25.0607 40.8856 24.6731 40.3628 24.3487C40.0835 24.1685 39.7229 24.0511 39.4256 23.8982C39.3171 23.8441 39.1372 23.817 39.0741 23.7269C38.9115 23.529 38.8216 23.2674 38.7045 23.0329C38.4433 22.5372 38.1908 21.9876 37.9656 21.4649C37.8034 21.1134 37.704 20.762 37.5061 20.4376C36.5778 18.9055 35.5682 17.9773 34.0182 17.067C33.6849 16.8777 33.2884 16.7963 32.8668 16.6973L32.191 16.661C32.0465 16.598 31.9025 16.4267 31.7763 16.3455C31.2626 16.0211 29.9378 15.3182 29.5591 16.2465C29.3157 16.8323 29.9196 17.4089 30.1246 17.7065C30.2781 17.9137 30.4761 18.148 30.5845 18.3823C30.6451 18.5354 30.6653 18.6978 30.7286 18.86C30.8726 19.2565 31.0079 19.6983 31.1972 20.0679C31.2982 20.2572 31.4042 20.4557 31.5305 20.6268C31.6026 20.7258 31.7288 20.771 31.7557 20.9332C31.6294 21.1136 31.6208 21.3837 31.5486 21.6093C31.224 22.6277 31.3503 23.8893 31.8098 24.6371C31.9542 24.8623 32.2946 25.3582 32.7563 25.1687C33.1619 25.0065 33.0714 24.4929 33.1886 24.0422C33.2159 23.9342 33.1977 23.8621 33.2516 23.7898V23.8079L33.6212 24.5559C33.9006 24.9975 34.3874 25.4572 34.7928 25.7638C35.0089 25.926 35.1802 26.2055 35.4505 26.3045V26.2773H35.4327C35.3785 26.1965 35.2973 26.1601 35.2252 26.0971C35.063 25.9349 34.8829 25.7365 34.7566 25.5564C34.3783 25.0518 34.045 24.4929 33.7475 23.9162C33.6031 23.6369 33.4768 23.3304 33.3601 23.0511C33.3055 22.9428 33.3055 22.7804 33.2157 22.7267C33.0803 22.9246 32.8824 23.0963 32.7828 23.3395C32.6115 23.7269 32.5937 24.2046 32.5307 24.7003C32.4944 24.7094 32.5105 24.7003 32.4944 24.7185C32.2063 24.6466 32.1069 24.3489 31.9989 24.0968C31.7286 23.4569 31.6834 22.4296 31.9177 21.6905C31.9807 21.5012 32.2514 20.9064 32.1433 20.7262C32.0888 20.5549 31.909 20.4559 31.8096 20.3206C31.6925 20.1493 31.5666 19.9332 31.4854 19.7439C31.2693 19.239 31.1612 18.6805 30.9267 18.1757C30.8182 17.9414 30.6292 17.698 30.4759 17.4819C30.3046 17.2385 30.1157 17.0672 29.9804 16.7789C29.9354 16.68 29.8723 16.5176 29.9444 16.4093C29.9622 16.3372 29.9986 16.3103 30.0703 16.2921C30.1874 16.1932 30.5211 16.3192 30.6383 16.3729C30.9716 16.5083 31.2509 16.6343 31.5303 16.8234C31.6565 16.9135 31.7918 17.0847 31.954 17.13H32.1435C32.4319 17.193 32.7561 17.1482 33.0262 17.229C33.5039 17.3825 33.9363 17.6075 34.3242 17.8511C35.5046 18.5991 36.4782 19.6625 37.1359 20.9334C37.2439 21.1407 37.289 21.3299 37.3883 21.5463C37.5778 21.988 37.8121 22.4385 38.001 22.8713C38.1904 23.2949 38.3706 23.7278 38.6409 24.0792C38.7762 24.2685 39.3167 24.3674 39.5599 24.4666C39.7403 24.5474 40.0194 24.6201 40.182 24.7191C40.4883 24.9084 40.7947 25.1247 41.0829 25.3319C41.2269 25.4398 41.6778 25.6652 41.7046 25.845L41.7056 25.8442ZM32.5152 18.0127C32.3906 18.0116 32.2665 18.0267 32.1459 18.0577V18.0759H32.1637C32.2358 18.2201 32.3621 18.3193 32.4521 18.4455L32.6596 18.8782L32.6774 18.86C32.8036 18.7699 32.8668 18.6257 32.8668 18.4096C32.8127 18.3466 32.8038 18.2833 32.7588 18.2203C32.7046 18.1302 32.5875 18.085 32.5152 18.0131V18.0127Z" fill="#00678C"/>
<path fill-rule="evenodd" clip-rule="evenodd" d="M22.8887 32.5764H26.2772C26.6737 32.5764 27.0525 32.4956 27.3587 32.3512C27.8723 32.1169 28.1157 31.8018 28.1157 31.3871V30.522C28.1157 30.1887 27.8364 29.873 27.2779 29.6568C26.9894 29.5488 26.6289 29.4855 26.2774 29.4855H24.8534C24.3757 29.4855 24.1505 29.3411 24.0873 29.026C24.0784 28.9901 24.0784 28.9539 24.0784 28.918V28.3861C24.0784 28.3589 24.0784 28.3231 24.0873 28.2872C24.1503 28.0438 24.2765 27.9805 24.6932 27.9357H28.1628V27.1514H24.8643C24.3866 27.1514 24.1343 27.1786 23.9089 27.2507C23.2149 27.4669 22.9085 27.8094 22.9085 28.413V29.0983C22.9085 29.6296 23.5033 30.0806 24.5127 30.1887C24.6207 30.1978 24.7379 30.1978 24.855 30.1978H26.0718C26.1169 30.1978 26.1617 30.1978 26.1977 30.2069C26.5673 30.2428 26.7295 30.3058 26.8376 30.4408C26.9097 30.5129 26.9278 30.5761 26.9278 30.6573V31.342C26.9278 31.4228 26.8737 31.5315 26.7656 31.6214C26.6576 31.7113 26.4859 31.7745 26.2607 31.7836C26.2156 31.7836 26.189 31.7927 26.1435 31.7927H22.8887V32.5764ZM35.4514 31.2158C35.4514 32.0177 36.0573 32.4681 37.2632 32.5586C37.3804 32.5677 37.4884 32.5764 37.6056 32.5764H40.6697V31.7927H37.5787C36.8934 31.7927 36.6322 31.6214 36.6322 31.2069V27.1514H35.4491V31.216L35.4514 31.2158ZM28.8635 31.2515V28.458C28.8635 27.746 29.3681 27.3132 30.3507 27.1782C30.4588 27.1691 30.5669 27.1601 30.6658 27.1601H32.9007C33.0178 27.1601 33.1172 27.1691 33.2343 27.1782C34.2166 27.3132 34.7121 27.7458 34.7121 28.458V31.2515C34.7121 31.8282 34.505 32.1348 34.0181 32.3423L35.1714 33.3874H33.8108L32.8736 32.5404L31.9271 32.5946H30.6654C30.4343 32.5934 30.2041 32.5632 29.9805 32.5047C29.2331 32.297 28.8635 31.9007 28.8635 31.2515ZM30.134 31.1889C30.134 31.2249 30.1542 31.2606 30.1613 31.3061C30.2243 31.6303 30.5305 31.8106 30.9991 31.8106H32.0628L31.0896 30.9273H32.4502L33.3062 31.7026C33.4688 31.6123 33.5678 31.486 33.6038 31.3238C33.6129 31.2879 33.6129 31.2431 33.6129 31.2067V28.5299C33.6129 28.494 33.6129 28.4582 33.6038 28.4219C33.5408 28.1157 33.2345 27.9446 32.7748 27.9446H30.9993C30.4766 27.9446 30.1342 28.1698 30.1342 28.5299L30.134 31.1889Z" fill="#CE8B2C"/>
</svg>
