<svg width="51" height="50" viewBox="0 0 51 50" fill="none" xmlns="http://www.w3.org/2000/svg">
<rect x="0.5" y="0.00195312" width="50" height="50" rx="10" fill="white"/>
<path d="M25.5054 42.0201C25.0454 42.0201 24.5895 41.8999 24.1864 41.6675L19.9877 39.1811C19.3603 38.8302 19.6664 38.706 19.8731 38.6346C20.7097 38.3422 20.8788 38.2757 21.7714 37.7685C21.8651 37.7148 21.9877 37.734 22.0839 37.7909L25.3098 39.7052C25.426 39.7685 25.5919 39.7685 25.6993 39.7052L38.277 32.4447C38.3932 32.3782 38.4693 32.2436 38.4693 32.105V17.5914C38.4693 17.4463 38.394 17.3173 38.2746 17.2452L25.7025 9.99041C25.5863 9.9215 25.4316 9.9215 25.3155 9.99041L12.7449 17.2444C12.6231 17.3133 12.5454 17.4487 12.5454 17.5874V32.1018C12.5454 32.2404 12.6207 32.3726 12.7409 32.4383L16.1856 34.4279C18.0558 35.363 19.1985 34.2612 19.1985 33.1531V18.8286C19.1985 18.6242 19.3587 18.4664 19.5639 18.4664H21.1568C21.3555 18.4664 21.519 18.6234 21.519 18.8286V33.1603C21.519 35.6539 20.1592 37.0866 17.7946 37.0866C17.0671 37.0866 16.4941 37.0866 14.8948 36.2997L11.5951 34.3983C10.7794 33.9255 10.2754 33.0433 10.2754 32.1026V17.5882C10.2754 16.6435 10.7794 15.762 11.5943 15.2957L24.1856 8.03208C24.9821 7.58176 26.0398 7.58176 26.8307 8.03208L39.406 15.2989C40.2169 15.7677 40.7241 16.6467 40.7241 17.5914V32.1058C40.7241 33.0473 40.2169 33.9255 39.4052 34.3983L26.8299 41.6611C26.4268 41.8943 25.9701 42.0136 25.5046 42.0136" fill="#21A366"/>
<path d="M29.9812 34.1138C23.6433 34.1138 22.3145 30.8484 22.3145 28.1102C22.3145 27.8503 22.5018 27.6421 22.7343 27.6421H24.6058C24.8125 27.6421 24.9869 27.8109 25.0192 28.0398C25.3016 30.1794 26.1432 31.2585 29.9756 31.2585C33.0283 31.2585 34.3267 30.4849 34.3267 28.6674C34.3267 27.6214 33.9566 26.8447 29.2143 26.3238C25.2471 25.8846 22.7962 24.9039 22.7962 21.3434C22.7962 18.0636 25.2619 16.1104 29.3915 16.1104C34.0295 16.1104 36.3282 17.9175 36.618 21.7991C36.6291 21.9337 36.5857 22.0632 36.5054 22.1615C36.4261 22.2548 36.3135 22.3117 36.1972 22.3117H34.3156C34.12 22.3117 33.9492 22.1574 33.9096 21.9451C33.4565 19.6947 32.3611 18.9749 29.3841 18.9749C26.0518 18.9749 25.6643 20.2767 25.6643 21.2533C25.6643 22.437 26.121 22.7829 30.617 23.4509C35.0695 24.1137 37.1837 25.0499 37.1837 28.5618C37.1837 32.1015 34.5509 34.1324 29.9609 34.1324" fill="#21A366"/>
</svg>
