<svg width="51" height="50" viewBox="0 0 51 50" fill="none" xmlns="http://www.w3.org/2000/svg">
<rect x="0.269531" y="0.00195312" width="50" height="49.9971" rx="10" fill="white"/>
<path d="M17.8053 42.0691C16.9827 42.0691 16.2336 41.8807 15.5783 41.5095C14.4822 40.8879 13.7245 39.8167 13.3255 38.3268C12.8615 36.5927 12.9168 34.2893 13.4851 31.6547C8.90237 30.0783 6.2793 27.6595 6.2793 25.0004C6.2793 22.3408 8.90189 19.9225 13.4846 18.3465C12.9163 15.7114 12.8605 13.4081 13.3245 11.6739C13.7235 10.1836 14.4812 9.11241 15.5769 8.49126C16.2317 8.1201 16.9812 7.93164 17.8038 7.93164C19.9134 7.93164 22.5591 9.24414 25.2706 11.6326C27.9822 9.24654 30.6269 7.93501 32.7341 7.93501C33.5567 7.93501 34.3057 8.12347 34.961 8.49462C36.0557 9.11529 36.8139 10.1845 37.213 11.673C37.6774 13.4066 37.6216 15.7105 37.0529 18.3461C41.6365 19.922 44.2601 22.3408 44.2601 25.0004C44.2601 27.66 41.6365 30.0788 37.0529 31.6552C37.6211 34.2903 37.6769 36.5937 37.2125 38.3273C36.8134 39.8163 36.0562 40.8855 34.9625 41.5062C34.3067 41.8773 33.5572 42.0658 32.7351 42.0658C30.6264 42.0658 27.9807 40.7542 25.2702 38.3691C22.5586 40.7571 19.9134 42.0691 17.8053 42.0691ZM15.3355 32.2148C14.8591 34.4826 14.8057 36.4201 15.1836 37.8297C15.4442 38.8038 15.8956 39.4792 16.5269 39.8369C16.8889 40.0422 17.3192 40.1465 17.8053 40.1465C19.437 40.1465 21.5851 39.0494 23.873 37.0518C22.7264 35.897 21.6072 34.5898 20.5423 33.1619C18.7005 32.9619 16.9505 32.6437 15.3355 32.2148ZM26.6668 37.0509C28.9543 39.0465 31.1029 40.1427 32.7346 40.1432C33.2206 40.1432 33.6509 40.0388 34.0139 39.8336C34.6432 39.4768 35.0937 38.8028 35.3538 37.8302C35.7317 36.4196 35.6788 34.4826 35.2024 32.2153C33.586 32.6441 31.8355 32.9624 29.9942 33.1624C28.9298 34.5903 27.812 35.897 26.6668 37.0509ZM23.138 33.3624C23.836 34.2163 24.5505 35.0129 25.2697 35.7374C25.987 35.0134 26.7019 34.2167 27.3995 33.3624C26.6827 33.3965 25.9687 33.4139 25.2697 33.4139C24.5702 33.4139 23.8557 33.3965 23.138 33.3624ZM21.5913 31.3364C22.7908 31.4389 24.0279 31.4908 25.2697 31.4908C26.5125 31.4908 27.748 31.4389 28.9456 31.3369C29.6601 30.335 30.3413 29.285 30.9716 28.2143C31.5812 27.1783 32.1548 26.097 32.6769 24.9999C32.1562 23.9057 31.5831 22.8249 30.9721 21.7864C30.3432 20.7182 29.662 19.6682 28.9456 18.6639C27.749 18.5619 26.5134 18.51 25.2697 18.51C24.0255 18.51 22.7894 18.5619 21.5932 18.6643C20.8769 19.6672 20.1947 20.7172 19.5649 21.7869C18.9543 22.8249 18.3812 23.9057 17.8601 25.0014C18.3803 26.0946 18.9533 27.1754 19.5644 28.2148C20.1913 29.2797 20.8726 30.3292 21.5913 31.3364ZM33.6788 27.298C33.3394 27.9451 32.9875 28.5797 32.6283 29.1893C32.2663 29.8057 31.8812 30.4239 31.4812 31.0336C32.6226 30.8576 33.7144 30.6321 34.7365 30.3605C34.4529 29.3754 34.0976 28.348 33.6788 27.298ZM15.8005 30.36C16.823 30.6312 17.9144 30.8571 19.0543 31.0331C18.6519 30.4196 18.2668 29.8009 17.9072 29.1893C17.549 28.5802 17.1966 27.9465 16.8577 27.2994C16.4408 28.3446 16.086 29.3711 15.8005 30.36ZM34.7966 25.0004C35.5312 26.6307 36.1298 28.2422 36.5793 29.797C40.138 28.5451 42.337 26.7187 42.337 25.0004C42.337 23.2821 40.138 21.4557 36.5793 20.2038C36.1307 21.7586 35.5317 23.3701 34.7966 25.0004ZM13.9581 20.2047C10.4009 21.4562 8.20237 23.2826 8.20237 25.0004C8.20237 26.7187 10.4009 28.5451 13.9591 29.7965C14.4081 28.2413 15.0067 26.6297 15.7404 25.0014C15.0062 23.3725 14.4077 21.761 13.9581 20.2047ZM15.8 19.6408C16.0855 20.6283 16.4404 21.6552 16.8577 22.7023C17.1961 22.0571 17.548 21.423 17.9077 20.8119C18.2692 20.197 18.6543 19.5788 19.0557 18.9677C17.9144 19.1432 16.823 19.3691 15.8 19.6408ZM31.4822 18.9672C31.8846 19.5812 32.2697 20.1994 32.6293 20.8119C32.988 21.4211 33.3404 22.0552 33.6798 22.7023C34.0976 21.6557 34.4524 20.6288 34.738 19.6403C33.7139 19.3687 32.6226 19.1427 31.4822 18.9672ZM17.8038 9.85472C17.3178 9.85472 16.888 9.95856 16.5264 10.1643C15.8956 10.522 15.4437 11.1975 15.1827 12.1715C14.8053 13.5826 14.8581 15.5196 15.3351 17.7864C16.9505 17.3576 18.7014 17.0389 20.5437 16.8389C21.6096 15.4105 22.7288 14.1042 23.874 12.9504C21.5855 10.9518 19.436 9.85472 17.8038 9.85472ZM29.9947 16.8384C31.836 17.0384 33.5865 17.3566 35.2029 17.7855C35.6798 15.5182 35.7331 13.5807 35.3548 12.1701C35.0942 11.198 34.6432 10.5239 34.0134 10.1672C33.6509 9.96193 33.2206 9.8576 32.7341 9.8576C31.1029 9.8576 28.9553 10.9542 26.6673 12.9504C27.8115 14.1038 28.9298 15.4105 29.9947 16.8384ZM25.2697 16.5869C25.9687 16.5869 26.6827 16.6042 27.4 16.6384C26.7029 15.7855 25.9884 14.9893 25.2706 14.2643C24.5509 14.9903 23.837 15.7864 23.1399 16.6384C23.8567 16.6042 24.5706 16.5869 25.2697 16.5869Z" fill="#61DAFB"/>
<path d="M17.804 8.17222C19.9645 8.17222 22.6097 9.57126 25.2713 11.9544C27.9323 9.57318 30.5761 8.17559 32.7347 8.17559C33.515 8.17559 34.2246 8.35347 34.8434 8.70395C35.8799 9.29145 36.5992 10.3112 36.9809 11.7357C37.4987 13.6189 37.39 15.9376 36.7722 18.5049C41.2059 19.9862 44.0198 22.3232 44.0198 25.0006C44.0198 27.678 41.2059 30.015 36.7718 31.4967C37.4165 34.2722 37.5246 36.6535 36.9804 38.2655C36.5987 39.6895 35.8799 40.7097 34.8444 41.2972C34.2246 41.6482 33.6617 41.8275 32.8819 41.8275C32.8814 41.8275 32.6819 41.8275 32.6814 41.8275C30.5218 41.8275 27.9304 40.4285 25.2698 38.0482C22.6088 40.4309 19.9645 41.829 17.8049 41.829C17.0246 41.829 16.315 41.6511 15.6963 41.3006C14.6588 40.7116 13.9391 39.6905 13.5578 38.265C12.9857 36.478 13.1011 34.129 13.7665 31.4963C9.33329 30.0145 6.51983 27.678 6.51983 25.0006C6.51983 22.3237 9.33329 19.9866 13.766 18.5049C13.4357 17.0342 13.2246 15.6689 13.2174 14.4237C13.2117 13.44 13.3458 12.5251 13.5573 11.7362C13.9391 10.3102 14.6583 9.28905 15.6958 8.70059C16.3141 8.34962 17.0237 8.17222 17.804 8.17222ZM15.1535 18.0842C16.8251 17.6251 18.6814 17.278 20.6742 17.0665C21.8194 15.5232 23.0179 14.1357 24.2251 12.9395C21.8828 10.8501 19.602 9.61405 17.804 9.61405C17.2756 9.61405 16.8064 9.72847 16.4078 9.95491C15.7189 10.3458 15.229 11.0703 14.9506 12.1092C14.5381 13.6487 14.6319 15.7294 15.1535 18.0842ZM35.3847 18.0838C35.9064 15.729 36.0001 13.6477 35.5876 12.1083C35.3097 11.0713 34.8198 10.3482 34.1323 9.95828C33.7333 9.73184 33.2626 9.61741 32.7347 9.61741C30.9381 9.61741 28.6588 10.852 26.3169 12.9395C27.5237 14.1357 28.7208 15.5232 29.865 17.066C31.8569 17.2775 33.7131 17.6246 35.3847 18.0838ZM22.6145 16.9073C23.4809 16.8559 24.3496 16.8112 25.253 16.8112C26.1564 16.8112 27.0583 16.8564 27.9246 16.9073C27.0554 15.8116 26.1631 14.8107 25.2703 13.9246C24.3775 14.8107 23.4847 15.8116 22.6145 16.9073ZM25.2698 31.7314C26.5972 31.7314 27.8679 31.6732 29.0766 31.5669C29.8069 30.5491 30.5131 29.4684 31.1785 28.3366C31.829 27.2314 32.4174 26.1126 32.9429 25.0006C32.4174 23.8886 31.829 22.7703 31.179 21.6655C30.5131 20.5333 29.8073 19.453 29.0766 18.4352C27.8684 18.328 26.5977 18.2698 25.2698 18.2698C23.9419 18.2698 22.6708 18.328 21.4621 18.4347C20.7309 19.4525 20.0242 20.5333 19.3583 21.665C18.7083 22.7703 18.1198 23.889 17.5944 25.0011C18.1198 26.1131 18.7078 27.2314 19.3578 28.3362C20.0237 29.4679 20.7299 30.5487 21.4607 31.5665C22.6698 31.6732 23.9415 31.7314 25.2698 31.7314ZM33.7054 23.2761C34.2463 21.9737 34.6939 20.6948 35.0352 19.4717C33.8078 19.1342 32.452 18.8554 30.9833 18.6511C31.4775 19.3852 31.9588 20.1463 32.4218 20.9338C32.8804 21.7121 33.3069 22.4948 33.7054 23.2761ZM16.8319 23.2765C17.2299 22.4953 17.6569 21.7126 18.1145 20.9338C18.578 20.1463 19.0597 19.3857 19.5544 18.6515C18.0857 18.8554 16.7299 19.1347 15.5025 19.4722C15.8439 20.6953 16.2915 21.9737 16.8319 23.2765ZM36.4179 30.1073C40.3006 28.7919 42.5775 26.8592 42.5775 25.0006C42.5775 23.1419 40.3006 21.2092 36.4179 19.8939C35.9597 21.5309 35.327 23.2511 34.5333 25.0001C35.327 26.7496 35.9597 28.4698 36.4179 30.1073ZM14.1208 30.1068C14.5785 28.4703 15.2107 26.7501 16.0044 25.0015C15.2107 23.2525 14.578 21.5318 14.1203 19.8948C10.2381 21.2102 7.96214 23.1424 7.96214 25.0006C7.96214 26.8592 10.2386 28.7915 14.1208 30.1068ZM30.9833 31.3501C32.452 31.1463 33.8078 30.8674 35.0352 30.5294C34.6934 29.3064 34.2458 28.0275 33.7054 26.7246C33.3069 27.5059 32.8799 28.2886 32.4218 29.0674C31.9588 29.8549 31.4775 30.616 30.9833 31.3501ZM19.553 31.3496C19.0588 30.6155 18.5775 29.8549 18.1141 29.0679C17.6564 28.2895 17.2299 27.5073 16.8319 26.7265C16.2915 28.0285 15.8444 29.3068 15.503 30.5294C16.7299 30.8665 18.0852 31.1453 19.553 31.3496ZM17.8054 40.3866C19.603 40.3866 21.8828 39.1511 24.2246 37.0626C23.0165 35.866 21.8184 34.478 20.6727 32.9342C18.6809 32.7232 16.8256 32.3761 15.1544 31.9169C14.6333 34.2717 14.5395 36.3525 14.9516 37.8919C15.2294 38.9304 15.7198 39.6549 16.4083 40.0458C16.8064 40.2722 17.277 40.3866 17.8054 40.3866ZM32.7347 40.3838C33.2631 40.3838 33.7328 40.2693 34.1323 40.0429C34.8198 39.653 35.3088 38.9299 35.5862 37.8924C35.9987 36.3525 35.9049 34.2717 35.3838 31.9174C33.7121 32.3765 31.8564 32.7237 29.8641 32.9347C28.7198 34.478 27.5222 35.8655 26.3155 37.0621C28.6573 39.1487 30.9371 40.3833 32.7347 40.3838ZM25.2698 36.0775C26.1626 35.191 27.0549 34.1895 27.9246 33.0939C27.0588 33.1453 26.2136 33.254 25.3097 33.254C24.4054 33.254 23.4794 33.1453 22.6131 33.0939C23.4833 34.19 24.3766 35.1915 25.2698 36.0775ZM17.6333 7.72751C16.7684 7.72751 16.1501 7.89001 15.4588 8.28184C14.3054 8.93616 13.5093 10.0564 13.0929 11.6116C12.6314 13.3362 12.6713 15.603 13.2064 18.189C8.64435 19.803 6.03906 22.2722 6.03906 25.0006C6.03906 27.7294 8.64483 30.1982 13.2069 31.8121C12.6718 34.3982 12.6319 36.665 13.0939 38.3895C13.5097 39.9439 14.3054 41.064 15.4597 41.7193C16.152 42.1116 16.9838 42.2785 17.8482 42.2785C20.0054 42.2785 22.5371 41.0597 25.2703 38.689C28.003 41.0573 30.5775 42.3064 32.7343 42.3068C33.5992 42.3068 34.3886 42.1083 35.0809 41.716C36.2333 41.0626 37.0285 39.9439 37.4444 38.3905C37.9064 36.6655 37.8665 34.3987 37.3314 31.8131C41.8944 30.1987 44.5006 27.7294 44.5006 25.0006C44.5006 22.2717 41.8948 19.8025 37.3319 18.1886C37.8674 15.602 37.9069 13.3352 37.4448 11.6107C37.0285 10.0573 36.2328 8.93857 35.0799 8.2852C34.3881 7.89337 33.5987 7.69434 32.7343 7.69434C30.578 7.69434 28.004 8.94386 25.2708 11.3131C22.5371 8.94193 19.9506 7.72607 17.7929 7.72607L17.6333 7.72751ZM15.5198 17.4895C15.2977 16.3722 15.1487 15.3251 15.1405 14.4068C15.1333 13.5799 15.2468 12.8602 15.4145 12.2333C15.6583 11.3237 16.0722 10.6977 16.6448 10.3727C16.9698 10.1881 17.366 10.0631 17.8097 10.0631C19.3391 10.0631 21.3516 11.1102 23.5227 12.964C22.4549 14.0568 21.4112 15.2809 20.4141 16.6107C18.6905 16.803 17.0472 17.0977 15.5198 17.4895ZM27.0189 12.965C29.1895 11.1126 31.2069 10.0982 32.7343 10.0982C33.1785 10.0982 33.5694 10.1919 33.8948 10.3765C34.4665 10.7006 34.8799 11.3251 35.1232 12.2328C35.5434 13.5876 35.4891 15.3886 35.0184 17.489C33.491 17.0977 31.8482 16.8025 30.1251 16.6112C29.1285 15.2818 28.0857 14.0578 27.0189 12.965ZM23.6703 16.3756C24.1972 15.7506 24.7323 15.1592 25.2703 14.6073C25.8083 15.1592 26.3429 15.7506 26.8694 16.3756C26.3314 16.3564 25.7963 16.3467 25.2698 16.3467C24.7434 16.3467 24.2088 16.3564 23.6703 16.3756ZM21.7242 18.8948C22.8804 18.7991 24.0718 18.7309 25.2698 18.7309C26.4674 18.7309 27.6588 18.7991 28.8145 18.8948C29.503 19.8655 30.1588 20.8785 30.7645 21.9088C31.352 22.9078 31.9054 23.9467 32.4102 25.0001C31.9049 26.054 31.3516 27.0934 30.7641 28.0924C30.1578 29.1232 29.5025 30.1357 28.8141 31.1064C27.6588 31.202 26.4674 31.3304 25.2698 31.3304C24.0713 31.3304 22.8794 31.2015 21.7227 31.1059C21.0338 30.1357 20.378 29.1227 19.7718 28.0919C19.1843 27.0934 18.6314 26.0544 18.1266 25.0006C18.6314 23.9467 19.1847 22.9073 19.7722 21.9083C20.379 20.878 21.0352 19.865 21.7242 18.8948ZM33.6458 22.1275C33.3819 21.6381 33.1112 21.1573 32.8367 20.69C32.5626 20.2241 32.2756 19.7564 31.9785 19.2915C32.8314 19.4366 33.654 19.6102 34.4371 19.8107C34.2126 20.5636 33.9477 21.3386 33.6458 22.1275ZM16.1006 19.8107C16.8838 19.6102 17.7064 19.4366 18.5593 19.2915C18.2617 19.7564 17.9746 20.2241 17.7006 20.6895C17.4261 21.1568 17.1554 21.6376 16.8915 22.127C16.5895 21.339 16.3251 20.564 16.1006 19.8107ZM35.0607 25.0001C35.741 23.4799 36.3044 21.9751 36.7386 20.5165C40.0573 21.7275 42.0968 23.4241 42.0968 25.0006C42.0968 26.577 40.0573 28.2737 36.7386 29.4847C36.304 28.0256 35.741 26.5203 35.0607 25.0001ZM13.7996 29.4842C10.4819 28.2732 8.44291 26.5765 8.44291 25.0006C8.44291 23.4246 10.4819 21.728 13.7992 20.5169C14.2333 21.9761 14.7963 23.4809 15.4766 25.0011C14.7968 26.5208 14.2338 28.0256 13.7996 29.4842ZM31.978 30.7102C32.2751 30.2448 32.5626 29.777 32.8362 29.3116C33.1112 28.8443 33.3819 28.3631 33.6458 27.8737C33.9477 28.6626 34.2121 29.4381 34.4371 30.1915C33.6535 30.391 32.8309 30.565 31.978 30.7102ZM16.1011 30.1905C16.3256 29.4376 16.59 28.6631 16.8915 27.8751C17.1549 28.364 17.4256 28.8448 17.7001 29.3116C17.9737 29.777 18.2607 30.2443 18.5583 30.7097C17.7059 30.564 16.8838 30.3905 16.1011 30.1905ZM17.8054 39.9059C17.3612 39.9059 16.9708 39.8121 16.6453 39.6275C16.0732 39.3025 15.6593 38.677 15.416 37.7674C15.0165 36.3996 15.0617 34.5982 15.5208 32.5112C17.0477 32.9025 18.69 33.1977 20.4126 33.389C21.4102 34.7189 22.454 35.9434 23.5222 37.0371C21.3516 38.8915 19.3338 39.9064 17.8054 39.9059ZM30.1246 33.39C31.8477 33.1982 33.4905 32.9035 35.0179 32.5121C35.5492 34.791 35.591 36.6073 35.1222 37.7679C34.8794 38.6761 34.4665 39.3006 33.8953 39.6241C33.5694 39.8088 33.179 39.9025 32.7352 39.9025C31.2064 39.9025 29.1881 38.8881 27.0179 37.0366C28.0852 35.9439 29.128 34.7198 30.1246 33.39ZM25.2698 35.3948C24.7314 34.8429 24.1958 34.2511 23.6689 33.6256C24.2073 33.6448 24.7429 33.6544 25.2698 33.6544C25.7963 33.6544 26.3314 33.6448 26.8694 33.6256C26.3429 34.2511 25.8078 34.8429 25.2698 35.3948Z" fill="#61DAFB"/>
<path d="M29.332 24.9998C29.332 27.2453 27.5152 29.062 25.2695 29.062C23.0239 29.062 21.207 27.2453 21.207 24.9998C21.207 22.7543 23.0239 20.9375 25.2695 20.9375C27.5152 20.9375 29.332 22.7543 29.332 24.9998Z" fill="#61DAFB"/>
<path d="M25.2686 29.3745C22.8567 29.3745 20.8936 27.4121 20.8936 24.9997C20.8936 22.5874 22.8567 20.625 25.2686 20.625C27.6804 20.625 29.6436 22.5874 29.6436 24.9997C29.6436 27.4121 27.6804 29.3745 25.2686 29.3745ZM25.2686 21.25C23.2004 21.25 21.5186 22.9317 21.5186 24.9997C21.5186 27.0678 23.2004 28.7495 25.2686 28.7495C27.3367 28.7495 29.0186 27.0678 29.0186 24.9997C29.0186 22.9317 27.3367 21.25 25.2686 21.25Z" fill="#61DAFB"/>
</svg>
