<svg width="83" height="29" viewBox="0 0 83 29" fill="none" xmlns="http://www.w3.org/2000/svg">
<path d="M9.57528 4.12926H8.02415C7.96449 3.79782 7.85346 3.50615 7.69105 3.25426C7.52865 3.00237 7.32978 2.78859 7.09446 2.61293C6.85914 2.43726 6.59564 2.30469 6.30398 2.2152C6.01563 2.12571 5.70904 2.08097 5.38423 2.08097C4.79759 2.08097 4.27225 2.22846 3.80824 2.52344C3.34754 2.81842 2.98295 3.25095 2.71449 3.82102C2.44934 4.3911 2.31676 5.08712 2.31676 5.90909C2.31676 6.73769 2.44934 7.43703 2.71449 8.0071C2.98295 8.57718 3.3492 9.00805 3.81321 9.29972C4.27723 9.59138 4.79924 9.73722 5.37926 9.73722C5.70076 9.73722 6.00568 9.69413 6.29403 9.60795C6.5857 9.51847 6.8492 9.38755 7.08452 9.2152C7.31984 9.04285 7.5187 8.83239 7.68111 8.58381C7.84683 8.33191 7.96117 8.04356 8.02415 7.71875L9.57528 7.72372C9.49242 8.22419 9.33168 8.6849 9.09304 9.10582C8.85772 9.52344 8.55445 9.88471 8.18324 10.1896C7.81534 10.4912 7.39441 10.7249 6.92045 10.8906C6.4465 11.0563 5.92945 11.1392 5.36932 11.1392C4.48769 11.1392 3.70218 10.9304 3.01278 10.5128C2.32339 10.0919 1.77983 9.49029 1.3821 8.7081C0.987689 7.9259 0.790483 6.9929 0.790483 5.90909C0.790483 4.82197 0.989347 3.88897 1.38707 3.11008C1.7848 2.32789 2.32836 1.72798 3.01776 1.31037C3.70715 0.889441 4.491 0.678977 5.36932 0.678977C5.90956 0.678977 6.41335 0.756865 6.88068 0.912642C7.35133 1.0651 7.77391 1.29048 8.14844 1.58878C8.52296 1.88376 8.83286 2.24503 9.07812 2.67258C9.32339 3.09683 9.48911 3.58239 9.57528 4.12926ZM12.7807 0.818182V11H11.2942V0.818182H12.7807ZM18.0717 11.1541C17.3194 11.1541 16.6714 10.9934 16.1278 10.6719C15.5876 10.3471 15.17 9.89134 14.875 9.30469C14.5833 8.71473 14.4375 8.02367 14.4375 7.23153C14.4375 6.44934 14.5833 5.75994 14.875 5.16335C15.17 4.56676 15.581 4.10109 16.108 3.76633C16.6383 3.43158 17.258 3.2642 17.9673 3.2642C18.3982 3.2642 18.8158 3.33546 19.2202 3.47798C19.6245 3.6205 19.9875 3.84422 20.3089 4.14915C20.6304 4.45407 20.884 4.85014 21.0696 5.33736C21.2552 5.82126 21.348 6.40956 21.348 7.10227V7.62926H15.2777V6.51562H19.8913C19.8913 6.12453 19.8118 5.77817 19.6527 5.47656C19.4936 5.17164 19.2699 4.93134 18.9815 4.75568C18.6965 4.58002 18.3617 4.49219 17.9773 4.49219C17.5597 4.49219 17.1951 4.59493 16.8835 4.80043C16.5753 5.0026 16.3366 5.26776 16.1676 5.59588C16.0019 5.92069 15.919 6.27367 15.919 6.65483V7.52486C15.919 8.03527 16.0085 8.46946 16.1875 8.82741C16.3698 9.18537 16.6233 9.45881 16.9482 9.64773C17.273 9.83333 17.6525 9.92614 18.0866 9.92614C18.3684 9.92614 18.6252 9.88636 18.8572 9.80682C19.0893 9.72396 19.2898 9.60133 19.4588 9.43892C19.6278 9.27652 19.7571 9.07599 19.8466 8.83736L21.2536 9.09091C21.1409 9.50521 20.9387 9.86813 20.647 10.1797C20.3587 10.4879 19.9957 10.7282 19.5582 10.9006C19.1241 11.0696 18.6286 11.1541 18.0717 11.1541ZM25.2196 11.169C24.7357 11.169 24.2982 11.0795 23.9071 10.9006C23.516 10.7183 23.2061 10.4548 22.9775 10.1101C22.7521 9.76539 22.6394 9.3428 22.6394 8.84233C22.6394 8.41146 22.7222 8.05682 22.888 7.77841C23.0537 7.5 23.2774 7.27959 23.5591 7.11719C23.8408 6.95478 24.1557 6.83215 24.5037 6.74929C24.8517 6.66643 25.2064 6.60346 25.5676 6.56037C26.025 6.50734 26.3962 6.46425 26.6813 6.43111C26.9663 6.39465 27.1735 6.33665 27.3027 6.2571C27.432 6.17756 27.4966 6.0483 27.4966 5.86932V5.83452C27.4966 5.40033 27.374 5.06392 27.1287 4.82528C26.8868 4.58665 26.5255 4.46733 26.0449 4.46733C25.5444 4.46733 25.15 4.57836 24.8617 4.80043C24.5766 5.01918 24.3794 5.26278 24.2701 5.53125L22.873 5.21307C23.0388 4.74905 23.2807 4.37453 23.5989 4.08949C23.9204 3.80114 24.29 3.59233 24.7076 3.46307C25.1252 3.33049 25.5643 3.2642 26.025 3.2642C26.33 3.2642 26.6531 3.30066 26.9945 3.37358C27.3392 3.44318 27.6607 3.57244 27.959 3.76136C28.2606 3.95028 28.5075 4.22041 28.6998 4.57173C28.892 4.91974 28.9881 5.37216 28.9881 5.92898V11H27.5364V9.95597H27.4767C27.3806 10.1482 27.2364 10.3371 27.0442 10.5227C26.852 10.7083 26.6051 10.8625 26.3034 10.9851C26.0018 11.1077 25.6406 11.169 25.2196 11.169ZM25.5428 9.97585C25.9538 9.97585 26.3051 9.89465 26.5968 9.73224C26.8917 9.56984 27.1155 9.35772 27.2679 9.09588C27.4237 8.83073 27.5016 8.54735 27.5016 8.24574V7.26136C27.4486 7.31439 27.3458 7.36411 27.1934 7.41051C27.0442 7.4536 26.8735 7.49171 26.6813 7.52486C26.4891 7.55469 26.3018 7.58286 26.1195 7.60938C25.9372 7.63258 25.7847 7.65246 25.6621 7.66903C25.3738 7.70549 25.1103 7.76681 24.8716 7.85298C24.6363 7.93916 24.4474 8.06345 24.3049 8.22585C24.1657 8.38494 24.0961 8.59706 24.0961 8.86222C24.0961 9.23011 24.2319 9.50852 24.5037 9.69744C24.7755 9.88305 25.1219 9.97585 25.5428 9.97585ZM32.4545 6.46591V11H30.968V3.36364H32.3949V4.60653H32.4893C32.665 4.20218 32.9401 3.87737 33.3146 3.6321C33.6925 3.38684 34.1681 3.2642 34.7415 3.2642C35.2618 3.2642 35.7176 3.37358 36.1087 3.59233C36.4998 3.80777 36.803 4.12926 37.0185 4.55682C37.2339 4.98437 37.3416 5.51302 37.3416 6.14276V11H35.8551V6.32173C35.8551 5.76823 35.7109 5.3357 35.4226 5.02415C35.1342 4.70928 34.7382 4.55185 34.2344 4.55185C33.8897 4.55185 33.5831 4.62642 33.3146 4.77557C33.0495 4.92472 32.839 5.14347 32.6832 5.43182C32.5308 5.71686 32.4545 6.06155 32.4545 6.46591Z" fill="#262626"/>
<path d="M1.97869 28H0.348011L4.01207 17.8182H5.78693L9.45099 28H7.82031L4.94176 19.6676H4.86222L1.97869 28ZM2.25213 24.0128H7.5419V25.3054H2.25213V24.0128ZM10.802 28V20.3636H12.2388V21.5767H12.3184C12.4576 21.1657 12.7028 20.8426 13.0542 20.6072C13.4088 20.3686 13.8098 20.2493 14.2573 20.2493C14.3501 20.2493 14.4595 20.2526 14.5854 20.2592C14.7147 20.2659 14.8158 20.2741 14.8887 20.2841V21.706C14.829 21.6894 14.723 21.6712 14.5705 21.6513C14.418 21.6281 14.2656 21.6165 14.1131 21.6165C13.7618 21.6165 13.4486 21.6911 13.1735 21.8402C12.9017 21.986 12.6863 22.1899 12.5272 22.4517C12.3681 22.7102 12.2885 23.0052 12.2885 23.3366V28H10.802ZM19.1183 28.1541C18.3791 28.1541 17.7428 27.9867 17.2092 27.652C16.6789 27.3139 16.2712 26.8482 15.9862 26.255C15.7011 25.6617 15.5586 24.9822 15.5586 24.2166C15.5586 23.4411 15.7044 22.7566 15.9961 22.1634C16.2878 21.5668 16.6987 21.1011 17.229 20.7663C17.7594 20.4316 18.3841 20.2642 19.1033 20.2642C19.6834 20.2642 20.2004 20.3719 20.6545 20.5874C21.1085 20.7995 21.4748 21.0978 21.7532 21.4822C22.0349 21.8667 22.2023 22.3158 22.2553 22.8295H20.8086C20.729 22.4716 20.5468 22.1634 20.2617 21.9048C19.98 21.6463 19.6022 21.517 19.1282 21.517C18.7139 21.517 18.351 21.6264 18.0394 21.8452C17.7312 22.0606 17.4909 22.3688 17.3185 22.7699C17.1462 23.1676 17.06 23.6383 17.06 24.1818C17.06 24.7386 17.1445 25.2192 17.3136 25.6236C17.4826 26.0279 17.7212 26.3411 18.0295 26.5632C18.341 26.7853 18.7073 26.8963 19.1282 26.8963C19.4099 26.8963 19.6651 26.8449 19.8938 26.7422C20.1258 26.6361 20.3197 26.4853 20.4755 26.2898C20.6346 26.0942 20.7456 25.8589 20.8086 25.5838H22.2553C22.2023 26.0777 22.0415 26.5185 21.7731 26.9062C21.5046 27.294 21.145 27.599 20.6942 27.821C20.2468 28.0431 19.7215 28.1541 19.1183 28.1541ZM25.3315 23.4659V28H23.845V17.8182H25.3116V21.6065H25.4061C25.585 21.1955 25.8585 20.8691 26.2264 20.6271C26.5943 20.3852 27.0749 20.2642 27.6681 20.2642C28.1918 20.2642 28.6492 20.3719 29.0403 20.5874C29.4347 20.8028 29.7396 21.1243 29.9551 21.5518C30.1738 21.9761 30.2832 22.5064 30.2832 23.1428V28H28.7967V23.3217C28.7967 22.7616 28.6525 22.3274 28.3642 22.0192C28.0758 21.7076 27.6748 21.5518 27.161 21.5518C26.8097 21.5518 26.4949 21.6264 26.2164 21.7756C25.9413 21.9247 25.7243 22.1435 25.5652 22.4318C25.4094 22.7169 25.3315 23.0616 25.3315 23.4659ZM32.2669 28V20.3636H33.7534V28H32.2669ZM33.0176 19.1854C32.7591 19.1854 32.537 19.0992 32.3514 18.9268C32.1691 18.7512 32.0779 18.5424 32.0779 18.3004C32.0779 18.0552 32.1691 17.8464 32.3514 17.674C32.537 17.4983 32.7591 17.4105 33.0176 17.4105C33.2761 17.4105 33.4965 17.4983 33.6788 17.674C33.8644 17.8464 33.9572 18.0552 33.9572 18.3004C33.9572 18.5424 33.8644 18.7512 33.6788 18.9268C33.4965 19.0992 33.2761 19.1854 33.0176 19.1854ZM39.3178 20.3636V21.5568H35.1467V20.3636H39.3178ZM36.2653 18.5341H37.7518V25.7578C37.7518 26.0462 37.7949 26.2633 37.881 26.4091C37.9672 26.5516 38.0782 26.6494 38.2141 26.7024C38.3533 26.7521 38.5041 26.777 38.6665 26.777C38.7859 26.777 38.8903 26.7687 38.9798 26.7521C39.0692 26.7356 39.1388 26.7223 39.1886 26.7124L39.457 27.9403C39.3709 27.9735 39.2482 28.0066 39.0891 28.0398C38.93 28.0762 38.7312 28.0961 38.4925 28.0994C38.1014 28.1061 37.7369 28.0365 37.3988 27.8906C37.0607 27.7448 36.7873 27.5194 36.5785 27.2145C36.3697 26.9096 36.2653 26.5268 36.2653 26.0661V18.5341ZM44.1713 28.1541C43.419 28.1541 42.771 27.9934 42.2275 27.6719C41.6872 27.3471 41.2696 26.8913 40.9746 26.3047C40.6829 25.7147 40.5371 25.0237 40.5371 24.2315C40.5371 23.4493 40.6829 22.7599 40.9746 22.1634C41.2696 21.5668 41.6806 21.1011 42.2076 20.7663C42.7379 20.4316 43.3577 20.2642 44.0669 20.2642C44.4978 20.2642 44.9154 20.3355 45.3198 20.478C45.7241 20.6205 46.0871 20.8442 46.4086 21.1491C46.7301 21.4541 46.9836 21.8501 47.1692 22.3374C47.3548 22.8213 47.4476 23.4096 47.4476 24.1023V24.6293H41.3773V23.5156H45.9909C45.9909 23.1245 45.9114 22.7782 45.7523 22.4766C45.5932 22.1716 45.3695 21.9313 45.0811 21.7557C44.7961 21.58 44.4614 21.4922 44.0769 21.4922C43.6593 21.4922 43.2947 21.5949 42.9831 21.8004C42.6749 22.0026 42.4363 22.2678 42.2672 22.5959C42.1015 22.9207 42.0186 23.2737 42.0186 23.6548V24.5249C42.0186 25.0353 42.1081 25.4695 42.2871 25.8274C42.4694 26.1854 42.723 26.4588 43.0478 26.6477C43.3726 26.8333 43.7521 26.9261 44.1863 26.9261C44.468 26.9261 44.7248 26.8864 44.9569 26.8068C45.1889 26.724 45.3894 26.6013 45.5584 26.4389C45.7275 26.2765 45.8567 26.076 45.9462 25.8374L47.3532 26.0909C47.2405 26.5052 47.0383 26.8681 46.7466 27.1797C46.4583 27.4879 46.0953 27.7282 45.6578 27.9006C45.2237 28.0696 44.7282 28.1541 44.1713 28.1541ZM52.3136 28.1541C51.5745 28.1541 50.9381 27.9867 50.4045 27.652C49.8742 27.3139 49.4665 26.8482 49.1815 26.255C48.8964 25.6617 48.7539 24.9822 48.7539 24.2166C48.7539 23.4411 48.8997 22.7566 49.1914 22.1634C49.4831 21.5668 49.8941 21.1011 50.4244 20.7663C50.9547 20.4316 51.5794 20.2642 52.2987 20.2642C52.8787 20.2642 53.3957 20.3719 53.8498 20.5874C54.3039 20.7995 54.6701 21.0978 54.9485 21.4822C55.2302 21.8667 55.3976 22.3158 55.4506 22.8295H54.0039C53.9244 22.4716 53.7421 22.1634 53.457 21.9048C53.1753 21.6463 52.7975 21.517 52.3235 21.517C51.9092 21.517 51.5463 21.6264 51.2347 21.8452C50.9265 22.0606 50.6862 22.3688 50.5138 22.7699C50.3415 23.1676 50.2553 23.6383 50.2553 24.1818C50.2553 24.7386 50.3398 25.2192 50.5089 25.6236C50.6779 26.0279 50.9165 26.3411 51.2248 26.5632C51.5363 26.7853 51.9026 26.8963 52.3235 26.8963C52.6052 26.8963 52.8604 26.8449 53.0891 26.7422C53.3211 26.6361 53.515 26.4853 53.6708 26.2898C53.8299 26.0942 53.9409 25.8589 54.0039 25.5838H55.4506C55.3976 26.0777 55.2369 26.5185 54.9684 26.9062C54.6999 27.294 54.3403 27.599 53.8896 27.821C53.4421 28.0431 52.9168 28.1541 52.3136 28.1541ZM60.6049 20.3636V21.5568H56.4338V20.3636H60.6049ZM57.5524 18.5341H59.0389V25.7578C59.0389 26.0462 59.082 26.2633 59.1681 26.4091C59.2543 26.5516 59.3654 26.6494 59.5012 26.7024C59.6404 26.7521 59.7913 26.777 59.9537 26.777C60.073 26.777 60.1774 26.7687 60.2669 26.7521C60.3564 26.7356 60.426 26.7223 60.4757 26.7124L60.7441 27.9403C60.658 27.9735 60.5353 28.0066 60.3762 28.0398C60.2172 28.0762 60.0183 28.0961 59.7797 28.0994C59.3886 28.1061 59.024 28.0365 58.6859 27.8906C58.3478 27.7448 58.0744 27.5194 57.8656 27.2145C57.6568 26.9096 57.5524 26.5268 57.5524 26.0661V18.5341ZM67.0866 24.8331V20.3636H68.5781V28H67.1165V26.6776H67.0369C66.8613 27.0852 66.5795 27.425 66.1918 27.6967C65.8073 27.9652 65.3284 28.0994 64.755 28.0994C64.2644 28.0994 63.8303 27.9917 63.4524 27.7763C63.0779 27.5575 62.7829 27.2344 62.5675 26.8068C62.3554 26.3793 62.2493 25.8506 62.2493 25.2209V20.3636H63.7358V25.0419C63.7358 25.5623 63.88 25.9766 64.1683 26.2848C64.4567 26.593 64.8312 26.7472 65.2919 26.7472C65.5703 26.7472 65.8471 26.6776 66.1222 26.5384C66.4006 26.3991 66.6309 26.1887 66.8132 25.907C66.9988 25.6252 67.09 25.2673 67.0866 24.8331ZM70.5755 28V20.3636H72.0123V21.5767H72.0918C72.231 21.1657 72.4763 20.8426 72.8276 20.6072C73.1822 20.3686 73.5833 20.2493 74.0307 20.2493C74.1235 20.2493 74.2329 20.2526 74.3588 20.2592C74.4881 20.2659 74.5892 20.2741 74.6621 20.2841V21.706C74.6025 21.6894 74.4964 21.6712 74.3439 21.6513C74.1915 21.6281 74.039 21.6165 73.8865 21.6165C73.5352 21.6165 73.222 21.6911 72.9469 21.8402C72.6751 21.986 72.4597 22.1899 72.3006 22.4517C72.1415 22.7102 72.062 23.0052 72.062 23.3366V28H70.5755ZM78.9663 28.1541C78.2139 28.1541 77.5659 27.9934 77.0224 27.6719C76.4821 27.3471 76.0645 26.8913 75.7695 26.3047C75.4779 25.7147 75.332 25.0237 75.332 24.2315C75.332 23.4493 75.4779 22.7599 75.7695 22.1634C76.0645 21.5668 76.4755 21.1011 77.0025 20.7663C77.5328 20.4316 78.1526 20.2642 78.8619 20.2642C79.2927 20.2642 79.7103 20.3355 80.1147 20.478C80.5191 20.6205 80.882 20.8442 81.2035 21.1491C81.525 21.4541 81.7785 21.8501 81.9641 22.3374C82.1497 22.8213 82.2425 23.4096 82.2425 24.1023V24.6293H76.1722V23.5156H80.7859C80.7859 23.1245 80.7063 22.7782 80.5472 22.4766C80.3881 22.1716 80.1644 21.9313 79.8761 21.7557C79.591 21.58 79.2563 21.4922 78.8718 21.4922C78.4542 21.4922 78.0896 21.5949 77.7781 21.8004C77.4698 22.0026 77.2312 22.2678 77.0621 22.5959C76.8964 22.9207 76.8136 23.2737 76.8136 23.6548V24.5249C76.8136 25.0353 76.9031 25.4695 77.082 25.8274C77.2643 26.1854 77.5179 26.4588 77.8427 26.6477C78.1675 26.8333 78.547 26.9261 78.9812 26.9261C79.2629 26.9261 79.5198 26.8864 79.7518 26.8068C79.9838 26.724 80.1843 26.6013 80.3533 26.4389C80.5224 26.2765 80.6516 26.076 80.7411 25.8374L82.1481 26.0909C82.0354 26.5052 81.8332 26.8681 81.5415 27.1797C81.2532 27.4879 80.8903 27.7282 80.4528 27.9006C80.0186 28.0696 79.5231 28.1541 78.9663 28.1541Z" fill="#9A2928"/>
</svg>
