<svg width="100" height="100" viewBox="0 0 100 100" fill="none" xmlns="http://www.w3.org/2000/svg">
<g clip-path="url(#clip0_18_469)">
<path d="M80.4533 45.7473C76.9845 47.5554 59.015 54.9438 55.1894 56.9382C51.3638 58.9329 49.2386 58.9136 46.2163 57.4689C43.1944 56.0242 24.0717 48.2998 20.6269 46.6533C18.9054 45.8306 18 45.1359 18 44.4798V37.9097C18 37.9097 42.8955 32.4901 46.9146 31.0482C50.9334 29.6062 52.3279 29.5542 55.748 30.807C59.1686 32.0602 79.6197 35.75 83 36.9881L82.9985 43.4652C82.999 44.1147 82.219 44.8272 80.4533 45.7473Z" fill="#912626"/>
<path d="M80.4521 39.2162C76.9834 41.0235 59.0145 48.4122 55.1889 50.4064C51.3635 52.4013 49.2383 52.3818 46.2163 50.937C43.1941 49.4933 24.0722 41.7677 20.6277 40.1221C17.1832 38.4756 17.1111 37.3424 20.4946 36.0175C23.8782 34.6921 42.8953 27.2311 46.9148 25.7891C50.9337 24.3477 52.3279 24.2951 55.748 25.5484C59.1684 26.8012 77.0302 33.9108 80.4099 35.1486C83.7909 36.3879 83.9207 37.4084 80.4521 39.2162Z" fill="#C6302B"/>
<path d="M80.4533 35.1168C76.9845 36.9251 59.015 44.3133 55.1894 46.3085C51.3638 48.3024 49.2386 48.2831 46.2163 46.8384C43.1941 45.3944 24.0717 37.6693 20.6269 36.0227C18.9054 35.2001 18 34.5064 18 33.8501V27.2792C18 27.2792 42.8955 21.8598 46.9146 20.4179C50.9334 18.976 52.3279 18.9237 55.748 20.1767C59.1689 21.4297 79.62 25.1187 83 26.357L82.9985 32.8349C82.999 33.4842 82.219 34.1966 80.4533 35.1168Z" fill="#912626"/>
<path d="M80.4521 28.5852C76.9834 30.393 59.0145 37.7812 55.1889 39.7761C51.3635 41.7703 49.2383 41.7508 46.2163 40.306C43.1941 38.8623 24.0722 31.137 20.6277 29.4912C17.1832 27.8451 17.1111 26.7116 20.4946 25.3863C23.8782 24.0616 42.8955 16.6001 46.9148 15.1584C50.9337 13.7167 52.3279 13.6644 55.748 14.9174C59.1684 16.1702 77.0302 23.2793 80.4099 24.5176C83.7909 25.7567 83.9207 26.7774 80.4521 28.5852Z" fill="#C6302B"/>
<path d="M80.4533 24.0914C76.9845 25.8992 59.015 33.2879 55.1894 35.283C51.3638 37.2772 49.2386 37.2577 46.2163 35.8129C43.1941 34.369 24.0717 26.6436 20.6269 24.9978C18.9054 24.1744 18 23.4805 18 22.8249V16.2538C18 16.2538 42.8955 10.8347 46.9146 9.39299C50.9334 7.95081 52.3279 7.89901 55.748 9.15178C59.1689 10.4048 79.62 14.0938 83 15.3321L82.9985 21.8098C82.999 22.4585 82.219 23.171 80.4533 24.0914Z" fill="#912626"/>
<path d="M80.4521 17.5605C76.9835 19.3683 59.0145 26.757 55.1889 28.7512C51.3636 30.7453 49.2384 30.7258 46.2164 29.2818C43.1944 27.8371 24.0722 20.1123 20.628 18.4662C17.1832 16.8204 17.1114 15.6867 20.4947 14.3615C23.8782 13.0367 42.8955 5.57613 46.9149 4.13394C50.9337 2.69201 52.3279 2.64021 55.748 3.89324C59.1684 5.14626 77.0302 12.2554 80.4099 13.4937C83.7909 14.7317 83.9207 15.7527 80.4521 17.5605Z" fill="#C6302B"/>
<path d="M58.4429 11.1686L52.8545 11.7487L51.6035 14.759L49.5829 11.3999L43.1298 10.8199L47.9449 9.08348L46.5002 6.41797L51.0083 8.18109L55.2582 6.78969L54.1095 9.54584L58.4429 11.1686ZM51.2698 25.7727L40.8401 21.4469L55.785 19.1529L51.2698 25.7727ZM36.8099 12.8418C41.2215 12.8418 44.7978 14.2281 44.7978 15.9379C44.7978 17.6482 41.2215 19.0343 36.8099 19.0343C32.3982 19.0343 28.822 17.648 28.822 15.9379C28.822 14.2281 32.3982 12.8418 36.8099 12.8418Z" fill="white"/>
<path d="M65.0476 11.9915L73.8926 15.4867L65.0552 18.9787L65.0476 11.9915Z" fill="#621B1C"/>
<path d="M55.262 15.8625L65.0476 11.9917L65.0552 18.9789L64.0957 19.3542L55.262 15.8625Z" fill="#9A2928"/>
<path d="M26.8054 95H22.8452L31.7436 70.2727H36.054L44.9524 95H40.9922L34.0014 74.7642H33.8082L26.8054 95ZM27.4695 85.3168H40.3161V88.456H27.4695V85.3168ZM48.5233 95V70.2727H57.3372C59.2609 70.2727 60.8547 70.6229 62.1184 71.3232C63.3822 72.0234 64.3279 72.9813 64.9558 74.1967C65.5836 75.4041 65.8976 76.7644 65.8976 78.2777C65.8976 79.799 65.5796 81.1674 64.9437 82.3828C64.3159 83.5902 63.3661 84.5481 62.0943 85.2564C60.8306 85.9567 59.2408 86.3068 57.3251 86.3068H51.264V83.1435H56.987C58.2025 83.1435 59.1885 82.9342 59.9451 82.5156C60.7018 82.089 61.2572 81.5095 61.6113 80.777C61.9655 80.0445 62.1426 79.2114 62.1426 78.2777C62.1426 77.344 61.9655 76.5149 61.6113 75.7905C61.2572 75.0661 60.6977 74.4986 59.9331 74.0881C59.1764 73.6776 58.1783 73.4723 56.9387 73.4723H52.2541V95H48.5233ZM74.0021 70.2727V95H70.2713V70.2727H74.0021Z" fill="#131313"/>
</g>
<defs>
<clipPath id="clip0_18_469">
<rect width="100" height="100" fill="white"/>
</clipPath>
</defs>
</svg>
