<svg width="100" height="100" viewBox="0 0 100 100" fill="none" xmlns="http://www.w3.org/2000/svg">
<g clip-path="url(#clip0_18_460)">
<path d="M69.1962 73.0831H68.8949V72.9146H69.7062V73.0831H69.4067V73.9243H69.1962V73.0831ZM70.8143 73.1271H70.8095L70.5108 73.9246H70.3742L70.0775 73.1271H70.074V73.9246H69.8754V72.9148H70.1676L70.4426 73.6299L70.7168 72.9148H71.008V73.9246H70.8141L70.8143 73.1271Z" fill="#E76F00"/>
<path d="M42.2193 52.4361C42.2193 52.4361 40.1227 53.6554 43.7114 54.068C48.0591 54.564 50.2812 54.4928 55.0724 53.586C55.0724 53.586 56.332 54.3759 58.0912 55.06C47.3506 59.6632 33.7832 54.7933 42.2193 52.4361ZM40.9069 46.4292C40.9069 46.4292 38.5553 48.1699 42.1467 48.5414C46.7911 49.0205 50.4588 49.0597 56.8054 47.8376C56.8054 47.8376 57.6834 48.7276 59.0637 49.2142C46.0775 53.0115 31.6135 49.5137 40.9069 46.4292Z" fill="#5382A1"/>
<path d="M51.9712 36.2392C54.6176 39.2861 51.276 42.0282 51.276 42.0282C51.276 42.0282 57.9955 38.5592 54.9095 34.2152C52.0272 30.164 49.8168 28.1513 61.7829 21.2114C61.783 21.2113 43.0001 25.9023 51.9712 36.2392Z" fill="#E76F00"/>
<path d="M66.1764 56.8792C66.1764 56.8792 67.728 58.1578 64.4677 59.1467C58.2681 61.0247 38.6643 61.5919 33.2184 59.2216C31.2608 58.3698 34.9319 57.188 36.0867 56.94C37.2911 56.6788 37.9793 56.7275 37.9793 56.7275C35.8022 55.1938 23.9074 59.7388 31.9373 61.0406C53.8361 64.5919 71.8568 59.4414 66.1764 56.8792ZM43.2276 40.2054C43.2276 40.2054 33.2558 42.5738 39.6963 43.4339C42.4157 43.798 47.8367 43.7156 52.8861 43.2925C57.0129 42.9444 61.1568 42.2044 61.1568 42.2044C61.1568 42.2044 59.7016 42.8276 58.6489 43.5463C48.5227 46.2096 28.9609 44.9705 34.5925 42.2464C39.3552 39.9442 43.2276 40.2054 43.2276 40.2054ZM61.1157 50.2042C71.4094 44.8552 66.6501 39.7147 63.328 40.4074C62.5137 40.5768 62.1507 40.7237 62.1507 40.7237C62.1507 40.7237 62.4531 40.2502 63.0301 40.0452C69.6021 37.7347 74.6564 46.8597 60.9086 50.4739C60.9086 50.4739 61.0682 50.3316 61.1157 50.2042Z" fill="#5382A1"/>
<path d="M54.9096 10.0054C54.9096 10.0054 60.6104 15.7079 49.5026 24.4773C40.5953 31.5115 47.4715 35.5223 49.4989 40.105C44.2997 35.4138 40.4841 31.2844 43.0439 27.4409C46.801 21.7992 57.2097 19.0638 54.9096 10.0054Z" fill="#E76F00"/>
<path d="M44.2391 64.6984C54.1197 65.3309 69.2926 64.3475 69.6518 59.6724C69.6518 59.6724 68.9612 61.4446 61.486 62.8522C53.0528 64.4391 42.6513 64.254 36.4821 63.2369C36.4824 63.2366 37.7452 64.282 44.2391 64.6984Z" fill="#5382A1"/>
<path d="M42.6198 82.5629C41.6877 83.3714 40.7032 83.8252 39.8198 83.8252C38.5588 83.8252 37.8775 83.0691 37.8775 81.8563C37.8775 80.5445 38.6076 79.5853 41.536 79.5853H42.6196L42.6198 82.5629ZM45.1917 85.4648V76.4822C45.1917 74.1874 43.883 72.6734 40.7275 72.6734C38.8854 72.6734 37.2717 73.1283 35.9601 73.7084L36.3387 75.2984C37.3713 74.9194 38.708 74.5666 40.02 74.5666C41.8378 74.5666 42.6198 75.2984 42.6198 76.8115V77.947H41.7125C37.2961 77.947 35.3038 79.6613 35.3038 82.2345C35.3038 84.4553 36.6167 85.7177 39.0887 85.7177C40.6777 85.7177 41.8638 85.0615 42.9726 84.1015L43.1739 85.4651L45.1917 85.4648ZM53.7752 85.4648H50.5675L46.7069 72.9008H49.5084L51.9037 80.6201L52.4363 82.9416C53.6481 79.585 54.5054 76.1796 54.9341 72.9008H57.6591C56.9289 77.0379 55.6151 81.5791 53.7752 85.4648ZM66.0809 82.5629C65.147 83.3714 64.161 83.8252 63.2774 83.8252C62.0186 83.8252 61.3356 83.0691 61.3356 81.8563C61.3356 80.5445 62.0671 79.5853 64.9953 79.5853H66.0809V82.5629ZM68.6526 85.4648V76.4822C68.6526 74.1874 67.3407 72.6734 64.1886 72.6734C62.3453 72.6734 60.731 73.1283 59.4201 73.7084L59.7982 75.2984C60.8311 74.9194 62.1704 74.5666 63.4813 74.5666C65.2977 74.5666 66.0809 75.2984 66.0809 76.8115V77.947H65.172C60.7544 77.947 58.7629 79.6613 58.7629 82.2345C58.7629 84.4553 60.0747 85.7177 62.5463 85.7177C64.1363 85.7177 65.322 85.0615 66.4326 84.1015L66.6346 85.4651L68.6526 85.4648ZM32.4837 87.5983C31.7506 88.6688 30.5663 89.5157 29.2699 89.9948L28 88.5005C28.9868 87.9941 29.8331 87.1763 30.2263 86.4148C30.5665 85.7373 30.7073 84.8642 30.7073 82.7763V68.4326H33.4398V82.5798C33.4396 85.371 33.2165 86.4986 32.4837 87.5983Z" fill="#E76F00"/>
</g>
<defs>
<clipPath id="clip0_18_460">
<rect width="43.008" height="80" fill="white" transform="translate(28 10)"/>
</clipPath>
</defs>
</svg>
