<svg width="100" height="100" viewBox="0 0 100 100" fill="none" xmlns="http://www.w3.org/2000/svg">
<g clip-path="url(#clip0_18_472)">
<path fill-rule="evenodd" clip-rule="evenodd" d="M81.3376 11.0355C76.2164 10.5652 62.6988 9.8623 49.9486 9.8623C37.1979 9.8623 23.6808 10.5652 18.562 11.0355C12.7169 11.5897 10 14.3505 10 19.7309C10 29.9449 10.4044 45.8614 11.1543 55.2107C11.8247 63.5441 12.3479 70.1247 23.5066 76.4286C31.489 80.9413 39.428 84.8079 49.7654 89.7684L49.9426 89.8623L50.1253 89.7684C60.4861 84.792 68.4401 80.9248 76.3911 76.4286C87.5547 70.1192 88.0814 63.5441 88.7424 55.2107C89.4983 45.8174 89.9056 29.9175 89.9056 19.7309C89.9056 14.3505 87.1823 11.5897 81.3376 11.0355Z" fill="#A73E2A"/>
<path fill-rule="evenodd" clip-rule="evenodd" d="M77.9388 15.0663C73.3851 14.6485 61.3643 14.0244 50.0275 14.0244C38.6896 14.0244 26.6698 14.6485 22.1182 15.0663C16.921 15.5586 14.5047 18.0104 14.5047 22.7892C14.5047 31.8609 14.8642 45.9971 15.5311 54.3C16.1277 61.7013 16.5925 67.5455 26.5145 73.1445C33.6128 77.1524 40.6721 80.5867 49.8637 84.9916L50.0215 85.0745L50.1842 84.9916C59.3973 80.5718 66.4696 77.1375 73.5399 73.1445C83.4674 67.5405 83.9342 61.7013 84.5223 54.3C85.1953 45.9576 85.5567 31.8365 85.5567 22.7892C85.5567 18.0109 83.1359 15.5586 77.9388 15.0663ZM54.6016 79.6377C53.1801 80.3276 51.7578 81.0155 50.3345 81.7016L50.027 81.8379L49.7224 81.7016C45.7 79.7645 42.2128 78.075 38.9567 76.4425C38.44 76.1539 37.8609 75.9967 38.3591 75.3352C38.766 74.7935 50.4314 56.278 61.4722 56.3379C62.7512 56.3449 64.1217 56.8192 64.1022 58.261C64.0877 59.3434 63.4627 60.7263 63.1142 61.6279L57.0708 76.4765C56.4897 77.7396 55.5321 79.097 54.6016 79.6377ZM61.0598 76.461C61.3503 75.0182 64.4267 68.0153 67.8211 59.8846C71.9079 50.0939 78.8329 46.6001 78.8034 39.8054C78.783 34.7556 74.155 31.1485 73.6607 30.4571C73.1675 29.7656 72.9927 27.6313 72.469 26.7597C72.0906 26.1281 70.524 24.1147 67.4436 24.1147C62.5915 24.1147 60.3539 25.858 57.303 25.858C55.7633 25.858 53.003 25.2459 48.035 25.2265C40.3067 25.1965 38.6212 26.8495 35.774 26.8196C34.2923 26.8041 33.8859 26.4287 32.0257 26.4287C29.2174 26.4287 26.2734 29.0742 26.2734 29.8255C26.2734 30.6068 26.7961 31.6892 26.7961 32.0497C26.7961 32.4106 26.6199 33.2973 26.2734 33.3726C25.5884 33.5214 25.8665 31.148 25.576 31.0881C25.4047 31.0527 25.0822 31.8694 25.0822 33.1924C25.0822 34.5149 25.4017 34.9957 25.4601 35.9577C25.5944 38.1779 21.218 40.9472 21.218 45.0355C21.218 46.2981 22.0318 47.0195 22.3803 47.7409C22.562 48.1173 22.6514 51.2491 24.9953 53.8127C27.0288 56.0374 27.4936 54.654 27.3772 54.3534C27.2614 54.0524 26.7961 52.6101 26.7961 50.5062C26.7961 48.4019 28.1326 48.5222 31.5035 48.5821C39.1724 48.7189 39.2897 51.2271 39.6382 51.8282C39.9872 52.4298 41.9053 56.5176 41.9053 58.0803C41.9053 61.6878 33.5369 73.5898 33.5369 73.5898L33.5105 73.6407C31.6993 72.6836 29.9014 71.7016 28.1171 70.6952C19.5521 65.8655 19.1721 61.1761 18.61 54.0898C17.9455 45.8308 17.5885 31.7995 17.5885 22.7887C17.5885 19.4887 18.8072 18.264 22.4262 17.9195C26.9269 17.5071 38.8189 16.8881 50.028 16.8881C61.241 16.8881 73.1255 17.5076 77.6322 17.9195C81.2508 18.264 82.4669 19.4887 82.4669 22.7887C82.4669 31.795 82.1099 45.8208 81.446 54.0973C80.8783 61.1806 80.5029 65.865 71.9418 70.6947C68.2844 72.7586 64.8635 74.5559 61.0598 76.461Z" fill="white"/>
<path fill-rule="evenodd" clip-rule="evenodd" d="M28.6283 34.0043C28.6283 32.6803 28.6283 28.4132 33.1904 28.4132C34.3816 28.4132 35.2239 28.6539 35.2239 28.8041C35.2239 28.9544 34.2938 29.4397 34.2359 29.856C34.2064 30.0662 34.3227 30.0962 34.4975 30.0962C34.6717 30.0962 39.0301 27.5036 49.373 27.5715C53.964 27.6014 54.4867 27.6314 54.4867 27.9319C54.4867 28.2325 53.0799 28.7213 53.0923 29.2844C53.0963 29.4377 53.2376 29.4946 53.4987 29.4946C54.5741 29.4946 61.7218 26.5306 65.5859 26.5191C70.5539 26.5046 69.9463 30.0722 70.7861 31.6893C71.8325 33.7032 75.2044 35.5359 75.2034 39.6248C75.2014 43.9527 71.3966 46.9592 71.2514 47.079C71.1061 47.1993 70.845 47.2897 70.9903 46.9886C71.1355 46.6881 72.0646 44.8249 72.0646 43.3816C72.0646 41.5479 70.8155 39.5644 68.3173 39.5644C67.5909 39.5644 67.4162 39.7146 67.4162 39.8344C67.4162 39.9553 68.3173 40.7066 68.3173 41.3676C68.3173 41.9987 67.7002 42.2673 66.835 42.4799C64.0168 43.1714 51.1343 45.2483 49.9546 45.4559C48.4149 45.7265 43.9407 45.9367 43.9407 51.5572C43.9407 53.0005 44.2602 54.7364 43.9407 54.7434C41.8483 54.7873 41.3496 48.062 40.2213 47.1993C38.2163 45.6666 33.5679 45.1254 30.8075 45.1254C28.0477 45.1254 24.9679 45.4265 24.9679 47.5004C24.9679 50.4454 25.3453 51.2272 25.3453 51.4374C25.3453 51.6486 25.2869 51.8388 25.1416 51.8283C24.2989 51.7689 23.3114 48.3416 23.1661 46.8389C23.1192 46.3556 22.555 45.7869 22.555 45.0056C22.555 43.4724 24.7682 40.818 25.4032 39.5948C26.6269 37.2374 28.6283 35.5374 28.6283 34.0043Z" fill="#A73E2A"/>
<path fill-rule="evenodd" clip-rule="evenodd" d="M45.4779 41.2485C46.03 41.2485 46.3495 41.5191 46.6106 41.6095C46.8722 41.6994 47.3665 41.8202 47.3665 42.0903C47.3665 42.3609 45.4489 42.7518 44.5193 42.902C43.5897 43.0523 41.0331 43.2026 40.7999 43.2026C40.5678 43.2026 40.4225 43.0229 40.5388 42.932C40.6547 42.8411 44.4025 41.2485 45.4779 41.2485ZM67.1825 30.0969C64.8571 30.0969 63.2889 30.9386 62.1561 31.3895C61.0223 31.8398 57.1003 32.8323 56.6644 32.9526C56.2286 33.0724 55.7633 32.8922 55.7633 33.4029C55.7633 33.5831 55.967 33.7339 56.2286 33.7339H58.5815C59.1637 33.7339 60.0129 34.0694 60.8486 34.335C61.6035 34.5756 61.9524 34.4254 62.5041 34.5756C62.8181 34.6615 62.6494 34.9061 64.5954 34.9061C64.7991 34.9061 64.9155 34.7559 64.9155 34.7559C65.0313 33.1927 64.5954 31.8702 64.5954 31.8702C65.9334 32.9221 66.0203 34.6056 66.0203 34.6056C66.0203 34.6056 66.1361 34.636 66.4267 34.636C67.0373 34.636 67.9663 33.0125 67.9663 32.1713C67.9663 31.3295 68.7512 30.9985 68.7796 30.6081C68.8225 30.0385 68.1116 30.0969 67.1825 30.0969Z" fill="white"/>
<path fill-rule="evenodd" clip-rule="evenodd" d="M62.7652 46.4782C64.2764 46.1777 67.7626 45.3359 68.4316 45.3359C68.6638 45.3359 68.8091 45.4563 68.6927 45.6969C68.5759 45.937 67.3852 48.2216 61.2255 48.2216C55.0658 48.2216 54.5132 47.9814 54.5132 47.7708C54.5132 47.5601 54.7753 47.5601 55.2406 47.5002C55.7054 47.4403 61.255 46.7788 62.7652 46.4782Z" fill="#A73E2A"/>
</g>
<defs>
<clipPath id="clip0_18_472">
<rect width="100" height="100" fill="white"/>
</clipPath>
</defs>
</svg>
