<svg width="100" height="100" viewBox="0 0 100 100" fill="none" xmlns="http://www.w3.org/2000/svg">
<path d="M86.85 68.6013C82.5815 70.8261 60.4697 79.9177 55.7622 82.3719C51.0548 84.8264 48.4397 84.8027 44.7207 83.0249C41.0021 81.2471 17.4713 71.7422 13.2325 69.7161C11.1141 68.7038 10 67.8489 10 67.0416V58.957C10 58.957 40.6344 52.288 45.5799 50.5137C50.5252 48.7394 52.2411 48.6753 56.4496 50.2169C60.6587 51.7591 85.8242 56.2994 89.9837 57.8229L89.9818 65.7931C89.9825 66.5923 89.0227 67.469 86.85 68.6013Z" fill="#912626"/>
<path d="M86.8484 60.5645C82.5802 62.7884 60.4691 71.8803 55.7616 74.3342C51.0544 76.789 48.4394 76.7649 44.7207 74.9872C41.0018 73.2106 17.4719 63.7041 13.2334 61.6792C8.99488 59.6531 8.90615 58.2587 13.0697 56.6284C17.2332 54.9975 40.6341 45.8165 45.5802 44.0422C50.5255 42.2685 52.2411 42.2038 56.4496 43.746C60.6584 45.2876 82.6377 54.0361 86.7965 55.5592C90.9569 57.0842 91.1166 58.3399 86.8484 60.5645Z" fill="#C6302B"/>
<path d="M86.85 55.52C82.5815 57.7452 60.4697 66.8365 55.7622 69.2916C51.0548 71.7452 48.4397 71.7214 44.7207 69.9437C41.0018 68.1668 17.4713 58.661 13.2325 56.6348C11.1141 55.6225 10 54.7689 10 53.9613V45.8758C10 45.8758 40.6344 39.2071 45.5799 37.4328C50.5252 35.6585 52.2411 35.5941 56.4496 37.136C60.6591 38.6778 85.8246 43.2172 89.9837 44.741L89.9818 52.7122C89.9825 53.5111 89.0227 54.3878 86.85 55.52Z" fill="#912626"/>
<path d="M86.8484 47.4833C82.5802 49.7078 60.4691 58.7991 55.7616 61.2539C51.0544 63.7078 48.4394 63.6837 44.7207 61.9059C41.0018 60.1294 17.4719 50.6232 13.2334 48.598C8.99488 46.5725 8.90615 45.1778 13.0697 43.5469C17.2332 41.9169 40.6344 32.7353 45.5802 30.9613C50.5255 29.1873 52.2411 29.1229 56.4496 30.6648C60.6584 32.2064 82.6377 40.9543 86.7965 42.478C90.9569 44.0027 91.1166 45.2587 86.8484 47.4833Z" fill="#C6302B"/>
<path d="M86.85 41.9535C82.5815 44.178 60.4697 53.2699 55.7622 55.725C51.0548 58.1789 48.4397 58.1549 44.7207 56.3771C41.0018 54.6003 17.4713 45.0941 13.2325 43.0689C11.1141 42.0556 10 41.2018 10 40.395V32.3092C10 32.3092 40.6344 25.6409 45.5799 23.8669C50.5252 22.0922 52.2411 22.0285 56.4496 23.57C60.6591 25.1119 85.8246 29.6513 89.9837 31.175L89.9818 39.1459C89.9825 39.9442 89.0227 40.8209 86.85 41.9535Z" fill="#912626"/>
<path d="M86.8484 33.917C82.5802 36.1415 60.4691 45.2334 55.7616 47.6873C51.0544 50.1412 48.4393 50.1171 44.7207 48.3403C41.0021 46.5625 17.4719 37.057 13.2337 35.0314C8.99488 33.0062 8.90646 31.6112 13.0697 29.9806C17.2332 28.3503 40.6344 19.17 45.5802 17.3953C50.5255 15.621 52.2411 15.5573 56.4496 17.0991C60.6584 18.641 82.6377 27.3889 86.7965 28.9127C90.9569 30.4361 91.1166 31.6924 86.8484 33.917Z" fill="#C6302B"/>
<path d="M59.7658 26.0517L52.8891 26.7657L51.3497 30.4699L48.8633 26.3364L40.9228 25.6228L46.8478 23.486L45.07 20.2061L50.6173 22.3756L55.8469 20.6635L54.4334 24.055L59.7658 26.0517ZM50.9392 44.0225L38.1052 38.6995L56.4952 35.8766L50.9392 44.0225ZM33.1459 28.1107C38.5745 28.1107 42.9751 29.8166 42.9751 31.9205C42.9751 34.0251 38.5745 35.7307 33.1459 35.7307C27.7173 35.7307 23.3167 34.0248 23.3167 31.9205C23.3167 29.8166 27.7173 28.1107 33.1459 28.1107Z" fill="white"/>
<path d="M67.8929 27.0643L78.7769 31.3653L67.9023 35.6622L67.8929 27.0643Z" fill="#621B1C"/>
<path d="M55.8516 31.8275L67.8929 27.0645L67.9023 35.6624L66.7216 36.1242L55.8516 31.8275Z" fill="#9A2928"/>
</svg>
