<svg width="100" height="100" viewBox="0 0 100 100" fill="none" xmlns="http://www.w3.org/2000/svg">
<g clip-path="url(#clip0_18_459)">
<path d="M88.2674 57.9C87.8023 56.4913 86.584 55.5102 85.0084 55.2748C84.2654 55.1639 83.4146 55.2112 82.4077 55.4187C80.6527 55.7808 79.3507 55.9187 78.4005 55.9453C81.9871 49.8899 84.9035 42.9845 86.5824 36.4842C89.2973 25.9735 87.8466 21.1852 86.1513 19.0193C81.6648 13.2866 75.119 10.2069 67.2223 10.1126C63.0097 10.0611 59.3115 10.8929 57.3823 11.491C55.5862 11.174 53.6548 10.9971 51.6284 10.9644C47.8297 10.9038 44.4733 11.7319 41.6054 13.4338C40.0177 12.8969 37.4695 12.14 34.5267 11.657C27.6056 10.5208 22.0274 11.4061 17.9472 14.2886C13.0065 17.7785 10.7161 23.8422 11.1397 32.311C11.2742 34.9998 12.7783 43.1808 15.1466 50.9395C16.5076 55.399 17.959 59.1023 19.4604 61.9474C21.5896 65.9819 23.8678 68.3577 26.4254 69.211C27.8589 69.6885 30.4635 70.023 33.2029 67.7414C33.5502 68.162 34.0135 68.5798 34.6283 68.968C35.4091 69.4603 36.3638 69.8627 37.3174 70.1012C40.7537 70.9602 43.9725 70.7454 46.7186 69.5412C46.7355 70.0297 46.7486 70.4963 46.7595 70.8993C46.7776 71.5529 46.7958 72.1937 46.8198 72.793C46.9825 76.8454 47.2582 79.9963 48.0751 82.2009C48.1199 82.3221 48.1802 82.5069 48.2439 82.7029C48.6514 83.9507 49.3328 86.0396 51.0666 87.6755C52.8619 89.3702 55.0335 89.8898 57.0224 89.8898C58.0198 89.8898 58.9716 89.7589 59.8063 89.5801C62.7818 88.9423 66.1612 87.9709 68.6058 84.49C70.917 81.1995 72.0406 76.2433 72.2439 68.4341C72.2702 68.2132 72.2945 68.0023 72.3178 67.8014L72.3663 67.3887L72.9108 67.4366L73.0511 67.446C76.0817 67.5842 79.7874 66.9415 82.0632 65.8843C83.8615 65.0499 89.6243 62.0074 88.2674 57.9Z" fill="black"/>
<path d="M83.0855 58.6989C74.0743 60.5578 73.4547 57.5069 73.4547 57.5069C82.9689 43.3892 86.9463 25.4689 83.5143 21.0829C74.1504 9.11899 57.9414 14.7772 57.6708 14.9239L57.5838 14.9396C55.8034 14.57 53.8112 14.35 51.5717 14.3133C47.4945 14.2467 44.4015 15.3823 42.0545 17.1621C42.0545 17.1621 13.1392 5.24998 14.4842 32.1437C14.7702 37.8649 22.6846 75.4342 32.1243 64.0865C35.5745 59.9369 38.9084 56.4285 38.9084 56.4285C40.564 57.5284 42.5462 58.0896 44.6242 57.8881L44.7857 57.7511C44.7354 58.2662 44.7584 58.7701 44.8503 59.3667C42.4184 62.0837 43.1332 62.5606 38.2718 63.5614C33.3526 64.5753 36.2423 66.3799 38.1291 66.852C40.4165 67.4238 45.708 68.234 49.2834 63.2287L49.141 63.7999C50.0937 64.5631 50.7627 68.7639 50.6506 72.5723C50.5385 76.3805 50.4636 78.995 51.2142 81.0373C51.9653 83.0795 52.7134 87.6745 59.1043 86.3052C64.4441 85.1608 67.2114 82.1953 67.5965 77.2485C67.8695 73.7319 68.4879 74.2519 68.5267 71.1076L69.0227 69.6193C69.5944 64.8522 69.1136 63.3142 72.4033 64.0296L73.2032 64.0999C75.6241 64.2098 78.7935 63.7102 80.6536 62.8457C84.6587 60.9871 87.0342 57.8835 83.0849 58.6989H83.0855Z" fill="#336791"/>
<path d="M43.747 34.7018C42.935 34.5888 42.1996 34.6934 41.8275 34.9751C41.6185 35.1336 41.5536 35.3172 41.536 35.4436C41.4894 35.7784 41.7239 36.1487 41.8681 36.3396C42.276 36.8801 42.8717 37.2516 43.4613 37.3334C43.5467 37.3455 43.6319 37.351 43.7164 37.351C44.6997 37.351 45.5938 36.5853 45.6726 36.0202C45.7711 35.3124 44.7436 34.8403 43.747 34.7018ZM70.6486 34.7243C70.571 34.1695 69.5838 34.0113 68.647 34.1416C67.7113 34.2719 66.8041 34.6943 66.8799 35.2503C66.9405 35.6827 67.7213 36.4208 68.6454 36.4208C68.7236 36.4208 68.8024 36.4156 68.8818 36.4044C69.4987 36.319 69.9514 35.9272 70.1665 35.7014C70.4937 35.3572 70.6834 34.9736 70.6486 34.7243Z" fill="white"/>
<path d="M86.084 58.4878C85.7404 57.4488 84.6345 57.1146 82.7971 57.4939C77.3415 58.6199 75.3878 57.8399 74.7464 57.3676C78.9868 50.9076 82.4753 43.0987 84.3572 35.8131C85.2486 32.3619 85.741 29.1568 85.7813 26.5443C85.8258 23.677 85.3374 21.5699 84.3302 20.2828C80.2694 15.0939 74.3094 12.3106 67.095 12.2342C62.1352 12.1785 57.9447 13.4477 57.1324 13.8047C55.4216 13.3792 53.5567 13.1181 51.5263 13.0847C47.803 13.0244 44.5845 13.9159 41.9199 15.7329C40.7625 15.3021 37.7713 14.2752 34.1131 13.6859C27.7889 12.6678 22.7634 13.4392 19.1771 15.9799C14.8978 19.0117 12.9222 24.4312 13.3049 32.0874C13.4337 34.6632 14.9014 42.5872 17.2176 50.1759C20.2663 60.164 23.5806 65.8182 27.0675 66.9815C27.4756 67.1175 27.9462 67.2126 28.4652 67.2126C29.7372 67.2126 31.2968 66.6394 32.9193 64.6887C34.8984 62.3145 36.9456 59.998 39.0584 57.7421C40.4292 58.4778 41.9351 58.8886 43.4752 58.9298C43.4783 58.9701 43.4822 59.0104 43.4858 59.0504C43.2207 59.3666 42.9611 59.6873 42.7071 60.0125C41.64 61.3672 41.4179 61.6493 37.9828 62.3565C37.0056 62.5583 34.4104 63.0931 34.3722 64.9123C34.331 66.8999 37.4401 67.7347 37.7943 67.8232C39.0287 68.1323 40.218 68.2847 41.3521 68.2847C44.1103 68.2847 46.5377 67.3781 48.4775 65.624C48.4178 72.71 48.7132 79.6923 49.564 81.8197C50.2609 83.5613 51.9632 87.8175 57.3402 87.8172C58.1292 87.8172 58.9976 87.7254 59.953 87.5206C65.5648 86.3177 68.0019 83.8373 68.9445 78.3691C69.449 75.4467 70.3147 68.4683 70.7219 64.725C71.5812 64.9932 72.6875 65.1159 73.8834 65.1156C76.3777 65.1156 79.2559 64.5856 81.0609 63.7478C83.0885 62.8061 86.7476 60.4954 86.084 58.4878ZM72.7199 33.1933C72.7014 34.2984 72.5493 35.3016 72.3881 36.3488C72.2145 37.475 72.0351 38.6394 71.99 40.0529C71.9454 41.4286 72.1172 42.8587 72.2833 44.2419C72.619 47.0356 72.9635 49.9116 71.63 52.7495C71.4085 52.3571 71.2112 51.9514 71.0391 51.5348C70.8734 51.133 70.5134 50.4876 70.015 49.5944C68.0761 46.1172 63.5357 37.9744 65.86 34.6517C66.5523 33.6627 68.3094 32.6458 72.7199 33.1933ZM67.3738 14.4719C73.838 14.6146 78.9514 17.0328 82.5716 21.659C85.3483 25.2075 82.2908 41.3534 73.4392 55.2826C73.3502 55.1694 73.2607 55.0566 73.1708 54.9442L73.0586 54.8042C75.346 51.0267 74.8988 47.2892 74.5006 43.9756C74.337 42.6157 74.1825 41.3313 74.2219 40.1247C74.2625 38.8461 74.4315 37.7492 74.5952 36.6887C74.796 35.3819 75.0006 34.0296 74.9442 32.4355C74.9863 32.2683 75.0033 32.0707 74.9812 31.8362C74.8373 30.3075 73.092 25.7326 69.5348 21.5918C67.5889 19.3268 64.7513 16.7922 60.8768 15.0827C62.5433 14.7373 64.8222 14.4152 67.3738 14.4719ZM31.2022 63.2609C29.4145 65.4104 28.1801 64.9983 27.7741 64.8632C25.1289 63.9808 22.0595 58.3899 19.3534 49.5241C17.0118 41.8528 15.6435 34.1387 15.535 31.9756C15.1932 25.1344 16.8515 20.3667 20.4642 17.8046C26.3436 13.6353 36.0099 16.1308 39.8941 17.3964C39.8383 17.4516 39.7802 17.5031 39.725 17.5591C33.3511 23.9961 33.5023 34.9937 33.5181 35.6661C33.5174 35.9255 33.5393 36.2927 33.569 36.7978C33.6786 38.6476 33.8829 42.0903 33.3375 45.989C32.8308 49.612 33.9477 53.158 36.4011 55.718C36.6529 55.9803 36.9175 56.2298 37.194 56.4658C36.102 57.6354 33.7286 60.2218 31.2022 63.2609ZM38.0134 54.173C36.036 52.1096 35.1379 49.2396 35.5491 46.2981C36.1248 42.1797 35.9124 38.5928 35.7981 36.6657C35.7821 36.396 35.7678 36.1597 35.7596 35.9733C36.6908 35.1477 41.0058 32.8358 44.0831 33.5409C45.4872 33.8623 46.3428 34.8186 46.6986 36.4633C48.5396 44.9785 46.9422 48.5275 45.6587 51.3797C45.3941 51.9672 45.1442 52.5226 44.9309 53.0971L44.7654 53.5413C44.3467 54.6642 43.957 55.7083 43.7155 56.6998C41.6133 56.6937 39.5684 55.7956 38.0134 54.1727V54.173ZM38.3361 65.6567C37.7222 65.5034 37.1701 65.2371 36.8462 65.0162C37.1168 64.8889 37.5983 64.7156 38.4333 64.5435C42.4744 63.7118 43.0986 63.1246 44.4615 61.3941C44.7739 60.9972 45.1281 60.5476 45.6187 59.9997L45.6193 59.9991C46.3498 59.181 46.684 59.3198 47.29 59.5713C47.7812 59.7743 48.2596 60.39 48.4535 61.0675C48.5453 61.3875 48.6484 61.9947 48.3111 62.4674C45.4641 66.4536 41.3155 66.4024 38.3361 65.6567ZM59.4852 85.3372C54.5414 86.3965 52.791 83.874 51.6375 80.9904C50.893 79.1287 50.527 70.7338 50.7866 61.4629C50.79 61.3396 50.7724 61.2205 50.7384 61.1084C50.7081 60.887 50.6619 60.6681 50.6003 60.4533C50.2143 59.1044 49.2734 57.976 48.1448 57.5082C47.6963 57.3224 46.8734 56.9815 45.8844 57.2346C46.0953 56.3655 46.461 55.3841 46.8576 54.3215L47.024 53.8746C47.2112 53.3707 47.4464 52.8486 47.6948 52.296C49.038 49.312 50.8775 45.2248 48.8811 35.9915C48.1333 32.5331 45.6359 30.8442 41.8502 31.2365C39.5808 31.4714 37.5043 32.387 36.4687 32.9121C36.246 33.0248 36.0423 33.1339 35.8521 33.24C36.1411 29.7555 37.2331 23.2434 41.3182 19.1232C43.8903 16.5295 47.3158 15.2484 51.4893 15.3175C59.7127 15.4521 64.9861 19.6722 67.9622 23.1892C70.5268 26.2195 71.9154 29.2722 72.4696 30.9187C68.3018 30.4948 65.4673 31.3174 64.0305 33.3718C60.9044 37.8404 65.7406 46.5135 68.0649 50.6819C68.4912 51.4457 68.8591 52.106 68.9748 52.3866C69.7317 54.2209 70.7116 55.4456 71.427 56.3395C71.6464 56.6134 71.8591 56.8791 72.0209 57.1112C70.7586 57.4751 68.4912 58.316 68.6979 62.5189C68.5312 64.6277 67.3462 74.5013 66.7441 77.9897C65.9494 82.5984 64.2535 84.3149 59.4852 85.3375V85.3372ZM80.1207 61.7226C78.8299 62.3216 76.6698 62.771 74.6179 62.8676C72.3514 62.9737 71.1976 62.6137 70.9261 62.3922C70.7989 59.7731 71.7736 59.4995 72.8053 59.2098C72.9674 59.1644 73.1256 59.1198 73.2783 59.0665C73.3732 59.1438 73.4771 59.2204 73.591 59.2956C75.4127 60.4979 78.6617 60.6275 83.2488 59.6807L83.2991 59.6707C82.6804 60.2491 81.6217 61.0254 80.1207 61.7226Z" fill="white"/>
</g>
<defs>
<clipPath id="clip0_18_459">
<rect width="77.568" height="80" fill="white" transform="translate(11 10)"/>
</clipPath>
</defs>
</svg>
