<svg width="100" height="100" viewBox="0 0 100 100" fill="none" xmlns="http://www.w3.org/2000/svg">
<g clip-path="url(#clip0_18_457)">
<path d="M83.64 71.6912C79.2906 71.5828 75.9197 72.0178 73.0925 73.2137C72.2769 73.5397 70.9719 73.54 70.8631 74.5731C71.2981 75.0081 71.3525 75.715 71.7331 76.3128C72.3863 77.4 73.5272 78.8681 74.5603 79.6297C75.7019 80.4994 76.8441 81.369 78.0397 82.1303C80.1603 83.4353 82.5528 84.1962 84.6188 85.5012C85.8153 86.2619 87.0106 87.2412 88.2069 88.0565C88.805 88.4909 89.1853 89.1984 89.9469 89.47V89.3072C89.5659 88.8175 89.4572 88.1109 89.0769 87.5672C88.5338 87.0234 87.9894 86.534 87.4456 85.9903C85.8691 83.8703 83.9119 82.0215 81.7916 80.4993C80.0519 79.3031 76.2456 77.6722 75.5391 75.6603C75.5391 75.6603 75.4844 75.6062 75.4303 75.5518C76.6263 75.4431 78.0397 75.0081 79.1819 74.6819C81.0303 74.1922 82.7156 74.3012 84.6188 73.8119C85.4884 73.5944 86.3584 73.3225 87.2281 73.0506V72.5615C86.25 71.5828 85.5431 70.2781 84.51 69.3537C81.7372 66.9609 78.6922 64.6234 75.5391 62.6662C73.8534 61.5787 71.6784 60.8718 69.8844 59.9478C69.2325 59.6212 68.1447 59.4584 67.7644 58.9147C66.7853 57.7187 66.2416 56.1422 65.535 54.7284C63.9588 51.7378 62.4359 48.4215 61.0766 45.2684C60.0984 43.1478 59.5003 41.0272 58.3041 39.0703C52.7041 29.8275 46.6147 24.2275 37.2634 18.7359C35.2516 17.5943 32.8594 17.105 30.3041 16.5072C28.9453 16.4525 27.5856 16.344 26.2266 16.2894C25.3566 15.9087 24.4866 14.8759 23.7253 14.3865C20.6269 12.429 12.6341 8.18873 10.3506 13.7887C8.88252 17.3225 12.5256 20.8019 13.7756 22.5965C14.7006 23.8469 15.8963 25.2603 16.5488 26.674C16.9294 27.5978 17.0378 28.5772 17.4185 29.5556C18.2888 31.9472 19.1038 34.6119 20.246 36.8412C20.8441 37.9828 21.4963 39.1787 22.2575 40.2119C22.6925 40.8097 23.4535 41.0819 23.6169 42.0603C22.856 43.1478 22.8013 44.779 22.366 46.1381C20.4088 52.2819 21.1703 59.8934 23.9428 64.4059C24.8125 65.7647 26.8788 68.7559 29.6516 67.6137C32.0985 66.6353 31.5547 63.5362 32.2609 60.8178C32.4247 60.1647 32.316 59.7303 32.6419 59.2953V59.4044C33.4031 60.9262 34.1641 62.3947 34.8709 63.9169C36.5566 66.5806 39.4922 69.3537 41.9388 71.2025C43.2441 72.1806 44.2769 73.8662 45.9081 74.4644V74.3009H45.7991C45.4728 73.8115 44.9834 73.5943 44.5488 73.2134C43.5703 72.2353 42.4825 71.039 41.7216 69.9515C39.4384 66.9065 37.4263 63.5359 35.6322 60.0562C34.7625 58.3712 34.0009 56.5225 33.2944 54.8372C32.9678 54.184 32.9678 53.2059 32.4244 52.88C31.6088 54.0759 30.4128 55.109 29.8147 56.5768C28.7822 58.9147 28.6731 61.7962 28.2925 64.7862C28.075 64.8412 28.1835 64.7862 28.0747 64.8956C26.3353 64.46 25.7372 62.6662 25.0844 61.1437C23.4531 57.2837 23.1813 51.0856 24.5953 46.6275C24.976 45.4856 26.6072 41.8975 25.9547 40.81C25.6285 39.7769 24.5406 39.1787 23.9428 38.3634C23.2363 37.3303 22.4747 36.0259 21.9856 34.8837C20.6806 31.839 20.0281 28.4681 18.6147 25.4234C17.9622 24.0097 16.821 22.5422 15.8963 21.2372C14.8635 19.7693 13.7216 18.7359 12.906 16.9962C12.6344 16.3984 12.2535 15.4197 12.6885 14.7672C12.7972 14.3322 13.0144 14.1694 13.4497 14.0606C14.1566 13.4622 16.1685 14.2234 16.8747 14.5497C18.8866 15.3647 20.5719 16.1265 22.2575 17.2681C23.0185 17.8119 23.8341 18.845 24.8125 19.1169H25.9544C27.6944 19.4972 29.6513 19.2256 31.2825 19.7147C34.1644 20.6387 36.7738 21.9981 39.1119 23.4662C46.2344 27.9787 52.1056 34.3944 56.075 42.0603C56.7275 43.3103 56.9991 44.4528 57.5972 45.7572C58.7394 48.4215 60.1528 51.14 61.2941 53.7497C62.4359 56.3047 63.5231 58.9147 65.1544 61.0353C65.97 62.1765 69.2319 62.775 70.7 63.3731C71.7875 63.8622 73.4731 64.2975 74.4516 64.8953C76.3 66.0365 78.1484 67.3422 79.8884 68.5922C80.7584 69.2447 83.4766 70.604 83.64 71.6912Z" fill="#00546B"/>
<path d="M28.1831 24.4443C27.2591 24.4443 26.6069 24.5537 25.9544 24.7165V24.8253H26.0631C26.4984 25.6953 27.2591 26.2934 27.8025 27.0543C28.2378 27.924 28.6181 28.7943 29.0534 29.6643C29.1075 29.6096 29.1619 29.5556 29.1619 29.5556C29.9234 29.0115 30.3038 28.1418 30.3038 26.8368C29.9775 26.4565 29.9231 26.0759 29.6513 25.6953C29.3253 25.1512 28.6181 24.8796 28.1831 24.4443Z" fill="#00546B"/>
</g>
<defs>
<clipPath id="clip0_18_457">
<rect width="80" height="78.752" fill="white" transform="translate(10 11)"/>
</clipPath>
</defs>
</svg>
