<svg width="100" height="100" viewBox="0 0 100 100" fill="none" xmlns="http://www.w3.org/2000/svg">
<rect x="5" y="5" width="90" height="90" rx="5" fill="#F8F8F8"/>
<path d="M23.2124 16.5455H29.8494L36.8594 33.6477H37.1577L44.1676 16.5455H50.8047V42H45.5845V25.4322H45.3732L38.7859 41.8757H35.2312L28.6438 25.37H28.4325V42H23.2124V16.5455Z" fill="#00AFFF"/>
<path d="M59.8374 16.5455L65.9898 35.8849H66.2259L72.3907 16.5455H78.3566L69.5818 42H62.6464L53.8591 16.5455H59.8374Z" fill="#FFE052"/>
<path d="M27.8111 58.5455L33.9634 77.8849H34.1996L40.3643 58.5455H46.3303L37.5554 84H30.62L21.8327 58.5455H27.8111Z" fill="#C6302B"/>
<path d="M71.8532 67.457H66.4093C66.3098 66.7527 66.1068 66.1271 65.8002 65.5803C65.4937 65.0251 65.1001 64.5528 64.6195 64.1634C64.1389 63.7739 63.5837 63.4756 62.954 63.2685C62.3326 63.0613 61.6573 62.9577 60.9281 62.9577C59.6106 62.9577 58.463 63.285 57.4853 63.9396C56.5075 64.5859 55.7493 65.5305 55.2108 66.7734C54.6722 68.008 54.4029 69.5078 54.4029 71.2727C54.4029 73.0874 54.6722 74.612 55.2108 75.8466C55.7576 77.0812 56.5199 78.0134 57.4977 78.6431C58.4754 79.2728 59.6065 79.5877 60.8908 79.5877C61.6117 79.5877 62.2787 79.4924 62.8919 79.3018C63.5133 79.1113 64.0643 78.8337 64.5449 78.4691C65.0255 78.0962 65.4232 77.6446 65.7381 77.1143C66.0613 76.584 66.285 75.9792 66.4093 75.2997L71.8532 75.3246C71.7123 76.4929 71.3601 77.6198 70.7967 78.7053C70.2415 79.7824 69.4917 80.7478 68.5471 81.6012C67.6107 82.4464 66.4921 83.1175 65.1912 83.6147C63.8986 84.1036 62.4361 84.348 60.8038 84.348C58.5334 84.348 56.5034 83.8343 54.7136 82.8068C52.9321 81.7794 51.5235 80.292 50.4877 78.3448C49.4603 76.3976 48.9466 74.0402 48.9466 71.2727C48.9466 68.4969 49.4686 66.1354 50.5126 64.1882C51.5566 62.241 52.9735 60.7578 54.7633 59.7386C56.5531 58.7112 58.5666 58.1974 60.8038 58.1974C62.2787 58.1974 63.6459 58.4046 64.9054 58.8189C66.1731 59.2332 67.2959 59.8381 68.2736 60.6335C69.2514 61.4207 70.0468 62.386 70.66 63.5295C71.2814 64.6729 71.6792 65.9821 71.8532 67.457Z" fill="#4771DE"/>
</svg>
