<svg width="100" height="100" viewBox="0 0 100 100" fill="none" xmlns="http://www.w3.org/2000/svg">
<g clip-path="url(#clip0_18_455)">
<path d="M50.0544 31.8774C39.9864 31.8774 31.8231 40.0407 31.8231 50.1087C31.8231 60.1768 39.9864 68.34 50.0544 68.34C60.1225 68.34 68.2857 60.1768 68.2857 50.1087C68.2313 40.0407 60.068 31.8774 50.0544 31.8774Z" fill="#3880FF"/>
<path d="M76.1769 33.51C80.7755 33.51 84.5034 29.7821 84.5034 25.1835C84.5034 20.5849 80.7755 16.8569 76.1769 16.8569C71.5783 16.8569 67.8503 20.5849 67.8503 25.1835C67.8503 29.7821 71.5783 33.51 76.1769 33.51Z" fill="#3880FF"/>
<path d="M86.4082 33.5102L86.0816 32.7483L85.5374 33.4014C84.1769 34.9252 82.4354 36.1225 80.5306 36.8299L79.9864 37.0476L80.2041 37.5918C81.8912 41.5646 82.7075 45.8095 82.7075 50.1088C82.7075 68.1224 68.068 82.8163 50 82.8163C31.932 82.8163 17.3469 68.1224 17.3469 50.1088C17.3469 32.0952 31.9864 17.4014 50.0544 17.4014C54.9524 17.4014 59.6327 18.4898 64.0408 20.5578L64.5306 20.7755L64.7483 20.2313C65.5646 18.3265 66.8163 16.6939 68.449 15.3878L69.102 14.8435L68.3401 14.4626C62.6259 11.5238 56.4762 10 50 10C27.9592 10 10 27.9592 10 50C10 72.0408 27.9592 90 50 90C72.0408 90 90 72.0408 90 50C90 44.3401 88.8027 38.7891 86.4082 33.5102Z" fill="#3880FF"/>
</g>
<defs>
<clipPath id="clip0_18_455">
<rect width="80" height="80" fill="white" transform="translate(10 10)"/>
</clipPath>
</defs>
</svg>
