<svg width="100" height="100" viewBox="0 0 100 100" fill="none" xmlns="http://www.w3.org/2000/svg">
<g clip-path="url(#clip0_18_451)">
<path d="M82.7272 87.7959H69.7728L70.6819 76.9686H64.3181L63.4091 87.7959H36.5909L35.6816 76.9686H29.3184L30.2278 87.7959H17.2725L10 40.8784L28.1819 12.0066H71.8181L90 40.8784L82.7272 87.7959ZM68.1819 26.4425H56.4934L57.2728 31.8562H42.7272L43.5066 26.4425H31.8181L24.5453 40.8787L28.1819 69.7505H71.8181L75.4547 40.8787L68.1819 26.4425ZM61.8181 60.1688C60.8141 60.1688 60 57.1634 60 53.4562C60 49.7487 60.8141 46.7433 61.8181 46.7433C62.8222 46.7433 63.6363 49.7487 63.6363 53.4562C63.6363 57.1634 62.8222 60.1688 61.8181 60.1688ZM38.8637 60.7283C37.8597 60.7283 37.0453 57.7229 37.0453 54.0154C37.0453 50.3082 37.8597 47.3028 38.8637 47.3028C39.8678 47.3028 40.6819 50.3082 40.6819 54.0154C40.6819 57.7229 39.8678 60.7283 38.8637 60.7283Z" fill="#444444"/>
</g>
<defs>
<clipPath id="clip0_18_451">
<rect width="80" height="76" fill="white" transform="translate(10 12)"/>
</clipPath>
</defs>
</svg>
