<svg width="100" height="100" viewBox="0 0 100 100" fill="none" xmlns="http://www.w3.org/2000/svg">
<rect y="21" width="100" height="58" rx="2" fill="#F8F8F8"/>
<path d="M23.0987 38.7308H20.3288C20.2223 38.139 20.024 37.6181 19.734 37.1683C19.444 36.7185 19.0889 36.3368 18.6687 36.0231C18.2485 35.7094 17.7779 35.4727 17.2571 35.3129C16.7422 35.1531 16.1947 35.0732 15.6147 35.0732C14.5671 35.0732 13.629 35.3365 12.8004 35.8633C11.9777 36.39 11.3267 37.1624 10.8473 38.1804C10.3738 39.1984 10.1371 40.4413 10.1371 41.9091C10.1371 43.3887 10.3738 44.6375 10.8473 45.6555C11.3267 46.6735 11.9807 47.4429 12.8093 47.9638C13.6379 48.4846 14.5701 48.745 15.6058 48.745C16.1799 48.745 16.7244 48.6681 17.2393 48.5142C17.7602 48.3544 18.2307 48.1206 18.6509 47.8129C19.0711 47.5051 19.4263 47.1293 19.7163 46.6854C20.0122 46.2356 20.2164 45.7206 20.3288 45.1406L23.0987 45.1495C22.9508 46.0432 22.6637 46.8659 22.2376 47.6175C21.8174 48.3633 21.2758 49.0084 20.6129 49.5529C19.956 50.0915 19.2043 50.5088 18.358 50.8047C17.5116 51.1006 16.5883 51.2486 15.5881 51.2486C14.0137 51.2486 12.611 50.8757 11.38 50.13C10.1489 49.3783 9.17827 48.3041 8.46804 46.9073C7.76373 45.5105 7.41158 43.8445 7.41158 41.9091C7.41158 39.9678 7.76669 38.3017 8.47692 36.9109C9.18714 35.5141 10.1578 34.4428 11.3888 33.6971C12.6199 32.9454 14.0196 32.5696 15.5881 32.5696C16.5528 32.5696 17.4524 32.7087 18.2869 32.9869C19.1274 33.2591 19.882 33.6616 20.5508 34.1942C21.2196 34.721 21.773 35.3661 22.2109 36.1296C22.6489 36.8872 22.9448 37.7543 23.0987 38.7308ZM28.8227 32.8182V51H26.1682V32.8182H28.8227ZM38.271 51.2752C36.9274 51.2752 35.7704 50.9882 34.7997 50.4141C33.835 49.834 33.0893 49.0202 32.5625 47.9727C32.0417 46.9192 31.7812 45.6851 31.7812 44.2706C31.7812 42.8738 32.0417 41.6428 32.5625 40.5774C33.0893 39.5121 33.8232 38.6805 34.7642 38.0827C35.7112 37.485 36.8179 37.1861 38.0845 37.1861C38.8539 37.1861 39.5997 37.3133 40.3217 37.5678C41.0438 37.8223 41.6919 38.2218 42.266 38.7663C42.8401 39.3108 43.2929 40.0181 43.6243 40.8881C43.9557 41.7522 44.1214 42.8028 44.1214 44.0398V44.9808H33.2816V42.9922H41.5202C41.5202 42.2938 41.3782 41.6753 41.0941 41.1367C40.81 40.5922 40.4105 40.1631 39.8956 39.8494C39.3866 39.5357 38.7888 39.3789 38.1023 39.3789C37.3565 39.3789 36.7055 39.5624 36.1491 39.9293C35.5987 40.2904 35.1726 40.7638 34.8707 41.3498C34.5748 41.9298 34.4268 42.5601 34.4268 43.2408V44.7944C34.4268 45.7058 34.5866 46.4812 34.9062 47.1204C35.2318 47.7596 35.6845 48.2479 36.2646 48.5852C36.8446 48.9167 37.5223 49.0824 38.2976 49.0824C38.8007 49.0824 39.2594 49.0114 39.6737 48.8693C40.088 48.7214 40.446 48.5024 40.7479 48.2124C41.0497 47.9223 41.2805 47.5643 41.4403 47.1381L43.9528 47.5909C43.7515 48.3307 43.3905 48.9788 42.8697 49.5352C42.3548 50.0856 41.7067 50.5147 40.9254 50.8224C40.1501 51.1243 39.2653 51.2752 38.271 51.2752ZM51.0351 51.3018C50.171 51.3018 49.3897 51.142 48.6913 50.8224C47.9929 50.4969 47.4395 50.0264 47.0312 49.4109C46.6287 48.7953 46.4275 48.0407 46.4275 47.147C46.4275 46.3776 46.5754 45.7443 46.8714 45.2472C47.1673 44.75 47.5668 44.3564 48.0699 44.0664C48.5729 43.7764 49.1352 43.5574 49.7567 43.4094C50.3781 43.2615 51.0114 43.149 51.6565 43.0721C52.4733 42.9774 53.1362 42.9004 53.6452 42.8413C54.1541 42.7762 54.5241 42.6726 54.7549 42.5305C54.9857 42.3885 55.1011 42.1577 55.1011 41.8381V41.7759C55.1011 41.0006 54.8821 40.3999 54.4442 39.9737C54.0121 39.5476 53.367 39.3345 52.5088 39.3345C51.6151 39.3345 50.9108 39.5328 50.3959 39.9293C49.8869 40.32 49.5347 40.755 49.3394 41.2344L46.8447 40.6662C47.1407 39.8376 47.5727 39.1688 48.1409 38.6598C48.715 38.1449 49.3749 37.772 50.1206 37.5412C50.8664 37.3045 51.6506 37.1861 52.4733 37.1861C53.0178 37.1861 53.5948 37.2512 54.2045 37.3814C54.82 37.5057 55.3941 37.7365 55.9268 38.0739C56.4653 38.4112 56.9063 38.8936 57.2496 39.521C57.5928 40.1424 57.7645 40.9503 57.7645 41.9446V51H55.1721V49.1357H55.0656C54.894 49.4789 54.6365 49.8163 54.2932 50.1477C53.95 50.4792 53.509 50.7544 52.9704 50.9734C52.4318 51.1924 51.7867 51.3018 51.0351 51.3018ZM51.6121 49.1712C52.346 49.1712 52.9734 49.0262 53.4942 48.7362C54.021 48.4461 54.4205 48.0674 54.6927 47.5998C54.9709 47.1263 55.11 46.6203 55.11 46.0817V44.3239C55.0153 44.4186 54.8318 44.5073 54.5596 44.5902C54.2932 44.6671 53.9884 44.7352 53.6452 44.7944C53.3019 44.8477 52.9675 44.898 52.642 44.9453C52.3164 44.9867 52.0442 45.0223 51.8252 45.0518C51.3103 45.117 50.8398 45.2264 50.4136 45.3803C49.9934 45.5342 49.656 45.7562 49.4015 46.0462C49.153 46.3303 49.0287 46.709 49.0287 47.1825C49.0287 47.8395 49.2713 48.3366 49.7567 48.674C50.242 49.0054 50.8605 49.1712 51.6121 49.1712ZM63.9545 42.9034V51H61.3001V37.3636H63.848V39.5831H64.0167C64.3304 38.861 64.8216 38.281 65.4904 37.843C66.1651 37.4051 67.0144 37.1861 68.0384 37.1861C68.9676 37.1861 69.7814 37.3814 70.4798 37.772C71.1781 38.1567 71.7197 38.7308 72.1044 39.4943C72.4891 40.2578 72.6815 41.2018 72.6815 42.3263V51H70.027V42.646C70.027 41.6576 69.7695 40.8852 69.2546 40.3288C68.7397 39.7666 68.0324 39.4854 67.1328 39.4854C66.5173 39.4854 65.9698 39.6186 65.4904 39.8849C65.0169 40.1513 64.6411 40.5419 64.3629 41.0568C64.0907 41.5658 63.9545 42.1813 63.9545 42.9034Z" fill="#262626"/>
<path d="M8.97301 70H6.32812L9.76349 59.8182H13.0398L16.4751 70H13.8303L11.4389 62.3835H11.3594L8.97301 70ZM8.62003 65.9929H14.1484V67.8622H8.62003V65.9929ZM17.5714 70V62.3636H19.9329V63.7557H20.0124C20.1516 63.2519 20.3787 62.8774 20.6935 62.6321C21.0084 62.3835 21.3746 62.2592 21.7923 62.2592C21.9049 62.2592 22.021 62.2675 22.1403 62.2841C22.2596 62.2973 22.3706 62.3189 22.4734 62.3487V64.4616C22.3574 64.4219 22.2049 64.3904 22.016 64.3672C21.8304 64.344 21.6647 64.3324 21.5188 64.3324C21.2305 64.3324 20.9703 64.397 20.7383 64.5263C20.5096 64.6522 20.329 64.8295 20.1964 65.0582C20.0671 65.2836 20.0025 65.5488 20.0025 65.8537V70H17.5714ZM26.6321 70.1442C25.8267 70.1442 25.1357 69.9785 24.5589 69.647C23.9856 69.3156 23.5447 68.8549 23.2365 68.2649C22.9283 67.6716 22.7741 66.9856 22.7741 66.2067C22.7741 65.4245 22.9283 64.7384 23.2365 64.1484C23.5481 63.5552 23.9905 63.0928 24.5639 62.7614C25.1406 62.4299 25.8284 62.2642 26.6271 62.2642C27.3331 62.2642 27.9479 62.3918 28.4716 62.647C28.9986 62.9022 29.4096 63.2635 29.7045 63.7308C30.0028 64.1948 30.1603 64.7401 30.1768 65.3665H27.9048C27.8584 64.9754 27.7259 64.6688 27.5071 64.4467C27.2917 64.2247 27.0099 64.1136 26.6619 64.1136C26.3802 64.1136 26.1333 64.1932 25.9212 64.3523C25.709 64.508 25.5433 64.7401 25.424 65.0483C25.308 65.3532 25.25 65.7311 25.25 66.1818C25.25 66.6326 25.308 67.0137 25.424 67.3253C25.5433 67.6335 25.709 67.8672 25.9212 68.0263C26.1333 68.1821 26.3802 68.2599 26.6619 68.2599C26.8873 68.2599 27.0862 68.2119 27.2585 68.1158C27.4342 68.0196 27.5784 67.8788 27.6911 67.6932C27.8037 67.5043 27.875 67.2756 27.9048 67.0071H30.1768C30.1536 67.6368 29.9962 68.187 29.7045 68.6577C29.4162 69.1283 29.0102 69.4946 28.4865 69.7564C27.9661 70.0149 27.348 70.1442 26.6321 70.1442ZM33.8521 65.6449V70H31.421V59.8182H33.7725V63.7656H33.8571C34.0294 63.295 34.3111 62.9271 34.7022 62.6619C35.0967 62.3968 35.5789 62.2642 36.149 62.2642C36.6859 62.2642 37.1532 62.3835 37.551 62.6222C37.9487 62.8575 38.2569 63.1906 38.4757 63.6214C38.6977 64.0523 38.8071 64.5561 38.8038 65.1328V70H36.3727V65.6101C36.376 65.1858 36.2699 64.8544 36.0545 64.6158C35.8391 64.3771 35.5358 64.2578 35.1447 64.2578C34.8895 64.2578 34.6641 64.3142 34.4686 64.4268C34.2763 64.5362 34.1255 64.6937 34.0162 64.8991C33.9101 65.1046 33.8554 65.3532 33.8521 65.6449ZM40.3214 70V62.3636H42.7525V70H40.3214ZM41.5394 61.4737C41.198 61.4737 40.9047 61.361 40.6594 61.1357C40.4142 60.907 40.2915 60.6319 40.2915 60.3104C40.2915 59.9922 40.4142 59.7204 40.6594 59.495C40.9047 59.2663 41.198 59.152 41.5394 59.152C41.8841 59.152 42.1774 59.2663 42.4194 59.495C42.6647 59.7204 42.7873 59.9922 42.7873 60.3104C42.7873 60.6319 42.6647 60.907 42.4194 61.1357C42.1774 61.361 41.8841 61.4737 41.5394 61.4737ZM48.6103 62.3636V64.1534H43.7928V62.3636H48.6103ZM44.802 60.5341H47.2331V67.5987C47.2331 67.7479 47.2563 67.8688 47.3027 67.9616C47.3525 68.0511 47.4237 68.1158 47.5165 68.1555C47.6093 68.192 47.7203 68.2102 47.8496 68.2102C47.9424 68.2102 48.0402 68.2019 48.1429 68.1854C48.249 68.1655 48.3285 68.1489 48.3816 68.1357L48.7495 69.8906C48.6335 69.9238 48.4694 69.9652 48.2573 70.0149C48.0485 70.0646 47.7982 70.0961 47.5066 70.1094C46.9365 70.1359 46.4476 70.0696 46.04 69.9105C45.6356 69.7481 45.3257 69.4962 45.1103 69.1548C44.8981 68.8134 44.7954 68.3842 44.802 67.8672V60.5341ZM53.3382 70.1442C52.5395 70.1442 51.8501 69.9867 51.2701 69.6719C50.6934 69.3537 50.2492 68.9013 49.9377 68.3146C49.6294 67.7247 49.4753 67.0237 49.4753 66.2116C49.4753 65.4228 49.6311 64.7334 49.9426 64.1435C50.2542 63.5502 50.6934 63.0895 51.2601 62.7614C51.8269 62.4299 52.4947 62.2642 53.2637 62.2642C53.8072 62.2642 54.3044 62.3487 54.7551 62.5178C55.2059 62.6868 55.5953 62.937 55.9235 63.2685C56.2516 63.5999 56.5068 64.0092 56.6891 64.4964C56.8714 64.9804 56.9625 65.5355 56.9625 66.1619V66.7685H50.3255V65.3565H54.7005C54.6971 65.098 54.6358 64.8677 54.5165 64.6655C54.3972 64.4633 54.2331 64.3059 54.0243 64.1932C53.8188 64.0772 53.5819 64.0192 53.3134 64.0192C53.0416 64.0192 52.798 64.0805 52.5826 64.2031C52.3671 64.3224 52.1964 64.4865 52.0705 64.6953C51.9445 64.9008 51.8783 65.1345 51.8716 65.3963V66.8331C51.8716 67.1446 51.9329 67.4181 52.0556 67.6534C52.1782 67.8854 52.3522 68.0661 52.5776 68.1953C52.803 68.3246 53.0714 68.3892 53.383 68.3892C53.5984 68.3892 53.794 68.3594 53.9696 68.2997C54.1453 68.2401 54.2961 68.1522 54.4221 68.0362C54.548 67.9202 54.6425 67.7777 54.7054 67.6087L56.9377 67.6733C56.8449 68.1738 56.641 68.6096 56.3262 68.9808C56.0146 69.3487 55.6053 69.6354 55.0982 69.8409C54.5911 70.0431 54.0044 70.1442 53.3382 70.1442ZM61.7688 70.1442C60.9634 70.1442 60.2724 69.9785 59.6957 69.647C59.1223 69.3156 58.6815 68.8549 58.3732 68.2649C58.065 67.6716 57.9109 66.9856 57.9109 66.2067C57.9109 65.4245 58.065 64.7384 58.3732 64.1484C58.6848 63.5552 59.1272 63.0928 59.7006 62.7614C60.2773 62.4299 60.9651 62.2642 61.7638 62.2642C62.4698 62.2642 63.0846 62.3918 63.6083 62.647C64.1353 62.9022 64.5463 63.2635 64.8413 63.7308C65.1396 64.1948 65.297 64.7401 65.3136 65.3665H63.0415C62.9951 64.9754 62.8626 64.6688 62.6438 64.4467C62.4284 64.2247 62.1467 64.1136 61.7987 64.1136C61.5169 64.1136 61.27 64.1932 61.0579 64.3523C60.8458 64.508 60.68 64.7401 60.5607 65.0483C60.4447 65.3532 60.3867 65.7311 60.3867 66.1818C60.3867 66.6326 60.4447 67.0137 60.5607 67.3253C60.68 67.6335 60.8458 67.8672 61.0579 68.0263C61.27 68.1821 61.5169 68.2599 61.7987 68.2599C62.024 68.2599 62.2229 68.2119 62.3952 68.1158C62.5709 68.0196 62.7151 67.8788 62.8278 67.6932C62.9405 67.5043 63.0117 67.2756 63.0415 67.0071H65.3136C65.2904 67.6368 65.1329 68.187 64.8413 68.6577C64.5529 69.1283 64.1469 69.4946 63.6232 69.7564C63.1029 70.0149 62.4847 70.1442 61.7688 70.1442ZM70.8681 62.3636V64.1534H66.0506V62.3636H70.8681ZM67.0598 60.5341H69.4909V67.5987C69.4909 67.7479 69.5141 67.8688 69.5605 67.9616C69.6103 68.0511 69.6815 68.1158 69.7743 68.1555C69.8671 68.192 69.9782 68.2102 70.1074 68.2102C70.2002 68.2102 70.298 68.2019 70.4007 68.1854C70.5068 68.1655 70.5864 68.1489 70.6394 68.1357L71.0073 69.8906C70.8913 69.9238 70.7272 69.9652 70.5151 70.0149C70.3063 70.0646 70.056 70.0961 69.7644 70.1094C69.1943 70.1359 68.7054 70.0696 68.2978 69.9105C67.8934 69.7481 67.5835 69.4962 67.3681 69.1548C67.156 68.8134 67.0532 68.3842 67.0598 67.8672V60.5341ZM77.0353 66.7038V62.3636H79.4615V70H77.1447V68.5781H77.0652C76.8961 69.0455 76.6078 69.4167 76.2001 69.6918C75.7958 69.9635 75.3069 70.0994 74.7335 70.0994C74.2131 70.0994 73.7557 69.9801 73.3613 69.7415C72.9669 69.5028 72.6603 69.1697 72.4416 68.7422C72.2228 68.3113 72.1118 67.8075 72.1085 67.2308V62.3636H74.5396V66.7536C74.5429 67.1679 74.6523 67.4943 74.8677 67.733C75.0832 67.9716 75.3765 68.0909 75.7477 68.0909C75.9896 68.0909 76.2067 68.0379 76.399 67.9318C76.5945 67.8224 76.7486 67.665 76.8613 67.4595C76.9773 67.2507 77.0353 66.9988 77.0353 66.7038ZM81.0089 70V62.3636H83.3704V63.7557H83.4499C83.5891 63.2519 83.8162 62.8774 84.131 62.6321C84.4459 62.3835 84.8121 62.2592 85.2298 62.2592C85.3424 62.2592 85.4585 62.2675 85.5778 62.2841C85.6971 62.2973 85.8081 62.3189 85.9109 62.3487V64.4616C85.7949 64.4219 85.6424 64.3904 85.4535 64.3672C85.2679 64.344 85.1022 64.3324 84.9563 64.3324C84.668 64.3324 84.4078 64.397 84.1758 64.5263C83.9471 64.6522 83.7665 64.8295 83.6339 65.0582C83.5046 65.2836 83.44 65.5488 83.44 65.8537V70H81.0089ZM90.0746 70.1442C89.2758 70.1442 88.5864 69.9867 88.0064 69.6719C87.4297 69.3537 86.9856 68.9013 86.674 68.3146C86.3658 67.7247 86.2116 67.0237 86.2116 66.2116C86.2116 65.4228 86.3674 64.7334 86.679 64.1435C86.9905 63.5502 87.4297 63.0895 87.9964 62.7614C88.5632 62.4299 89.2311 62.2642 90 62.2642C90.5436 62.2642 91.0407 62.3487 91.4915 62.5178C91.9422 62.6868 92.3317 62.937 92.6598 63.2685C92.9879 63.5999 93.2431 64.0092 93.4254 64.4964C93.6077 64.9804 93.6989 65.5355 93.6989 66.1619V66.7685H87.0618V65.3565H91.4368C91.4335 65.098 91.3722 64.8677 91.2528 64.6655C91.1335 64.4633 90.9695 64.3059 90.7607 64.1932C90.5552 64.0772 90.3182 64.0192 90.0497 64.0192C89.7779 64.0192 89.5343 64.0805 89.3189 64.2031C89.1035 64.3224 88.9328 64.4865 88.8068 64.6953C88.6809 64.9008 88.6146 65.1345 88.608 65.3963V66.8331C88.608 67.1446 88.6693 67.4181 88.7919 67.6534C88.9145 67.8854 89.0885 68.0661 89.3139 68.1953C89.5393 68.3246 89.8078 68.3892 90.1193 68.3892C90.3348 68.3892 90.5303 68.3594 90.706 68.2997C90.8816 68.2401 91.0324 68.1522 91.1584 68.0362C91.2843 67.9202 91.3788 67.7777 91.4418 67.6087L93.674 67.6733C93.5812 68.1738 93.3774 68.6096 93.0625 68.9808C92.7509 69.3487 92.3416 69.6354 91.8345 69.8409C91.3274 70.0431 90.7408 70.1442 90.0746 70.1442Z" fill="#9A2928"/>
</svg>
