<svg width="100" height="100" viewBox="0 0 100 100" fill="none" xmlns="http://www.w3.org/2000/svg">
<rect x="5" y="5" width="90" height="90" rx="5" fill="#F8F8F8"/>
<path d="M10.1491 38.2727H16.5966L23.4062 54.8864H23.696L30.5057 38.2727H36.9531V63H31.8821V46.9055H31.6768L25.2777 62.8793H21.8246L15.4254 46.8452H15.2202V63H10.1491V38.2727Z" fill="#00AFFF"/>
<path d="M45.7278 38.2727L51.7044 57.0597H51.9338L57.9224 38.2727H63.7179L55.1937 63H48.4565L39.9203 38.2727H45.7278Z" fill="#FFE052"/>
<path d="M88.5115 46.9297H83.2232C83.1266 46.2455 82.9294 45.6378 82.6316 45.1065C82.3337 44.5672 81.9514 44.1084 81.4846 43.7301C81.0177 43.3518 80.4784 43.062 79.8667 42.8608C79.263 42.6596 78.6069 42.5589 77.8986 42.5589C76.6188 42.5589 75.504 42.8769 74.5542 43.5128C73.6043 44.1406 72.8678 45.0582 72.3446 46.2656C71.8214 47.465 71.5598 48.9219 71.5598 50.6364C71.5598 52.3991 71.8214 53.8802 72.3446 55.0795C72.8759 56.2789 73.6164 57.1844 74.5662 57.7962C75.516 58.4079 76.6148 58.7138 77.8624 58.7138C78.5627 58.7138 79.2106 58.6212 79.8063 58.4361C80.41 58.2509 80.9453 57.9813 81.4121 57.6271C81.879 57.2649 82.2653 56.8262 82.5712 56.3111C82.8851 55.7959 83.1025 55.2083 83.2232 54.5483L88.5115 54.5724C88.3747 55.7074 88.0326 56.8021 87.4853 57.8565C86.946 58.9029 86.2175 59.8407 85.2999 60.6697C84.3903 61.4908 83.3037 62.1428 82.04 62.6257C80.7843 63.1006 79.3636 63.3381 77.7779 63.3381C75.5724 63.3381 73.6003 62.839 71.8617 61.8409C70.1311 60.8428 68.7627 59.398 67.7566 57.5064C66.7585 55.6148 66.2594 53.3248 66.2594 50.6364C66.2594 47.9399 66.7665 45.6458 67.7807 43.7543C68.7949 41.8627 70.1713 40.4219 71.91 39.4318C73.6486 38.4337 75.6046 37.9347 77.7779 37.9347C79.2106 37.9347 80.5388 38.1359 81.7623 38.5384C82.9938 38.9408 84.0845 39.5284 85.0343 40.3011C85.9841 41.0658 86.7568 42.0036 87.3525 43.1143C87.9561 44.2251 88.3425 45.4969 88.5115 46.9297Z" fill="#4771DE"/>
</svg>
