<svg width="100" height="100" viewBox="0 0 100 100" fill="none" xmlns="http://www.w3.org/2000/svg">
<g clip-path="url(#clip0_18_463)">
<path d="M47.0508 11.0156C49.0258 9.88506 51.5983 9.87996 53.5716 11.0156C63.4993 16.6252 73.4301 22.2261 83.356 27.8391C85.223 28.8907 86.4718 30.9685 86.4528 33.1197V66.8695C86.4667 69.1097 85.0945 71.2371 83.1248 72.2649C73.2298 77.8436 63.3399 83.4292 53.4465 89.0079C51.4306 90.1605 48.8065 90.0717 46.8536 88.8246C43.8871 87.1049 40.9155 85.3937 37.9487 83.6757C37.3424 83.3143 36.659 83.0266 36.2309 82.4388C36.6094 81.9288 37.286 81.8652 37.8357 81.6425C39.074 81.2487 40.2113 80.6167 41.3489 80.0034C41.6366 79.8065 41.9878 79.8819 42.2635 80.0581C44.8003 81.5126 47.3146 83.0093 49.8599 84.4499C50.4028 84.7634 50.9526 84.3472 51.4167 84.0885C61.1268 78.6005 70.8488 73.1333 80.5572 67.6436C80.9169 67.4706 81.1157 67.0888 81.0865 66.6947C81.0933 55.5614 81.0882 44.4261 81.0899 33.2927C81.1311 32.8456 80.8723 32.4346 80.4681 32.2516C70.6074 26.6984 60.7518 21.1367 50.8928 15.5821C50.722 15.4647 50.5196 15.4016 50.3123 15.4013C50.105 15.401 49.9025 15.4635 49.7313 15.5804C39.8723 21.1367 30.0184 26.7035 20.1594 32.2564C19.7566 32.4397 19.4862 32.8439 19.5342 33.2927C19.5359 44.4261 19.5342 55.5614 19.5342 66.6964C19.5171 66.8887 19.5593 67.0816 19.6552 67.2491C19.751 67.4166 19.8959 67.5508 20.0704 67.6334C22.7013 69.1253 25.3356 70.6068 27.9682 72.0936C29.4513 72.8919 31.2723 73.3662 32.9064 72.7546C34.3484 72.2374 35.3591 70.7659 35.3316 69.2348C35.3452 58.1665 35.3248 47.0964 35.3418 36.0297C35.3058 35.5384 35.7719 35.1324 36.2496 35.1787C37.5138 35.1702 38.7796 35.1617 40.0437 35.1821C40.5713 35.1702 40.9345 35.6992 40.8692 36.1943C40.8641 47.3327 40.8828 58.4714 40.8607 69.6099C40.8641 72.5784 39.6445 75.8085 36.8987 77.2609C33.516 79.0133 29.335 78.6417 25.9932 76.9614C23.1001 75.5174 20.3393 73.8133 17.4976 72.2663C15.5228 71.2442 14.1574 69.1083 14.1713 66.8697V33.1197C14.1506 30.9239 15.4491 28.8085 17.3742 27.7722C27.2675 22.1889 37.1591 16.6014 47.0508 11.0156Z" fill="#8CC84B"/>
<path d="M55.6817 34.3942C59.9966 34.1165 64.6159 34.2296 68.4987 36.3553C71.505 37.9843 73.1716 41.403 73.2247 44.7428C73.1407 45.1933 72.6698 45.4418 72.2397 45.4109C70.9878 45.4092 69.7356 45.4279 68.4837 45.4024C67.9526 45.4228 67.644 44.9332 67.5773 44.4637C67.2176 42.8657 66.3461 41.283 64.842 40.5122C62.5331 39.3562 59.8559 39.4143 57.3382 39.4384C55.5001 39.536 53.5237 39.6952 51.9665 40.776C50.7711 41.5948 50.4079 43.2475 50.8346 44.5786C51.2369 45.5343 52.3401 45.8427 53.2428 46.127C58.4428 47.487 63.9532 47.3516 69.0539 49.1414C71.1657 49.8711 73.2315 51.2895 73.9543 53.5006C74.8999 56.464 74.4854 60.0061 72.377 62.3851C70.6672 64.3428 68.177 65.4084 65.6933 65.9871C62.3892 66.7238 58.9603 66.7426 55.6048 66.4155C52.4496 66.0557 49.1662 65.2268 46.7305 63.077C44.6477 61.2685 43.6304 58.4506 43.7313 55.7309C43.7555 55.2716 44.2128 54.9514 44.6528 54.9891C45.9135 54.9789 47.1742 54.9755 48.4349 54.9908C48.9384 54.9548 49.3118 55.3899 49.3376 55.8645C49.5702 57.3871 50.1424 58.9851 51.4701 59.8878C54.0323 61.5409 57.2474 61.4277 60.1813 61.4739C62.6119 61.3661 65.3404 61.3335 67.324 59.727C68.3705 58.8106 68.6806 57.2776 68.3977 55.9587C68.0914 54.8453 66.9265 54.3264 65.9262 53.9871C60.7929 52.3633 55.221 52.9525 50.1373 51.1162C48.0735 50.3868 46.0777 49.0078 45.2848 46.8875C44.1784 43.8867 44.6854 40.1749 47.0148 37.8762C49.286 35.5896 52.5645 34.7094 55.6817 34.3942Z" fill="#8CC84B"/>
</g>
<defs>
<clipPath id="clip0_18_463">
<rect width="72.64" height="80" fill="white" transform="translate(14 10)"/>
</clipPath>
</defs>
</svg>
