<svg width="100" height="100" viewBox="0 0 100 100" fill="none" xmlns="http://www.w3.org/2000/svg">
<g clip-path="url(#clip0_18_454)">
<path d="M85.208 50.007C85.208 45.3561 79.3836 40.9484 70.4537 38.2151C72.5145 29.1135 71.5986 21.8723 67.563 19.554C66.6328 19.0102 65.5452 18.7526 64.3574 18.7526V21.9439C65.0157 21.9439 65.5452 22.0727 65.9888 22.3159C67.9351 23.4322 68.7794 27.6824 68.1211 33.1491C67.9637 34.4943 67.7061 35.911 67.3912 37.3564C64.5864 36.6695 61.5239 36.14 58.304 35.7966C56.3721 33.1491 54.3686 30.7449 52.3508 28.6412C57.016 24.3051 61.3951 21.9296 64.3717 21.9296V18.7383C60.4363 18.7383 55.2845 21.5432 50.0754 26.4088C44.8663 21.5718 39.7145 18.7955 35.779 18.7955V21.9868C38.7414 21.9868 43.1347 24.3481 47.8 28.6556C45.7965 30.7592 43.793 33.1491 41.8897 35.7966C38.6555 36.14 35.593 36.6695 32.7881 37.3707C32.459 35.9397 32.2157 34.5515 32.044 33.2206C31.3714 27.754 32.2014 23.5037 34.1333 22.3732C34.5626 22.1156 35.1208 22.0011 35.779 22.0011V18.8098C34.577 18.8098 33.4893 19.0674 32.5448 19.6112C28.5236 21.9296 27.622 29.1564 29.697 38.2294C20.7958 40.977 15 45.3704 15 50.007C15 54.658 20.8244 59.0657 29.7543 61.799C27.6935 70.9006 28.6094 78.1417 32.645 80.4601C33.5752 81.0039 34.6628 81.2615 35.8649 81.2615C39.8003 81.2615 44.9522 78.4566 50.1612 73.591C55.3703 78.428 60.5221 81.2042 64.4576 81.2042C65.6597 81.2042 66.7473 80.9466 67.6918 80.4028C71.7131 78.0845 72.6146 70.8576 70.5396 61.7847C79.4122 59.0513 85.208 54.6437 85.208 50.007ZM66.5755 40.4618C66.046 42.3079 65.3878 44.2112 64.6436 46.1145C64.0569 44.9697 63.4415 43.8248 62.7689 42.68C62.1106 41.5351 61.4094 40.4189 60.7082 39.3313C62.7403 39.6318 64.7008 40.0039 66.5755 40.4618ZM60.0213 55.7027C58.905 57.6346 57.7602 59.4664 56.5724 61.1693C54.4401 61.3554 52.2792 61.4555 50.104 61.4555C47.9431 61.4555 45.7822 61.3554 43.6642 61.1836C42.4764 59.4807 41.3173 57.6632 40.201 55.7456C39.1134 53.8709 38.126 51.9676 37.2244 50.05C38.1117 48.1323 39.1134 46.2147 40.1867 44.34C41.303 42.4081 42.4478 40.5763 43.6356 38.8733C45.7679 38.6873 47.9288 38.5871 50.104 38.5871C52.2649 38.5871 54.4258 38.6873 56.5438 38.859C57.7316 40.562 58.8907 42.3795 60.007 44.2971C61.0946 46.1718 62.082 48.0751 62.9836 49.9927C62.082 51.9103 61.0946 53.828 60.0213 55.7027ZM64.6436 53.8423C65.4164 55.7599 66.0747 57.6775 66.6185 59.5379C64.7438 59.9959 62.7689 60.3822 60.7225 60.6828C61.4237 59.5808 62.1249 58.4503 62.7832 57.2911C63.4415 56.1463 64.0569 54.9871 64.6436 53.8423ZM50.1326 69.1117C48.8017 67.7379 47.4708 66.2067 46.1543 64.5323C47.4422 64.5896 48.7588 64.6325 50.0897 64.6325C51.4349 64.6325 52.7658 64.6039 54.068 64.5323C52.7801 66.2067 51.4492 67.7379 50.1326 69.1117ZM39.4855 60.6828C37.4534 60.3822 35.4928 60.0102 33.6181 59.5522C34.1476 57.7062 34.8059 55.8028 35.5501 53.8995C36.1368 55.0444 36.7522 56.1892 37.4248 57.3341C38.0974 58.4789 38.7843 59.5952 39.4855 60.6828ZM50.0611 30.9023C51.392 32.2761 52.7228 33.8074 54.0394 35.4817C52.7515 35.4245 51.4349 35.3816 50.104 35.3816C48.7588 35.3816 47.4279 35.4102 46.1256 35.4817C47.4136 33.8074 48.7445 32.2761 50.0611 30.9023ZM39.4712 39.3313C38.77 40.4332 38.0688 41.5638 37.4105 42.7229C36.7522 43.8678 36.1368 45.0126 35.5501 46.1575C34.7773 44.2398 34.119 42.3222 33.5752 40.4618C35.4499 40.0182 37.4248 39.6318 39.4712 39.3313ZM26.5201 57.2482C21.4541 55.0873 18.177 52.2538 18.177 50.007C18.177 47.7603 21.4541 44.9124 26.5201 42.7658C27.7508 42.2363 29.096 41.7641 30.4841 41.3205C31.2998 44.1254 32.3731 47.0447 33.704 50.0356C32.3874 53.0123 31.3284 55.9173 30.527 58.7079C29.1103 58.2643 27.7651 57.7777 26.5201 57.2482ZM34.2192 77.6981C32.2729 76.5819 31.4286 72.3316 32.0869 66.865C32.2443 65.5198 32.5019 64.103 32.8167 62.6576C35.6216 63.3445 38.6841 63.874 41.904 64.2175C43.8359 66.865 45.8394 69.2691 47.8572 71.3728C43.192 75.7089 38.8129 78.0845 35.8363 78.0845C35.1923 78.0702 34.6485 77.9414 34.2192 77.6981ZM68.164 66.7934C68.8366 72.2601 68.0066 76.5103 66.0747 77.6409C65.6454 77.8985 65.0872 78.0129 64.4289 78.0129C61.4666 78.0129 57.0733 75.6517 52.408 71.3442C54.4115 69.2405 56.415 66.8506 58.3183 64.2032C61.5525 63.8597 64.615 63.3302 67.4199 62.629C67.749 64.0744 68.0066 65.4625 68.164 66.7934ZM73.6736 57.2482C72.4429 57.7777 71.0977 58.25 69.7096 58.6936C68.8939 55.8887 67.8206 52.9693 66.4897 49.9784C67.8063 47.0018 68.8652 44.0967 69.6666 41.3062C71.0834 41.7498 72.4286 42.2363 73.6879 42.7658C78.7539 44.9267 82.031 47.7603 82.031 50.007C82.0167 52.2538 78.7396 55.1016 73.6736 57.2482Z" fill="#61DAFB"/>
<path d="M50.0897 56.5472C53.7016 56.5472 56.6297 53.6192 56.6297 50.0072C56.6297 46.3953 53.7016 43.4673 50.0897 43.4673C46.4778 43.4673 43.5497 46.3953 43.5497 50.0072C43.5497 53.6192 46.4778 56.5472 50.0897 56.5472Z" fill="#61DAFB"/>
</g>
<defs>
<clipPath id="clip0_18_454">
<rect width="70.208" height="80" fill="white" transform="translate(15 10)"/>
</clipPath>
</defs>
</svg>
