<svg width="100" height="100" viewBox="0 0 100 100" fill="none" xmlns="http://www.w3.org/2000/svg">
<g clip-path="url(#clip0_18_474)">
<path d="M21.6914 76.0108C20.78 74.6968 24.3954 73.96 25.0487 72.4865C28.3451 66.2733 22.5118 68.8102 20.0356 54.5306C15.296 27.5209 61.5072 27.5209 67.6596 26.3816C73.3259 25.3941 67.5837 17.9277 72.0119 17.9277C73.531 17.9277 72.0119 21.8015 73.531 22.3559C75.0501 22.9104 75.9919 18.8316 77.5566 20.1532C79.6834 21.9534 75.5058 23.6016 76.6452 24.7333C77.4275 25.5688 79.3947 23.9738 80.048 25.0827C81.1873 26.8069 78.0731 27.9538 75.2856 28.44C65.1075 30.149 86.8763 74.6664 51.4887 80.8188C42.131 82.543 37.7408 74.3322 30.8061 78.3578C29.0819 79.3452 27.7679 83.1202 26.7804 81.5631C26.1272 80.5757 27.8438 79.011 26.7804 78.3578C26.0513 77.9477 24.9803 79.7478 24.2283 79.087C23.4764 78.4262 24.4714 77.5679 23.8941 76.8843C23.3169 76.2007 22.2763 76.7931 21.6914 75.95V76.0108ZM35.4394 38.9142C41.0904 34.7898 51.7698 31.4706 49.5291 31.5465C41.7285 31.744 25.831 38.2002 25.2234 48.0516C24.9803 51.0899 29.9858 43.0386 35.5533 38.937L35.4394 38.9142ZM45.268 51.2342C55.4308 37.2964 70.4548 32.2833 68.7382 30.5591C66.6874 28.5083 57.6487 31.2883 57.6487 31.2883C43.6198 36.2254 28.3527 45.4692 27.2666 56.908C26.9476 60.2653 27.9198 66.5847 32.2037 69.2128C35.2419 71.0357 40.2549 58.1157 45.268 51.2342ZM56.3347 73.4131C69.475 68.7267 69.3079 51.6595 67.1735 56.4219C65.0392 61.1843 63.6492 64.8757 59.0463 67.5114C55.4308 69.5622 52.9395 69.8128 48.4505 69.7141C44.7591 69.6382 41.3867 66.6607 40.3233 71.2332C39.2371 76.2691 51.5419 75.1069 56.3195 73.3979L56.3347 73.4131ZM45.7541 64.0554C49.5215 64.7086 61.5984 61.9287 65.7076 47.5503C69.8851 32.7694 67.7584 35.7317 55.6055 48.2795C49.1037 55.0851 43.9236 63.7136 45.8225 64.0326L45.7541 64.0554Z" fill="#048D52"/>
</g>
<defs>
<clipPath id="clip0_18_474">
<rect width="64" height="64" fill="white" transform="translate(18 18)"/>
</clipPath>
</defs>
</svg>
