<svg width="100" height="100" viewBox="0 0 100 100" fill="none" xmlns="http://www.w3.org/2000/svg">
<g clip-path="url(#clip0_18_467)">
<path d="M80.7798 38.9189C80.4019 37.7744 79.412 36.9772 78.1318 36.7859C77.5281 36.6958 76.8368 36.7342 76.0188 36.9029C74.5928 37.1971 73.535 37.3091 72.7629 37.3308C75.6771 32.4107 78.0466 26.8001 79.4107 21.5186C81.6166 12.9786 80.4378 9.08813 79.0604 7.32838C75.4151 2.67051 70.0967 0.168262 63.6806 0.0916975C60.2578 0.0498456 57.2531 0.72563 55.6856 1.2116C54.2262 0.954092 52.657 0.810319 51.0105 0.783731C47.9241 0.734493 45.1971 1.40732 42.8669 2.79016C41.5769 2.35391 39.5065 1.73894 37.1155 1.34651C31.4921 0.423312 26.9597 1.14267 23.6446 3.48465C19.6303 6.32024 17.7693 11.2469 18.1135 18.1279C18.2228 20.3126 19.4449 26.9596 21.3691 33.2635C22.475 36.8869 23.6542 39.8958 24.874 42.2075C26.604 45.4855 28.4551 47.4158 30.5332 48.1091C31.6979 48.4971 33.8141 48.7689 36.0399 46.9151C36.322 47.2568 36.6984 47.5963 37.1979 47.9116C37.8324 48.3117 38.6081 48.6386 39.3829 48.8324C42.1749 49.5303 44.7901 49.3558 47.0213 48.3774C47.0351 48.7743 47.0457 49.1534 47.0546 49.4808C47.0693 50.0119 47.0841 50.5326 47.1035 51.0195C47.2358 54.312 47.4598 56.8721 48.1235 58.6634C48.1599 58.7619 48.2089 58.912 48.2606 59.0713C48.5918 60.0851 49.1454 61.7823 50.5541 63.1115C52.0128 64.4884 53.7772 64.9106 55.3932 64.9106C56.2036 64.9106 56.9769 64.8043 57.6551 64.659C60.0727 64.1408 62.8184 63.3515 64.8047 60.5233C66.6826 57.8497 67.5955 53.8229 67.7606 47.4779C67.7821 47.2984 67.8018 47.127 67.8207 46.9638L67.8601 46.6285L68.3025 46.6674L68.4165 46.675C70.8789 46.7873 73.8897 46.2651 75.7388 45.4062C77.2 44.7282 81.8822 42.2562 80.7798 38.9189Z" fill="black"/>
<path d="M76.5695 39.5677C69.2479 41.078 68.7444 38.5992 68.7444 38.5992C76.4747 27.1285 79.7064 12.5683 76.9178 9.00471C69.3097 -0.716002 56.1399 3.8813 55.92 4.00046L55.8494 4.01326C54.4028 3.71291 52.7841 3.53418 50.9645 3.50439C47.6518 3.45023 45.1387 4.37294 43.2318 5.81905C43.2318 5.81905 19.7381 -3.85957 20.8309 17.9915C21.0633 22.6401 27.4937 53.1651 35.1635 43.9451C37.9668 40.5736 40.6756 37.723 40.6756 37.723C42.0208 38.6166 43.6313 39.0726 45.3197 38.9089L45.4509 38.7976C45.41 39.2161 45.4287 39.6255 45.5033 40.1103C43.5274 42.3178 44.1082 42.7053 40.1584 43.5185C36.1615 44.3422 38.5094 45.8085 40.0424 46.1921C41.9009 46.6566 46.2003 47.3149 49.1053 43.2482L48.9896 43.7122C49.7636 44.3324 50.3072 47.7455 50.2161 50.8398C50.125 53.9339 50.0642 56.0583 50.674 57.7176C51.2843 59.3769 51.8922 63.1103 57.0847 61.9978C61.4233 61.068 63.6717 58.6585 63.9846 54.6393C64.2065 51.782 64.7089 52.2045 64.7404 49.6498L65.1434 48.4405C65.608 44.5672 65.2173 43.3176 67.8902 43.8988L68.5401 43.956C70.5071 44.0453 73.0822 43.6394 74.5936 42.937C77.8477 41.4269 79.7778 38.9052 76.569 39.5677H76.5695Z" fill="#336791"/>
<path d="M44.607 20.0704C43.9472 19.9786 43.3497 20.0635 43.0474 20.2925C42.8775 20.4212 42.8248 20.5704 42.8105 20.6731C42.7726 20.9451 42.9632 21.246 43.0804 21.4011C43.4117 21.8403 43.8957 22.1421 44.3748 22.2086C44.4442 22.2184 44.5134 22.2228 44.5821 22.2228C45.381 22.2228 46.1075 21.6007 46.1715 21.1416C46.2515 20.5665 45.4167 20.1829 44.607 20.0704ZM66.4645 20.0886C66.4015 19.6379 65.5994 19.5094 64.8382 19.6152C64.0779 19.7211 63.3409 20.0643 63.4024 20.516C63.4516 20.8673 64.0861 21.4671 64.8369 21.4671C64.9005 21.4671 64.9645 21.4629 65.029 21.4538C65.5302 21.3843 65.898 21.066 66.0728 20.8826C66.3387 20.6029 66.4928 20.2913 66.4645 20.0886Z" fill="white"/>
<path d="M79.0057 39.3962C78.7266 38.552 77.828 38.2805 76.3351 38.5887C71.9025 39.5035 70.3151 38.8698 69.7939 38.486C73.2393 33.2373 76.0737 26.8926 77.6027 20.973C78.327 18.1689 78.7271 15.5647 78.7598 13.4421C78.796 11.1124 78.3991 9.40045 77.5808 8.35465C74.2814 4.13869 69.4389 1.87721 63.5772 1.81517C59.5473 1.76987 56.1426 2.80115 55.4825 3.09116C54.0926 2.74551 52.5773 2.5333 50.9276 2.50622C47.9024 2.45722 45.2874 3.18151 43.1224 4.65789C42.182 4.30782 39.7516 3.47349 36.7794 2.99465C31.641 2.16746 27.5577 2.79426 24.6439 4.85854C21.1669 7.32189 19.5618 11.7252 19.8727 17.9459C19.9774 20.0387 21.1699 26.477 23.0518 32.6428C25.5289 40.7581 28.2217 45.3522 31.0548 46.2973C31.3864 46.4079 31.7688 46.4852 32.1905 46.4852C33.224 46.4852 34.4911 46.0194 35.8094 44.4344C37.4174 42.5054 39.0808 40.6233 40.7974 38.7903C41.9112 39.3881 43.1347 39.7219 44.3861 39.7554C44.3886 39.7881 44.3918 39.8209 44.3947 39.8534C44.1793 40.1102 43.9684 40.3708 43.762 40.635C42.895 41.7357 42.7145 41.9649 39.9235 42.5395C39.1295 42.7035 37.0209 43.138 36.9899 44.6161C36.9564 46.2311 39.4826 46.9093 39.7704 46.9812C40.7733 47.2323 41.7396 47.3562 42.6611 47.3562C44.9021 47.3562 46.8743 46.6196 48.4504 45.1944C48.4019 50.9517 48.642 56.6249 49.3333 58.3534C49.8995 59.7684 51.2826 63.2266 55.6514 63.2264C56.2925 63.2264 56.9981 63.1518 57.7743 62.9854C62.3339 62.008 64.314 59.9927 65.0799 55.5498C65.4898 53.1753 66.1932 47.5054 66.524 44.464C67.2222 44.6818 68.1211 44.7815 69.0928 44.7813C71.1194 44.7813 73.4579 44.3507 74.9245 43.67C76.5719 42.9048 79.5449 41.0274 79.0057 39.3962ZM68.1474 18.8444C68.1324 19.7423 68.0088 20.5574 67.8778 21.4082C67.7368 22.3233 67.591 23.2694 67.5543 24.4179C67.5181 25.5356 67.6577 26.6976 67.7926 27.8214C68.0654 30.0913 68.3453 32.4281 67.2619 34.7339C67.0819 34.415 66.9216 34.0854 66.7818 33.7469C66.6471 33.4205 66.3547 32.8961 65.9497 32.1703C64.3743 29.3451 60.6852 22.729 62.5737 20.0293C63.1363 19.2258 64.5639 18.3996 68.1474 18.8444ZM63.8037 3.63326C69.0558 3.74922 73.2105 5.71404 76.1519 9.47283C78.408 12.3559 75.9237 25.4745 68.7319 36.792C68.6595 36.7 68.5868 36.6084 68.5137 36.517L68.4226 36.4033C70.2811 33.3341 69.9177 30.2973 69.5942 27.605C69.4613 26.5001 69.3357 25.4566 69.3678 24.4762C69.4007 23.4373 69.5381 22.5461 69.6711 21.6845C69.8343 20.6227 70.0005 19.5239 69.9547 18.2287C69.9889 18.0928 70.0027 17.9323 69.9847 17.7418C69.8678 16.4998 68.4497 12.7826 65.5595 9.41818C63.9785 7.57792 61.6729 5.51857 58.5249 4.12958C59.8789 3.84892 61.7305 3.58723 63.8037 3.63326ZM34.4143 43.2744C32.9618 45.0208 31.9588 44.686 31.6289 44.5762C29.4797 43.8593 26.9858 39.3167 24.7871 32.1132C22.8846 25.8802 21.7728 19.6126 21.6847 17.855C21.407 12.2966 22.7544 8.42284 25.6897 6.34108C30.4667 2.95354 38.3206 4.98114 41.4764 6.00946C41.4311 6.05427 41.3839 6.09612 41.3391 6.14167C36.1603 11.3717 36.2831 20.3073 36.2959 20.8536C36.2954 21.0643 36.3131 21.3627 36.3373 21.7731C36.4264 23.2761 36.5923 26.0733 36.1492 29.2409C35.7376 32.1846 36.645 35.0657 38.6384 37.1458C38.843 37.3588 39.058 37.5616 39.2827 37.7534C38.3954 38.7037 36.467 40.8051 34.4143 43.2744ZM39.9483 35.8905C38.3417 34.2139 37.612 31.882 37.9461 29.4921C38.4139 26.1459 38.2413 23.2315 38.1485 21.6658C38.1354 21.4467 38.1238 21.2546 38.1172 21.1032C38.8737 20.4324 42.3797 18.5539 44.88 19.1268C46.0208 19.388 46.716 20.165 47.0051 21.5013C48.5009 28.4199 47.203 31.3035 46.1601 33.6209C45.9452 34.0982 45.7421 34.5495 45.5688 35.0163L45.4344 35.3772C45.0942 36.2895 44.7776 37.1379 44.5813 37.9434C42.8733 37.9385 41.2118 37.2088 39.9483 35.8902V35.8905ZM40.2105 45.221C39.7118 45.0964 39.2632 44.88 39 44.7005C39.2199 44.5971 39.6111 44.4563 40.2896 44.3165C43.573 43.6407 44.0801 43.1636 45.1875 41.7576C45.4413 41.4351 45.7291 41.0698 46.1277 40.6247L46.1281 40.6242C46.7217 39.9595 46.9932 40.0722 47.4856 40.2765C47.8847 40.4415 48.2734 40.9417 48.431 41.4922C48.5056 41.7522 48.5893 42.2456 48.3153 42.6296C46.0021 45.8685 42.6313 45.8268 40.2105 45.221ZM57.3942 61.2113C53.3774 62.072 51.9552 60.0225 51.0179 57.6795C50.413 56.167 50.1156 49.3461 50.3266 41.8135C50.3293 41.7133 50.3151 41.6165 50.2875 41.5255C50.2628 41.3456 50.2253 41.1677 50.1752 40.9932C49.8616 39.8972 49.0972 38.9804 48.1801 38.6003C47.8158 38.4493 47.1471 38.1724 46.3436 38.378C46.5149 37.6719 46.8121 36.8745 47.1343 36.0111L47.2695 35.648C47.4216 35.2386 47.6127 34.8144 47.8145 34.3653C48.9059 31.9409 50.4005 28.6201 48.7784 21.118C48.1708 18.308 46.1417 16.9358 43.0658 17.2546C41.2219 17.4454 39.5347 18.1893 38.6933 18.616C38.5123 18.7076 38.3469 18.7962 38.1923 18.8824C38.4272 16.0512 39.3144 10.7601 42.6335 7.41249C44.7234 5.30512 47.5065 4.26424 50.8975 4.32037C57.5791 4.42968 61.8637 7.85858 64.2818 10.7161C66.3655 13.1782 67.4938 15.6585 67.944 16.9963C64.5577 16.6519 62.2547 17.3203 61.0872 18.9895C58.5473 22.6202 62.4767 29.6671 64.3652 33.0539C64.7116 33.6745 65.0105 34.211 65.1045 34.439C65.7195 35.9294 66.5157 36.9245 67.0969 37.6507C67.2752 37.8733 67.448 38.0892 67.5794 38.2778C66.5538 38.5734 64.7116 39.2566 64.8795 42.6715C64.7441 44.3849 63.7813 52.4072 63.2921 55.2415C62.6463 58.9861 61.2684 60.3807 57.3942 61.2116V61.2113ZM74.1605 42.0245C73.1118 42.5112 71.3567 42.8763 69.6895 42.9548C67.848 43.041 66.9106 42.7485 66.69 42.5686C66.5866 40.4405 67.3786 40.2182 68.2168 39.9828C68.3485 39.9459 68.477 39.9097 68.6011 39.8664C68.6782 39.9292 68.7626 39.9915 68.8552 40.0525C70.3353 41.0294 72.9751 41.1348 76.7022 40.3654L76.743 40.3573C76.2403 40.8273 75.3801 41.458 74.1605 42.0245Z" fill="white"/>
<path d="M27.8054 95H23.8452L32.7436 70.2727H37.054L45.9524 95H41.9922L35.0014 74.7642H34.8082L27.8054 95ZM28.4695 85.3168H41.3161V88.456H28.4695V85.3168ZM49.5233 95V70.2727H58.3372C60.2609 70.2727 61.8547 70.6229 63.1184 71.3232C64.3822 72.0234 65.3279 72.9813 65.9558 74.1967C66.5836 75.4041 66.8976 76.7644 66.8976 78.2777C66.8976 79.799 66.5796 81.1674 65.9437 82.3828C65.3159 83.5902 64.3661 84.5481 63.0943 85.2564C61.8306 85.9567 60.2408 86.3068 58.3251 86.3068H52.264V83.1435H57.987C59.2025 83.1435 60.1885 82.9342 60.9451 82.5156C61.7018 82.089 62.2572 81.5095 62.6113 80.777C62.9655 80.0445 63.1426 79.2114 63.1426 78.2777C63.1426 77.344 62.9655 76.5149 62.6113 75.7905C62.2572 75.0661 61.6977 74.4986 60.9331 74.0881C60.1764 73.6776 59.1783 73.4723 57.9387 73.4723H53.2541V95H49.5233ZM75.0021 70.2727V95H71.2713V70.2727H75.0021Z" fill="#131313"/>
</g>
<defs>
<clipPath id="clip0_18_467">
<rect width="100" height="100" fill="white"/>
</clipPath>
</defs>
</svg>
