<svg width="100" height="100" viewBox="0 0 100 100" fill="none" xmlns="http://www.w3.org/2000/svg">
<path d="M46.8168 20.4009L48.5506 23.6572C48.9403 24.2581 49.3626 24.79 49.86 25.2854C51.3182 26.7254 52.6774 28.2624 53.9284 29.8857C56.866 33.7429 58.8474 38.0265 60.2624 42.6593C61.111 45.4893 61.5719 48.3924 61.6064 51.328C61.7485 60.1043 58.7398 67.6402 52.6738 73.9031C51.6871 74.8963 50.6211 75.8075 49.4865 76.6276C48.8855 76.6276 48.6013 76.1667 48.3536 75.7424C47.9026 74.9556 47.6024 74.0916 47.4685 73.1946C47.2553 72.1328 47.1153 71.0711 47.1843 69.9748V69.4795C47.1356 69.3739 46.6057 20.6506 46.8168 20.4009Z" fill="#599636"/>
<path d="M46.8168 20.2935C46.7458 20.1514 46.6747 20.259 46.6037 20.328C46.6382 21.0385 46.3905 21.6719 46.0027 22.2769C45.5764 22.8778 45.012 23.3387 44.4456 23.834C41.2989 26.5585 38.8221 29.8493 36.8387 33.53C34.1995 38.4835 32.8393 43.7923 32.4536 49.3813C32.277 51.3972 33.0911 58.5108 33.7265 60.5633C35.4602 66.0122 38.5745 70.578 42.6083 74.5408C43.5991 75.4949 44.6588 76.3801 45.7551 77.2307C46.0738 77.2307 46.1083 76.9465 46.1814 76.7354C46.3211 76.2836 46.4277 75.8222 46.5001 75.3549L47.2107 70.0481L46.8168 20.2935Z" fill="#6CAC48"/>
<path d="M48.5506 78.7836C48.6216 77.9715 49.0114 77.2975 49.4357 76.6256C49.0094 76.4489 48.6927 76.0977 48.445 75.7059C48.2314 75.3349 48.0546 74.944 47.9172 74.5386C47.4218 73.0525 47.3162 71.4934 47.1741 69.9748V69.0552C46.9975 69.1973 46.961 70.3991 46.961 70.5778C46.8577 72.1828 46.6447 73.7788 46.3235 75.3547C46.2179 75.9922 46.1469 76.6276 45.7551 77.194C45.7551 77.2651 45.7551 77.3361 45.7896 77.4417C46.427 79.3175 46.6016 81.2279 46.7092 83.1748V83.8853C46.7092 84.7339 46.6747 84.5553 47.3792 84.8395C47.6634 84.9451 47.9801 84.9816 48.2643 85.1927C48.4775 85.1927 48.512 85.0161 48.512 84.874L48.4064 83.7067V80.4503C48.3719 79.8819 48.4775 79.3175 48.5485 78.7856L48.5506 78.7836Z" fill="#C2BFBF"/>
</svg>
