<svg width="100" height="100" viewBox="0 0 100 100" fill="none" xmlns="http://www.w3.org/2000/svg">
<g clip-path="url(#clip0_18_462)">
<path d="M49.6575 10.0225C29.3994 10.0225 30.6643 18.8076 30.6643 18.8076L30.6868 27.9092H50.0187V30.6418H23.0085C23.0085 30.6418 10.0453 29.1716 10.0453 49.6119C10.0453 70.0527 21.3599 69.3278 21.3599 69.3278H28.1124V59.8425C28.1124 59.8425 27.7483 48.5279 39.2463 48.5279H58.4201C58.4201 48.5279 69.1926 48.7019 69.1926 38.1167V20.6146C69.1926 20.6146 70.8286 10.0225 49.6575 10.0225ZM38.9979 16.1431C39.4547 16.1427 39.9071 16.2324 40.3293 16.407C40.7514 16.5817 41.135 16.8378 41.458 17.1608C41.781 17.4839 42.0372 17.8674 42.2118 18.2896C42.3864 18.7117 42.4761 19.1641 42.4757 19.6209C42.4761 20.0778 42.3864 20.5302 42.2118 20.9523C42.0372 21.3744 41.781 21.758 41.458 22.081C41.135 22.404 40.7514 22.6602 40.3293 22.8348C39.9071 23.0095 39.4547 23.0991 38.9979 23.0987C38.5411 23.0991 38.0886 23.0095 37.6665 22.8348C37.2444 22.6602 36.8608 22.404 36.5378 22.081C36.2148 21.758 35.9586 21.3744 35.784 20.9523C35.6094 20.5302 35.5197 20.0778 35.5201 19.6209C35.5197 19.1641 35.6094 18.7117 35.784 18.2896C35.9586 17.8674 36.2148 17.4839 36.5378 17.1608C36.8608 16.8378 37.2444 16.5817 37.6665 16.407C38.0886 16.2324 38.5411 16.1427 38.9979 16.1431Z" fill="url(#paint0_linear_18_462)"/>
<path d="M50.2328 89.4067C70.4909 89.4067 69.226 80.6216 69.226 80.6216L69.2035 71.5202H49.8712V68.7877H76.8815C76.8815 68.7877 89.8447 70.2579 89.8447 49.817C89.8447 29.3764 78.5301 30.1013 78.5301 30.1013H71.7776V39.5864C71.7776 39.5864 72.1416 50.9009 60.6437 50.9009H41.4698C41.4698 50.9009 30.6974 50.7269 30.6974 61.3124V78.8149C30.6974 78.8149 29.0616 89.4067 50.2325 89.4067H50.2328ZM60.8924 83.2866C60.4356 83.287 59.9831 83.1974 59.561 83.0227C59.1389 82.8481 58.7553 82.5919 58.4323 82.2689C58.1093 81.9459 57.8531 81.5623 57.6785 81.1402C57.5039 80.7181 57.4142 80.2657 57.4146 79.8088C57.4141 79.352 57.5038 78.8995 57.6784 78.4774C57.853 78.0552 58.1092 77.6716 58.4322 77.3485C58.7552 77.0255 59.1388 76.7693 59.5609 76.5946C59.9831 76.42 60.4355 76.3303 60.8924 76.3307C61.3492 76.3303 61.8016 76.42 62.2238 76.5946C62.6459 76.7692 63.0295 77.0254 63.3525 77.3484C63.6755 77.6715 63.9317 78.055 64.1063 78.4771C64.2809 78.8993 64.3706 79.3517 64.3702 79.8085C64.3706 80.2653 64.2809 80.7178 64.1063 81.1399C63.9317 81.562 63.6755 81.9456 63.3525 82.2686C63.0295 82.5916 62.6459 82.8478 62.2238 83.0224C61.8016 83.1971 61.3492 83.287 60.8924 83.2866Z" fill="url(#paint1_linear_18_462)"/>
</g>
<defs>
<linearGradient id="paint0_linear_18_462" x1="776.915" y1="724.038" x2="4731.53" y2="4639.2" gradientUnits="userSpaceOnUse">
<stop stop-color="#387EB8"/>
<stop offset="1" stop-color="#366994"/>
</linearGradient>
<linearGradient id="paint1_linear_18_462" x1="1162.6" y1="1250.61" x2="5409.4" y2="5265.24" gradientUnits="userSpaceOnUse">
<stop stop-color="#FFE052"/>
<stop offset="1" stop-color="#FFC331"/>
</linearGradient>
<clipPath id="clip0_18_462">
<rect width="80" height="79.68" fill="white" transform="translate(10 10)"/>
</clipPath>
</defs>
</svg>
