<svg width="100" height="100" viewBox="0 0 100 100" fill="none" xmlns="http://www.w3.org/2000/svg">
<g clip-path="url(#clip0_18_452)">
<path d="M90 10H50.1667L12.13 50H49.93L50.1067 49.82L90 10Z" fill="url(#paint0_linear_18_452)"/>
<path d="M50.1067 49.8201L49.93 50.0001H50.2867L50.1067 49.8201Z" fill="url(#paint1_linear_18_452)"/>
<path d="M50.1667 10H10V52.24V50H12.13L50.1667 10Z" fill="url(#paint2_linear_18_452)"/>
<path d="M49.93 50H12.13L10 52.24V90L49.93 50Z" fill="url(#paint3_linear_18_452)"/>
<path d="M50.2867 50H49.93L10 90H90L50.2867 50Z" fill="url(#paint4_linear_18_452)"/>
<path d="M12.13 50H10V52.24L12.13 50Z" fill="url(#paint5_linear_18_452)"/>
</g>
<defs>
<linearGradient id="paint0_linear_18_452" x1="-4.27838" y1="83.109" x2="70.1658" y2="8.66479" gradientUnits="userSpaceOnUse">
<stop stop-color="#C757BC"/>
<stop offset="0.108" stop-color="#C757BC"/>
<stop offset="0.173" stop-color="#CD5CA9"/>
<stop offset="0.492" stop-color="#E8744F"/>
<stop offset="0.716" stop-color="#F88316"/>
<stop offset="0.823" stop-color="#FF8900"/>
<stop offset="1" stop-color="#FF8900"/>
</linearGradient>
<linearGradient id="paint1_linear_18_452" x1="35.8431" y1="104.41" x2="72.1285" y2="68.125" gradientUnits="userSpaceOnUse">
<stop stop-color="#00AFFF"/>
<stop offset="0.296" stop-color="#00AFFF"/>
<stop offset="0.694" stop-color="#5282FF"/>
<stop offset="1" stop-color="#945DFF"/>
</linearGradient>
<linearGradient id="paint2_linear_18_452" x1="9.15627" y1="32.109" x2="34.6109" y2="6.65363" gradientUnits="userSpaceOnUse">
<stop stop-color="#00AFFF"/>
<stop offset="0.296" stop-color="#00AFFF"/>
<stop offset="0.694" stop-color="#5282FF"/>
<stop offset="1" stop-color="#945DFF"/>
</linearGradient>
<linearGradient id="paint3_linear_18_452" x1="-3.83172" y1="83.5557" x2="70.6125" y2="9.11146" gradientUnits="userSpaceOnUse">
<stop stop-color="#AD4CA4"/>
<stop offset="0.108" stop-color="#AD4CA4"/>
<stop offset="0.173" stop-color="#B25093"/>
<stop offset="0.492" stop-color="#CA6545"/>
<stop offset="0.716" stop-color="#D87213"/>
<stop offset="0.823" stop-color="#DE7700"/>
<stop offset="1" stop-color="#DE7700"/>
</linearGradient>
<linearGradient id="paint4_linear_18_452" x1="35.8431" y1="104.41" x2="72.1285" y2="68.125" gradientUnits="userSpaceOnUse">
<stop stop-color="#0098DE"/>
<stop offset="0.296" stop-color="#0098DE"/>
<stop offset="0.694" stop-color="#4771DE"/>
<stop offset="1" stop-color="#8151DE"/>
</linearGradient>
<linearGradient id="paint5_linear_18_452" x1="19.1602" y1="42.1127" x2="44.6149" y2="16.6573" gradientUnits="userSpaceOnUse">
<stop stop-color="#0098DE"/>
<stop offset="0.296" stop-color="#0098DE"/>
<stop offset="0.694" stop-color="#4771DE"/>
<stop offset="1" stop-color="#8151DE"/>
</linearGradient>
<clipPath id="clip0_18_452">
<rect width="80" height="80" fill="white" transform="translate(10 10)"/>
</clipPath>
</defs>
</svg>
