<svg width="100" height="100" viewBox="0 0 100 100" fill="none" xmlns="http://www.w3.org/2000/svg">
<g clip-path="url(#clip0_18_465)">
<path d="M47.9137 8.45068L49.3223 11.0965C49.639 11.5847 49.9821 12.0169 50.3863 12.4193C51.5711 13.5894 52.6754 14.8381 53.6918 16.1571C56.0786 19.2911 57.6885 22.7715 58.8382 26.5357C59.5277 28.835 59.9021 31.1938 59.9302 33.579C60.0457 40.7097 57.6011 46.8326 52.6724 51.9213C51.8707 52.7282 51.0047 53.4685 50.0828 54.1349C49.5945 54.1349 49.3636 53.7604 49.1623 53.4157C48.7959 52.7764 48.552 52.0744 48.4432 51.3456C48.27 50.4829 48.1562 49.6202 48.2122 48.7295V48.327C48.1726 48.2413 47.7421 8.65357 47.9137 8.45068Z" fill="#599636"/>
<path d="M47.9137 8.36339C47.8559 8.24792 47.7982 8.33535 47.7405 8.39143C47.7685 8.96875 47.5673 9.48339 47.2522 9.97494C46.9058 10.4632 46.4473 10.8376 45.9871 11.2401C43.4304 13.4537 41.418 16.1275 39.8064 19.118C37.6621 23.1428 36.557 27.4562 36.2436 31.9972C36.1 33.6352 36.7615 39.415 37.2778 41.0826C38.6864 45.5098 41.2168 49.2195 44.4943 52.4393C45.2992 53.2146 46.1603 53.9338 47.051 54.6249C47.31 54.6249 47.338 54.394 47.3974 54.2224C47.5109 53.8553 47.5975 53.4805 47.6564 53.1008L48.2337 48.789L47.9137 8.36339Z" fill="#6CAC48"/>
<path d="M49.3223 55.8868C49.3801 55.227 49.6968 54.6793 50.0415 54.1334C49.6951 53.9899 49.4378 53.7045 49.2366 53.3861C49.063 53.0847 48.9194 52.7671 48.8077 52.4377C48.4052 51.2303 48.3195 49.9635 48.204 48.7296V47.9824C48.0605 48.0979 48.0308 49.0744 48.0308 49.2195C47.9469 50.5236 47.7738 51.8204 47.5129 53.1008C47.4271 53.6187 47.3693 54.135 47.051 54.5952C47.051 54.6529 47.051 54.7107 47.079 54.7965C47.597 56.3206 47.7388 57.8727 47.8263 59.4546V60.0319C47.8263 60.7214 47.7982 60.5763 48.3706 60.8072C48.6015 60.893 48.8588 60.9226 49.0898 61.0942C49.263 61.0942 49.291 60.9507 49.291 60.8352L49.2052 59.8868V57.241C49.1772 56.7791 49.263 56.3206 49.3207 55.8884L49.3223 55.8868Z" fill="#C2BFBF"/>
<path d="M27.8054 99H23.8452L32.7436 74.2727H37.054L45.9524 99H41.9922L35.0014 78.7642H34.8082L27.8054 99ZM28.4695 89.3168H41.3161V92.456H28.4695V89.3168ZM49.5233 99V74.2727H58.3372C60.2609 74.2727 61.8547 74.6229 63.1184 75.3232C64.3822 76.0234 65.3279 76.9813 65.9558 78.1967C66.5836 79.4041 66.8976 80.7644 66.8976 82.2777C66.8976 83.799 66.5796 85.1674 65.9437 86.3828C65.3159 87.5902 64.3661 88.5481 63.0943 89.2564C61.8306 89.9567 60.2408 90.3068 58.3251 90.3068H52.264V87.1435H57.987C59.2025 87.1435 60.1885 86.9342 60.9451 86.5156C61.7018 86.089 62.2572 85.5095 62.6113 84.777C62.9655 84.0445 63.1426 83.2114 63.1426 82.2777C63.1426 81.344 62.9655 80.5149 62.6113 79.7905C62.2572 79.0661 61.6977 78.4986 60.9331 78.0881C60.1764 77.6776 59.1783 77.4723 57.9387 77.4723H53.2541V99H49.5233ZM75.0021 74.2727V99H71.2713V74.2727H75.0021Z" fill="#131313"/>
</g>
<defs>
<clipPath id="clip0_18_465">
<rect width="100" height="100" fill="white"/>
</clipPath>
</defs>
</svg>
