<svg width="100" height="100" viewBox="0 0 100 100" fill="none" xmlns="http://www.w3.org/2000/svg">
<g clip-path="url(#clip0_18_468)">
<g clip-path="url(#clip1_18_468)">
<path d="M77.8325 49.3116C74.2986 49.2235 71.5598 49.577 69.2627 50.5487C68.6 50.8135 67.5397 50.8137 67.4513 51.6531C67.8047 52.0066 67.8489 52.5809 68.1582 53.0666C68.6888 53.95 69.6158 55.1428 70.4553 55.7616C71.3828 56.4682 72.3108 57.1748 73.2823 57.7934C75.0053 58.8537 76.9492 59.4719 78.6277 60.5322C79.5999 61.1503 80.5711 61.946 81.5431 62.6084C82.0291 62.9614 82.3381 63.5362 82.9568 63.7569V63.6246C82.6473 63.2267 82.559 62.6526 82.25 62.2108C81.8087 61.769 81.3664 61.3714 80.9246 60.9296C79.6436 59.2071 78.0534 57.705 76.3307 56.4682C74.9172 55.4963 71.8246 54.1711 71.2505 52.5365C71.2505 52.5365 71.2061 52.4926 71.1621 52.4484C72.1338 52.36 73.2823 52.0066 74.2103 51.7415C75.7121 51.3436 77.0815 51.4322 78.6277 51.0346C79.3344 50.8579 80.0412 50.637 80.7479 50.4161V50.0187C79.9531 49.2235 79.3788 48.1635 78.5394 47.4124C76.2865 45.4682 73.8124 43.569 71.2505 41.9788C69.8809 41.0952 68.1137 40.5209 66.6561 39.7701C66.1264 39.5047 65.2426 39.3725 64.9336 38.9307C64.1381 37.959 63.6963 36.678 63.1222 35.5293C61.8415 33.0995 60.6042 30.405 59.4997 27.8431C58.705 26.1201 58.219 24.3971 57.2471 22.8071C52.6971 15.2973 47.7494 10.7473 40.1515 6.28543C38.5169 5.35791 36.5732 4.96029 34.4971 4.47457C33.3931 4.43014 32.2883 4.34203 31.1841 4.2976C30.4772 3.98834 29.7703 3.14918 29.1518 2.75156C26.6343 1.16109 20.1402 -2.28416 18.2849 2.26584C17.092 5.13701 20.0521 7.964 21.0677 9.42219C21.8193 10.4381 22.7907 11.5865 23.3209 12.7352C23.6301 13.4857 23.7182 14.2814 24.0275 15.0764C24.7346 17.0196 25.3968 19.1846 26.3248 20.996C26.8108 21.9235 27.3407 22.8952 27.9592 23.7346C28.3127 24.2204 28.9309 24.4415 29.0637 25.2365C28.4455 26.1201 28.401 27.4455 28.0473 28.5497C26.4571 33.5415 27.0759 39.7259 29.3285 43.3923C30.0352 44.4963 31.714 46.9267 33.9669 45.9987C35.955 45.2037 35.5132 42.6857 36.087 40.477C36.2201 39.9463 36.1317 39.5934 36.3965 39.2399V39.3285C37.015 40.5651 37.6333 41.7582 38.2076 42.9949C39.5772 45.1592 41.9624 47.4124 43.9502 48.9145C45.0108 49.7092 45.85 51.0788 47.1754 51.5648V51.432H47.0867C46.8217 51.0344 46.4241 50.8579 46.0709 50.5484C45.2759 49.7537 44.392 48.7817 43.7738 47.8981C41.9187 45.4241 40.2838 42.6854 38.8262 39.8582C38.1195 38.4891 37.5008 36.987 36.9267 35.6177C36.6614 35.087 36.6614 34.2923 36.2198 34.0275C35.5571 34.9992 34.5854 35.8386 34.0994 37.0312C33.2605 38.9307 33.1719 41.2719 32.8627 43.7013C32.6859 43.746 32.7741 43.7013 32.6857 43.7902C31.2725 43.4362 30.7865 41.9788 30.2561 40.7418C28.9307 37.6055 28.7098 32.5696 29.8587 28.9473C30.168 28.0196 31.4933 25.1042 30.9632 24.2206C30.6981 23.3812 29.8143 22.8952 29.3285 22.2328C28.7545 21.3934 28.1357 20.3336 27.7383 19.4055C26.678 16.9317 26.1479 14.1928 24.9994 11.719C24.4693 10.5704 23.542 9.37801 22.7907 8.31769C21.9516 7.1251 21.0238 6.28543 20.3611 4.87193C20.1404 4.38621 19.8309 3.59098 20.1844 3.06082C20.2727 2.70738 20.4492 2.5751 20.8029 2.48674C21.3772 2.00051 23.0119 2.61902 23.5857 2.8841C25.2203 3.54629 26.5897 4.16531 27.9592 5.09283C28.5775 5.53463 29.2402 6.37404 30.0352 6.59494H30.9629C32.3767 6.90394 33.9666 6.6833 35.292 7.08066C37.6336 7.83146 39.7537 8.93596 41.6534 10.1288C47.4404 13.7952 52.2108 19.0079 55.4359 25.2365C55.9661 26.2521 56.1867 27.1804 56.6727 28.2402C57.6008 30.405 58.7492 32.6137 59.6764 34.7341C60.6042 36.81 61.4875 38.9307 62.8129 40.6537C63.4756 41.5809 66.1259 42.0672 67.3188 42.5531C68.2024 42.9505 69.5719 43.3042 70.3669 43.7899C71.8688 44.7172 73.3706 45.778 74.7844 46.7936C75.4912 47.3238 77.6997 48.4283 77.8325 49.3116Z" fill="#00546B"/>
<path d="M32.7738 10.9233C32.023 10.9233 31.4931 11.0122 30.9629 11.1445V11.2329H31.0513C31.405 11.9397 32.023 12.4257 32.4645 13.044C32.8182 13.7506 33.1272 14.4577 33.4809 15.1646C33.5248 15.1202 33.569 15.0762 33.569 15.0762C34.1878 14.6342 34.4968 13.9276 34.4968 12.8672C34.2317 12.5582 34.1875 12.249 33.9666 11.9397C33.7018 11.4977 33.1272 11.277 32.7738 10.9233Z" fill="#00546B"/>
</g>
<path d="M27.8054 99H23.8452L32.7436 74.2727H37.054L45.9524 99H41.9922L35.0014 78.7642H34.8082L27.8054 99ZM28.4695 89.3168H41.3161V92.456H28.4695V89.3168ZM49.5233 99V74.2727H58.3372C60.2609 74.2727 61.8547 74.6229 63.1184 75.3232C64.3822 76.0234 65.3279 76.9813 65.9558 78.1967C66.5836 79.4041 66.8976 80.7644 66.8976 82.2777C66.8976 83.799 66.5796 85.1674 65.9437 86.3828C65.3159 87.5902 64.3661 88.5481 63.0943 89.2564C61.8306 89.9567 60.2408 90.3068 58.3251 90.3068H52.264V87.1435H57.987C59.2025 87.1435 60.1885 86.9342 60.9451 86.5156C61.7018 86.089 62.2572 85.5095 62.6113 84.777C62.9655 84.0445 63.1426 83.2114 63.1426 82.2777C63.1426 81.344 62.9655 80.5149 62.6113 79.7905C62.2572 79.0661 61.6977 78.4986 60.9331 78.0881C60.1764 77.6776 59.1783 77.4723 57.9387 77.4723H53.2541V99H49.5233ZM75.0021 74.2727V99H71.2713V74.2727H75.0021Z" fill="#131313"/>
</g>
<defs>
<clipPath id="clip0_18_468">
<rect width="100" height="100" fill="white"/>
</clipPath>
<clipPath id="clip1_18_468">
<rect width="65" height="63.986" fill="white" transform="translate(18)"/>
</clipPath>
</defs>
</svg>
