<svg width="100" height="100" viewBox="0 0 100 100" fill="none" xmlns="http://www.w3.org/2000/svg">
<g clip-path="url(#clip0_18_456)">
<path d="M27.7812 10H72.0937C74.25 10 76.3437 10.3438 78.375 11.0625C81.3125 12.125 83.9687 14 85.9687 16.4375C88 18.875 89.3437 21.875 89.8125 25C90 26.1563 90.0312 27.3125 90.0312 28.4687V71.6875C90.0312 73.0625 89.9687 74.4688 89.6875 75.8125C89.0625 78.9063 87.5937 81.8125 85.4687 84.1563C83.375 86.5 80.625 88.25 77.6562 89.1875C75.8437 89.75 73.9687 90 72.0625 90C71.2187 90 27.6562 90 27 89.9687C23.8125 89.8125 20.6562 88.7812 18 87C15.4062 85.25 13.2812 82.8125 11.9062 80C10.7187 77.5938 10.125 74.9063 10.125 72.2188V27.7813C10.0625 25.125 10.625 22.5 11.7812 20.125C13.125 17.3125 15.2187 14.8437 17.8125 13.0937C20.4687 11.2812 23.5937 10.2188 26.7812 10.0625C27.0937 10 27.4375 10 27.7812 10Z" fill="url(#paint0_linear_18_456)"/>
<path d="M77.5 75.4375C77.2188 75 76.9063 74.5625 76.5625 74.1563C75.7813 73.2188 74.875 72.4063 73.875 71.7188C72.625 70.875 71.1563 70.3437 69.6563 70.2812C68.5938 70.2187 67.5313 70.4062 66.5313 70.7812C65.5313 71.125 64.5625 71.625 63.625 72.125C62.5313 72.6875 61.4375 73.25 60.2813 73.7187C58.9063 74.2812 57.4688 74.7188 56 75.0313C54.1563 75.375 52.2813 75.5 50.4375 75.4688C47.0938 75.4062 43.75 74.9062 40.5625 73.9687C37.75 73.125 35.0625 71.9688 32.5313 70.5C30.3125 69.2188 28.25 67.75 26.3125 66.0938C24.7188 64.7187 23.25 63.25 21.875 61.6875C20.9375 60.5937 20.0313 59.4375 19.1875 58.25C18.8438 57.7812 18.5313 57.2812 18.25 56.7812L10 47.875V27.7188C10 17.9375 17.9063 10 27.6875 10H43.4688L55.1563 21.875C81.5313 39.8125 73 59.5937 73 59.5937C73 59.5937 80.5 68.0312 77.5 75.4375Z" fill="url(#paint1_linear_18_456)"/>
<path d="M55.2187 21.875C81.5937 39.8125 73.0625 59.5937 73.0625 59.5937C73.0625 59.5937 80.5625 68.0625 77.5313 75.4688C77.5313 75.4688 74.4375 70.2812 69.25 70.2812C64.25 70.2812 61.3125 75.4688 51.25 75.4688C28.8438 75.4688 18.25 56.75 18.25 56.75C38.4375 70.0313 52.2188 60.625 52.2188 60.625C43.125 55.3438 23.7812 30.0938 23.7812 30.0938C40.625 44.4375 47.9063 48.2188 47.9063 48.2188C43.5625 44.625 31.375 27.0625 31.375 27.0625C41.125 36.9375 60.5 50.7188 60.5 50.7188C66 35.4688 55.2187 21.875 55.2187 21.875Z" fill="white"/>
</g>
<defs>
<linearGradient id="paint0_linear_18_456" x1="57.5909" y1="7.14531" x2="42.4762" y2="92.8644" gradientUnits="userSpaceOnUse">
<stop stop-color="#FAAE42"/>
<stop offset="1" stop-color="#EF3E31"/>
</linearGradient>
<linearGradient id="paint1_linear_18_456" x1="50.8163" y1="11.2925" x2="39.7541" y2="74.0291" gradientUnits="userSpaceOnUse">
<stop stop-color="#E39F3A"/>
<stop offset="1" stop-color="#D33929"/>
</linearGradient>
<clipPath id="clip0_18_456">
<rect width="80" height="80" fill="white" transform="translate(10 10)"/>
</clipPath>
</defs>
</svg>
