<svg width="64" height="64" viewBox="0 0 64 64" fill="none" xmlns="http://www.w3.org/2000/svg">
<g clip-path="url(#clip0_20_782)">
<path d="M3.69144 58.0108C2.77997 56.6968 6.39545 55.96 7.04867 54.4865C10.3451 48.2733 4.51176 50.8102 2.03561 36.5306C-2.704 9.5209 43.5072 9.5209 49.6596 8.38157C55.3259 7.39415 49.5837 -0.0722656 54.0119 -0.0722656C55.531 -0.0722656 54.0119 3.80146 55.531 4.35593C57.0501 4.91041 57.9919 0.831603 59.5566 2.15323C61.6834 3.95337 57.5058 5.6016 58.6452 6.73334C59.4275 7.56884 61.3947 5.97378 62.048 7.08273C63.1873 8.80692 60.0731 9.95384 57.2856 10.44C47.1075 12.149 68.8763 56.6664 33.4887 62.8188C24.131 64.543 19.7408 56.3322 12.8061 60.3578C11.0819 61.3452 9.76787 65.1202 8.78045 63.5631C8.12723 62.5757 9.84382 61.011 8.78045 60.3578C8.05128 59.9477 6.98031 61.7478 6.22835 61.087C5.47639 60.4262 6.47141 59.5679 5.89414 58.8843C5.31688 58.2007 4.27629 58.7931 3.69144 57.95V58.0108ZM17.4394 20.9142C23.0904 16.7898 33.7698 13.4706 31.5291 13.5465C23.7285 13.744 7.83101 20.2002 7.22336 30.0516C6.98031 33.0899 11.9858 25.0386 17.5533 20.937L17.4394 20.9142ZM27.268 33.2342C37.4308 19.2964 52.4548 14.2833 50.7382 12.5591C48.6874 10.5083 39.6487 13.2883 39.6487 13.2883C25.6198 18.2254 10.3527 27.4692 9.26656 38.908C8.94755 42.2653 9.91978 48.5847 14.2037 51.2128C17.2419 53.0357 22.2549 40.1157 27.268 33.2342ZM38.3347 55.4131C51.475 50.7267 51.3079 33.6595 49.1735 38.4219C47.0392 43.1843 45.6492 46.8757 41.0463 49.5114C37.4308 51.5622 34.9395 51.8128 30.4505 51.7141C26.7591 51.6382 23.3867 48.6607 22.3233 53.2332C21.2371 58.2691 33.5419 57.1069 38.3195 55.3979L38.3347 55.4131ZM27.7541 46.0554C31.5215 46.7086 43.5984 43.9287 47.7076 29.5503C51.8851 14.7694 49.7584 17.7317 37.6055 30.2795C31.1037 37.0851 25.9236 45.7136 27.8225 46.0326L27.7541 46.0554Z" fill="#048D52"/>
</g>
<defs>
<clipPath id="clip0_20_782">
<rect width="64" height="64" fill="white"/>
</clipPath>
</defs>
</svg>
