<svg xmlns="http://www.w3.org/2000/svg" xmlns:xlink="http://www.w3.org/1999/xlink" width="512" height="513" viewBox="0 0 512 513">
  <defs>
    <clipPath id="clip-android">
      <rect width="512" height="513"/>
    </clipPath>
  </defs>
  <g id="android" clip-path="url(#clip-android)">
    <rect width="512" height="513" fill="#fff"/>
    <g id="android-logomark" transform="translate(16.1 16.286)">
      <path id="Path_7" data-name="Path 7" d="M64.2,370.885c-10.7,0-17.9,8.4-17.9,19.2s7.2,19.2,17.9,19.2,17.9-8.4,17.9-19.2c-.1-10.8-7.3-19.2-17.9-19.2m-2.4-11.9c8.6,0,15.8,4.4,19.2,9.2v-8H94.2v59.9H84a3.009,3.009,0,0,1-3-3v-5c-3.4,4.8-10.5,9.2-19.2,9.2-16.4,0-28.9-14-28.9-31.1s12.4-31.2,28.9-31.2m47.4,1.2h13.2v8.1c3.6-6,10.4-9.3,18.2-9.3,13.9,0,22.9,9.8,22.9,25v36.1H153.4a3.009,3.009,0,0,1-3-3v-30.9c0-9.5-4.8-15.2-12.5-15.2-8.7,0-15.5,6.8-15.5,19.6v29.5H112.3a3.009,3.009,0,0,1-3-3Zm95.9,10.7c-10.7,0-17.9,8.4-17.9,19.2s7.2,19.2,17.9,19.2,17.9-8.4,17.9-19.2-7.2-19.2-17.9-19.2m-2.4-11.9c8.6,0,15.8,4.4,19.2,9.2v-38h13.2v89.9H225a3.009,3.009,0,0,1-3-3v-5c-3.4,4.8-10.5,9.2-19.2,9.2-16.4,0-28.9-14-28.9-31.1s12.4-31.2,28.8-31.2m47.4,1.2h13.2v10.7a16.961,16.961,0,0,1,15.8-11.3,22.061,22.061,0,0,1,5.1.5v13.5a21.244,21.244,0,0,0-6.6-1.1c-7.5,0-14.4,6.4-14.4,18.3v29.2H253.1a3.009,3.009,0,0,1-3-3Zm69.6,48.8c10.5,0,18-8.3,18-18.9,0-10.7-7.4-18.9-18-18.9-10.7,0-18.1,8.3-18.1,18.9.1,10.7,7.4,18.9,18.1,18.9m0,12.3a30.948,30.948,0,1,1,22.231-8.956,31.151,31.151,0,0,1-22.231,8.956m42.1-61.1H375v59.9H364.9a3.009,3.009,0,0,1-3-3Zm6.6-13.1a8.985,8.985,0,0,1-8.9-8.9,8.85,8.85,0,1,1,8.9,8.9m48.7,23.8c-10.7,0-17.9,8.4-17.9,19.2s7.2,19.2,17.9,19.2,17.9-8.4,17.9-19.2c-.2-10.8-7.2-19.2-17.9-19.2m-2.4-11.9c8.6,0,15.8,4.4,19.2,9.2v-38h13.2v89.9H437a3.009,3.009,0,0,1-3-3v-5c-3.4,4.8-10.5,9.2-19.2,9.2-16.4,0-28.9-14-28.9-31.1s12.4-31.2,28.8-31.2"/>
      <path id="Path_8" data-name="Path 8" d="M341.5,129.185l34.5-59.7a7.17,7.17,0,1,0-12.4-7.2l-34.9,60.4a216.078,216.078,0,0,0-177.2,0l-34.9-60.4a7.17,7.17,0,1,0-12.4,7.2l34.5,59.7c-59.5,32.2-99.9,92.1-105.8,162.8h414c-5.9-70.7-46.4-130.6-105.4-162.8Zm-196.8,103.8a17.2,17.2,0,1,1,17.2-17.2A17.2,17.2,0,0,1,144.7,232.985Zm190.6,0a17.2,17.2,0,1,1,17.2-17.2A17.2,17.2,0,0,1,335.3,232.985Z" fill="#3ddc84"/>
    </g>
  </g>
</svg>
