<svg xmlns="http://www.w3.org/2000/svg" xmlns:xlink="http://www.w3.org/1999/xlink" width="512" height="513" viewBox="0 0 512 513">
  <defs>
    <clipPath id="clip-ionic">
      <rect width="512" height="513"/>
    </clipPath>
  </defs>
  <g id="ionic" clip-path="url(#clip-ionic)">
    <rect width="512" height="513" fill="#fff"/>
    <g id="Group_2" data-name="Group 2" transform="translate(19.983 23.191)">
      <g id="icon" transform="translate(69.209 -209.491)">
        <path id="Shape" d="M144.828,279.6a64.028,64.028,0,1,0,64.028,64.028A64.056,64.056,0,0,0,144.828,279.6Z" transform="translate(21.263 21.34)" fill="#3880ff"/>
        <circle id="Oval" cx="29.242" cy="29.242" r="29.242" transform="translate(228.595 248.137)" fill="#3880ff"/>
        <path id="Shape_1_" d="M293.732,306.622l-1.109-2.633-1.94,2.356a44.035,44.035,0,0,1-17.6,12.057l-1.94.832.832,1.94a111.474,111.474,0,0,1,8.731,43.933A114.893,114.893,0,0,1,165.952,479.859c-63.335,0-114.613-51.555-114.613-114.752A114.63,114.63,0,0,1,215.152,261.442l1.663.832.832-1.94a43.591,43.591,0,0,1,13.027-17.047l2.356-1.94-2.633-1.386A139.9,139.9,0,0,0,166.091,224.3C88.758,224.3,25.7,287.358,25.7,364.691S88.758,505.082,166.091,505.082s140.391-63.058,140.391-140.391A143.279,143.279,0,0,0,293.732,306.622Z" transform="translate(0 0)" fill="#3880ff"/>
      </g>
      <g id="logotype" transform="translate(-205.383 73.102)">
        <rect id="Rectangle-path" width="24.869" height="102.499" transform="translate(240.4 273.957)" fill="#3880ff"/>
        <rect id="Rectangle-path_1_" width="24.869" height="102.499" transform="translate(508.27 273.957)" fill="#3880ff"/>
        <path id="Shape_2_" d="M429.347,271.6c-17.432,0-30.913,10.575-33.934,13.481l-1.627-11.04H373.1v102.5h24.869V314.6c0-12.2,16.5-22.08,28.7-22.08,11.854,0,21.151,11.505,21.151,25.334v58.8h24.87V320.293C472.462,293.216,460.84,271.6,429.347,271.6Z" transform="translate(21.514 0.032)" fill="#3880ff"/>
        <path id="Shape_3_" d="M555.771,357.862c-18.71,0-31.029-14.527-31.029-32.656s12.319-32.656,31.029-32.656c15.8,0,25.567,15.34,25.567,15.34l17.9-11.97c-5.113-8.019-11.156-12.783-19.408-17.781a45.352,45.352,0,0,0-23.359-6.74c-31.029,0-54.736,23.359-54.969,53.69.116,30.215,23.824,53.69,54.969,53.69a45.017,45.017,0,0,0,23.359-6.74c8.135-5,14.294-9.762,19.408-17.78l-17.9-11.97C581.338,342.406,571.692,357.862,555.771,357.862Z" transform="translate(42.331)" fill="#3880ff"/>
        <path id="path3000_1_" d="M324.89,271.6c-31.261,0-53.69,24.521-53.69,53.109,0,29.169,21.732,54.155,54.155,54.155,29.286,0,53.109-22.429,53.109-53.458C378.464,289.845,350.689,271.6,324.89,271.6Zm.349,21.151c15.34,0,29.983,12.435,29.983,32.656,0,19.64-14.527,32.539-30.1,32.539-16.967,0-30.448-13.713-30.448-32.656C294.675,306.464,307.923,292.751,325.239,292.751Z" transform="translate(4.993 0.032)" fill="#3880ff"/>
      </g>
    </g>
  </g>
</svg>
