<svg xmlns="http://www.w3.org/2000/svg" xmlns:xlink="http://www.w3.org/1999/xlink" width="512" height="513" viewBox="0 0 512 513">
  <defs>
    <clipPath id="clip-ios">
      <rect width="512" height="513"/>
    </clipPath>
  </defs>
  <g id="ios" clip-path="url(#clip-ios)">
    <rect width="512" height="513" fill="#fff"/>
    <g id="Group_2" data-name="Group 2" transform="translate(0 10.019)">
      <path id="apple_2_" data-name="apple (2)" d="M115.868,22.417C132.793.109,156.323,0,156.323,0s3.5,20.973-13.314,41.177c-17.953,21.573-38.36,18.043-38.36,18.043S100.817,42.253,115.868,22.417Zm-9.066,51.5c8.707,0,24.867-11.969,45.9-11.969,36.207,0,50.451,25.764,50.451,25.764S175.3,101.95,175.3,136.511c0,38.988,34.7,52.424,34.7,52.424s-24.259,68.281-57.027,68.281c-15.05,0-26.751-10.142-42.608-10.142-16.16,0-32.2,10.52-42.641,10.52C37.8,257.6,0,192.824,0,140.758c0-51.226,32-78.1,62.008-78.1,19.51,0,34.65,11.251,44.793,11.251Z" transform="translate(151 27.981)" fill="#999"/>
      <path id="apple-ios" d="M7.6,11.384A3.689,3.689,0,0,1,3.788,15.4C1.782,15.4.276,13.691.276,11.384A3.841,3.841,0,0,1,3.989,7.369C6.2,7.369,7.6,9.175,7.6,11.384ZM2.048,132.01V39.738H5.831V132.01ZM131.632,66.266c0,46.52-25.825,67.668-54.093,67.668-28.877,0-52.262-22.874-52.262-65.744,0-44.018,24.2-67.664,54.3-67.664C109.058.523,131.632,23.783,131.632,66.266Zm-102.522.961c0,35.273,17.1,62.675,48.608,62.675,31.732,0,49.932-28.245,49.932-63.076,0-32.3-14.583-61.777-47.859-61.777S29.109,32.8,29.109,67.227Zm116.4,54.785c6.345,4.229,17.3,8.313,26.717,8.313,17.878,0,33.777-12.507,33.777-30.916,0-17.083-10.591-26-28.574-33.654C161.34,58.9,146.87,51.464,146.87,33.2c0-19.029,14.992-32.489,35.369-32.489,10.957,0,19.223,3.076,23.068,5.767L203.779,9.8c-3.268-2.305-12.1-5.243-21.709-5.243-21.535,0-30.916,16.272-30.916,28.251,0,16.545,12.826,22.078,29.358,29.96,19.222,9.418,29.408,17.722,29.408,35.794,0,19.415-13.839,35.175-38.445,35.175-10.19,0-21.915-3.459-27.681-7.882l1.718-3.843Z" transform="translate(150.724 330.328)" fill="#999"/>
    </g>
  </g>
</svg>
