<svg xmlns="http://www.w3.org/2000/svg" xmlns:xlink="http://www.w3.org/1999/xlink" width="512" height="513" viewBox="0 0 512 513">
  <defs>
    <clipPath id="clip-react">
      <rect width="512" height="513"/>
    </clipPath>
  </defs>
  <g id="react" clip-path="url(#clip-react)">
    <rect width="512" height="513" fill="#fff"/>
    <text id="cordova" transform="translate(46 461)" fill="#45d1fd" font-size="136" font-family="BrandonGrotesque-Black, Brandon Grotesque" font-weight="800"><tspan x="0" y="0">REACT</tspan></text>
    <g id="react-2" transform="translate(-59.559 -9.1)">
      <path id="Path_6" data-name="Path 6" d="M455.417,202.579c0-18.53-23.205-36.091-58.783-46.981,8.21-36.262,4.561-65.112-11.517-74.348a25,25,0,0,0-12.771-3.193V90.771a13.2,13.2,0,0,1,6.5,1.482c7.754,4.447,11.118,21.381,8.5,43.161-.627,5.359-1.653,11-2.908,16.762a276.306,276.306,0,0,0-36.2-6.215,278.126,278.126,0,0,0-23.718-28.508c18.587-17.276,36.034-26.74,47.893-26.74V78c-15.679,0-36.2,11.175-56.958,30.56-20.754-19.271-41.279-30.332-56.958-30.332V90.942c11.8,0,29.306,9.408,47.893,26.569a269.29,269.29,0,0,0-23.547,28.451,266.248,266.248,0,0,0-36.262,6.272c-1.311-5.7-2.281-11.232-2.965-16.534-2.68-21.78.627-38.713,8.324-43.218A12.689,12.689,0,0,1,258.486,91V78.285A25.422,25.422,0,0,0,245.6,81.478c-16.021,9.236-19.613,38.029-11.346,74.177C198.791,166.6,175.7,184.106,175.7,202.579c0,18.53,23.205,36.091,58.783,46.981-8.21,36.262-4.561,65.112,11.517,74.348a25.063,25.063,0,0,0,12.828,3.193c15.679,0,36.2-11.175,56.958-30.56,20.754,19.271,41.279,30.332,56.958,30.332a25.422,25.422,0,0,0,12.885-3.193c16.021-9.236,19.613-38.029,11.346-74.177,35.349-10.89,58.441-28.451,58.441-46.924Zm-74.234-38.029c-2.11,7.355-4.732,14.938-7.7,22.521-2.338-4.561-4.789-9.122-7.469-13.684-2.623-4.561-5.416-9.008-8.21-13.342,8.1,1.2,15.907,2.68,23.376,4.5ZM355.07,225.271c-4.447,7.7-9.008,15-13.741,21.78-8.5.741-17.1,1.14-25.771,1.14-8.609,0-17.219-.4-25.657-1.083q-7.1-10.177-13.8-21.666-6.5-11.2-11.859-22.692c3.535-7.64,7.526-15.28,11.8-22.749,4.447-7.7,9.008-15,13.741-21.78,8.5-.741,17.1-1.14,25.771-1.14,8.609,0,17.219.4,25.657,1.083q7.1,10.177,13.8,21.666,6.5,11.2,11.859,22.692c-3.592,7.64-7.526,15.28-11.8,22.749Zm18.416-7.412c3.079,7.64,5.7,15.28,7.868,22.692-7.469,1.824-15.337,3.364-23.49,4.561,2.794-4.39,5.587-8.894,8.21-13.513,2.623-4.561,5.074-9.179,7.412-13.741Zm-57.814,60.835a235.049,235.049,0,0,1-15.85-18.245c5.131.228,10.377.4,15.679.4,5.359,0,10.662-.114,15.85-.4A222.542,222.542,0,0,1,315.673,278.694Zm-42.419-33.582c-8.1-1.2-15.907-2.68-23.376-4.5,2.11-7.355,4.732-14.938,7.7-22.521,2.338,4.561,4.789,9.122,7.469,13.684S270.46,240.779,273.253,245.112Zm42.134-118.649a235.058,235.058,0,0,1,15.85,18.245c-5.131-.228-10.377-.4-15.679-.4-5.359,0-10.662.114-15.85.4A222.545,222.545,0,0,1,315.388,126.463ZM273.2,160.045c-2.794,4.39-5.587,8.894-8.21,13.513-2.623,4.561-5.074,9.122-7.412,13.684-3.079-7.64-5.7-15.28-7.868-22.692,7.469-1.767,15.337-3.307,23.49-4.5Zm-51.6,71.383c-20.183-8.609-33.24-19.9-33.24-28.85s13.057-20.3,33.24-28.85c4.9-2.11,10.263-3.991,15.793-5.759a273.84,273.84,0,0,0,12.828,34.722,269.976,269.976,0,0,0-12.657,34.551c-5.645-1.767-11-3.706-15.964-5.816ZM252.272,312.9c-7.754-4.447-11.118-21.381-8.5-43.161.627-5.359,1.653-11,2.908-16.763a276.306,276.306,0,0,0,36.2,6.215A278.116,278.116,0,0,0,306.607,287.7c-18.587,17.276-36.034,26.74-47.893,26.74A13.607,13.607,0,0,1,252.272,312.9Zm135.24-43.446c2.68,21.78-.627,38.713-8.324,43.218a12.689,12.689,0,0,1-6.557,1.482c-11.8,0-29.306-9.408-47.893-26.569a269.287,269.287,0,0,0,23.547-28.451,266.25,266.25,0,0,0,36.262-6.272A159.614,159.614,0,0,1,387.512,269.458Zm21.951-38.029c-4.9,2.11-10.263,3.991-15.793,5.759a273.836,273.836,0,0,0-12.828-34.722A269.98,269.98,0,0,0,393.5,167.913c5.645,1.767,11,3.706,16.021,5.816,20.183,8.609,33.24,19.9,33.24,28.85-.057,8.951-13.114,20.3-33.3,28.85Z" fill="#61dafb"/>
      <circle id="Ellipse_1" data-name="Ellipse 1" cx="26.056" cy="26.056" r="26.056" transform="translate(289.446 176.523)" fill="#61dafb"/>
    </g>
  </g>
</svg>
