<svg xmlns="http://www.w3.org/2000/svg" xmlns:xlink="http://www.w3.org/1999/xlink" width="512" height="513" viewBox="0 0 512 513">
  <defs>
    <clipPath id="clip-swift">
      <rect width="512" height="513"/>
    </clipPath>
  </defs>
  <g id="swift" clip-path="url(#clip-swift)">
    <rect width="512" height="513" fill="#fff"/>
    <g id="Group_3" data-name="Group 3" transform="translate(-123.453 -136.079)">
      <g id="Group_2" data-name="Group 2" transform="translate(254.303 181.079)">
        <path id="Path_1" data-name="Path 1" d="M250.777,69.463q-.015-3.783-.111-7.566a110.17,110.17,0,0,0-1.449-16.469,55.549,55.549,0,0,0-5.164-15.663A52.634,52.634,0,0,0,221.037,6.74a55.588,55.588,0,0,0-15.658-5.159A109.755,109.755,0,0,0,188.9.132c-2.529-.071-5.047-.1-7.571-.117C178.335,0,175.34,0,172.34,0H78.453c-3,0-5.99,0-8.984.015-2.524.02-5.047.051-7.571.117q-2.06.053-4.13.152a95.366,95.366,0,0,0-12.349,1.3A57.312,57.312,0,0,0,33.551,5,52.69,52.69,0,0,0,6.74,29.76,55.442,55.442,0,0,0,1.581,45.424,109.623,109.623,0,0,0,.132,61.892c-.071,2.534-.1,5.052-.117,7.571C0,72.463,0,75.458,0,78.453V172.34c0,3,0,5.995.015,8.989.02,2.524.051,5.047.117,7.566a110.054,110.054,0,0,0,1.449,16.469A55.589,55.589,0,0,0,6.74,221.037a52.6,52.6,0,0,0,23.026,23.026,55.68,55.68,0,0,0,15.658,5.159A109.573,109.573,0,0,0,61.9,250.671c2.524.066,5.047.1,7.571.111,2.99.02,5.985.015,8.984.015H172.34c2.99,0,5.99.005,8.984-.015,2.524-.015,5.042-.046,7.566-.111a110.248,110.248,0,0,0,16.479-1.449,55.59,55.59,0,0,0,15.658-5.159,52.619,52.619,0,0,0,23.021-23.026,55.668,55.668,0,0,0,5.164-15.663,109.517,109.517,0,0,0,1.449-16.474c.066-2.518.1-5.042.111-7.566.02-2.995.015-5.99.015-8.989V78.453c0-2.995,0-5.99-.015-8.989Z" fill="#f05138"/>
        <path id="Path_2" data-name="Path 2" d="M178.519,126.214l-.015-.015c.274-.948.557-1.885.806-2.853,10.408-41.471-15-90.5-57.986-116.316,18.84,25.539,27.166,56.47,19.763,83.52a69.605,69.605,0,0,1-2.326,6.983q-1.837-1.183-3.76-2.225S92.233,68.907,45.887,22.2C44.671,20.975,70.6,59.264,100.031,90.357c-13.864-7.778-52.508-35.9-76.968-58.285A110.968,110.968,0,0,0,33.573,46.56c20.426,25.9,47.07,57.869,78.985,82.415-22.423,13.722-54.109,14.786-85.658.015A129.415,129.415,0,0,1,4.968,115.907a131.345,131.345,0,0,0,58.953,50.547c29.857,12.831,59.541,11.959,81.65.213l-.015.025c.1-.066.228-.132.334-.2.907-.481,1.809-.983,2.686-1.505,10.626-5.513,31.61-11.108,42.87,10.8,2.762,5.366,8.625-23.056-12.922-49.569Z" transform="translate(20.207 28.593)" fill="#fff"/>
      </g>
      <path id="Path_3" data-name="Path 3" d="M83.051,112.227c1.663,14.756,15.74,24.431,35.289,24.431,18.573,0,31.966-9.671,31.966-23.064,0-11.532-8.115-18.573-26.787-23.262l-18.083-4.6c-26-6.447-37.73-18.182-37.73-37.532,0-23.851,20.821-40.369,50.44-40.369C146.88,7.831,167.31,24.448,168,48.4H148.935c-1.466-14.666-13.393-23.658-31.278-23.658-17.7,0-30.01,9.091-30.01,22.381,0,10.359,7.625,16.522,26.391,21.311l15.057,3.911c29.129,7.135,41.053,18.474,41.053,38.9,0,26-20.627,42.325-53.47,42.325-30.5,0-51.317-16.226-52.881-41.349H83.051Zm208.172,39H272.066l-22.385-78h-.387l-22.291,78H207.851L179.5,49.077h18.568l19.746,82.01h.391L240.5,49.077h17.988l22.48,82.01h.391L301.1,49.077h18.375ZM331.842,21.611a11.292,11.292,0,1,1,11.244,11.24,11.227,11.227,0,0,1-11.244-11.24Zm1.96,27.466h18.667V151.225H333.8ZM474.389,64.134V49.077H454.647V24.641H436.07V49.077H400.386V40.085c.095-9.091,3.611-12.9,12.022-12.9a46.268,46.268,0,0,1,7.72.688V13.2a65.161,65.161,0,0,0-9.869-.782c-19.944,0-28.351,8.313-28.351,27.371v9.284h-14.27V64.129h14.27V151.22H400.48V64.134h35.594v60.3c0,19.746,7.522,27.367,27.075,27.367a65.245,65.245,0,0,0,11.145-.778v-15.25a66.019,66.019,0,0,1-7.04.49c-8.7,0-12.607-4.1-12.607-13.294V64.134Z" transform="translate(110.658 450.11)"/>
    </g>
  </g>
</svg>
