<svg xmlns="http://www.w3.org/2000/svg" xmlns:xlink="http://www.w3.org/1999/xlink" width="512" height="513" viewBox="0 0 512 513">
  <defs>
    <clipPath id="clip-java">
      <rect width="512" height="513"/>
    </clipPath>
  </defs>
  <g id="java" clip-path="url(#clip-java)">
    <rect width="512" height="513" fill="#fff"/>
    <g id="java-2" data-name="java" transform="translate(30.388 30.388)">
      <path id="Path_1" data-name="Path 1" d="M0,0H451.979V451.979H0Z" fill="#fff" fill-rule="evenodd"/>
      <path id="Path_2" data-name="Path 2" d="M92.973,119.477s-10.8,6.282,7.691,8.4c22.4,2.558,33.845,2.19,58.525-2.478a101.865,101.865,0,0,0,15.567,7.588C119.416,156.7,49.512,131.618,92.973,119.477ZM86.209,88.532S74.1,97.5,92.6,99.41c23.931,2.471,42.821,2.673,75.529-3.62a33.43,33.43,0,0,0,11.623,7.088C112.853,122.445,38.344,104.418,86.209,88.532Z" transform="translate(95.485 119.06)" fill="#3174b9" fill-rule="evenodd"/>
      <path id="Path_3" data-name="Path 3" d="M108.968,110.541c13.642,15.7-3.576,29.826-3.576,29.826s34.624-17.87,18.721-40.256c-14.847-20.867-26.236-31.233,35.412-66.982C159.523,33.127,62.754,57.288,108.968,110.541Z" transform="translate(129.728 44.553)" fill="#ca3132" fill-rule="evenodd"/>
      <path id="Path_4" data-name="Path 4" d="M242.3,162.321s7.991,6.589-8.8,11.684c-31.934,9.672-132.938,12.589-160.993.385C62.429,170,81.338,163.915,87.287,162.63a38.684,38.684,0,0,1,9.745-1.1c-11.215-7.9-72.493,15.511-31.121,22.227,112.814,18.292,205.651-8.235,176.392-21.439ZM124.07,76.42s-51.37,12.2-18.189,16.641c14.015,1.874,41.933,1.442,67.958-.741,21.263-1.784,42.605-5.6,42.605-5.6a90.891,90.891,0,0,0-12.92,6.915c-52.175,13.724-152.951,7.332-123.936-6.7C104.12,75.07,124.07,76.42,124.07,76.42Zm92.161,51.509c53.033-27.552,28.513-54.034,11.394-50.465a40.313,40.313,0,0,0-6.064,1.63,9.658,9.658,0,0,1,4.53-3.494c33.862-11.9,59.9,35.107-10.918,53.722A4.7,4.7,0,0,0,216.231,127.929Z" transform="translate(69.582 99.106)" fill="#3174b9" fill-rule="evenodd"/>
      <path id="Path_5" data-name="Path 5" d="M145.731,8.5S175.1,37.887,117.872,83.055c-45.891,36.246-10.463,56.907-.014,80.521C91.066,139.409,71.414,118.129,84.6,98.33,103.951,69.265,157.579,55.171,145.731,8.5Z" transform="translate(108.111 11.436)" fill="#ca3132" fill-rule="evenodd"/>
      <path id="Path_6" data-name="Path 6" d="M107.732,143.526c50.9,3.255,129.071-1.808,130.926-25.9,0,0-3.559,9.131-42.069,16.374-43.447,8.179-97.043,7.227-128.82,1.981C67.769,135.985,74.281,141.374,107.732,143.526Z" transform="translate(91.138 158.192)" fill="#3174b9" fill-rule="evenodd"/>
      <path id="Path_7" data-name="Path 7" d="M261.369,160.839h-1.548v-.868H264v.868H262.45v4.333h-1.081Zm8.334.216h-.019l-1.538,4.115h-.706l-1.529-4.115h-.019v4.115h-1.027v-5.2h1.508l1.416,3.679,1.416-3.679H270.7v5.2h-.994v-4.115h0ZM124.455,209.67c-4.8,4.16-9.874,6.5-14.43,6.5-6.49,0-10.012-3.9-10.012-10.139,0-6.755,3.77-11.7,18.862-11.7h5.578V209.67ZM137.7,224.616V178.348c0-11.825-6.744-19.629-23-19.629a60.678,60.678,0,0,0-24.56,5.327l1.946,8.2a57.055,57.055,0,0,1,18.967-3.768c9.365,0,13.4,3.768,13.4,11.569v5.85h-4.68c-22.749,0-33.015,8.826-33.015,22.1,0,11.433,6.765,17.933,19.5,17.933,8.186,0,14.3-3.379,20.011-8.324l1.039,7.018Zm44.216,0H165.4L145.509,159.9h14.43l12.346,39.771,2.748,11.949a249.578,249.578,0,0,0,12.859-51.72h14.031C198.167,181.206,191.4,204.6,181.92,224.616Zm63.4-14.946c-4.814,4.16-9.888,6.5-14.435,6.5-6.49,0-10.008-3.9-10.008-10.139,0-6.755,3.773-11.7,18.855-11.7h5.588Zm13.253,14.946V178.348c0-11.825-6.765-19.629-23.005-19.629A60.677,60.677,0,0,0,211,164.047l1.946,8.2a57.142,57.142,0,0,1,18.984-3.768c9.351,0,13.387,3.768,13.387,11.569v5.85h-4.68c-22.752,0-33.01,8.826-33.01,22.1,0,11.433,6.751,17.933,19.488,17.933,8.193,0,14.3-3.379,20.022-8.324l1.043,7.018Zm-186.339,11c-3.775,5.517-9.881,9.886-16.557,12.35l-6.542-7.705c5.086-2.61,9.443-6.823,11.471-10.744,1.747-3.494,2.476-7.986,2.476-18.74v-73.9H77.16v72.877C77.16,224.137,76.011,229.95,72.231,235.613Z" transform="translate(66.074 184.076)" fill="#ca3132" fill-rule="evenodd"/>
    </g>
  </g>
</svg>
