<svg xmlns="http://www.w3.org/2000/svg" xmlns:xlink="http://www.w3.org/1999/xlink" width="512" height="513" viewBox="0 0 512 513">
  <defs>
    <clipPath id="clip-Artboard_2">
      <rect width="512" height="513"/>
    </clipPath>
  </defs>
  <g id="Artboard_2" data-name="Artboard – 2" clip-path="url(#clip-Artboard_2)">
    <rect width="512" height="513" fill="#fff"/>
    <g id="Group_1" data-name="Group 1" transform="translate(-1021.308 -423.918)">
      <path id="laravel-1" d="M312.612,100.394C310.373,98.156,281.647,61.969,276.8,56c-5.223-5.969-7.461-4.85-10.819-4.477s-39.545,6.715-43.648,7.088c-4.1.746-6.715,2.238-4.1,5.969,2.238,3.358,26.114,36.933,31.337,44.768L154.433,132.1,79.074,5.636C76.09,1.159,75.343-.333,68.628.04S9.311,4.89,5.581,4.89c-3.731.373-7.834,1.865-4.1,10.819S64.9,153,66.39,156.727s5.969,9.7,16.042,7.461c10.446-2.611,46.26-11.938,66.032-17.161,10.446,18.653,31.337,56.706,35.441,62.3,5.223,7.461,8.954,5.969,16.788,3.731,6.342-1.865,97.743-34.695,101.846-36.56s6.715-2.984,3.731-7.088c-2.238-2.984-26.114-35.441-38.8-52.229,8.58-2.238,39.545-10.446,42.9-11.565,3.731-1.119,4.477-2.984,2.238-5.223ZM139.883,135.835c-1.119.373-54.467,13.057-57.079,13.8-2.985.746-2.985.373-2.985-.746C79.074,147.773,16.4,17.947,15.28,16.455c-.746-1.492-.746-2.985,0-2.985S65.644,8.994,67.136,8.994c1.865,0,1.492.373,2.238,1.492,0,0,69.763,120.5,70.882,122.365,1.492,1.865.746,2.611-.373,2.985Zm149.971,27.98c.746,1.492,1.865,2.238-1.119,2.985-2.611,1.119-89.908,30.591-91.774,31.337s-2.984,1.119-5.223-2.238-30.591-52.229-30.591-52.229l92.893-24.249c2.238-.746,2.985-1.119,4.477,1.119,1.492,2.611,30.591,42.156,31.337,43.275Zm5.969-65.659c-2.238.373-36.187,8.954-36.187,8.954l-27.98-38.052c-.746-1.119-1.492-2.238.373-2.611S265.606,60.476,267.1,60.1s2.611-.746,4.477,1.865c1.865,2.238,25.741,32.83,26.861,33.949S298.062,97.783,295.824,98.156Z" transform="translate(1118.223 489.015)" fill="#fb503b"/>
      <path id="laravel-wordmark-1" d="M16.564,0V85.991H47.677V100.8H0V0ZM106.1,42.753V33.688h15.743v67.151H106.174v-9.1a21.565,21.565,0,0,1-9.028,7.834,25.68,25.68,0,0,1-11.751,2.91,34.2,34.2,0,0,1-13.99-2.8A32.68,32.68,0,0,1,60.511,92a35.814,35.814,0,0,1-7.088-11.192A37.47,37.47,0,0,1,53.46,53.8a35.665,35.665,0,0,1,7.088-11.341,32.718,32.718,0,0,1,10.819-7.76,34.576,34.576,0,0,1,13.99-2.8,26.447,26.447,0,0,1,11.714,2.873,21.571,21.571,0,0,1,8.954,7.909Zm-1.418,32.718a23.5,23.5,0,0,0,1.492-8.207,23.2,23.2,0,0,0-1.492-8.207,20.817,20.817,0,0,0-4.029-6.827,19.511,19.511,0,0,0-6.267-4.551,19.25,19.25,0,0,0-8.133-1.753,18.269,18.269,0,0,0-8.058,1.791A18.833,18.833,0,0,0,68.047,59.056a24.473,24.473,0,0,0-1.38,8.207,24.153,24.153,0,0,0,1.38,8.207A18.839,18.839,0,0,0,72,82.186a19.7,19.7,0,0,0,6.193,4.663,19.952,19.952,0,0,0,16.191,0,19.474,19.474,0,0,0,6.267-4.626,20.817,20.817,0,0,0,4.029-6.715Zm29.547,25.368V33.688h42.6V49.132H149.9V100.8H134.228Zm99.5-58.086V33.688h15.669v67.151H233.724v-9.1a21.133,21.133,0,0,1-8.954,7.834,25.827,25.827,0,0,1-11.789,2.91,34.2,34.2,0,0,1-13.99-2.8A32.68,32.68,0,0,1,188.1,92a35.815,35.815,0,0,1-7.088-11.192,38,38,0,0,1,.037-27.01,35.665,35.665,0,0,1,7.088-11.341,32.717,32.717,0,0,1,10.819-7.76,34.577,34.577,0,0,1,13.99-2.8,26.447,26.447,0,0,1,11.714,2.873,21.344,21.344,0,0,1,8.954,7.909Zm-1.418,32.718a23.5,23.5,0,0,0,1.418-8.207,24.021,24.021,0,0,0-1.418-8.207,20.817,20.817,0,0,0-3.992-6.827,19.511,19.511,0,0,0-6.342-4.551,19.2,19.2,0,0,0-8.1-1.753,18.552,18.552,0,0,0-8.1,1.791,18.833,18.833,0,0,0-10.147,11.341,24.473,24.473,0,0,0-1.343,8.207,25.074,25.074,0,0,0,1.343,8.207,19.4,19.4,0,0,0,3.954,6.715,19.7,19.7,0,0,0,6.193,4.663,19.064,19.064,0,0,0,8.1,1.716,18.8,18.8,0,0,0,8.133-1.716,19.474,19.474,0,0,0,6.342-4.626,20.817,20.817,0,0,0,3.992-6.715Zm80.059-41.783H328.3l-25.741,67.151H282.782L257.04,33.688H272.9L292.668,85.1l19.7-51.371Zm50.14-1.716c21.376,0,35.963,18.952,33.2,41.112H343.591c0,5.745,5.894,16.937,19.772,16.937,11.938,0,19.959-10.446,19.959-10.446l10.6,8.207c-9.513,10.073-17.273,14.736-29.472,14.736-21.712,0-36.411-13.8-36.411-35.329,0-19.511,15.221-35.292,34.434-35.292Zm-18.84,29.472h37.679c-.149-1.306-2.238-17.012-18.952-17.012C345.606,44.432,343.815,60.175,343.666,61.443Zm62.3,39.284V0h15.669V100.8H405.967Z" transform="translate(1066 768.797)" fill="#ff2d20"/>
    </g>
  </g>
</svg>
