<svg xmlns="http://www.w3.org/2000/svg" xmlns:xlink="http://www.w3.org/1999/xlink" width="512" height="513" viewBox="0 0 512 513">
  <defs>
    <clipPath id="clip-node">
      <rect width="512" height="513"/>
    </clipPath>
  </defs>
  <g id="node" clip-path="url(#clip-node)">
    <rect width="512" height="513" fill="#fff"/>
    <g id="nodejs" transform="translate(54.143 189.95)">
      <g id="Group_2" data-name="Group 2" transform="translate(-344.359 -182.561)">
        <path id="Path_8" data-name="Path 8" d="M535.408,51.611a18.233,18.233,0,0,0-9.067,2.22L439.18,104.166a18.372,18.372,0,0,0-9.069,15.918V220.572a18.379,18.379,0,0,0,9.069,15.913l22.763,13.141c11.06,5.45,15.137,5.365,20.17,5.365,16.374,0,25.723-9.936,25.723-27.2V128.6a2.489,2.489,0,0,0-2.59-2.4H494.328a2.475,2.475,0,0,0-2.59,2.4v99.194c0,7.652-7.973,15.35-20.911,8.881l-23.689-13.879a2.612,2.612,0,0,1-1.482-2.22V120.082a2.934,2.934,0,0,1,1.482-2.4l86.976-50.147a2.567,2.567,0,0,1,2.59,0l86.979,50.15a2.954,2.954,0,0,1,1.482,2.407V220.575a2.794,2.794,0,0,1-1.3,2.4L536.7,273.129a2.678,2.678,0,0,1-2.59,0l-22.392-13.323a2.328,2.328,0,0,0-2.22,0,57.658,57.658,0,0,1-13.141,5.921c-1.427.5-3.6,1.273.741,3.7l29.239,17.207a18.289,18.289,0,0,0,18.136,0l87.164-50.153a18.4,18.4,0,0,0,9.066-15.913V120.084a18.373,18.373,0,0,0-9.066-15.913L544.477,53.836a18.142,18.142,0,0,0-9.067-2.222Z" transform="translate(0 0)" fill="#83cd29"/>
        <path id="Path_9" data-name="Path 9" d="M506.13,79.528c-24.82,0-39.6,10.563-39.6,28.131,0,19.054,14.671,24.29,38.493,26.647,28.5,2.791,30.718,6.975,30.718,12.585,0,9.73-7.757,13.879-26.091,13.879-23.038,0-28.1-5.751-29.795-17.21a2.512,2.512,0,0,0-2.407-2.222H466.158a2.644,2.644,0,0,0-2.59,2.593c0,14.668,7.979,32.014,46.081,32.014,27.58,0,43.488-10.826,43.488-29.795,0-18.8-12.85-23.851-39.6-27.387-27.032-3.578-29.609-5.329-29.609-11.659,0-5.226,2.186-12.217,22.207-12.217,17.886,0,24.5,3.858,27.2,15.918a2.53,2.53,0,0,0,2.4,2.035h11.291a2.733,2.733,0,0,0,1.849-.926,2.426,2.426,0,0,0,.741-1.849c-1.749-20.767-15.6-30.535-43.491-30.535Z" transform="translate(52.596 43.887)" fill="#83cd29"/>
      </g>
      <path id="Path_10" data-name="Path 10" d="M271.821.383a2.153,2.153,0,0,0-2.159,2.158V57.583a1.456,1.456,0,0,1-.719,1.295,1.5,1.5,0,0,1-1.511,0l-8.994-5.18a4.31,4.31,0,0,0-4.317,0l-35.9,20.721a4.421,4.421,0,0,0-2.158,3.814v41.443a4.307,4.307,0,0,0,2.158,3.741l35.9,20.722a4.3,4.3,0,0,0,4.317,0l35.9-20.722a4.308,4.308,0,0,0,2.159-3.741V16.356a4.386,4.386,0,0,0-2.23-3.814L272.9.6a2.1,2.1,0,0,0-1.079-.215ZM40.861,52.115a4.055,4.055,0,0,0-1.942.5L3.015,73.34A4.3,4.3,0,0,0,.857,77.081L.929,132.7a2.123,2.123,0,0,0,1.079,1.87,2.1,2.1,0,0,0,2.159,0l21.3-12.231a4.4,4.4,0,0,0,2.23-3.742V92.623a4.3,4.3,0,0,1,2.159-3.742l9.065-5.252a4.332,4.332,0,0,1,4.317,0L52.3,88.881a4.3,4.3,0,0,1,2.159,3.742V118.6a4.4,4.4,0,0,0,2.23,3.742l21.3,12.232a2.1,2.1,0,0,0,2.159,0,2.164,2.164,0,0,0,1.08-1.871l.07-55.618a4.28,4.28,0,0,0-2.158-3.741l-35.9-20.722a4.031,4.031,0,0,0-1.942-.5Zm322.624.5a4.307,4.307,0,0,0-2.158.576l-35.9,20.722a4.306,4.306,0,0,0-2.159,3.741V119.1a4.335,4.335,0,0,0,2.23,3.742l35.616,20.29a4.319,4.319,0,0,0,4.245.07l21.585-12.015a2.181,2.181,0,0,0,1.151-1.87,2.126,2.126,0,0,0-1.079-1.871l-36.119-20.722a2.325,2.325,0,0,1-1.151-1.943V91.831a2.22,2.22,0,0,1,1.151-1.871l11.224-6.476a2.155,2.155,0,0,1,2.159,0L375.5,89.96a2.152,2.152,0,0,1,1.08,1.87v10.217a2.158,2.158,0,0,0,3.237,1.87L401.331,91.4a4.325,4.325,0,0,0,2.159-3.742v-10a4.319,4.319,0,0,0-2.159-3.742L365.644,53.194a4.279,4.279,0,0,0-2.159-.575ZM256.135,83.557a1.2,1.2,0,0,1,.576.143l12.3,7.123a1.116,1.116,0,0,1,.576.935V106a1.111,1.111,0,0,1-.576.936l-12.3,7.123a1.088,1.088,0,0,1-1.079,0l-12.3-7.123a1.114,1.114,0,0,1-.576-.936V91.758a1.117,1.117,0,0,1,.576-.935l12.3-7.122a.948.948,0,0,1,.5-.143h0Z" transform="translate(0 120)" fill="#404137"/>
      <path id="Path_11" data-name="Path 11" d="M148.714,52.4a4.3,4.3,0,0,0-2.158.576l-35.9,20.65a4.418,4.418,0,0,0-2.159,3.813v41.443a4.306,4.306,0,0,0,2.159,3.742l35.9,20.721a4.3,4.3,0,0,0,4.317,0l35.9-20.721a4.308,4.308,0,0,0,2.158-3.742V77.441a4.417,4.417,0,0,0-2.158-3.813l-35.9-20.65a4.3,4.3,0,0,0-2.159-.576Zm214.7,36.983a.882.882,0,0,0-.431.072l-6.907,4.029a.84.84,0,0,0-.432.72v7.914a.841.841,0,0,0,.432.72l6.907,3.957a.751.751,0,0,0,.791,0l6.907-3.958a.846.846,0,0,0,.432-.719V94.205a.846.846,0,0,0-.432-.719l-6.907-4.03a.6.6,0,0,0-.36-.07Z" transform="translate(0 120)" fill="#83cd29"/>
    </g>
  </g>
</svg>
