<svg xmlns="http://www.w3.org/2000/svg" xmlns:xlink="http://www.w3.org/1999/xlink" width="512" height="513" viewBox="0 0 512 513">
  <defs>
    <clipPath id="clip-php">
      <rect width="512" height="513"/>
    </clipPath>
  </defs>
  <g id="php" clip-path="url(#clip-php)">
    <rect width="512" height="513" fill="#fff"/>
    <g id="php-1" transform="translate(43.775 145.873)">
      <ellipse id="Ellipse_1" data-name="Ellipse 1" cx="212.52" cy="110.627" rx="212.52" ry="110.627" transform="translate(0 0)" fill="#8993be"/>
      <path id="Path_12" data-name="Path 12" d="M35.945,165.13,59.236,47.224h53.856c23.289,1.456,34.935,13.1,34.935,33.48,0,34.935-27.656,55.313-52.4,53.857h-26.2L63.6,165.13Zm39.3-52.4,7.279-43.67h18.923c10.189,0,17.467,4.367,17.467,13.1-1.454,24.747-13.1,29.114-26.2,30.57H75.248Zm67.369,21.833L165.9,16.658h27.658l-5.823,30.566h26.2c23.291,1.456,32.024,13.1,29.114,27.658l-10.189,59.68H203.751L213.941,80.7c1.454-7.279,1.454-11.645-8.733-11.645H183.373l-13.1,65.5ZM231,165.13,254.288,47.224h53.857c23.291,1.456,34.936,13.1,34.936,33.48,0,34.935-27.658,55.313-52.4,53.857h-26.2l-5.823,30.568Zm39.3-52.4,7.279-43.67H296.5c10.189,0,17.467,4.367,17.467,13.1-1.454,24.747-13.1,29.114-26.2,30.57H270.3Z" transform="translate(23.735 11)" fill="#232531" fill-rule="evenodd"/>
    </g>
  </g>
</svg>
