<svg xmlns="http://www.w3.org/2000/svg" xmlns:xlink="http://www.w3.org/1999/xlink" width="512" height="513" viewBox="0 0 512 513">
  <defs>
    <linearGradient id="linear-gradient" x1="13.33" y1="-28.142" x2="13.411" y2="-28.21" gradientUnits="objectBoundingBox">
      <stop offset="0" stop-color="#5ca0d5"/>
      <stop offset="1" stop-color="#316a99"/>
    </linearGradient>
    <linearGradient id="linear-gradient-2" x1="13.039" y1="-28.376" x2="13.01" y2="-28.336" gradientUnits="objectBoundingBox">
      <stop offset="0" stop-color="#ffd43e"/>
      <stop offset="1" stop-color="#ffe975"/>
    </linearGradient>
    <radialGradient id="radial-gradient" cx="0.5" cy="0.417" r="0.498" gradientTransform="matrix(0, -1, -0.854, 0, -181.602, -195.376)" gradientUnits="objectBoundingBox">
      <stop offset="0" stop-color="#b8b8b8" stop-opacity="0.498"/>
      <stop offset="1" stop-color="#7f8080" stop-opacity="0"/>
    </radialGradient>
    <clipPath id="clip-python">
      <rect width="512" height="513"/>
    </clipPath>
  </defs>
  <g id="python" clip-path="url(#clip-python)">
    <rect width="512" height="513" fill="#fff"/>
    <g id="python-4" transform="translate(66.776 44.449)">
      <path id="Path_13" data-name="Path 13" d="M41.326,1687.984c0-16.777-4.786-25.148-14.376-25.458a27.927,27.927,0,0,0-11.082,1.8,13.483,13.483,0,0,0-5.7,3v39.525q8.98,5.841,16.177,5.386C36.231,1711.332,41.326,1703.251,41.326,1687.984Zm11.683.6c0,8.389-1.8,15.268-5.987,20.964a21.454,21.454,0,0,1-18.561,9.59c-5.987.291-11.974-1.8-18.27-5.7v35.94L0,1745.779V1665.82a27.168,27.168,0,0,1,6.3-5.386c5.987-3.586,13.484-5.386,21.855-5.386a20.955,20.955,0,0,1,18.27,9.589c4.477,6.878,6.587,14.358,6.587,23.948Zm61.98,23.657c0,11.374-1.2,19.162-3.294,23.366-2.4,4.185-6.587,7.788-12.884,10.482a45.252,45.252,0,0,1-16.778,3.294l-1.8-6.3a127.224,127.224,0,0,0,12.884-2.4c4.786-1.8,8.389-4.185,10.172-7.788,1.492-2.693,2.093-8.08,2.093-15.868v-2.693a50.49,50.49,0,0,1-21.855,4.787,18.808,18.808,0,0,1-13.175-4.787,16.067,16.067,0,0,1-6.3-13.175v-42.218l10.172-3.585v42.527c0,4.495,1.492,8.079,4.495,10.482s6.587,3.585,11.373,3.585,9.59-1.8,14.976-5.386V1656.83h10.172Zm39.525,6.587H151.22c-5.7,0-10.172-1.492-13.484-4.185-3.294-2.693-4.786-6.587-4.786-11.373v-40.125h-6.879v-6.314h6.879v-17.069l10.172-3.585v20.654H154.5v6.3H143.122v39.525c0,3.894.892,6.587,3,8.079,1.8,1.2,4.495,2.093,8.389,2.4Zm61.689-.909H206.031v-39.234a18.354,18.354,0,0,0-2.693-10.172,9.913,9.913,0,0,0-8.99-4.787c-4.786,0-10.482,2.4-17.36,7.48v47.021H166.815v-93.734l10.172-3.294v42.527a35.076,35.076,0,0,1,21.255-7.188,17.626,17.626,0,0,1,13.175,5.387,19.281,19.281,0,0,1,5.1,13.484Zm53.9-31.736c0-6.3-1.2-11.683-3.585-15.869-3-5.095-7.188-7.788-13.484-8.08-11.082.6-16.778,8.68-16.778,23.948,0,7.188,1.2,12.883,3.585,17.669,3,5.988,7.479,8.989,13.484,8.989C264.408,1712.533,270.1,1703.852,270.1,1686.183Zm11.082,0c0,8.989-2.4,16.778-6.879,22.764a25.56,25.56,0,0,1-20.963,10.173c-8.99,0-15.868-3.294-20.963-10.173-4.495-5.986-6.879-13.484-6.879-22.764,0-8.681,2.4-15.869,7.479-21.564a25.24,25.24,0,0,1,20.363-9.281c8.389,0,15.268,3,20.654,9.281Q281.177,1673.6,281.186,1686.183Zm58.4,31.736H329.409v-41.327c0-4.495-1.492-8.079-4.185-10.481a14.557,14.557,0,0,0-11.082-3.585,24.059,24.059,0,0,0-13.775,4.786v51.207H290.194v-52.408c5.7-4.185,11.082-7.188,16.177-8.389a50.393,50.393,0,0,1,12.283-1.8,47.4,47.4,0,0,1,6.879.6,19.672,19.672,0,0,1,9.59,5.1,14.266,14.266,0,0,1,4.185,10.172Z" transform="translate(0 -1326.185)" fill="#656565"/>
      <path id="Path_14" data-name="Path 14" d="M391.322.053a149.027,149.027,0,0,0-26.95,2.4C340.424,6.641,336.22,15.339,336.22,31.808V53.372h56.3V60.56H315.257c-16.178,0-30.535,9.881-35.03,28.443-5.1,21.564-5.387,34.739,0,57.194,3.894,16.778,13.484,28.443,29.953,28.443h19.471V148.89c0-18.561,16.177-35.03,35.03-35.03h55.993c15.577,0,28.151-12.884,28.151-28.752V31.5c0-15.268-12.884-26.659-28.151-29.352A164.731,164.731,0,0,0,391.322.053ZM360.769,17.122A10.777,10.777,0,1,1,350.287,27.9,10.482,10.482,0,0,1,360.769,17.122Z" transform="translate(-226.017)" fill="url(#linear-gradient)"/>
      <path id="Path_15" data-name="Path 15" d="M725.084,329.4v24.858c0,19.471-16.469,35.631-35.339,35.631H633.751c-15.268,0-28.151,13.175-28.151,28.752V472.25c0,15.268,13.175,24.257,28.151,28.752,17.67,5.386,34.739,6.3,56.3,0,14.067-4.185,28.151-12.283,28.151-28.752V450.686H661.884V443.5h84.454c16.177,0,22.456-11.373,28.151-28.442,5.987-17.67,5.7-34.43,0-57.194-3.894-16.178-11.683-28.443-28.151-28.443ZM693.329,465.061a10.777,10.777,0,1,1-10.482,10.773A10.667,10.667,0,0,1,693.329,465.061Z" transform="translate(-495.397 -269.459)" fill="url(#linear-gradient-2)"/>
      <path id="Path_16" data-name="Path 16" d="M1954.185,1711.174h1.8v-11.082h4.186V1698.6H1950v1.492h4.185Zm7.79,0h1.493V1701l3.293,10.172h1.8l3.293-10.172v10.172h1.8V1698.6h-2.093l-3.895,10.773-3.293-10.773h-2.4Z" transform="translate(-1595.151 -1389.501)" fill="#656565"/>
      <path id="Path_17" data-name="Path 17" d="M654.429,1405.567c0,8.079-33.829,14.667-75.464,14.667s-75.465-6.587-75.465-14.667,33.829-14.667,75.465-14.667,75.464,6.569,75.464,14.667Z" transform="translate(-411.876 -1137.794)" opacity="0.444" fill="url(#radial-gradient)"/>
    </g>
  </g>
</svg>
