<svg xmlns="http://www.w3.org/2000/svg" xmlns:xlink="http://www.w3.org/1999/xlink" width="512" height="513" viewBox="0 0 512 513">
  <defs>
    <clipPath id="clip-rails">
      <rect width="512" height="513"/>
    </clipPath>
  </defs>
  <g id="rails" clip-path="url(#clip-rails)">
    <rect width="512" height="513" fill="#fff"/>
    <g id="rails-1" transform="translate(46.992 183.012)">
      <path id="Path_18" data-name="Path 18" d="M356.728,124.072v19.111h34.527c7.074,0,19.217-5.174,19.639-19.639v-7.391c0-12.354-10.136-19.639-19.639-19.639H374.044V87.645h34.1V68.428H375.417c-8.447,0-19.745,6.969-19.745,19.956v6.652c0,12.987,11.192,19.639,19.745,19.639,23.757.106-5.7,0,16.26,0v9.292m-219.937-4.54s18.478-1.584,18.478-25.446S167.834,67.9,167.834,67.9H127.5v75.283h20.273V125.022L165.3,143.183h29.987Zm-7.813-15.416H147.773V86.8h16.26s4.54,1.689,4.54,8.553-4.646,8.658-4.646,8.658Zm76.339-35.583H219.677c-14.677,0-19.639,13.3-19.639,19.639v55.116h20.589v-13.2H239.95v13.2h19.956V88.067C259.905,72.018,245.335,68.428,240.266,68.428Zm-.317,40.228H220.522V90.39s0-4.118,6.441-4.118h7.074c5.7,0,5.807,4.118,5.807,4.118v18.266h.106ZM269.3,68.428h21.434v74.755H269.3Zm51.526,55.433V68.428H299.5v74.755h50.154V123.861Z" transform="translate(7.123 3.793)" fill="#c00"/>
      <path id="Path_19" data-name="Path 19" d="M7,146.415H90.413S74.47,73.666,127.263,44.207c11.509-5.6,48.147-26.5,108.121,17.844,1.9-1.584,3.7-2.851,3.7-2.851s-54.9-54.8-116.04-48.675c-30.726,2.745-68.526,30.726-90.7,67.681S7,146.415,7,146.415Z" transform="translate(0.391 0.561)" fill="#c00"/>
      <path id="Path_20" data-name="Path 20" d="M7,146.415H90.413S74.47,73.666,127.263,44.207c11.509-5.6,48.147-26.5,108.121,17.844,1.9-1.584,3.7-2.851,3.7-2.851s-54.9-54.8-116.04-48.675c-30.726,2.745-68.526,30.726-90.7,67.681S7,146.415,7,146.415Z" transform="translate(0.391 0.561)" fill="#c00"/>
      <path id="Path_21" data-name="Path 21" d="M7,146.647H90.413S74.47,73.9,127.263,44.439c11.509-5.6,48.147-26.5,108.121,17.844,1.9-1.584,3.7-2.851,3.7-2.851s-54.9-54.8-116.04-48.675C92.208,13.5,54.408,41.483,32.235,78.438S7,146.647,7,146.647ZM180.8,16.67l.422-7.074c-.95-.528-3.59-1.795-10.242-3.7l-.422,6.969C174.038,14.03,177.417,15.3,180.8,16.67Z" transform="translate(0.391 0.33)" fill="#c00"/>
      <path id="Path_22" data-name="Path 22" d="M171.156,39.384l-.422,6.652A58.879,58.879,0,0,1,181.186,47.3l.422-6.546A74.77,74.77,0,0,0,171.156,39.384ZM132.089,6.441h1.056L131.033,0A84.248,84.248,0,0,0,120.9.634l2.006,6.23A89.139,89.139,0,0,1,132.089,6.441ZM137.157,45.3l2.428,7.285a66.8,66.8,0,0,1,9.186-3.7l-2.323-6.969a76.607,76.607,0,0,0-9.292,3.379ZM89.221,17.527l-4.751-7.285c-2.64,1.373-5.385,2.851-8.236,4.54l4.857,7.391c2.745-1.689,5.385-3.273,8.13-4.646Zm21.645,47.514,5.068,7.6a58.628,58.628,0,0,1,6.23-7.5l-4.751-7.18a58.412,58.412,0,0,0-6.546,7.074Zm-15.31,34,8.553,6.758a84.322,84.322,0,0,1,2.217-12.354l-7.6-6.018A100.39,100.39,0,0,0,95.556,99.04ZM49.309,48.887l-7.5-6.546C39.067,44.98,36.427,47.62,34,50.259l8.13,6.969a106.932,106.932,0,0,1,7.18-8.341Zm-31.887,47.2L5.279,91.649c-2.006,4.54-4.223,9.82-5.279,12.67l12.142,4.435C13.515,105.164,15.732,99.99,17.422,96.084Zm76.55,29.775a107.267,107.267,0,0,0,1.267,13.3l12.67,4.54a139.556,139.556,0,0,1-2.534-13.726Z" fill="#c00"/>
    </g>
  </g>
</svg>
